<?xml version="1.0" encoding="UTF-8"?>
<svg width="20px" height="20px" viewBox="0 0 20 20" version="1.1" xmlns="http://www.w3.org/2000/svg" xmlns:xlink="http://www.w3.org/1999/xlink">
    <!-- Generator: Sketch 49 (51002) - http://www.bohemiancoding.com/sketch -->
    <title>laud / logos / licence nd</title>
    <desc>Created with Sketch.</desc>
    <defs></defs>
    <g id="laud-/-logos-/-licence-nd" stroke="none" stroke-width="1" fill="none" fill-rule="evenodd">
        <g id="ND" transform="translate(2.000000, 1.000000)" fill-rule="nonzero">
            <path d="M15.518,8.65785714 C15.518,11.2835679 14.1336801,13.7098246 11.8865,15.02268 C9.63931999,16.3355354 6.87068001,16.3355354 4.62349997,15.02268 C2.37631993,13.7098246 0.991999961,11.2835679 0.992,8.65785714 C0.991999945,6.03214641 2.37631991,3.60588962 4.62349996,2.29303424 C6.87068,0.980178857 9.63932,0.980178857 11.8865,2.29303424 C14.1336801,3.60588962 15.5180001,6.03214641 15.518,8.65785714" id="Shape" fill="#FFFFFF"></path>
            <path d="M8.174,2.04607143 C9.91722738,2.01390001 11.594399,2.72049051 12.8,3.995 C14.0086405,5.2323509 14.6597863,6.91912848 14.6,8.65785714 C14.6924815,10.4128048 14.0371489,12.123691 12.8,13.3571429 C11.5635738,14.5702968 9.89556061,15.2270558 8.174,15.1785714 C6.45645792,15.2347457 4.79115269,14.5764916 3.566,13.3571429 C2.30182844,12.132868 1.60314224,10.4281297 1.64,8.65785714 C1.62872334,6.89958679 2.33155199,5.21378968 3.584,3.995 C4.7759435,2.72237432 6.44151938,2.01516551 8.174,2.04607143 Z M8.174,0.607142857 C6.05694075,0.555615469 4.01473233,1.40071008 2.54,2.93857143 C1.02058022,4.44143995 0.175065861,6.50799473 0.2,8.65785714 C0.170049832,10.7980355 1.01713585,12.8552444 2.54,14.3407143 C4.0036908,15.8770618 6.02922782,16.7338289 8.138,16.7085714 C10.2818725,16.7333433 12.3428405,15.8715107 13.844,14.3225 C15.344951,12.8351681 16.1666246,10.782925 16.112,8.65785714 C16.1592065,6.51094581 15.3250285,4.44024176 13.808,2.93857143 C12.3172295,1.40251087 10.2650625,0.55868712 8.138,0.607142857 L8.174,0.607142857 Z" id="Shape" fill="#000000"></path>
            <path d="M11.162,9.33178571 L5.384,9.33178571 L5.384,10.7160714 L11.162,10.7160714 L11.162,9.33178571 Z M11.162,6.74535714 L5.384,6.74535714 L5.384,8.12964286 L11.162,8.12964286 L11.162,6.74535714 Z" id="Shape" fill="#000000"></path>
        </g>
    </g>
</svg>