<?xml version="1.0" encoding="UTF-8"?>
<svg width="20px" height="20px" viewBox="0 0 20 20" version="1.1" xmlns="http://www.w3.org/2000/svg" xmlns:xlink="http://www.w3.org/1999/xlink">
    <!-- Generator: Sketch 49 (51002) - http://www.bohemiancoding.com/sketch -->
    <title>laud / logos / license cc</title>
    <desc>Created with Sketch.</desc>
    <defs></defs>
    <g id="laud-/-logos-/-license-cc" stroke="none" stroke-width="1" fill="none" fill-rule="evenodd">
        <g id="by_small" fill-rule="nonzero">
            <g id="g3693">
                <g id="g3701-Clipped" transform="translate(0.234377, 0.083380)">
                    <g id="g3701">
                        <g id="Group">
                            <path d="M18.0609301,9.87149433 C18.0638964,14.4660269 14.3222199,18.192507 9.70449033,18.1954701 C5.08674886,18.1984095 1.34061093,14.4760731 1.33792933,9.88157588 C1.33792933,9.87830587 1.33792933,9.87504766 1.33792933,9.87149433 C1.33524773,5.27696173 5.0766276,1.55048166 9.69436907,1.5478019 C14.3127038,1.54486243 18.0582485,5.26721072 18.0609301,9.86174331 C18.0609301,9.86467098 18.0609301,9.86822431 18.0609301,9.87149433 Z" id="path3703" fill="#FFFFFF"></path>
                            <path d="M16.4965716,3.0956038 C18.3507566,4.94033935 19.2779856,7.19956371 19.2779856,9.87149433 C19.2779856,12.5440034 18.3668225,14.7789565 16.5444963,16.5763064 C14.6105633,18.4693248 12.3248896,19.4155152 9.68751081,19.4155152 C7.08196715,19.4155152 4.8358886,18.4770099 2.94986845,16.6000228 C1.06355166,14.7232954 0.120529721,12.4806572 0.120529721,9.87149433 C0.120529721,7.26290987 1.06355166,5.00427576 2.94986845,3.0956038 C4.78797574,1.250278 7.03405429,0.327756759 9.68751081,0.327756759 C12.3731228,0.327756759 14.6424221,1.25026619 16.4965716,3.0956038 Z M4.19818954,4.33666202 C2.63057989,5.91199341 1.84706578,7.75731921 1.84706578,9.87412686 C1.84706578,11.9903679 2.62284359,13.8200165 4.17409072,15.3630728 C5.72562262,16.9067075 7.57266462,17.6782415 9.71578628,17.6782415 C11.8589198,17.6782415 13.7217073,16.8990223 15.3050981,15.3396869 C16.8084442,13.8913547 17.560408,12.0703238 17.560408,9.87412686 C17.560408,7.6945515 16.7962346,5.84451546 15.2687897,4.32484511 C13.7416414,2.80546989 11.8907431,2.04546944 9.71578628,2.04546944 C7.5408295,2.04548125 5.70123903,2.80931835 4.19818954,4.33666202 Z M8.32344184,8.94305873 C8.08390127,8.42346912 7.72533792,8.16352085 7.24712295,8.16352085 C6.40171842,8.16352085 5.97916448,8.72988226 5.97916448,9.86202664 C5.97916448,10.9944189 6.40171842,11.5602019 7.24712295,11.5602019 C7.80538254,11.5602019 8.20412244,11.2845882 8.44337825,10.732145 L9.61521436,11.3529752 C9.05665813,12.34033 8.21870513,12.8341255 7.10131977,12.8341255 C6.23956459,12.8341255 5.5491946,12.5712378 5.03081493,12.0460289 C4.51154535,11.5202416 4.25266401,10.7954912 4.25266401,9.87149433 C4.25266401,8.96376488 4.51987492,8.24315804 5.05461711,7.70939051 C5.58935929,7.17558756 6.2553101,6.90881594 7.05370354,6.90881594 C8.23477101,6.90881594 9.08046031,7.37187093 9.59169695,8.29703651 L8.32344184,8.94305873 Z M13.836589,8.94305873 C13.59674,8.42346912 13.2453196,8.16352085 12.7819721,8.16352085 C11.9196118,8.16352085 11.4881231,8.72988226 11.4881231,9.86202664 C11.4881231,10.9944189 11.9196118,11.5602019 12.7819721,11.5602019 C13.3411335,11.5602019 13.7327185,11.2845882 13.9562169,10.732145 L15.1542402,11.3529752 C14.5965739,12.34033 13.7597956,12.8341255 12.6444985,12.8341255 C11.783918,12.8341255 11.0950431,12.5712378 10.5769601,12.0460289 C10.0597788,11.5202416 9.80061269,10.7954912 9.80061269,9.87149433 C9.80061269,8.96376488 10.0636469,8.24315804 10.5894663,7.70939051 C11.1149771,7.17558756 11.7839299,6.90881594 12.596906,6.90881594 C13.7758852,6.90881594 14.6203879,7.37187093 15.1298329,8.29703651 L13.836589,8.94305873 Z" id="path3705" fill="#000000"></path>
                        </g>
                    </g>
                </g>
            </g>
        </g>
    </g>
</svg>