<?xml version="1.0" encoding="UTF-8"?>
<svg width="20px" height="20px" viewBox="0 0 20 20" version="1.1" xmlns="http://www.w3.org/2000/svg" xmlns:xlink="http://www.w3.org/1999/xlink">
    <!-- Generator: Sketch 49 (51002) - http://www.bohemiancoding.com/sketch -->
    <title>laud / logos / licence nc</title>
    <desc>Created with Sketch.</desc>
    <defs></defs>
    <g id="laud-/-logos-/-licence-nc" stroke="none" stroke-width="1" fill="none" fill-rule="evenodd">
        <g id="NC-Copy" transform="translate(1.000000, 1.000000)" fill-rule="nonzero">
            <path d="M16.1644444,8.756 C16.1644444,12.8467731 12.8891587,16.163 8.84888889,16.163 C4.80861912,16.163 1.53333333,12.8467731 1.53333333,8.756 C1.53333333,4.66522686 4.80861912,1.349 8.84888889,1.349 C12.8891587,1.349 16.1644444,4.66522686 16.1644444,8.756" id="Shape" fill="#FFFFFF"></path>
            <path d="M8.87555556,2.24 C7.16715717,2.20478991 5.52255139,2.89697546 4.34222222,4.148 C4.01938354,4.47985279 3.72775513,4.8414125 3.47111111,5.228 L6.47555556,6.578 C6.79068993,5.72377974 7.60169219,5.16194726 8.50222222,5.174 L8.50222222,3.932 L9.40888889,3.932 L9.40888889,5.156 C10.1254629,5.1778909 10.8165746,5.43005328 11.3822222,5.876 L10.3511111,6.956 C9.95807109,6.66481227 9.48683678,6.50158539 9,6.488 C8.60888889,6.488 8.05777778,6.614 8.05777778,7.1 C8.03737212,7.16438309 8.03737212,7.23361691 8.05777778,7.298 L9.88888889,8 L11.1511111,8.576 L15.1688889,10.376 C15.2500202,9.84004901 15.2679236,9.2962316 15.2222222,8.756 C15.2812704,7.03772697 14.6381635,5.37079383 13.4444444,4.148 C12.2506511,2.89510724 10.5945858,2.20352277 8.87555556,2.24 Z M2.77777778,6.614 C2.53871465,7.3020455 2.41843921,8.02662985 2.42222222,8.756 C2.3858195,10.5054458 3.07587994,12.1901284 4.32444444,13.4 C5.53447179,14.6050035 7.1792177,15.2555134 8.87555556,15.2 C10.5758623,15.2479139 12.2232828,14.5988816 13.4444444,13.4 C13.8632629,12.991687 14.2224338,12.5249893 14.5111111,12.014 L11.56,10.592 C11.3314856,11.6253588 10.4367121,12.3679474 9.39111111,12.392 L9.39111111,13.58 L8.50222222,13.58 L8.50222222,12.356 C7.62187199,12.3324373 6.77808899,11.9945305 6.12,11.402 L7.20444444,10.304 C7.67025774,10.7870713 8.31586954,11.0485441 8.98222222,11.024 C9.44444444,11.024 9.96,10.844 9.96,10.232 C9.94387061,10.0579313 9.85282207,9.89989707 9.71111111,9.8 L8.11111111,8.99 L6.86666667,8.432 L2.77777778,6.614 Z M8.84,0.8 C10.9408025,0.752114331 12.9676341,1.58601074 14.44,3.104 C15.9382998,4.58800363 16.7621792,6.63434645 16.7155556,8.756 C16.7695058,10.856067 15.9579763,12.8841662 14.4755556,14.354 C12.9929289,15.8847871 10.957405,16.7364805 8.84,16.712 C6.75726204,16.7369603 4.75673166,15.8902728 3.31111111,14.372 C1.80704775,12.9040062 0.970419587,10.8709998 1,8.756 C0.977451098,6.63183601 1.81220244,4.59038739 3.31111111,3.104 C4.7591548,1.59350636 6.7613451,0.759153102 8.84,0.8 Z" id="Shape" fill="#000000"></path>
        </g>
    </g>
</svg>