<?xml version="1.0" encoding="UTF-8"?>
<svg width="136px" height="15px" viewBox="0 0 136 15" version="1.1" xmlns="http://www.w3.org/2000/svg" xmlns:xlink="http://www.w3.org/1999/xlink">
    <!-- Generator: Sketch 48.2 (47327) - http://www.bohemiancoding.com/sketch -->
    <title>laud/nav/logo</title>
    <desc>Created with Sketch.</desc>
    <defs></defs>
    <g id="laud-/-logos-/-laudatio" stroke="none" stroke-width="1" fill="none" fill-rule="evenodd">
        <g id="laud/nav/logo">
            <path d="M30,14.5 L30,0.22 L33.4,0.22 L33.4,11.72 L39.06,11.72 L39.06,14.5 L30,14.5 Z M50.9,14.5 L50.02,11.44 L45.08,11.44 L44.2,14.5 L40.48,14.5 L45.34,0.16 L49.7,0.16 L54.62,14.5 L50.9,14.5 Z M49.26,8.6 L48.42,5.74 C48.353333,5.4999988 48.2633339,5.1766687 48.15,4.77 C48.0366661,4.3633313 47.9233339,3.9466688 47.81,3.52 C47.6966661,3.0933312 47.606667,2.7333348 47.54,2.44 C47.473333,2.7333348 47.3866672,3.0966645 47.28,3.53 C47.1733328,3.9633355 47.0666672,4.3833313 46.96,4.79 C46.8533328,5.1966687 46.766667,5.5133322 46.7,5.74 L45.86,8.6 L49.26,8.6 Z M68.86,0.22 L68.86,9.16 C68.86,10.2400054 68.6400022,11.1966625 68.2,12.03 C67.7599978,12.8633375 67.0900045,13.5166643 66.19,13.99 C65.2899955,14.4633357 64.1666734,14.7 62.82,14.7 C60.8999904,14.7 59.4333384,14.2066716 58.42,13.22 C57.4066616,12.2333284 56.9,10.8866752 56.9,9.18 L56.9,0.22 L60.32,0.22 L60.32,8.8 C60.32,9.9066722 60.5366645,10.6899977 60.97,11.15 C61.4033355,11.6100023 62.0466624,11.84 62.9,11.84 C63.7933378,11.84 64.4433313,11.5966691 64.85,11.11 C65.2566687,10.6233309 65.46,9.846672 65.46,8.78 L65.46,0.22 L68.86,0.22 Z M84.78,7.14 C84.78,9.5933456 84.1000068,11.4333272 82.74,12.66 C81.3799932,13.8866728 79.5066786,14.5 77.12,14.5 L72.82,14.5 L72.82,0.22 L77.52,0.22 C79.7733446,0.22 81.5466602,0.8099941 82.84,1.99 C84.1333398,3.1700059 84.78,4.8866554 84.78,7.14 Z M81.26,7.26 C81.26,5.8066594 80.9500031,4.7333368 80.33,4.04 C79.7099969,3.3466632 78.8066726,3 77.62,3 L76.22,3 L76.22,11.7 L77.32,11.7 C78.6666734,11.7 79.6599968,11.3300037 80.3,10.59 C80.9400032,9.8499963 81.26,8.7400074 81.26,7.26 Z M96.6,14.5 L95.72,11.44 L90.78,11.44 L89.9,14.5 L86.18,14.5 L91.04,0.16 L95.4,0.16 L100.32,14.5 L96.6,14.5 Z M94.96,8.6 L94.12,5.74 C94.053333,5.4999988 93.9633339,5.1766687 93.85,4.77 C93.7366661,4.3633313 93.6233339,3.9466688 93.51,3.52 C93.3966661,3.0933312 93.306667,2.7333348 93.24,2.44 C93.173333,2.7333348 93.0866672,3.0966645 92.98,3.53 C92.8733328,3.9633355 92.7666672,4.3833313 92.66,4.79 C92.5533328,5.1966687 92.466667,5.5133322 92.4,5.74 L91.56,8.6 L94.96,8.6 Z M107.16,14.5 L103.76,14.5 L103.76,3.04 L100.06,3.04 L100.06,0.22 L110.86,0.22 L110.86,3.04 L107.16,3.04 L107.16,14.5 Z M119.62,14.5 L112.68,14.5 L112.68,12.56 L114.44,11.82 L114.44,2.9 L112.68,2.16 L112.68,0.22 L119.62,0.22 L119.62,2.16 L117.86,2.9 L117.86,11.82 L119.62,12.56 L119.62,14.5 Z M135.8,7.34 C135.8,8.8200074 135.560002,10.1099945 135.08,11.21 C134.599998,12.3100055 133.856672,13.1666636 132.85,13.78 C131.843328,14.3933364 130.540008,14.7 128.94,14.7 C127.366659,14.7 126.073338,14.3933364 125.06,13.78 C124.046662,13.1666636 123.296669,12.3066722 122.81,11.2 C122.323331,10.0933278 122.08,8.8000074 122.08,7.32 C122.08,5.8399926 122.323331,4.5533388 122.81,3.46 C123.296669,2.3666612 124.046662,1.5166697 125.06,0.91 C126.073338,0.3033303 127.373325,0 128.96,0 C130.546675,0 131.843328,0.3033303 132.85,0.91 C133.856672,1.5166697 134.599998,2.3699945 135.08,3.47 C135.560002,4.5700055 135.8,5.8599926 135.8,7.34 Z M125.66,7.34 C125.66,8.740007 125.916664,9.839996 126.43,10.64 C126.943336,11.440004 127.779994,11.84 128.94,11.84 C130.113339,11.84 130.953331,11.440004 131.46,10.64 C131.966669,9.839996 132.22,8.740007 132.22,7.34 C132.22,5.939993 131.970002,4.8366707 131.47,4.03 C130.969997,3.2233293 130.133339,2.82 128.96,2.82 C127.786661,2.82 126.943336,3.2233293 126.43,4.03 C125.916664,4.8366707 125.66,5.939993 125.66,7.34 Z" id="LAUDATIO" fill="#311924"></path>
            <path d="M17.7482803,9.32268805 C17.2004029,11.3304734 15.748528,12.1284393 14.077502,12.5917744 C13.9131388,12.643256 13.9405327,12.797701 13.9405327,12.797701 L14.1870775,14.3936329 C14.1870775,14.3936329 14.2144714,14.5223371 14.4336223,14.4965963 C20.3233039,13.8788162 24.2406269,9.68305976 23.5557802,4.58637408 C22.8435397,1.05987943 19.885002,-0.304384926 17.2004029,0.0559867821 C14.48841,0.467840169 12.6256271,2.83599718 13.0639289,5.38434002 C13.4200492,7.64953367 15.4198016,9.24546554 17.7482803,9.32268805 Z" id="Shape" fill="#FF4A00" fill-rule="nonzero"></path>
            <path d="M0.0567733929,5.38434002 C0.412766251,7.62379283 2.43918721,9.2197247 4.73944887,9.32268805 C4.16438346,11.3304734 2.76779605,12.1284393 1.06998387,12.5917744 C0.905679457,12.643256 0.933063527,12.797701 0.933063527,12.797701 L1.20690422,14.3936329 C1.20690422,14.3936329 1.23428829,14.5223371 1.4533608,14.4965963 C7.31355123,13.8788162 11.284241,9.68305976 10.5448712,4.58637408 C9.86026947,1.05987943 6.93017425,-0.304384926 4.2191516,0.0559867821 C1.50812894,0.467840169 -0.353987651,2.83599718 0.0567733929,5.38434002 L0.0567733929,5.38434002 Z" id="Shape" fill="#311924" fill-rule="nonzero"></path>
        </g>
    </g>
</svg>