<?xml version="1.0" encoding="UTF-8"?>
<svg width="14px" height="9px" viewBox="0 0 14 9" version="1.1" xmlns="http://www.w3.org/2000/svg" xmlns:xlink="http://www.w3.org/1999/xlink">
    <!-- Generator: Sketch 48.2 (47327) - http://www.bohemiancoding.com/sketch -->
    <title>FAicons/ laudatiologo</title>
    <desc>Created with Sketch.</desc>
    <defs></defs>
    <g id="laud-/-comp-/-header-copyright" stroke="none" stroke-width="1" fill="none" fill-rule="evenodd" transform="translate(-3.000000, -6.000000)">
        <g fill-rule="nonzero" id="FAicons/-laudatiologo">
            <g>
                <path d="M13.6792804,11.786496 C13.3701333,13.0327076 12.5508935,13.5279968 11.6079949,13.8155841 C11.5152507,13.8475382 11.5307081,13.9434006 11.5307081,13.9434006 L11.6698243,14.9339791 C11.6698243,14.9339791 11.6852817,15.0138644 11.8089405,14.9978873 C15.1322718,14.6144376 17.3426735,12.010175 16.9562396,8.84671495 C16.5543484,6.6578562 14.8849541,5.81107143 13.3701333,6.03475042 C11.8398552,6.29038355 10.7887551,7.76027411 11.0360727,9.34200415 C11.2370184,10.7479864 12.3654053,11.7385648 13.6792804,11.786496 Z" id="Shape" fill="#FF4A00"></path>
                <path d="M3.03203514,9.34200415 C3.23290886,10.7320093 4.37634388,11.7225877 5.67429717,11.786496 C5.34980885,13.0327076 4.5617658,13.5279968 3.60375266,13.8155841 C3.5110417,13.8475382 3.52649353,13.9434006 3.52649353,13.9434006 L3.68101179,14.9339791 C3.68101179,14.9339791 3.69646361,15.0138644 3.8200782,14.9978873 C7.12676872,14.6144376 9.36728332,12.010175 8.95008404,8.84671495 C8.56378841,6.6578562 6.91044315,5.81107143 5.3807125,6.03475042 C3.85098185,6.29038355 2.80025775,7.76027411 3.03203514,9.34200415 L3.03203514,9.34200415 Z" id="Shape" fill="#311924"></path>
            </g>
        </g>
    </g>
</svg>