<?xml version="1.0" encoding="UTF-8"?>
<svg width="120px" height="120px" viewBox="0 0 120 120" version="1.1" xmlns="http://www.w3.org/2000/svg" xmlns:xlink="http://www.w3.org/1999/xlink">
    <!-- Generator: Sketch 48.2 (47327) - http://www.bohemiancoding.com/sketch -->
    <title>image</title>
    <desc>Created with Sketch.</desc>
    <defs></defs>
    <g id="laud-/-listitem-/-published-corpora-grid-copy" stroke="none" stroke-width="1" fill="none" fill-rule="evenodd" transform="translate(-30.000000, -40.000000)">
        <g id="laud-/-listitem-/-published-corpora-grid">
            <g id="laud-/-listitem-/-explore-1">
                <g id="laud-/-image-/-placeholder-list-small" transform="translate(30.000000, 40.000000)">
                    <g>
                        <circle id="Oval" fill="#FFFFFF" opacity="0.790194746" cx="60" cy="60" r="60"></circle>
                        <path d="M70.3080086,63.4351784 C69.291702,67.0824314 66.5984897,68.5319807 63.4987546,69.3736544 C63.1938626,69.4671738 63.244678,69.7477316 63.244678,69.7477316 L63.702016,72.6468302 C63.702016,72.6468302 63.7528313,72.8806284 64.1593539,72.8338688 C75.0846496,71.7116371 82.3512415,64.0898135 81.0808583,54.8314022 C79.7596598,48.4253296 74.2716043,45.9470679 69.291702,46.6017031 C64.2609846,47.3498575 60.8055423,51.6517457 61.6185874,56.2809514 C62.2791868,60.3958009 65.9887057,63.2948994 70.3080086,63.4351784 Z" id="Shape" fill="#FF4A00" fill-rule="nonzero"></path>
                        <path d="M37.605314,56.2809514 C38.2656769,60.3490413 42.0246659,63.2481398 46.2916265,63.4351784 C45.2248863,67.0824314 42.6342318,68.5319807 39.4848085,69.3736544 C39.1800256,69.4671738 39.2308228,69.7477316 39.2308228,69.7477316 L39.7387943,72.6468302 C39.7387943,72.6468302 39.7895915,72.8806284 40.1959686,72.8338688 C51.0665585,71.7116371 58.4321452,64.0898135 57.0606221,54.8314022 C55.7906934,48.4253296 50.3553984,45.9470679 45.3264806,46.6017031 C40.2975629,47.3498575 36.8433567,51.6517457 37.605314,56.2809514 L37.605314,56.2809514 Z" id="Shape" fill="#311924" fill-rule="nonzero"></path>
                    </g>
                </g>
            </g>
        </g>
    </g>
</svg>