<?xml version="1.0" standalone="no"?><!DOCTYPE svg PUBLIC "-//W3C//DTD SVG 1.1//EN" "http://www.w3.org/Graphics/SVG/1.1/DTD/svg11.dtd" ><svg xmlns="http://www.w3.org/2000/svg"><metadata></metadata><defs><font id="2.000;GOOG;NotoSansDisplay-Italic" horiz-adv-x="2660"><font-face font-family="Noto Sans Disp" font-weight="400" font-stretch="normal" units-per-em="1000" panose-1="2 11 5 2 4 5 4 9 2 4" ascent="1068" descent="-292" x-height="4" bbox="-625 -389 2633 1084" underline-thickness="50" underline-position="-100" unicode-range="U+0000-fffd" /><missing-glyph horiz-adv-x="570" d="M89 0 l0 714 l390 0 l0 -714 l-390 0 ZM138 51 l294 0 l0 612 l-294 0 l0 -612 Z" /><glyph glyph-name="NULL" unicode="" d="" /><glyph glyph-name="CR" unicode="" d="" /><glyph glyph-name="space" unicode=" " d="" /><glyph glyph-name="exclam" unicode="!" d="M75 201 l91 513 l106 0 l-126 -513 l-71 0 ZM70 -14 q-25 0 -38 14 q-13 14 -13 39 q0 31 17.5 56.5 q17.5 25.5 56.5 25.5 q22 0 35.5 -13.5 q13.5 -13.5 13.5 -39.5 q0 -29 -17.5 -55.5 q-17.5 -26.5 -54.5 -26.5 Z" /><glyph glyph-name="quotedbl" unicode="&quot;" d="M273 456 l36 258 l94 0 l-74 -258 l-56 0 ZM108 456 l36 258 l94 0 l-74 -258 l-56 0 Z" /><glyph glyph-name="numbersign" unicode="#" d="M91 0 l58 209 l-119 0 l7 66 l131 0 l47 162 l-127 0 l7 65 l138 0 l59 212 l71 0 l-60 -212 l134 0 l60 212 l68 0 l-59 -212 l120 0 l-7 -65 l-134 0 l-45 -162 l130 0 l-6 -66 l-143 0 l-59 -209 l-71 0 l61 209 l-133 0 l-60 -209 l-68 0 ZM238 275 l134 0 l43 162 l-132 0 l-45 -162 Z" /><glyph glyph-name="dollar" unicode="$" d="M158 -58 l24 108 q-40 2 -80 11.5 q-40 9.5 -69 24.5 l1 80 q37 -20 81 -31.5 q44 -11.5 82 -12.5 l46 215 q-58 23 -92 57 q-34 34 -34 96 q0 57 26 95.5 q26 38.5 70.5 60.5 q44.5 22 99.5 27 l19 85 l62 0 l-18 -86 q75 -6 132 -37 l-34 -71 q-22 13 -51.5 23.5 q-29.5 10.5 -61.5 12.5 l-44 -209 q64 -25 97 -58 q33 -33 33 -91 q0 -58 -26.5 -98.5 q-26.5 -40.5 -72.5 -63 q-46 -22.5 -104 -29.5 l-24 -109 l-62 0 ZM260 414 l38 186 q-44 -5 -71.5 -31.5 q-27.5 -26.5 -27.5 -75.5 q0 -25 15 -45.5 q15 -20.5 46 -33.5 ZM260 125 q43 6 72.5 33.5 q29.5 27.5 29.5 75.5 q0 26 -14 45.5 q-14 19.5 -48 34.5 l-40 -189 Z" /><glyph glyph-name="percent" unicode="%" d="M188 276 q-52 0 -80.5 36.5 q-28.5 36.5 -28.5 105.5 q0 28 5 67.5 q5 39.5 17 81 q12 41.5 33.5 77.5 q21.5 36 53 58 q31.5 22 76.5 22 q54 0 82.5 -35 q28.5 -35 28.5 -99 q0 -27 -5.5 -66.5 q-5.5 -39.5 -18.5 -82.5 q-13 -43 -34.5 -80.5 q-21.5 -37.5 -53 -61 q-31.5 -23.5 -75.5 -23.5 ZM108 0 l511 714 l77 0 l-511 -714 l-77 0 ZM196 342 q24 0 42 20 q18 20 30.5 50.5 q12.5 30.5 20 64 q7.5 33.5 11 62.5 q3.5 29 3.5 44 q0 41 -11.5 58.5 q-11.5 17.5 -34.5 17.5 q-24 0 -42 -18 q-18 -18 -30 -47 q-12 -29 -19.5 -62 q-7.5 -33 -11 -62.5 q-3.5 -29.5 -3.5 -49.5 q0 -78 45 -78 ZM538 -10 q-52 0 -81 36 q-29 36 -29 105 q0 29 5 69 q5 40 17.5 81.5 q12.5 41.5 34 77 q21.5 35.5 53 57.5 q31.5 22 75.5 22 q55 0 83.5 -35 q28.5 -35 28.5 -99 q0 -27 -5.5 -66.5 q-5.5 -39.5 -18.5 -82.5 q-13 -43 -35 -80.5 q-22 -37.5 -53.5 -61 q-31.5 -23.5 -74.5 -23.5 ZM545 56 q25 0 43 20 q18 20 30.5 50.5 q12.5 30.5 20 64.5 q7.5 34 11 62.5 q3.5 28.5 3.5 43.5 q0 41 -12 58.5 q-12 17.5 -34 17.5 q-24 0 -42 -18 q-18 -18 -30.5 -47 q-12.5 -29 -19.5 -62 q-7 -33 -10.5 -63 q-3.5 -30 -3.5 -50 q0 -77 44 -77 Z" /><glyph glyph-name="ampersand" unicode="&amp;" d="M207 -10 q-78 0 -126.5 45 q-48.5 45 -48.5 131 q0 80 47 133 q47 53 135 97 q-18 31 -31 68.5 q-13 37.5 -13 78.5 q0 51 22 92 q22 41 63 65.5 q41 24.5 100 24.5 q71 0 111 -38 q40 -38 40 -103 q0 -52 -25 -88 q-25 -36 -67 -64 q-42 -28 -93 -54 l121 -184 q31 28 53 66 q22 38 37 78 l88 0 q-26 -62 -59.5 -112.5 q-33.5 -50.5 -75.5 -92.5 l93 -133 l-104 0 l-50 78 q-45 -38 -95.5 -63 q-50.5 -25 -121.5 -25 ZM287 433 q29 16 60.5 35.5 q31.5 19.5 53 45.5 q21.5 26 21.5 62 q0 34 -18.5 56 q-18.5 22 -53.5 22 q-46 0 -71.5 -29.5 q-25.5 -29.5 -25.5 -81.5 q0 -58 34 -110 ZM224 63 q50 0 87 21.5 q37 21.5 72 51.5 l-133 206 q-34 -19 -64 -41 q-30 -22 -48 -52.5 q-18 -30.5 -18 -75.5 q0 -51 29 -80.5 q29 -29.5 75 -29.5 Z" /><glyph glyph-name="quotesingle" unicode="&#39;" d="M108 456 l36 258 l94 0 l-74 -258 l-56 0 Z" /><glyph glyph-name="parenleft" unicode="(" d="M104 -158 q-32 61 -48.5 135 q-16.5 74 -16.5 156 q0 179 63.5 319 q63.5 140 176.5 262 l80 0 q-68 -78 -121.5 -168.5 q-53.5 -90.5 -84.5 -193 q-31 -102.5 -31 -218.5 q0 -87 12.5 -158.5 q12.5 -71.5 37.5 -133.5 l-68 0 Z" /><glyph glyph-name="parenright" unicode=")" d="M-74 -158 q68 78 121 168.5 q53 90.5 83.5 193 q30.5 102.5 31.5 218.5 q1 86 -11.5 158 q-12.5 72 -37.5 134 l68 0 q31 -62 48 -135.5 q17 -73.5 16 -156.5 q-1 -178 -63.5 -318.5 q-62.5 -140.5 -176.5 -261.5 l-79 0 Z" /><glyph glyph-name="asterisk" unicode="*" d="M355 300 l-48 195 l-117 -165 l-60 61 l142 137 l-169 53 l28 78 l169 -89 l21 193 l85 -17 l-57 -186 l192 10 l-5 -82 l-178 23 l80 -185 l-83 -26 Z" /><glyph glyph-name="plus" unicode="+" d="M323 388 l186 0 l0 -71 l-186 0 l0 -206 l-71 0 l0 206 l-186 0 l0 71 l186 0 l0 207 l71 0 l0 -207 Z" /><glyph glyph-name="comma" unicode="," d="M-43 -129 q25 59 51.5 126 q26.5 67 44.5 119 l95 0 l3 -11 q-24 -53 -58.5 -116 q-34.5 -63 -68.5 -118 l-67 0 Z" /><glyph glyph-name="hyphen" unicode="-" d="M27 227 l19 81 l225 0 l-18 -81 l-226 0 Z" /><glyph glyph-name="period" unicode="." d="M70 -14 q-51 0 -51 52 q0 33 18.5 58 q18.5 25 57.5 25 q21 0 34.5 -13.5 q13.5 -13.5 12.5 -39.5 q0 -31 -18 -56.5 q-18 -25.5 -54 -25.5 Z" /><glyph glyph-name="slash" unicode="/" d="M-44 0 l385 714 l89 0 l-384 -714 l-90 0 Z" /><glyph glyph-name="zero" unicode="0" d="M224 -10 q-83 0 -126 61.5 q-43 61.5 -43 176.5 q0 58 10 125.5 q10 67.5 31.5 133.5 q21.5 66 55.5 119.5 q34 53.5 81.5 86 q47.5 32.5 110.5 32.5 q86 0 127.5 -58 q41.5 -58 41.5 -167 q0 -71 -10.5 -144 q-10.5 -73 -32.5 -138.5 q-22 -65.5 -56 -117 q-34 -51.5 -81.5 -81 q-47.5 -29.5 -108.5 -29.5 ZM234 65 q37 0 67.5 26.5 q30.5 26.5 53.5 72 q23 45.5 38 102 q15 56.5 23 117.5 q8 61 8 118 q0 72 -21 110.5 q-21 38.5 -65 38.5 q-36 0 -66.5 -26 q-30.5 -26 -54 -70 q-23.5 -44 -40 -99 q-16.5 -55 -25 -114 q-8.5 -59 -8.5 -113 q0 -79 21.5 -121 q21.5 -42 68.5 -42 Z" /><glyph glyph-name="one" unicode="1" d="M191 0 l94 442 q10 46 21.5 94.5 q11.5 48.5 20.5 77.5 q-14 -16 -29.5 -28 q-15.5 -12 -34.5 -25 l-85 -55 l-40 66 l218 142 l76 0 l-152 -714 l-89 0 Z" /><glyph glyph-name="two" unicode="2" d="M1 0 l16 75 l218 205 q63 60 103 102.5 q40 42.5 59 80.5 q19 38 19 85 q0 45 -25 73 q-25 28 -72 28 q-41 0 -76 -18 q-35 -18 -70 -44 l-41 60 q40 33 88 55 q48 22 110 22 q87 0 132.5 -45 q45.5 -45 45.5 -116 q0 -58 -21.5 -106 q-21.5 -48 -69 -101.5 q-47.5 -53.5 -126.5 -125.5 l-158 -146 l0 -4 l306 0 l-16 -80 l-422 0 Z" /><glyph glyph-name="three" unicode="3" d="M198 -10 q-55 0 -98 10.5 q-43 10.5 -80 28.5 l1 85 q34 -20 82 -35 q48 -15 96 -15 q77 0 118 39 q41 39 41 105 q0 61 -34.5 92.5 q-34.5 31.5 -99.5 31.5 l-61 0 l16 73 l59 0 q48 0 88.5 18 q40.5 18 65 52 q24.5 34 24.5 81 q0 45 -26 69.5 q-26 24.5 -69 24.5 q-43 0 -79.5 -16 q-36.5 -16 -71.5 -42 l-40 62 q40 30 89 50 q49 20 113 20 q85 0 129.5 -43 q44.5 -43 44.5 -113 q0 -76 -47 -130 q-47 -54 -130 -70 l0 -4 q53 -10 87 -49 q34 -39 34 -103 q0 -57 -26 -107.5 q-26 -50.5 -82 -82.5 q-56 -32 -144 -32 Z" /><glyph glyph-name="four" unicode="4" d="M270 0 l35 162 l-299 0 l16 80 l386 472 l99 0 l-99 -474 l103 0 l-18 -78 l-103 0 l-35 -162 l-85 0 ZM111 240 l211 0 l36 171 q8 37 18 77.5 q10 40.5 20 76.5 q10 36 16 59 l-4 0 q-8 -13 -20 -31 q-12 -18 -24 -35 q-12 -17 -20 -27 l-233 -291 Z" /><glyph glyph-name="five" unicode="5" d="M190 -10 q-94 0 -156 39 l1 85 q34 -22 73 -36 q39 -14 82 -14 q66 0 106.5 24.5 q40.5 24.5 59 64 q18.5 39.5 18.5 86.5 q0 61 -33 94.5 q-33 33.5 -91 33.5 q-28 0 -53 -5 q-25 -5 -54 -13 l-36 29 l96 336 l315 0 l-18 -80 l-239 0 l-58 -207 q17 4 36.5 7 q19.5 3 44.5 3 q82 0 132 -50 q50 -50 50 -137 q0 -45 -14 -90.5 q-14 -45.5 -45.5 -84 q-31.5 -38.5 -85 -62 q-53.5 -23.5 -131.5 -23.5 Z" /><glyph glyph-name="six" unicode="6" d="M239 -10 q-80 0 -129 53 q-49 53 -49 162 q0 69 16 148 q16 79 49.5 152.5 q33.5 73.5 84.5 126.5 q42 44 98.5 68 q56.5 24 129.5 24 q53 0 89 -11 l-19 -76 q-15 5 -35 8.5 q-20 3.5 -45 3.5 q-91 0 -159 -66 q-68 -66 -103 -217 l4 0 q27 38 67 60.5 q40 22.5 89 22.5 q70 0 111 -46 q41 -46 41 -131 q0 -50 -14 -100 q-14 -50 -43.5 -91 q-29.5 -41 -75 -66 q-45.5 -25 -107.5 -25 ZM248 64 q46 0 78 28.5 q32 28.5 49 74 q17 45.5 17 96.5 q0 55 -23.5 85 q-23.5 30 -71.5 30 q-35 0 -63 -16 q-28 -16 -47 -39 q-19 -23 -28 -44 q-7 -17 -9 -37.5 q-2 -20.5 -2 -40.5 q0 -35 10 -66.5 q10 -31.5 32 -51 q22 -19.5 58 -19.5 Z" /><glyph glyph-name="seven" unicode="7" d="M74 0 l360 636 l-327 0 l17 78 l420 0 l-14 -70 l-360 -644 l-96 0 Z" /><glyph glyph-name="eight" unicode="8" d="M234 -10 q-66 0 -108 24 q-42 24 -62.5 64.5 q-20.5 40.5 -20.5 88.5 q0 78 47.5 130.5 q47.5 52.5 132.5 86.5 q-35 28 -56.5 62.5 q-21.5 34.5 -21.5 88.5 q0 59 27 101.5 q27 42.5 73.5 65.5 q46.5 23 104.5 23 q62 0 99.5 -22 q37.5 -22 55 -57.5 q17.5 -35.5 17.5 -76.5 q0 -53 -22.5 -90.5 q-22.5 -37.5 -59 -63 q-36.5 -25.5 -77.5 -43.5 q47 -32 75.5 -72 q28.5 -40 28.5 -105 q0 -54 -24.5 -100.5 q-24.5 -46.5 -76.5 -75.5 q-52 -29 -132 -29 ZM304 412 q64 26 97 60 q33 34 33 87 q0 42 -25 67 q-25 25 -67 25 q-50 0 -80.5 -31.5 q-30.5 -31.5 -30.5 -84.5 q0 -44 20.5 -72.5 q20.5 -28.5 52.5 -50.5 ZM243 63 q47 0 77 19 q30 19 44 48.5 q14 29.5 14 62.5 q0 47 -23.5 82 q-23.5 35 -70.5 64 q-44 -15 -78 -35.5 q-34 -20.5 -53.5 -52 q-19.5 -31.5 -19.5 -78.5 q0 -53 30.5 -81.5 q30.5 -28.5 79.5 -28.5 Z" /><glyph glyph-name="nine" unicode="9" d="M156 -10 q-28 0 -58 4.5 q-30 4.5 -54 12.5 l1 81 q25 -9 52.5 -15.5 q27.5 -6.5 60.5 -6.5 q95 0 151.5 69 q56.5 69 86.5 208 l-5 0 q-24 -35 -61.5 -56.5 q-37.5 -21.5 -83.5 -21.5 q-77 0 -119 48 q-42 48 -42 138 q0 73 28.5 135 q28.5 62 82.5 100 q54 38 130 38 q82 0 129 -55 q47 -55 47 -161 q0 -52 -9 -111 q-9 -59 -26 -117 q-17 -58 -41 -108.5 q-24 -50.5 -55 -86.5 q-44 -51 -98.5 -73 q-54.5 -22 -116.5 -22 ZM266 336 q45 0 81.5 24.5 q36.5 24.5 54.5 71.5 q13 36 13 86 q0 58 -24.5 95 q-24.5 37 -70.5 37 q-47 0 -80 -26.5 q-33 -26.5 -50.5 -70.5 q-17.5 -44 -17.5 -97 q0 -58 24 -89 q24 -31 70 -31 Z" /><glyph glyph-name="colon" unicode=":" d="M150 415 q-25 0 -38 13.5 q-13 13.5 -13 36.5 q0 34 18.5 59.5 q18.5 25.5 57.5 25.5 q21 0 34.5 -13 q13.5 -13 13.5 -39 q0 -32 -18 -57.5 q-18 -25.5 -55 -25.5 ZM70 -14 q-51 0 -51 51 q0 33 18 58.5 q18 25.5 58 25.5 q21 0 34 -13.5 q13 -13.5 13 -38.5 q0 -31 -18 -57 q-18 -26 -54 -26 Z" /><glyph glyph-name="semicolon" unicode=";" d="M150 415 q-25 0 -38 13.5 q-13 13.5 -13 36.5 q0 34 18.5 59.5 q18.5 25.5 57.5 25.5 q21 0 34.5 -13 q13.5 -13 13.5 -39 q0 -32 -18.5 -57.5 q-18.5 -25.5 -54.5 -25.5 ZM-48 -129 q26 59 52 126 q26 67 44 119 l95 0 l3 -11 q-24 -53 -58.5 -116 q-34.5 -63 -68.5 -118 l-67 0 Z" /><glyph glyph-name="less" unicode="&lt;" d="M510 116 l-444 207 l0 50 l444 235 l0 -78 l-352 -178 l352 -158 l0 -78 Z" /><glyph glyph-name="equal" unicode="=" d="M72 416 l0 71 l432 0 l0 -71 l-432 0 ZM72 217 l0 71 l432 0 l0 -71 l-432 0 Z" /><glyph glyph-name="greater" unicode="&gt;" d="M66 194 l351 157 l-351 179 l0 78 l444 -235 l0 -50 l-444 -207 l0 78 Z" /><glyph glyph-name="question" unicode="?" d="M123 201 q7 43 20.5 75 q13.5 32 36 59 q22.5 27 57.5 56 q31 25 57 48 q26 23 42 51 q16 28 16 67 q0 43 -22 67 q-22 24 -65 24 q-36 0 -70.5 -12.5 q-34.5 -12.5 -66.5 -28.5 l-31 67 q39 22 86 36 q47 14 93 14 q75 0 119.5 -38.5 q44.5 -38.5 44.5 -116.5 q0 -68 -35 -118.5 q-35 -50.5 -103 -102.5 q-37 -28 -57.5 -48 q-20.5 -20 -31.5 -42 q-11 -22 -19 -57 l-71 0 ZM125 -14 q-51 0 -51 51 q0 33 18 58.5 q18 25.5 58 25.5 q21 0 34 -13.5 q13 -13.5 13 -38.5 q0 -31 -18 -57 q-18 -26 -54 -26 Z" /><glyph glyph-name="at" unicode="@" d="M365 -91 q-96 0 -166.5 39.5 q-70.5 39.5 -108.5 113.5 q-38 74 -38 179 q0 92 31.5 176.5 q31.5 84.5 90.5 151 q59 66.5 141.5 105.5 q82.5 39 185.5 39 q99 0 162 -41 q63 -41 93.5 -107.5 q30.5 -66.5 30.5 -145.5 q0 -90 -27 -160.5 q-27 -70.5 -74 -111.5 q-47 -41 -107 -41 q-53 0 -74 27 q-21 27 -25 62 l-4 0 q-21 -37 -53.5 -63 q-32.5 -26 -79.5 -26 q-52 0 -83 35.5 q-31 35.5 -31 102.5 q0 82 33.5 143.5 q33.5 61.5 88.5 96 q55 34.5 121 34.5 q46 0 76.5 -9 q30.5 -9 55.5 -20 l-47 -179 q-8 -31 -12 -50.5 q-4 -19.5 -4 -36.5 q0 -30 12.5 -42 q12.5 -12 31.5 -12 q30 0 54 21 q24 21 41 56.5 q17 35.5 26 78.5 q9 43 9 87 q0 64 -22 117.5 q-22 53.5 -72 85.5 q-50 32 -133 32 q-81 0 -147.5 -31 q-66.5 -31 -114.5 -85.5 q-48 -54.5 -74 -127.5 q-26 -73 -26 -157 q0 -125 63 -197.5 q63 -72.5 187 -72.5 q52 0 103 12.5 q51 12.5 94 29.5 l-1 -65 q-49 -21 -102 -32.5 q-53 -11.5 -105 -11.5 ZM362 169 q45 0 75 42.5 q30 42.5 48 109.5 l33 124 q-10 4 -24 7.5 q-14 3.5 -32 3.5 q-44 0 -80 -27.5 q-36 -27.5 -57 -74 q-21 -46.5 -21 -103.5 q0 -43 15 -62.5 q15 -19.5 43 -19.5 Z" /><glyph glyph-name="A" unicode="a" d="M-54 0 l375 714 l96 0 l75 -714 l-88 0 l-22 222 l-228 0 l-111 -222 l-97 0 ZM197 302 l177 0 l-13 150 q-3 38 -6 84 q-3 46 -3 81 l-3 0 q-16 -38 -35.5 -81.5 q-19.5 -43.5 -41.5 -87.5 l-75 -146 Z" /><glyph glyph-name="B" unicode="b" d="M38 0 l151 714 l177 0 q94 0 147.5 -38.5 q53.5 -38.5 53.5 -123.5 q0 -74 -42 -120 q-42 -46 -112 -60 l0 -5 q46 -13 76.5 -48.5 q30.5 -35.5 30.5 -94.5 q0 -74 -34 -123.5 q-34 -49.5 -93.5 -75 q-59.5 -25.5 -135.5 -25.5 l-219 0 ZM214 410 l108 0 q63 0 107.5 31.5 q44.5 31.5 44.5 98.5 q0 47 -27.5 72 q-27.5 25 -91.5 25 l-94 0 l-47 -227 ZM144 76 l117 0 q79 0 122 39 q43 39 43 109 q0 47 -28 79.5 q-28 32.5 -96 32.5 l-104 0 l-54 -260 Z" /><glyph glyph-name="C" unicode="c" d="M309 -10 q-113 0 -176 72 q-63 72 -63 197 q0 65 14.5 130.5 q14.5 65.5 44 125.5 q29.5 60 74 107 q44.5 47 104 74.5 q59.5 27.5 134.5 27.5 q97 0 168 -40 l-37 -74 q-26 14 -57.5 24.5 q-31.5 10.5 -74.5 10.5 q-70 0 -122 -34 q-52 -34 -86.5 -90 q-34.5 -56 -51 -123.5 q-16.5 -67.5 -16.5 -135.5 q0 -89 43 -141 q43 -52 119 -52 q39 0 76.5 8 q37.5 8 74.5 21 l-1 -78 q-37 -14 -75.5 -22 q-38.5 -8 -91.5 -8 Z" /><glyph glyph-name="D" unicode="d" d="M38 0 l151 714 l162 0 q121 0 190 -69 q69 -69 69 -211 q0 -125 -47 -223 q-47 -98 -136.5 -154.5 q-89.5 -56.5 -218.5 -56.5 l-170 0 ZM144 77 l70 0 q98 0 165.5 47.5 q67.5 47.5 102 128.5 q34.5 81 34.5 181 q0 107 -48 155 q-48 48 -128 48 l-79 0 l-117 -560 Z" /><glyph glyph-name="E" unicode="e" d="M38 0 l151 714 l347 0 l-18 -79 l-258 0 l-46 -223 l241 0 l-16 -78 l-242 0 l-53 -255 l258 0 l-17 -79 l-347 0 Z" /><glyph glyph-name="F" unicode="f" d="M38 0 l151 714 l346 0 l-16 -79 l-259 0 l-52 -254 l242 0 l-18 -79 l-241 0 l-64 -302 l-89 0 Z" /><glyph glyph-name="G" unicode="g" d="M324 -10 q-120 0 -187 70 q-67 70 -67 195 q0 98 26.5 183.5 q26.5 85.5 76 149.5 q49.5 64 118 100 q68.5 36 152.5 36 q61 0 107.5 -11 q46.5 -11 88.5 -31 l-35 -78 q-35 16 -75 28.5 q-40 12.5 -88 12.5 q-79 0 -142 -49.5 q-63 -49.5 -99 -135.5 q-36 -86 -36 -198 q0 -54 18 -98 q18 -44 56 -69.5 q38 -25.5 97 -25.5 q35 0 64.5 5.5 q29.5 5.5 49.5 12.5 l45 211 l-132 0 l18 78 l221 0 l-77 -349 q-43 -16 -90.5 -26.5 q-47.5 -10.5 -109.5 -10.5 Z" /><glyph glyph-name="H" unicode="h" d="M39 0 l151 714 l89 0 l-64 -302 l293 0 l63 302 l88 0 l-151 -714 l-88 0 l70 333 l-292 0 l-70 -333 l-89 0 Z" /><glyph glyph-name="I" unicode="i" d="M-20 0 l11 49 l81 20 l120 576 l-72 19 l11 50 l242 0 l-10 -50 l-83 -19 l-120 -576 l73 -20 l-11 -49 l-242 0 Z" /><glyph glyph-name="J" unicode="j" d="M-77 -190 q-47 0 -73 12 l3 77 q15 -5 32 -7.5 q17 -2.5 36 -2.5 q43 0 75 27.5 q32 27.5 45 92.5 l149 705 l90 0 l-152 -715 q-21 -101 -74 -145 q-53 -44 -131 -44 Z" /><glyph glyph-name="K" unicode="k" d="M38 0 l151 714 l89 0 l-74 -347 l60 66 l259 281 l107 0 l-296 -314 l154 -400 l-98 0 l-126 346 l-78 -61 l-59 -285 l-89 0 Z" /><glyph glyph-name="L" unicode="l" d="M38 0 l151 714 l89 0 l-134 -634 l258 0 l-17 -80 l-347 0 Z" /><glyph glyph-name="M" unicode="m" d="M37 0 l151 714 l125 0 l57 -583 l3 0 l304 583 l135 0 l-148 -714 l-89 0 l89 424 q14 65 26.5 118 q12.5 53 21.5 85 l-2 0 l-329 -627 l-72 0 l-62 626 l-4 0 q-2 -20 -7 -53.5 q-5 -33.5 -12 -71 q-7 -37.5 -14 -72.5 l-89 -429 l-84 0 Z" /><glyph glyph-name="N" unicode="n" d="M37 0 l151 714 l96 0 l198 -590 l3 0 q5 36 15 91.5 q10 55.5 20 105.5 l84 393 l83 0 l-151 -714 l-95 0 l-200 592 l-3 0 q-2 -21 -8 -55 q-6 -34 -13 -73.5 q-7 -39.5 -15 -75.5 l-82 -388 l-83 0 Z" /><glyph glyph-name="O" unicode="o" d="M319 -10 q-121 0 -185 73 q-64 73 -64 200 q0 93 24 176 q24 83 69 147.5 q45 64.5 109.5 101.5 q64.5 37 146.5 37 q115 0 178.5 -74 q63.5 -74 63.5 -203 q0 -93 -22 -175.5 q-22 -82.5 -65 -146 q-43 -63.5 -107 -100 q-64 -36.5 -148 -36.5 ZM323 69 q56 0 101 30.5 q45 30.5 76.5 84 q31.5 53.5 48.5 122 q17 68.5 17 144.5 q0 93 -41 144.5 q-41 51.5 -113 51.5 q-57 0 -102.5 -30 q-45.5 -30 -78 -82 q-32.5 -52 -50 -121 q-17.5 -69 -17.5 -147 q0 -93 42.5 -145 q42.5 -52 116.5 -52 Z" /><glyph glyph-name="P" unicode="p" d="M38 0 l151 714 l156 0 q109 0 156 -50.5 q47 -50.5 47 -132.5 q0 -122 -78 -187 q-78 -65 -223 -65 l-62 0 l-58 -279 l-89 0 ZM202 354 l59 0 q90 0 143 42 q53 42 53 131 q0 59 -30.5 84.5 q-30.5 25.5 -93.5 25.5 l-72 0 l-59 -283 Z" /><glyph glyph-name="Q" unicode="q" d="M433 -170 l-99 161 q-4 -1 -7.5 -1 q-3.5 0 -7.5 0 q-121 0 -185 73 q-64 73 -64 200 q0 93 24 176 q24 83 69 147.5 q45 64.5 109.5 101.5 q64.5 37 146.5 37 q115 0 178.5 -74 q63.5 -74 63.5 -203 q0 -103 -28 -193.5 q-28 -90.5 -81.5 -155.5 q-53.5 -65 -130.5 -92 l125 -177 l-113 0 ZM323 69 q57 0 102.5 30.5 q45.5 30.5 76.5 84 q31 53.5 47.5 122 q16.5 68.5 16.5 144.5 q0 93 -41 144.5 q-41 51.5 -113 51.5 q-57 0 -102.5 -30 q-45.5 -30 -78 -82 q-32.5 -52 -50 -121 q-17.5 -69 -17.5 -147 q0 -93 42.5 -145 q42.5 -52 116.5 -52 Z" /><glyph glyph-name="R" unicode="r" d="M38 0 l151 714 l150 0 q208 0 208 -178 q0 -79 -39 -136.5 q-39 -57.5 -130 -84.5 l109 -315 l-98 0 l-93 295 l-107 0 l-62 -295 l-89 0 ZM205 371 l72 0 q93 0 136 44 q43 44 43 114 q0 59 -32 83 q-32 24 -94 24 l-69 0 l-56 -265 Z" /><glyph glyph-name="S" unicode="s" d="M176 -10 q-95 0 -158 32 l1 88 q29 -16 68.5 -29 q39.5 -13 90.5 -13 q42 0 77.5 14 q35.5 14 57 43 q21.5 29 21.5 76 q0 39 -25 67.5 q-25 28.5 -83 65.5 q-34 22 -61.5 46 q-27.5 24 -43.5 56.5 q-16 32.5 -16 78.5 q0 67 30.5 113.5 q30.5 46.5 81.5 71 q51 24.5 114 24.5 q53 0 93.5 -11 q40.5 -11 77.5 -31 l-35 -76 q-25 14 -61.5 26.5 q-36.5 12.5 -75.5 12.5 q-57 0 -94 -32.5 q-37 -32.5 -37 -91.5 q0 -29 10.5 -49 q10.5 -20 31.5 -37 q21 -17 53 -37 q40 -26 70 -50.5 q30 -24.5 47 -57 q17 -32.5 17 -81.5 q0 -72 -32 -120.5 q-32 -48.5 -88.5 -73.5 q-56.5 -25 -131.5 -25 Z" /><glyph glyph-name="T" unicode="t" d="M143 0 l133 635 l-184 0 l18 79 l458 0 l-16 -79 l-185 0 l-134 -635 l-90 0 Z" /><glyph glyph-name="U" unicode="u" d="M284 -10 q-105 0 -156.5 50.5 q-51.5 50.5 -51.5 144.5 q0 18 3 43.5 q3 25.5 10 54.5 l92 431 l88 0 l-93 -436 q-5 -24 -8 -49.5 q-3 -25.5 -3 -41.5 q0 -55 31.5 -86.5 q31.5 -31.5 94.5 -31.5 q82 0 122.5 46 q40.5 46 60.5 135 l99 464 l89 0 l-100 -471 q-16 -78 -49.5 -135 q-33.5 -57 -89 -87.5 q-55.5 -30.5 -139.5 -30.5 Z" /><glyph glyph-name="V" unicode="v" d="M159 0 l-64 714 l87 0 l37 -452 q4 -41 5.5 -83 q1.5 -42 0.5 -78 l2 0 q14 36 32.5 75.5 q18.5 39.5 41.5 86.5 l223 451 l98 0 l-367 -714 l-96 0 Z" /><glyph glyph-name="W" unicode="w" d="M128 0 l-20 714 l87 0 l8 -435 q1 -41 -1 -85 q-2 -44 -5 -84 l3 0 q14 39 33.5 89.5 q19.5 50.5 39.5 94.5 l189 420 l89 0 l15 -418 q2 -47 2 -98 q0 -51 -1 -88 l2 0 q13 38 29 83 q16 45 34 89 l180 432 l95 0 l-315 -714 l-92 0 l-16 460 q-1 33 -1.5 70.5 q-0.5 37.5 0.5 68.5 l-3 0 q-10 -30 -23 -61.5 q-13 -31.5 -35 -80.5 l-201 -457 l-93 0 Z" /><glyph glyph-name="X" unicode="x" d="M-50 0 l280 378 l-117 336 l91 0 l87 -273 l202 273 l98 0 l-260 -340 l124 -374 l-94 0 l-92 309 l-221 -309 l-98 0 Z" /><glyph glyph-name="Y" unicode="y" d="M142 0 l58 268 l-105 446 l89 0 l75 -358 l223 358 l101 0 l-296 -449 l-55 -265 l-90 0 Z" /><glyph glyph-name="Z" unicode="z" d="M-11 0 l14 70 l424 564 l-295 0 l17 80 l404 0 l-14 -71 l-424 -563 l315 0 l-17 -80 l-424 0 Z" /><glyph glyph-name="bracketleft" unicode="[" d="M-11 -158 l186 872 l186 0 l-16 -72 l-104 0 l-154 -728 l104 0 l-16 -72 l-186 0 Z" /><glyph glyph-name="backslash" unicode="\" d="M203 0 l-93 714 l79 0 l94 -714 l-80 0 Z" /><glyph glyph-name="bracketright" unicode="]" d="M-70 -158 l16 72 l104 0 l153 728 l-104 0 l16 72 l186 0 l-186 -872 l-185 0 Z" /><glyph glyph-name="asciicircum" unicode="^" d="M37 267 l213 452 l49 0 l210 -452 l-76 0 l-161 359 l-158 -359 l-77 0 Z" /><glyph glyph-name="underscore" unicode="_" d="M-89 -158 l15 68 l377 0 l-15 -68 l-377 0 Z" /><glyph glyph-name="grave" unicode="`" d="M249 606 q-17 19 -37.5 46 q-20.5 27 -38 55 q-17.5 28 -27.5 49 l0 10 l94 0 q10 -37 27 -75.5 q17 -38.5 37 -72.5 l-1 -12 l-54 0 Z" /><glyph glyph-name="a" unicode="a" d="M183 -10 q-60 0 -98 46 q-38 46 -38 134 q0 75 18.5 142.5 q18.5 67.5 52.5 120.5 q34 53 80 83 q46 30 102 30 q50 0 81 -28 q31 -28 46 -65 l5 0 l31 83 l67 0 l-114 -536 l-70 0 l13 99 l-3 0 q-33 -44 -76.5 -76.5 q-43.5 -32.5 -96.5 -32.5 ZM214 63 q34 0 67.5 27 q33.5 27 61 72.5 q27.5 45.5 41.5 103.5 q8 30 10.5 55 q2.5 25 2.5 45 q0 47 -23.5 76.5 q-23.5 29.5 -64.5 29.5 q-37 0 -68 -25 q-31 -25 -54.5 -67.5 q-23.5 -42.5 -36.5 -97 q-13 -54.5 -13 -113.5 q0 -53 20 -79.5 q20 -26.5 57 -26.5 Z" /><glyph glyph-name="b" unicode="b" d="M258 -10 q-52 0 -83.5 27.5 q-31.5 27.5 -45.5 64.5 l-5 0 l-32 -82 l-66 0 l161 760 l88 0 l-38 -180 q-7 -34 -15 -67 q-8 -33 -14 -54 q-6 -21 -8 -23 l4 0 q34 44 74 76.5 q40 32.5 93 32.5 q61 0 99.5 -45.5 q38.5 -45.5 38.5 -133.5 q0 -73 -17.5 -140.5 q-17.5 -67.5 -50 -120.5 q-32.5 -53 -79 -84 q-46.5 -31 -104.5 -31 ZM250 63 q38 0 69 26 q31 26 53.5 69.5 q22.5 43.5 34.5 97.5 q12 54 12 110 q0 106 -78 106 q-32 0 -64.5 -25 q-32.5 -25 -59.5 -67.5 q-27 -42.5 -43.5 -97 q-16.5 -54.5 -16.5 -113.5 q0 -47 23 -76.5 q23 -29.5 70 -29.5 Z" /><glyph glyph-name="c" unicode="c" d="M234 -10 q-83 0 -135 49 q-52 49 -52 148 q0 72 18.5 136.5 q18.5 64.5 54 115 q35.5 50.5 85.5 79 q50 28.5 112 28.5 q35 0 68 -7 q33 -7 60 -19 l-25 -73 q-20 9 -45.5 17 q-25.5 8 -56.5 8 q-54 0 -95 -39 q-41 -39 -63.5 -103.5 q-22.5 -64.5 -22.5 -140.5 q0 -60 28.5 -93 q28.5 -33 79.5 -33 q34 0 64 9.5 q30 9.5 59 23.5 l0 -74 q-27 -14 -60.5 -23 q-33.5 -9 -73.5 -9 Z" /><glyph glyph-name="d" unicode="d" d="M183 -10 q-60 0 -98 45 q-38 45 -38 135 q0 74 17.5 141 q17.5 67 50.5 120 q33 53 80 83.5 q47 30.5 105 30.5 q51 0 81 -27.5 q30 -27.5 46 -64.5 l4 0 q5 34 10 65 q5 31 12 67 l38 175 l86 0 l-161 -760 l-71 0 l11 99 l-4 0 q-34 -45 -75 -77 q-41 -32 -94 -32 ZM215 63 q32 0 64 24.5 q32 24.5 59 67 q27 42.5 43.5 97 q16.5 54.5 16.5 114.5 q0 47 -21.5 76.5 q-21.5 29.5 -70.5 29.5 q-37 0 -68 -26 q-31 -26 -53.5 -69.5 q-22.5 -43.5 -35 -97.5 q-12.5 -54 -12.5 -110 q0 -106 78 -106 Z" /><glyph glyph-name="e" unicode="e" d="M231 -10 q-88 0 -136 54 q-48 54 -48 145 q0 64 18 127 q18 63 52 115 q34 52 82 83.5 q48 31.5 109 31.5 q73 0 109.5 -32.5 q36.5 -32.5 36.5 -90.5 q0 -53 -31 -96.5 q-31 -43.5 -97 -69 q-66 -25.5 -171 -25.5 l-17 0 q-1 -10 -1.5 -20 q-0.5 -10 -0.5 -19 q0 -61 27.5 -95.5 q27.5 -34.5 84.5 -34.5 q36 0 68.5 10.5 q32.5 10.5 71.5 30.5 l-1 -75 q-37 -17 -72 -28 q-35 -11 -84 -11 ZM151 303 l8 0 q57 0 104.5 10.5 q47.5 10.5 76 35.5 q28.5 25 28.5 66 q0 25 -16 41.5 q-16 16.5 -50 16.5 q-45 0 -87.5 -44.5 q-42.5 -44.5 -63.5 -125.5 Z" /><glyph glyph-name="f" unicode="f" d="M-46 -240 q-19 0 -34.5 3 q-15.5 3 -27.5 7 l1 74 q13 -4 25.5 -7.5 q12.5 -3.5 27.5 -3.5 q34 0 53 29.5 q19 29.5 31 84.5 l110 522 l-88 0 l8 37 l94 33 l11 48 q16 69 39 107.5 q23 38.5 56.5 54.5 q33.5 16 80.5 16 q25 0 50 -5.5 q25 -5.5 41 -13.5 l-24 -67 q-14 5 -29 9.5 q-15 4.5 -34 4.5 q-36 0 -57.5 -22 q-21.5 -22 -35.5 -84 l-11 -51 l109 0 l-14 -67 l-109 0 l-112 -532 q-17 -83 -54 -130 q-37 -47 -107 -47 Z" /><glyph glyph-name="g" unicode="g" d="M175 -240 q-47 0 -86.5 9.5 q-39.5 9.5 -67.5 24.5 l1 81 q26 -16 68 -29 q42 -13 82 -13 q58 0 96.5 30 q38.5 30 53.5 100 l8 38 q4 21 10 43.5 q6 22.5 10.5 38.5 q4.5 16 4.5 16 l-4 0 q-32 -44 -73 -76.5 q-41 -32.5 -94 -32.5 q-61 0 -99 46 q-38 46 -38 134 q0 73 17.5 140.5 q17.5 67.5 50.5 120.5 q33 53 80 84 q47 31 105 31 q52 0 82.5 -28 q30.5 -28 46.5 -65 l3 0 l32 83 l67 0 l-122 -567 q-24 -113 -83.5 -161 q-59.5 -48 -150.5 -48 ZM216 63 q32 0 64 25.5 q32 25.5 59 68.5 q27 43 43 97 q16 54 16 112 q0 47 -21 76.5 q-21 29.5 -69 29.5 q-38 0 -69.5 -26 q-31.5 -26 -54 -69.5 q-22.5 -43.5 -35 -97.5 q-12.5 -54 -12.5 -110 q0 -106 79 -106 Z" /><glyph glyph-name="h" unicode="h" d="M26 0 l161 760 l88 0 l-42 -197 q-6 -30 -15.5 -62.5 q-9.5 -32.5 -17.5 -64.5 l5 0 q19 25 43.5 50 q24.5 25 56 42 q31.5 17 71.5 17 q59 0 93 -33.5 q34 -33.5 34 -101.5 q0 -20 -3.5 -40.5 q-3.5 -20.5 -7.5 -43.5 l-69 -326 l-88 0 l70 336 q10 44 10 67 q0 32 -15.5 50.5 q-15.5 18.5 -49.5 18.5 q-32 0 -69 -23.5 q-37 -23.5 -69 -76.5 q-32 -53 -50 -141 l-48 -231 l-88 0 Z" /><glyph glyph-name="i" unicode="i" d="M210 625 q-20 0 -33.5 12 q-13.5 12 -13.5 34 q0 26 15.5 45.5 q15.5 19.5 43.5 19.5 q22 0 34 -12 q12 -12 12 -32 q0 -32 -18 -49.5 q-18 -17.5 -40 -17.5 ZM26 0 l114 536 l88 0 l-114 -536 l-88 0 Z" /><glyph glyph-name="j" unicode="j" d="M210 625 q-20 0 -33 12.5 q-13 12.5 -13 34.5 q0 26 15 45 q15 19 44 19 q44 0 44 -45 q0 -31 -17.5 -48.5 q-17.5 -17.5 -39.5 -17.5 ZM-62 -240 q-35 0 -60 10 l1 74 q11 -4 25 -7.5 q14 -3.5 30 -3.5 q59 0 78 98 l128 605 l87 0 l-130 -613 q-16 -75 -51.5 -119 q-35.5 -44 -107.5 -44 Z" /><glyph glyph-name="k" unicode="k" d="M25 0 l161 760 l88 0 l-64 -302 q-17 -80 -29.5 -123.5 q-12.5 -43.5 -16.5 -57.5 l2 0 l242 259 l103 0 l-222 -230 l133 -306 l-97 0 l-103 251 l-68 -57 l-40 -194 l-89 0 Z" /><glyph glyph-name="l" unicode="l" d="M25 0 l162 760 l88 0 l-162 -760 l-88 0 Z" /><glyph glyph-name="m" unicode="m" d="M26 0 l114 536 l71 0 l-11 -99 l5 0 q17 25 41 50 q24 25 54 42 q30 17 69 17 q53 0 81 -32 q28 -32 33 -87 l4 0 q19 29 45.5 56.5 q26.5 27.5 59 45 q32.5 17.5 71.5 17.5 q59 0 90.5 -33.5 q31.5 -33.5 31.5 -96.5 q0 -24 -3 -45.5 q-3 -21.5 -8 -44.5 l-69 -326 l-88 0 l71 336 q5 23 7 39.5 q2 16.5 2 31.5 q0 29 -15 47 q-15 18 -47 18 q-31 0 -65 -24 q-34 -24 -63.5 -75 q-29.5 -51 -46.5 -131 l-51 -242 l-87 0 l70 336 q9 45 9 67 q0 33 -14 51 q-14 18 -46 18 q-31 0 -65.5 -23.5 q-34.5 -23.5 -65 -76.5 q-30.5 -53 -48.5 -141 l-48 -231 l-88 0 Z" /><glyph glyph-name="n" unicode="n" d="M22 0 l115 539 l77 0 l-12 -99 l2 0 q18 24 42.5 49.5 q24.5 25.5 56 42.5 q31.5 17 72.5 17 q61 0 96 -35.5 q35 -35.5 35 -99.5 q0 -23 -4 -47 q-4 -24 -8 -42 l-70 -325 l-93 0 l71 337 q4 23 7 38.5 q3 15.5 3 29.5 q0 64 -62 64 q-32 0 -68.5 -23.5 q-36.5 -23.5 -68 -75.5 q-31.5 -52 -48.5 -140 l-50 -230 l-93 0 Z" /><glyph glyph-name="o" unicode="o" d="M235 -8 q-87 0 -137.5 54.5 q-50.5 54.5 -50.5 148.5 q0 61 16.5 123 q16.5 62 49.5 112.5 q33 50.5 81.5 81.5 q48.5 31 112.5 31 q89 0 138.5 -54.5 q49.5 -54.5 49.5 -149.5 q0 -61 -16.5 -122.5 q-16.5 -61.5 -49 -112 q-32.5 -50.5 -81 -81.5 q-48.5 -31 -113.5 -31 ZM242 65 q45 0 82.5 34 q37.5 34 59.5 97.5 q22 63.5 22 151.5 q0 29 -10 57 q-10 28 -32 46.5 q-22 18.5 -58 18.5 q-52 0 -90.5 -38 q-38.5 -38 -59 -101 q-20.5 -63 -20.5 -138 q0 -61 27.5 -94.5 q27.5 -33.5 78.5 -33.5 Z" /><glyph glyph-name="p" unicode="p" d="M-24 -240 l164 776 l72 0 l-13 -100 l4 0 q34 44 75.5 76.5 q41.5 32.5 94.5 32.5 q60 0 98 -45.5 q38 -45.5 38 -134.5 q0 -73 -17.5 -140.5 q-17.5 -67.5 -50.5 -120.5 q-33 -53 -79 -83.5 q-46 -30.5 -104 -30.5 q-51 0 -81.5 27.5 q-30.5 27.5 -46.5 64.5 l-5 0 q-1 -16 -5.5 -44.5 q-4.5 -28.5 -8.5 -46.5 l-48 -231 l-87 0 ZM251 63 q37 0 68 26 q31 26 53.5 69.5 q22.5 43.5 34.5 97.5 q12 54 12 110 q0 106 -78 106 q-32 0 -64.5 -24.5 q-32.5 -24.5 -59.5 -67 q-27 -42.5 -43.5 -97 q-16.5 -54.5 -16.5 -114.5 q0 -47 23 -76.5 q23 -29.5 71 -29.5 Z" /><glyph glyph-name="q" unicode="q" d="M278 -240 l48 228 q4 17 10.5 43.5 q6.5 26.5 12.5 47 q6 20.5 6 20.5 l-4 0 q-33 -44 -73.5 -76.5 q-40.5 -32.5 -93.5 -32.5 q-61 0 -99 45.5 q-38 45.5 -38 134.5 q0 73 17.5 140.5 q17.5 67.5 51 120.5 q33.5 53 80 84 q46.5 31 105.5 31 q50 0 80.5 -28 q30.5 -28 45.5 -65 l5 0 l32 83 l66 0 l-165 -776 l-87 0 ZM215 63 q32 0 64.5 25 q32.5 25 59 68 q26.5 43 42.5 97.5 q16 54.5 16 112.5 q0 44 -21.5 75 q-21.5 31 -68.5 31 q-37 0 -68 -26 q-31 -26 -54 -69.5 q-23 -43.5 -35.5 -97.5 q-12.5 -54 -12.5 -110 q0 -106 78 -106 Z" /><glyph glyph-name="r" unicode="r" d="M26 0 l114 536 l71 0 l-11 -99 l5 0 q20 27 42.5 52 q22.5 25 50 41 q27.5 16 63.5 16 q13 0 27.5 -1.5 q14.5 -1.5 26.5 -5.5 l-19 -79 q-26 6 -49 6 q-47 0 -83.5 -33 q-36.5 -33 -61 -84 q-24.5 -51 -36.5 -104 l-52 -245 l-88 0 Z" /><glyph glyph-name="s" unicode="s" d="M148 -10 q-46 0 -81 9.5 q-35 9.5 -62 24.5 l1 81 q25 -16 62.5 -29.5 q37.5 -13.5 77.5 -13.5 q55 0 84 23.5 q29 23.5 29 61.5 q0 29 -17.5 48 q-17.5 19 -66.5 48 q-53 32 -80 66 q-27 34 -27 85 q1 68 49 110 q48 42 128 42 q46 0 85.5 -11.5 q39.5 -11.5 68.5 -25.5 l-28 -70 q-25 12 -56 22.5 q-31 10.5 -71 10.5 q-40 0 -64 -20.5 q-24 -20.5 -24 -53.5 q0 -26 16.5 -45 q16.5 -19 65.5 -48 q32 -20 57.5 -40 q25.5 -20 40 -46.5 q14.5 -26.5 13.5 -63.5 q-1 -81 -55.5 -123 q-54.5 -42 -145.5 -42 Z" /><glyph glyph-name="t" unicode="t" d="M177 -10 q-53 0 -87.5 26 q-34.5 26 -34.5 91 q2 33 9 71 l61 291 l-78 0 l8 40 l87 38 l60 111 l53 0 l-27 -122 l128 0 l-14 -67 l-128 0 l-62 -292 q-3 -13 -5.5 -29.5 q-2.5 -16.5 -2.5 -30.5 q-1 -23 10.5 -39 q11.5 -16 38.5 -16 q17 0 33 3.5 q16 3.5 35 9.5 l-1 -67 q-12 -6 -36.5 -12 q-24.5 -6 -46.5 -6 Z" /><glyph glyph-name="u" unicode="u" d="M179 -10 q-58 0 -92 33 q-34 33 -34 98 q0 23 3.5 44 q3.5 21 7.5 44 l70 327 l89 0 l-71 -337 q-10 -43 -10 -68 q0 -31 15 -49.5 q15 -18.5 49 -18.5 q32 0 69 24 q37 24 69 77 q32 53 51 141 l49 231 l86 0 l-114 -536 l-71 0 l11 99 l-4 0 q-18 -25 -43 -50 q-25 -25 -57 -42 q-32 -17 -73 -17 Z" /><glyph glyph-name="v" unicode="v" d="M105 0 l-54 536 l88 0 l25 -298 q2 -26 4 -61 q2 -35 3 -65.5 q1 -30.5 0 -44.5 l3 0 q10 25 24.5 57 q14.5 32 29 64 q14.5 32 24.5 53 l153 295 l93 0 l-281 -536 l-112 0 Z" /><glyph glyph-name="w" unicode="w" d="M75 0 l-15 536 l86 0 l4 -286 q1 -55 -1.5 -99.5 q-2.5 -44.5 -4.5 -73.5 l4 0 q7 21 18 49.5 q11 28.5 22.5 57 q11.5 28.5 21.5 49.5 l135 303 l96 0 l11 -287 q2 -37 1 -85.5 q-1 -48.5 -2 -86.5 l4 0 q12 38 31.5 89.5 q19.5 51.5 42.5 106.5 l112 263 l93 0 l-242 -536 l-105 0 l-10 290 q-1 40 -0.5 77 q0.5 37 1.5 84 l-4 0 q-13 -37 -26.5 -68.5 q-13.5 -31.5 -35.5 -82.5 l-134 -300 l-103 0 Z" /><glyph glyph-name="x" unicode="x" d="M-36 0 l223 276 l-107 260 l90 0 l75 -198 l148 198 l102 0 l-215 -264 l114 -272 l-90 0 l-82 208 l-156 -208 l-102 0 Z" /><glyph glyph-name="y" unicode="y" d="M-24 -240 q-23 0 -37.5 3 q-14.5 3 -28.5 7 l1 71 q13 -4 28 -6.5 q15 -2.5 32 -2.5 q39 0 66 25 q27 25 53 73 l33 62 l-72 544 l88 0 l30 -265 q3 -33 5.5 -71 q2.5 -38 3.5 -72.5 q1 -34.5 1 -55.5 l3 0 q6 16 19 48 q13 32 28 66 q15 34 26 56 l150 294 l94 0 l-329 -626 q-40 -75 -83.5 -112.5 q-43.5 -37.5 -110.5 -37.5 Z" /><glyph glyph-name="z" unicode="z" d="M-15 0 l12 60 l317 410 l-216 0 l15 66 l312 0 l-15 -71 l-311 -399 l239 0 l-13 -66 l-340 0 Z" /><glyph glyph-name="braceleft" unicode="{" d="M205 -158 q-67 0 -102.5 26 q-35.5 26 -35.5 82 q0 16 3 33 q3 17 8 37 l23 105 q7 29 7 55 q0 69 -96 69 l17 73 q55 0 88.5 21 q33.5 21 44.5 72 l32 157 q16 79 56.5 110.5 q40.5 31.5 120.5 31.5 l18 0 l-15 -73 q-42 0 -66 -15 q-24 -15 -34 -62 l-35 -156 q-11 -51 -39 -84 q-28 -33 -83 -43 l0 -2 q37 -11 53.5 -37.5 q16.5 -26.5 16.5 -64.5 q0 -14 -2.5 -31.5 q-2.5 -17.5 -6.5 -33.5 l-21 -102 q-3 -13 -5 -25 q-2 -12 -2 -22 q0 -29 19 -38.5 q19 -9.5 51 -9.5 l-1 -73 l-14 0 Z" /><glyph glyph-name="bar" unicode="|" d="M242 -241 l0 1001 l71 0 l0 -1001 l-71 0 Z" /><glyph glyph-name="braceright" unicode="}" d="M-38 -158 l1 73 q44 0 70.5 15 q26.5 15 37.5 62 l35 156 q11 51 38.5 83.5 q27.5 32.5 83.5 42.5 l0 3 q-37 11 -53.5 37 q-16.5 26 -16.5 64 q0 14 2.5 31.5 q2.5 17.5 6.5 33.5 l23 103 q3 12 5 24.5 q2 12.5 2 22.5 q0 29 -21.5 38.5 q-21.5 9.5 -59.5 9.5 l15 73 l6 0 q140 0 140 -108 q0 -16 -2.5 -33 q-2.5 -17 -7.5 -37 l-23 -106 q-4 -16 -6 -29 q-2 -13 -2 -25 q0 -69 96 -69 l-17 -73 q-55 0 -88 -21 q-33 -21 -44 -72 l-32 -157 q-11 -56 -33.5 -87 q-22.5 -31 -58.5 -43 q-36 -12 -89 -12 l-8 0 Z" /><glyph glyph-name="asciitilde" unicode="~" d="M273 319 q-35 16 -57.5 21.5 q-22.5 5.5 -42.5 5.5 q-26 0 -55.5 -17 q-29.5 -17 -51.5 -42 l0 78 q45 53 113 53 q27 0 54 -6 q27 -6 71 -26 q34 -16 56 -21.5 q22 -5.5 42 -5.5 q27 0 56.5 17 q29.5 17 51.5 42 l0 -77 q-46 -54 -113 -54 q-27 0 -54.5 6.5 q-27.5 6.5 -69.5 25.5 Z" /><glyph glyph-name="uni00A0" unicode=" " d="" /><glyph glyph-name="exclamdown" unicode="¡" d="M168 411 q-51 0 -51 51 q0 33 18.5 58.5 q18.5 25.5 56.5 25.5 q48 0 48 -53 q0 -29 -17.5 -55.5 q-17.5 -26.5 -54.5 -26.5 ZM-13 -182 l127 513 l71 0 l-92 -513 l-106 0 Z" /><glyph glyph-name="cent" unicode="¢" d="M207 -10 l21 105 q-56 16 -90.5 63.5 q-34.5 47.5 -34.5 126.5 q0 91 29 167.5 q29 76.5 82.5 127 q53.5 50.5 126.5 62.5 l16 82 l62 0 l-18 -82 q58 -5 101 -24 l-26 -73 q-20 9 -45 17 q-25 8 -56 8 q-54 0 -95 -39 q-41 -39 -64 -103.5 q-23 -64.5 -23 -140.5 q0 -60 29 -93.5 q29 -33.5 80 -33.5 q34 0 64 10 q30 10 58 24 l0 -75 q-26 -13 -59 -22 q-33 -9 -75 -10 l-20 -97 l-63 0 Z" /><glyph glyph-name="sterling" unicode="£" d="M-10 0 l15 74 q41 10 74 42 q33 32 46 98 l21 102 l-92 0 l14 66 l93 0 l35 167 q20 96 75 135 q55 39 129 39 q50 0 90 -12.5 q40 -12.5 68 -29.5 l-34 -69 q-23 13 -55 25.5 q-32 12.5 -71 12.5 q-38 0 -70.5 -23 q-32.5 -23 -46.5 -90 l-32 -155 l166 0 l-14 -66 l-167 0 l-21 -101 q-13 -61 -38 -90 q-25 -29 -54 -45 l332 0 l-18 -80 l-445 0 Z" /><glyph glyph-name="currency" unicode="¤" d="M438 139 l-59 62 q-21 -15 -46 -23.5 q-25 -8.5 -53 -8.5 q-28 0 -53 9 q-25 9 -46 24 l-59 -62 l-45 47 l60 62 q-15 22 -23 48 q-8 26 -7 56 q0 29 8.5 55 q8.5 26 23.5 49 l-59 63 l47 48 l58 -63 q21 15 46.5 24 q25.5 9 52.5 9 q28 0 52.5 -9 q24.5 -9 45.5 -24 l61 63 l46 -47 l-60 -63 q13 -22 21.5 -49 q8.5 -27 8.5 -56 q-1 -30 -9.5 -56.5 q-8.5 -26.5 -22.5 -48.5 l58 -62 l-47 -47 ZM281 236 q47 0 80 34 q33 34 33 83 q1 50 -31.5 84.5 q-32.5 34.5 -78.5 34.5 q-46 0 -78 -34.5 q-32 -34.5 -33 -84.5 q-1 -49 30.5 -83 q31.5 -34 77.5 -34 Z" /><glyph glyph-name="yen" unicode="¥" d="M163 0 l27 128 l-133 0 l15 67 l132 0 l16 77 l-133 0 l15 67 l103 0 l-90 375 l86 0 l74 -358 l223 358 l96 0 l-249 -375 l105 0 l-14 -67 l-135 0 l-16 -77 l135 0 l-15 -67 l-133 0 l-28 -128 l-81 0 Z" /><glyph glyph-name="brokenbar" unicode="¦" d="M242 379 l0 381 l71 0 l0 -381 l-71 0 ZM242 -241 l0 381 l71 0 l0 -381 l-71 0 Z" /><glyph glyph-name="section" unicode="§" d="M165 -5 q-48 0 -83 9.5 q-35 9.5 -57 21.5 l1 75 q25 -14 62.5 -26.5 q37.5 -12.5 77.5 -12.5 q59 0 90 21.5 q31 21.5 31 61.5 q0 23 -20 42 q-20 19 -70 43 q-53 25 -83.5 56.5 q-30.5 31.5 -30.5 87.5 q0 58 32.5 94 q32.5 36 76.5 57 q-22 16 -37 39.5 q-15 23.5 -15 58.5 q0 59 47.5 100.5 q47.5 41.5 134.5 41.5 q45 0 83 -9 q38 -9 68 -25 l-28 -63 q-31 14 -61.5 22 q-30.5 8 -62.5 8 q-36 0 -67 -16.5 q-31 -16.5 -31 -55.5 q0 -26 20.5 -43 q20.5 -17 68.5 -40 q50 -24 82 -55.5 q32 -31.5 32 -84.5 q0 -51 -30 -91 q-30 -40 -77 -65 q21 -15 36 -37 q15 -22 15 -55 q0 -70 -52 -115 q-52 -45 -153 -45 ZM270 277 q30 17 53.5 46.5 q23.5 29.5 23.5 67.5 q0 30 -23.5 52.5 q-23.5 22.5 -79.5 47.5 q-30 -10 -57 -37.5 q-27 -27.5 -27 -68.5 q0 -34 24 -56 q24 -22 86 -52 Z" /><glyph glyph-name="dieresis" unicode="¨" d="M427 631 q-17 0 -29 11 q-12 11 -11 31 q0 23 13.5 40 q13.5 17 38.5 17 q19 0 29 -11 q10 -11 10 -29 q0 -28 -16 -43.5 q-16 -15.5 -35 -15.5 ZM257 631 q-19 0 -30.5 11 q-11.5 11 -11.5 31 q0 23 13.5 40 q13.5 17 38.5 17 q20 0 30 -11 q10 -11 10 -29 q-1 -28 -16 -43.5 q-15 -15.5 -34 -15.5 Z" /><glyph glyph-name="copyright" unicode="©" d="M412 -10 q-72 0 -134.5 28 q-62.5 28 -110 78 q-47.5 50 -74 116 q-26.5 66 -26.5 142 q0 76 27.5 143.5 q27.5 67.5 76 118 q48.5 50.5 112.5 79.5 q64 29 137 29 q72 0 134.5 -28 q62.5 -28 109.5 -78 q47 -50 73.5 -116 q26.5 -66 26.5 -142 q0 -76 -27.5 -143.5 q-27.5 -67.5 -76 -118 q-48.5 -50.5 -112 -79.5 q-63.5 -29 -136.5 -29 ZM412 43 q63 0 117.5 24.5 q54.5 24.5 96.5 68 q42 43.5 65.5 101 q23.5 57.5 23.5 123.5 q0 64 -23 120.5 q-23 56.5 -63.5 99 q-40.5 42.5 -94.5 67 q-54 24.5 -115 24.5 q-62 0 -116.5 -24.5 q-54.5 -24.5 -96.5 -68 q-42 -43.5 -65.5 -101 q-23.5 -57.5 -23.5 -123.5 q0 -64 23 -120.5 q23 -56.5 63.5 -99 q40.5 -42.5 94 -67 q53.5 -24.5 114.5 -24.5 ZM428 133 q-92 0 -138.5 60 q-46.5 60 -46.5 160 q0 101 49.5 164 q49.5 63 144.5 63 q60 0 117 -30 l-30 -61 q-49 26 -89 26 q-57 0 -88 -42.5 q-31 -42.5 -31 -119.5 q0 -75 28 -115 q28 -40 88 -40 q21 0 48.5 6.5 q27.5 6.5 50.5 15.5 l-1 -63 q-21 -10 -45 -17 q-24 -7 -57 -7 Z" /><glyph glyph-name="ordfeminine" unicode="ª" d="M167 383 q-35 0 -59.5 28 q-24.5 28 -24.5 82 q0 57 17.5 109.5 q17.5 52.5 52.5 86 q35 33.5 86 33.5 q30 0 47 -15 q17 -15 25 -35 l3 0 l18 44 l45 0 l-70 -327 l-46 0 l7 56 l-3 0 q-19 -26 -41.5 -44 q-22.5 -18 -56.5 -18 ZM187 436 q26 0 45.5 17.5 q19.5 17.5 33 45 q13.5 27.5 20 56.5 q6.5 29 6.5 53 q0 28 -12.5 45 q-12.5 17 -38.5 17 q-30 0 -52.5 -25.5 q-22.5 -25.5 -34.5 -65 q-12 -39.5 -12 -79.5 q0 -64 45 -64 Z" /><glyph glyph-name="guillemotleft" unicode="«" d="M145 54 l-103 217 l0 13 l185 187 l44 -43 l-138 -160 l75 -188 l-63 -26 ZM329 54 l-97 197 l0 14 l175 201 l48 -38 l-133 -177 l70 -171 l-63 -26 Z" /><glyph glyph-name="logicalnot" unicode="¬" d="M509 388 l0 -260 l-69 0 l0 189 l-374 0 l0 71 l443 0 Z" /><glyph glyph-name="registered" unicode="®" d="M412 -10 q-72 0 -134.5 28 q-62.5 28 -110 78 q-47.5 50 -74 116 q-26.5 66 -26.5 142 q0 76 27.5 143.5 q27.5 67.5 76 118 q48.5 50.5 112.5 79.5 q64 29 137 29 q72 0 134.5 -28 q62.5 -28 109.5 -78 q47 -50 73.5 -116 q26.5 -66 26.5 -142 q0 -76 -27.5 -143.5 q-27.5 -67.5 -76 -118 q-48.5 -50.5 -112 -79.5 q-63.5 -29 -136.5 -29 ZM412 43 q63 0 117.5 24.5 q54.5 24.5 96.5 68 q42 43.5 65.5 101 q23.5 57.5 23.5 123.5 q0 64 -23 120.5 q-23 56.5 -63.5 99 q-40.5 42.5 -94.5 67 q-54 24.5 -115 24.5 q-62 0 -116.5 -24.5 q-54.5 -24.5 -96.5 -68 q-42 -43.5 -65.5 -101 q-23.5 -57.5 -23.5 -123.5 q0 -64 23 -120.5 q23 -56.5 63.5 -99 q40.5 -42.5 94 -67 q53.5 -24.5 114.5 -24.5 ZM300 142 l0 430 l111 0 q149 0 149 -124 q0 -33 -13.5 -56.5 q-13.5 -23.5 -33 -39 q-19.5 -15.5 -38.5 -23.5 l103 -187 l-74 0 l-92 170 l-50 0 l0 -170 l-62 0 ZM362 372 l41 0 q47 0 69 19 q22 19 22 54 q0 35 -22.5 50 q-22.5 15 -66.5 15 l-43 0 l0 -138 Z" /><glyph glyph-name="overscore" unicode="¯" d="M103 760 l16 67 l384 0 l-18 -67 l-382 0 Z" /><glyph glyph-name="degree" unicode="°" d="M250 417 q-40 0 -73.5 20 q-33.5 20 -53 54.5 q-19.5 34.5 -19.5 78.5 q0 44 19.5 78.5 q19.5 34.5 53 55 q33.5 20.5 73.5 20.5 q40 0 73 -20.5 q33 -20.5 53 -55 q20 -34.5 20 -78.5 q0 -44 -20 -78.5 q-20 -34.5 -53 -54.5 q-33 -20 -73 -20 ZM251 476 q36 0 61 27.5 q25 27.5 25 66.5 q0 40 -25 67 q-25 27 -61 27 q-36 0 -62 -27 q-26 -27 -26 -67 q0 -39 26 -66.5 q26 -27.5 62 -27.5 Z" /><glyph glyph-name="plusminus" unicode="±" d="M343 391 l186 0 l0 -71 l-186 0 l0 -206 l-71 0 l0 206 l-186 0 l0 71 l186 0 l0 207 l71 0 l0 -207 ZM86 0 l0 71 l444 0 l0 -71 l-444 0 Z" /><glyph glyph-name="uni00B2" unicode="²" d="M71 416 l12 55 l124 110 q58 52 84.5 86 q26.5 34 26.5 74 q0 24 -14 39 q-14 15 -39 15 q-43 0 -90 -39 l-30 47 q30 25 62.5 37.5 q32.5 12.5 71.5 12.5 q39 0 63 -15 q24 -15 35 -38 q11 -23 11 -48 q0 -33 -12 -61 q-12 -28 -38 -58 q-26 -30 -70 -69 l-97 -87 l180 0 l-13 -61 l-267 0 Z" /><glyph glyph-name="uni00B3" unicode="³" d="M191 409 q-31 0 -59.5 7.5 q-28.5 7.5 -50.5 19.5 l1 65 q25 -15 53.5 -25 q28.5 -10 57.5 -10 q47 0 70.5 22 q23.5 22 23.5 60 q0 63 -77 63 l-45 0 l12 55 l44 0 q43 0 69.5 19.5 q26.5 19.5 26.5 54.5 q0 58 -59 56 q-24 -1 -45.5 -9.5 q-21.5 -8.5 -41.5 -23.5 l-27 48 q23 18 55.5 30.5 q32.5 12.5 72.5 12.5 q58 0 86 -28 q28 -28 28 -72 q0 -46 -26 -73.5 q-26 -27.5 -72 -40.5 l0 -4 q33 -8 50.5 -32 q17.5 -24 17.5 -58 q0 -58 -41 -97.5 q-41 -39.5 -124 -39.5 Z" /><glyph glyph-name="acute" unicode="´" d="M115 606 l0 13 q17 19 37 45 q20 26 38.5 53 q18.5 27 32.5 49 l99 0 l0 -10 q-14 -18 -40.5 -46.5 q-26.5 -28.5 -56.5 -57 q-30 -28.5 -54 -46.5 l-56 0 Z" /><glyph glyph-name="paragraph" unicode="¶" d="M354 -127 l0 400 q-28 -9 -68 -9 q-59 0 -102 23 q-43 23 -66.5 77 q-23.5 54 -23.5 145 q0 95 27 150 q27 55 74.5 78 q47.5 23 110.5 23 l257 0 l0 -887 l-57 0 l0 809 l-95 0 l0 -809 l-57 0 Z" /><glyph glyph-name="cedilla" unicode="¸" d="M-39 -240 q-27 0 -45 5 l0 52 q10 -2 20 -3 q10 -1 17 -1 q76 0 76 53 q0 22 -17.5 32 q-17.5 10 -46.5 14 l47 88 l55 0 l-27 -57 q22 -7 41.5 -23.5 q19.5 -16.5 19.5 -53.5 q0 -45 -36.5 -75.5 q-36.5 -30.5 -103.5 -30.5 Z" /><glyph glyph-name="uni00B9" unicode="¹" d="M179 415 l52 251 q5 25 13 56.5 q8 31.5 14 52.5 q-8 -7 -19 -18 q-11 -11 -22 -19 l-50 -34 l-28 47 l140 92 l61 0 l-91 -428 l-70 0 Z" /><glyph glyph-name="ordmasculine" unicode="º" d="M202 383 q-50 0 -82.5 32 q-32.5 32 -32.5 97 q0 52 18 100 q18 48 53.5 79 q35.5 31 88.5 31 q60 0 87 -35.5 q27 -35.5 27 -90.5 q0 -52 -16 -100.5 q-16 -48.5 -51.5 -80.5 q-35.5 -32 -91.5 -32 ZM208 435 q32 0 52.5 23 q20.5 23 31 59.5 q10.5 36.5 10.5 75.5 q0 40 -15.5 58 q-15.5 18 -42.5 18 q-32 0 -54 -22 q-22 -22 -33 -57.5 q-11 -35.5 -11 -75.5 q0 -40 16.5 -59.5 q16.5 -19.5 45.5 -19.5 Z" /><glyph glyph-name="guillemotright" unicode="»" d="M238 54 l-44 43 l138 159 l-75 189 l63 26 l103 -218 l0 -14 l-185 -185 ZM58 60 l-48 37 l133 175 l-70 173 l63 26 l97 -198 l0 -15 l-175 -198 Z" /><glyph glyph-name="AE" unicode="æ" d="M-55 0 l441 714 l447 0 l-16 -79 l-259 0 l-47 -223 l242 0 l-16 -78 l-242 0 l-53 -255 l258 0 l-18 -79 l-347 0 l46 222 l-203 0 l-132 -222 l-101 0 ZM230 302 l168 0 l70 333 l-39 0 l-199 -333 Z" /><glyph glyph-name="Eth" unicode="ð" d="M38 0 l67 315 l-71 0 l18 77 l69 0 l68 322 l162 0 q121 0 190 -69 q69 -69 69 -211 q0 -125 -47 -223 q-47 -98 -136.5 -154.5 q-89.5 -56.5 -218.5 -56.5 l-170 0 ZM144 77 l70 0 q98 0 165.5 47.5 q67.5 47.5 102 128.5 q34.5 81 34.5 181 q0 107 -48 155 q-48 48 -128 48 l-79 0 l-51 -245 l147 0 l-18 -77 l-145 0 l-50 -238 Z" /><glyph glyph-name="multiply" unicode="×" d="M447 574 l49 -51 l-159 -170 l158 -170 l-49 -51 l-159 169 l-156 -169 l-50 51 l157 170 l-158 169 l50 52 l158 -171 l159 171 Z" /><glyph glyph-name="Oslash" unicode="ø" d="M109 -41 l-55 46 l63 82 q-24 35 -35.5 81 q-11.5 46 -10.5 99 q1 92 25 175 q24 83 69 146.5 q45 63.5 109.5 100 q64.5 36.5 145.5 36.5 q88 0 150 -52 l60 79 l56 -46 l-68 -88 q22 -31 33 -76.5 q11 -45.5 10 -97.5 q-1 -93 -23 -175 q-22 -82 -65 -144.5 q-43 -62.5 -106.5 -98.5 q-63.5 -36 -146.5 -36 q-91 0 -152 46 l-59 -77 ZM180 164 l335 442 q-39 41 -102 41 q-56 0 -101.5 -29.5 q-45.5 -29.5 -78.5 -81.5 q-33 -52 -50.5 -120.5 q-17.5 -68.5 -18.5 -146.5 q-2 -60 16 -105 ZM324 69 q56 0 100.5 30 q44.5 30 76.5 82.5 q32 52.5 49 120.5 q17 68 18 144 q1 27 -2.5 51 q-3.5 24 -9.5 43 l-335 -437 q19 -16 45 -25 q26 -9 58 -9 Z" /><glyph glyph-name="Thorn" unicode="þ" d="M38 0 l151 714 l89 0 l-26 -124 l66 0 q110 0 157.5 -51 q47.5 -51 46.5 -135 q-2 -121 -79.5 -185 q-77.5 -64 -222.5 -64 l-60 0 l-33 -155 l-89 0 ZM176 231 l59 0 q88 0 141.5 40.5 q53.5 40.5 54.5 129.5 q0 60 -30.5 86 q-30.5 26 -94.5 26 l-72 0 l-58 -282 Z" /><glyph glyph-name="germandbls" unicode="ß" d="M-62 -240 q-34 0 -59 10 l1 75 q24 -11 51 -11 q30 0 49.5 22.5 q19.5 22.5 30.5 75.5 l136 638 q21 98 75.5 146.5 q54.5 48.5 148.5 48.5 q75 0 120.5 -34 q45.5 -34 45.5 -98 q0 -53 -29 -88 q-29 -35 -66 -63 q-31 -23 -54.5 -45 q-23.5 -22 -23.5 -49 q0 -15 10.5 -28 q10.5 -13 24 -24.5 q13.5 -11.5 22.5 -19.5 q36 -32 57.5 -63.5 q21.5 -31.5 21.5 -77.5 q0 -65 -26.5 -105.5 q-26.5 -40.5 -70 -60 q-43.5 -19.5 -95.5 -19.5 q-43 0 -74.5 9.5 q-31.5 9.5 -51.5 25.5 l1 81 q19 -16 50.5 -30 q31.5 -14 63.5 -14 q57 0 85.5 30 q28.5 30 28.5 72 q0 32 -14.5 53 q-14.5 21 -47.5 49 q-39 32 -55.5 58.5 q-16.5 26.5 -16.5 57.5 q0 34 13.5 59 q13.5 25 34.5 43 q21 18 44 35 q31 23 56 47.5 q25 24.5 25 60.5 q0 31 -24 48.5 q-24 17.5 -64 17.5 q-55 0 -85.5 -31 q-30.5 -31 -43.5 -92 l-132 -632 q-17 -83 -54.5 -130.5 q-37.5 -47.5 -108.5 -47.5 Z" /><glyph glyph-name="ae" unicode="æ" d="M169 -10 q-55 0 -88.5 46 q-33.5 46 -33.5 132 q0 76 18.5 144.5 q18.5 68.5 52 121 q33.5 52.5 78.5 82.5 q45 30 97 30 q46 0 73 -28 q27 -28 43 -65 l4 0 l32 83 l56 0 l-14 -69 q25 35 63.5 57 q38.5 22 88.5 22 q53 0 90 -30.5 q37 -30.5 37 -94.5 q0 -53 -31 -95.5 q-31 -42.5 -97 -68 q-66 -25.5 -171 -25.5 l-19 0 q-1 -9 -1.5 -19 q-0.5 -10 -0.5 -18 q0 -61 27.5 -96.5 q27.5 -35.5 86.5 -35.5 q35 0 68.5 12 q33.5 12 70.5 29 l-1 -77 q-38 -18 -75.5 -27.5 q-37.5 -9.5 -78.5 -9.5 q-50 0 -87 19 q-37 19 -57 57 l-13 -66 l-59 0 l13 99 l-4 0 q-38 -49 -76.5 -79 q-38.5 -30 -91.5 -30 ZM461 303 l10 0 q57 0 104 10.5 q47 10.5 75.5 34.5 q28.5 24 28.5 65 q0 31 -17 45.5 q-17 14.5 -41 14.5 q-51 0 -94 -44.5 q-43 -44.5 -66 -125.5 ZM200 63 q34 0 66 27 q32 27 58.5 73 q26.5 46 41.5 104 q8 29 10.5 54.5 q2.5 25.5 2.5 45.5 q0 47 -19.5 76 q-19.5 29 -55.5 29 q-35 0 -65 -25 q-30 -25 -53 -67.5 q-23 -42.5 -36 -97 q-13 -54.5 -13 -113.5 q0 -106 63 -106 Z" /><glyph glyph-name="eth" unicode="ð" d="M224 -10 q-84 0 -133 49.5 q-49 49.5 -49 140.5 q0 78 30 144.5 q30 66.5 85 107.5 q55 41 130 41 q54 0 86 -24.5 q32 -24.5 46 -56.5 l3 1 q0 56 -12 108.5 q-12 52.5 -51 104.5 l-123 -72 l-28 54 l108 63 q-14 13 -30 27 q-16 14 -36 27 l46 60 q23 -16 46 -33.5 q23 -17.5 44 -40.5 l120 70 l30 -53 l-108 -64 q32 -44 52.5 -102 q20.5 -58 20.5 -139 q0 -72 -14 -145 q-14 -73 -46.5 -133.5 q-32.5 -60.5 -85.5 -97.5 q-53 -37 -131 -37 ZM230 63 q46 0 78 23 q32 23 51.5 58 q19.5 35 28 72.5 q8.5 37.5 8.5 65.5 q0 28 -10 55.5 q-10 27.5 -33 45.5 q-23 18 -62 18 q-55 0 -90.5 -32.5 q-35.5 -32.5 -52 -83 q-16.5 -50.5 -16.5 -103.5 q0 -52 23 -85.5 q23 -33.5 75 -33.5 Z" /><glyph glyph-name="divide" unicode="÷" d="M287 462 q-22 0 -37.5 14.5 q-15.5 14.5 -15.5 46.5 q0 34 15.5 47 q15.5 13 37.5 13 q22 0 37.5 -13 q15.5 -13 15.5 -47 q0 -32 -15.5 -46.5 q-15.5 -14.5 -37.5 -14.5 ZM66 317 l0 71 l444 0 l0 -71 l-444 0 ZM287 121 q-22 0 -37.5 14.5 q-15.5 14.5 -15.5 46.5 q0 34 15.5 47 q15.5 13 37.5 13 q22 0 37.5 -13 q15.5 -13 15.5 -47 q0 -32 -15.5 -46.5 q-15.5 -14.5 -37.5 -14.5 Z" /><glyph glyph-name="oslash" unicode="ø" d="M78 -38 l-51 41 l52 67 q-31 49 -31 125 q0 61 16.5 123 q16.5 62 49 112.5 q32.5 50.5 81 81.5 q48.5 31 112.5 31 q69 0 115 -32 l46 61 l51 -40 l-52 -62 q14 -23 20.5 -56.5 q6.5 -33.5 6.5 -66.5 q0 -61 -16 -124 q-16 -63 -48.5 -115 q-32.5 -52 -80.5 -84 q-48 -32 -112 -32 q-65 0 -112 31 l-47 -61 ZM140 143 l232 306 q-10 9 -25.5 15.5 q-15.5 6.5 -39.5 6.5 q-53 0 -92 -38 q-39 -38 -60.5 -100 q-21.5 -62 -21.5 -133 q0 -38 7 -57 ZM242 63 q46 0 83.5 34 q37.5 34 60.5 96 q23 62 23 146 q0 32 -5 49 l-230 -304 q12 -10 30 -15.5 q18 -5.5 38 -5.5 Z" /><glyph glyph-name="thorn" unicode="þ" d="M-24 -240 l211 1000 l88 0 l-38 -179 q-9 -43 -18.5 -80 q-9.5 -37 -17.5 -65 l3 0 q34 44 75 76.5 q41 32.5 93 32.5 q62 0 99.5 -45.5 q37.5 -45.5 37.5 -134.5 q0 -73 -17 -140 q-17 -67 -49.5 -120 q-32.5 -53 -78.5 -84 q-46 -31 -105 -31 q-51 0 -82.5 27.5 q-31.5 27.5 -47.5 64.5 l-5 0 q-1 -15 -5 -44 q-4 -29 -8 -47 l-48 -231 l-87 0 ZM251 63 q37 0 68 26 q31 26 53.5 69.5 q22.5 43.5 34.5 97.5 q12 54 12 110 q0 106 -78 106 q-33 0 -68 -27.5 q-35 -27.5 -63 -75 q-28 -47.5 -42 -107.5 q-11 -47 -11 -93 q0 -47 22.5 -76.5 q22.5 -29.5 71.5 -29.5 Z" /><glyph glyph-name="dcroat" unicode="&#x111;" d="M184 -10 q-61 0 -99 45.5 q-38 45.5 -38 134.5 q0 73 17 140.5 q17 67.5 49.5 120.5 q32.5 53 78.5 84 q46 31 105 31 q52 0 83 -27.5 q31 -27.5 46 -63.5 l5 0 q2 18 5.5 42.5 q3.5 24.5 7.5 46.5 l12 60 l-167 0 l14 66 l169 0 l18 90 l87 0 l-19 -90 l70 0 l-15 -66 l-69 0 l-128 -604 l-71 0 l11 99 l-4 0 q-34 -44 -74.5 -76.5 q-40.5 -32.5 -93.5 -32.5 ZM215 63 q31 0 63 24.5 q32 24.5 59.5 67 q27.5 42.5 44 97 q16.5 54.5 16.5 114.5 q0 48 -22 77.5 q-22 29.5 -70 29.5 q-38 0 -69 -26 q-31 -26 -53.5 -70 q-22.5 -44 -34.5 -98 q-12 -54 -12 -110 q0 -106 78 -106 Z" /><glyph glyph-name="eogonek" unicode="&#x119;" d="M231 -10 q-88 0 -136 54 q-48 54 -48 145 q0 64 18 127 q18 63 52 115 q34 52 82 83.5 q48 31.5 109 31.5 q73 0 109.5 -32.5 q36.5 -32.5 36.5 -90.5 q0 -53 -31 -96.5 q-31 -43.5 -97 -69 q-66 -25.5 -171 -25.5 l-17 0 q-1 -10 -1.5 -20 q-0.5 -10 -0.5 -19 q0 -61 27.5 -95.5 q27.5 -34.5 84.5 -34.5 q36 0 68.5 10.5 q32.5 10.5 71.5 30.5 l-1 -75 q-8 -4 -15 -7 q-29 -23 -55 -47 q-26 -24 -43 -49.5 q-17 -25.5 -17 -51.5 q0 -33 33 -33 q10 0 20.5 1.5 q10.5 1.5 19.5 2.5 l0 -55 q-13 -4 -27.5 -5.5 q-14.5 -1.5 -28.5 -1.5 q-38 0 -63.5 19.5 q-25.5 19.5 -25.5 60.5 q0 44 26 74 q26 30 67 56 q-22 -3 -47 -3 ZM151 303 l8 0 q57 0 104.5 10.5 q47.5 10.5 76 35.5 q28.5 25 28.5 66 q0 25 -16 41.5 q-16 16.5 -50 16.5 q-45 0 -87.5 -44.5 q-42.5 -44.5 -63.5 -125.5 Z" /><glyph glyph-name="Hbar" unicode="&#x126;" d="M38 0 l110 522 l-86 0 l15 72 l86 0 l26 120 l89 0 l-26 -120 l293 0 l25 120 l90 0 l-25 -120 l86 0 l-14 -72 l-88 0 l-110 -522 l-90 0 l70 333 l-292 0 l-70 -333 l-89 0 ZM214 412 l293 0 l22 110 l-292 0 l-23 -110 Z" /><glyph glyph-name="hbar" unicode="&#x127;" d="M26 0 l129 604 l-72 0 l15 66 l70 0 l19 90 l88 0 l-20 -90 l159 0 l-15 -66 l-157 0 q-14 -57 -25.5 -103.5 q-11.5 -46.5 -17.5 -72.5 l5 0 q18 25 42.5 50.5 q24.5 25.5 56 42.5 q31.5 17 71.5 17 q60 0 93.5 -35 q33.5 -35 33.5 -102 q0 -20 -3.5 -40 q-3.5 -20 -7.5 -44 l-67 -317 l-88 0 l69 327 q9 45 9 66 q0 34 -15.5 53 q-15.5 19 -49.5 19 q-32 0 -69 -24 q-37 -24 -69 -77.5 q-32 -53.5 -50 -140.5 l-46 -223 l-88 0 Z" /><glyph glyph-name="kgreenlandic" unicode="&#x138;" d="M25 0 l113 536 l89 0 l-29 -135 q-8 -37 -18 -71 q-10 -34 -16 -54 l2 0 l242 260 l103 0 l-222 -230 l133 -306 l-97 0 l-103 251 l-68 -57 l-40 -194 l-89 0 Z" /><glyph glyph-name="Lslash" unicode="&#x141;" d="M37 0 l53 246 l-48 -30 l-30 58 l96 57 l80 383 l90 0 l-68 -325 l103 63 l31 -56 l-153 -92 l-46 -224 l257 0 l-17 -80 l-348 0 Z" /><glyph glyph-name="lslash" unicode="&#x142;" d="M26 0 l60 285 l-51 -33 l-29 55 l98 62 l84 391 l88 0 l-70 -332 l54 34 l27 -55 l-100 -62 l-73 -345 l-88 0 Z" /><glyph glyph-name="Eng" unicode="&#x14a;" d="M331 -189 q-23 0 -43 3.5 q-20 3.5 -30 8.5 l3 77 q14 -4 31.5 -7 q17.5 -3 37.5 -3 q42 0 74 25 q32 25 45 85 l-208 592 l-4 0 q-5 -38 -14.5 -93.5 q-9.5 -55.5 -20.5 -110.5 l-82 -388 l-83 0 l151 714 l95 0 l200 -583 l3 0 q6 42 16 98.5 q10 56.5 21 109.5 l79 375 l86 0 l-151 -714 q-22 -101 -75.5 -145 q-53.5 -44 -130.5 -44 Z" /><glyph glyph-name="eng" unicode="&#x14b;" d="M247 -240 q-17 0 -32.5 3 q-15.5 3 -28.5 7 l1 74 q13 -4 26 -7.5 q13 -3.5 29 -3.5 q57 0 78 99 l85 404 q5 23 8 39.5 q3 16.5 3 30.5 q0 30 -16 48 q-16 18 -50 18 q-32 0 -68.5 -23.5 q-36.5 -23.5 -69 -76.5 q-32.5 -53 -50.5 -141 l-48 -231 l-88 0 l114 536 l71 0 l-11 -99 l5 0 q19 25 43 50 q24 25 56 42 q32 17 72 17 q58 0 93 -33 q35 -33 35 -97 q0 -24 -4 -45.5 q-4 -21.5 -8 -44.5 l-85 -404 q-16 -74 -52 -118 q-36 -44 -108 -44 Z" /><glyph glyph-name="OE" unicode="&#x152;" d="M319 -10 q-122 0 -185.5 74.5 q-63.5 74.5 -63.5 202.5 q0 92 24 175 q24 83 69.5 146.5 q45.5 63.5 110 100 q64.5 36.5 145.5 36.5 q68 0 108 -11 l337 0 l-17 -79 l-258 0 l-47 -223 l241 0 l-17 -78 l-241 0 l-53 -255 l258 0 l-17 -79 l-319 0 q-17 -4 -36 -7 q-19 -3 -39 -3 ZM323 69 q33 0 59 9 l117 557 q-38 11 -87 11 q-56 0 -101.5 -29.5 q-45.5 -29.5 -78.5 -81 q-33 -51.5 -50.5 -120 q-17.5 -68.5 -17.5 -146.5 q0 -95 42 -147.5 q42 -52.5 117 -52.5 Z" /><glyph glyph-name="oe" unicode="&#x153;" d="M230 -8 q-84 0 -133.5 54.5 q-49.5 54.5 -49.5 148.5 q0 61 16.5 123 q16.5 62 49.5 112.5 q33 50.5 82.5 81.5 q49.5 31 115.5 31 q67 0 105 -30.5 q38 -30.5 56 -76.5 q35 52 83 81 q48 29 104 29 q63 0 102 -30.5 q39 -30.5 39 -92.5 q0 -53 -30 -96.5 q-30 -43.5 -95.5 -69 q-65.5 -25.5 -170.5 -25.5 l-20 0 q-3 -20 -3 -39 q0 -61 28 -95.5 q28 -34.5 84 -34.5 q36 0 68.5 11.5 q32.5 11.5 71.5 29.5 l-1 -77 q-38 -19 -75 -28 q-37 -9 -81 -9 q-59 0 -101 27 q-42 27 -62 79 q-31 -47 -76 -75.5 q-45 -28.5 -107 -28.5 ZM494 303 l11 0 q57 0 104.5 11 q47.5 11 76 36 q28.5 25 28.5 68 q0 22 -14 38.5 q-14 16.5 -43 16.5 q-52 0 -96.5 -42.5 q-44.5 -42.5 -66.5 -127.5 ZM237 65 q55 0 92.5 38 q37.5 38 57 102 q19.5 64 19.5 143 q0 56 -24.5 89 q-24.5 33 -75.5 33 q-52 0 -90.5 -38 q-38.5 -38 -59 -100 q-20.5 -62 -20.5 -135 q0 -65 27 -98.5 q27 -33.5 74 -33.5 Z" /><glyph glyph-name="Tbar" unicode="&#x166;" d="M143 0 l68 327 l-129 0 l17 73 l127 0 l50 235 l-185 0 l18 79 l459 0 l-17 -79 l-184 0 l-50 -235 l132 0 l-16 -73 l-132 0 l-69 -327 l-89 0 Z" /><glyph glyph-name="tbar" unicode="&#x167;" d="M177 -10 q-52 0 -87 26 q-35 26 -34 91 q0 29 8 71 l21 104 l-63 0 l14 66 l64 0 l25 121 l-78 0 l9 40 l86 38 l60 111 l53 0 l-27 -122 l129 0 l-15 -67 l-128 0 l-25 -121 l111 0 l-13 -66 l-113 0 l-21 -105 q-3 -13 -6 -29.5 q-3 -16.5 -3 -30.5 q0 -23 11.5 -39 q11.5 -16 37.5 -16 q17 0 33 3.5 q16 3.5 35 9.5 l-1 -67 q-12 -6 -36.5 -12 q-24.5 -6 -46.5 -6 Z" /><glyph glyph-name="longs" unicode="&#x17f;" d="M-62 -240 q-35 0 -60 10 l1 74 q12 -4 24.5 -7.5 q12.5 -3.5 27.5 -3.5 q60 0 84 114 l135 640 q14 69 37 107.5 q23 38.5 57 54.5 q34 16 82 16 q25 0 50 -5.5 q25 -5.5 41 -13.5 l-24 -67 q-13 5 -29 9.5 q-16 4.5 -33 4.5 q-37 0 -58.5 -22 q-21.5 -22 -34.5 -84 l-137 -650 q-18 -83 -55.5 -130 q-37.5 -47 -107.5 -47 Z" /><glyph glyph-name="florin" unicode="&#x192;" d="M57 -240 q-36 0 -61 10 l1 74 q12 -4 24.5 -7.5 q12.5 -3.5 28.5 -3.5 q28 0 50 28 q22 28 34 86 l97 461 l-87 0 l7 36 l95 33 l13 69 q19 101 62.5 139.5 q43.5 38.5 114.5 38.5 q25 0 50 -6 q25 -6 40 -13 l-24 -67 q-13 5 -28.5 9.5 q-15.5 4.5 -33.5 4.5 q-37 0 -58.5 -22 q-21.5 -22 -33.5 -84 l-14 -72 l107 0 l-13 -66 l-110 0 l-99 -471 q-18 -83 -54.5 -130 q-36.5 -47 -107.5 -47 Z" /><glyph glyph-name="Aringacute" unicode="&#x1fa;" d="M332 829 l0 10 q26 23 55 57.5 q29 34.5 50 61.5 l109 0 l0 -9 q-14 -13 -40.5 -35.5 q-26.5 -22.5 -57 -45.5 q-30.5 -23 -54.5 -39 l-62 0 ZM-54 0 l332 631 q-19 25 -19 66 q0 51 30.5 79 q30.5 28 74.5 28 q46 0 75 -27.5 q29 -27.5 29 -75.5 q0 -29 -11.5 -52 q-11.5 -23 -30.5 -37 l66 -612 l-87 0 l-22 222 l-229 0 l-111 -222 l-97 0 ZM362 644 q23 0 38 15 q15 15 15 41 q0 26 -14.5 40.5 q-14.5 14.5 -37.5 14.5 q-22 0 -37 -15 q-15 -15 -15 -42 q0 -25 13.5 -39.5 q13.5 -14.5 37.5 -14.5 ZM197 302 l177 0 l-13 141 q-3 38 -6 75 q-3 37 -4 69 l-12 0 q-15 -32 -32 -68.5 q-17 -36.5 -37 -75.5 l-73 -141 Z" /><glyph glyph-name="aringacute" unicode="&#x1fb;" d="M316 830 l0 9 q26 24 55.5 58 q29.5 34 50.5 61 l108 0 l0 -9 q-14 -13 -40 -35.5 q-26 -22.5 -57 -45 q-31 -22.5 -56 -38.5 l-61 0 ZM343 585 q-47 0 -75.5 27.5 q-28.5 27.5 -27.5 76.5 q0 50 31 77.5 q31 27.5 74 27.5 q45 0 74.5 -27 q29.5 -27 28.5 -77 q-1 -50 -31 -77.5 q-30 -27.5 -74 -27.5 ZM343 634 q23 0 37.5 15 q14.5 15 15.5 40 q0 26 -14.5 40.5 q-14.5 14.5 -36.5 14.5 q-23 0 -37.5 -14.5 q-14.5 -14.5 -15.5 -40.5 q0 -25 13 -40 q13 -15 38 -15 ZM183 -10 q-60 0 -98 46 q-38 46 -38 134 q0 75 18.5 142.5 q18.5 67.5 52.5 120.5 q34 53 80 83 q46 30 102 30 q50 0 81 -28 q31 -28 46 -65 l5 0 l31 83 l67 0 l-114 -536 l-70 0 l13 99 l-3 0 q-33 -44 -76.5 -76.5 q-43.5 -32.5 -96.5 -32.5 ZM214 63 q34 0 67.5 27 q33.5 27 61 72.5 q27.5 45.5 41.5 103.5 q8 30 10.5 55 q2.5 25 2.5 45 q0 47 -23.5 76.5 q-23.5 29.5 -64.5 29.5 q-37 0 -68 -25 q-31 -25 -54.5 -67.5 q-23.5 -42.5 -36.5 -97 q-13 -54.5 -13 -113.5 q0 -53 20 -79.5 q20 -26.5 57 -26.5 Z" /><glyph glyph-name="circumflex" unicode="&#x2c6;" d="M115 606 l0 13 q17 15 43.5 41.5 q26.5 26.5 52 55 q25.5 28.5 39.5 50.5 l87 0 q13 -39 36.5 -78.5 q23.5 -39.5 41.5 -68.5 l0 -13 l-56 0 q-17 16 -36 40 q-19 24 -38 51 q-29 -27 -57.5 -50.5 q-28.5 -23.5 -53.5 -40.5 l-59 0 Z" /><glyph glyph-name="caron" unicode="&#x2c7;" d="M223 606 q-13 38 -36.5 78 q-23.5 40 -40.5 69 l0 13 l54 0 q18 -16 37 -40 q19 -24 37 -51 q29 27 58.5 50.5 q29.5 23.5 55.5 40.5 l58 0 l0 -13 q-16 -15 -43 -41.5 q-27 -26.5 -53 -55 q-26 -28.5 -40 -50.5 l-87 0 Z" /><glyph glyph-name="macron" unicode="&#x2c9;" d="M112 606 l16 71 l257 0 l-15 -71 l-258 0 Z" /><glyph glyph-name="breve" unicode="&#x2d8;" d="M258 606 q-53 0 -86 28.5 q-33 28.5 -33 82.5 q0 6 0 11.5 q0 5.5 1 11.5 l52 0 q0 -29 17 -45 q17 -16 58 -16 q43 0 65 16.5 q22 16.5 30 44.5 l54 0 q-16 -72 -56 -103 q-40 -31 -102 -31 Z" /><glyph glyph-name="dotaccent" unicode="&#x2d9;" d="M175 625 q-20 0 -33.5 12.5 q-13.5 12.5 -13.5 34.5 q0 26 15.5 45 q15.5 19 43.5 19 q45 0 45 -45 q0 -31 -17.5 -48.5 q-17.5 -17.5 -39.5 -17.5 Z" /><glyph glyph-name="ring" unicode="&#x2da;" d="M239 606 q-45 0 -73.5 27 q-28.5 27 -28.5 77 q0 50 30.5 77.5 q30.5 27.5 74.5 27.5 q45 0 74 -27 q29 -27 29 -75 q0 -52 -30.5 -79.5 q-30.5 -27.5 -75.5 -27.5 ZM240 656 q23 0 38 15 q15 15 15 41 q0 25 -14.5 39.5 q-14.5 14.5 -37.5 14.5 q-23 0 -37.5 -15 q-14.5 -15 -14.5 -41 q0 -25 13 -39.5 q13 -14.5 38 -14.5 Z" /><glyph glyph-name="ogonek" unicode="&#x2db;" d="M42 -217 q-38 0 -61.5 19.5 q-23.5 19.5 -23.5 60.5 q0 47 28.5 78 q28.5 31 71.5 59 l61 0 q-19 -16 -39.5 -35 q-20.5 -19 -35.5 -42 q-15 -23 -15 -49 q0 -33 31 -33 q10 0 20 1.5 q10 1.5 19 2.5 l-1 -55 q-13 -4 -27 -5.5 q-14 -1.5 -28 -1.5 Z" /><glyph glyph-name="tilde" unicode="&#x2dc;" d="M112 606 q14 62 42 95 q28 33 70 33 q28 0 51.5 -14 q23.5 -14 43 -27.5 q19.5 -13.5 36.5 -13.5 q20 0 31.5 13 q11.5 13 23.5 43 l52 0 q-16 -62 -44.5 -95 q-28.5 -33 -69.5 -33 q-26 0 -48 13.5 q-22 13.5 -42 27.5 q-20 14 -41 14 q-19 0 -31 -14 q-12 -14 -22 -42 l-52 0 Z" /><glyph glyph-name="hungarumlaut" unicode="&#x2dd;" d="M277 606 l0 13 q17 19 37 45 q20 26 39 53 q19 27 33 49 l89 0 l0 -10 q-13 -18 -39.5 -46.5 q-26.5 -28.5 -57 -57 q-30.5 -28.5 -54.5 -46.5 l-47 0 ZM115 606 l0 13 q17 19 37 45 q20 26 39 53 q19 27 32 49 l90 0 l0 -10 q-13 -18 -39.5 -46.5 q-26.5 -28.5 -57 -57 q-30.5 -28.5 -54.5 -46.5 l-47 0 Z" /><glyph glyph-name="tonos" unicode="&#x384;" d="M291 606 l0 14 q13 24 28.5 57.5 q15.5 33.5 30 67.5 q14.5 34 24.5 61 l92 0 l0 -14 q-8 -20 -28.5 -53.5 q-20.5 -33.5 -45 -70 q-24.5 -36.5 -46.5 -62.5 l-55 0 Z" /><glyph glyph-name="dieresistonos" unicode="&#x385;" d="M271 678 l0 11 q16 29 36.5 71 q20.5 42 34.5 78 l96 0 l-1 -10 q-21 -32 -55.5 -73.5 q-34.5 -41.5 -70.5 -76.5 l-40 0 ZM192 631 q-18 0 -29.5 10.5 q-11.5 10.5 -11.5 30.5 q0 23 13.5 40.5 q13.5 17.5 37.5 17.5 q20 0 29.5 -11 q9.5 -11 9.5 -28 q0 -29 -15.5 -44.5 q-15.5 -15.5 -33.5 -15.5 ZM417 631 q-18 0 -29.5 10.5 q-11.5 10.5 -11.5 30.5 q0 23 13.5 40.5 q13.5 17.5 37.5 17.5 q19 0 29 -11 q10 -11 10 -28 q0 -29 -15.5 -44.5 q-15.5 -15.5 -33.5 -15.5 Z" /><glyph glyph-name="Gamma" unicode="&#x393;" d="M38 0 l151 714 l346 0 l-16 -79 l-259 0 l-133 -635 l-89 0 Z" /><glyph glyph-name="Theta" unicode="&#x398;" d="M319 -10 q-121 0 -185 73 q-64 73 -64 200 q0 93 24 176 q24 83 69 147.5 q45 64.5 109.5 101.5 q64.5 37 146.5 37 q115 0 178.5 -74 q63.5 -74 63.5 -203 q0 -93 -22 -175.5 q-22 -82.5 -65 -146 q-43 -63.5 -107 -100 q-64 -36.5 -148 -36.5 ZM323 69 q56 0 101 30.5 q45 30.5 76.5 84 q31.5 53.5 48.5 122 q17 68.5 17 144.5 q0 93 -41 144.5 q-41 51.5 -113 51.5 q-57 0 -102.5 -30 q-45.5 -30 -78 -82 q-32.5 -52 -50 -121 q-17.5 -69 -17.5 -147 q0 -93 42.5 -145 q42.5 -52 116.5 -52 ZM236 325 l16 77 l241 0 l-17 -77 l-240 0 Z" /><glyph glyph-name="Lambda" unicode="&#x39b;" d="M-54 0 l375 713 l95 0 l75 -713 l-88 0 l-43 452 q-4 41 -6 85.5 q-2 44.5 -3 81.5 q-16 -38 -35.5 -81 q-19.5 -43 -44.5 -91 l-228 -447 l-97 0 Z" /><glyph glyph-name="Xi" unicode="&#x39e;" d="M137 635 l18 79 l378 0 l-17 -79 l-379 0 ZM114 334 l17 78 l299 0 l-17 -78 l-299 0 ZM-14 0 l17 79 l415 0 l-18 -79 l-414 0 Z" /><glyph glyph-name="Pi" unicode="&#x3a0;" d="M38 0 l151 714 l471 0 l-151 -714 l-90 0 l133 635 l-292 0 l-133 -635 l-89 0 Z" /><glyph glyph-name="Sigma" unicode="&#x3a3;" d="M-15 0 l15 73 l251 296 l-126 274 l15 71 l403 0 l-18 -79 l-304 0 l125 -273 l-240 -283 l330 0 l-17 -79 l-434 0 Z" /><glyph glyph-name="Phi" unicode="&#x3a6;" d="M257 -10 l24 110 q-101 8 -155.5 64.5 q-54.5 56.5 -54.5 157.5 q0 84 33.5 154 q33.5 70 105 113 q71.5 43 185.5 47 l18 88 l89 0 l-18 -88 q99 -6 154 -61.5 q55 -55.5 55 -155.5 q0 -55 -17 -110 q-17 -55 -55 -101 q-38 -46 -100 -75.5 q-62 -29.5 -151 -32.5 l-24 -110 l-89 0 ZM296 176 l81 383 q-75 -1 -122.5 -33 q-47.5 -32 -70 -84.5 q-22.5 -52.5 -22.5 -113.5 q0 -70 35 -110 q35 -40 99 -42 ZM387 176 q75 4 122.5 37.5 q47.5 33.5 70 85.5 q22.5 52 22.5 114 q0 65 -33.5 104 q-33.5 39 -101.5 42 l-80 -383 Z" /><glyph glyph-name="Psi" unicode="&#x3a8;" d="M260 0 l46 218 l-7 0 q-77 0 -121.5 28 q-44.5 28 -63.5 72 q-19 44 -19 94 q0 44 12 103 l42 199 l92 0 l-44 -209 q-6 -30 -9 -51 q-3 -21 -3 -37 q0 -123 129 -123 l8 0 l89 420 l89 0 l-89 -420 l7 0 q63 0 103.5 23 q40.5 23 63.5 64.5 q23 41.5 35 96.5 l50 236 l92 0 l-51 -244 q-15 -72 -49 -129 q-34 -57 -95 -90 q-61 -33 -156 -33 l-16 0 l-46 -218 l-89 0 Z" /><glyph glyph-name="alpha" unicode="&#x3b1;" d="M183 -10 q-60 0 -98 45.5 q-38 45.5 -38 134.5 q0 76 18 144 q18 68 51.5 120 q33.5 52 79.5 82 q46 30 101 30 q54 0 84 -27 q30 -27 45 -65 l5 0 q8 17 20.5 41.5 q12.5 24.5 26.5 40.5 l73 0 q-11 -22 -24.5 -59 q-13.5 -37 -26.5 -82 q-13 -45 -23 -89 l-35 -157 q-4 -17 -5.5 -30.5 q-1.5 -13.5 -1.5 -22.5 q0 -35 29 -35 q15 0 30 6 l0 -64 q-8 -5 -25.5 -9 q-17.5 -4 -34.5 -4 q-41 0 -63.5 25 q-22.5 25 -22.5 74 l-3 0 q-32 -41 -71 -70 q-39 -29 -91 -29 ZM215 63 q33 0 65 26.5 q32 26.5 57.5 71.5 q25.5 45 41.5 103 q8 30 11 56 q3 26 3 47 q0 47 -23 76 q-23 29 -64 29 q-37 0 -68 -25 q-31 -25 -53.5 -67.5 q-22.5 -42.5 -35 -97 q-12.5 -54.5 -12.5 -112.5 q0 -107 78 -107 Z" /><glyph glyph-name="beta" unicode="&#x3b2;" d="M-26 -240 l166 775 q14 63 39.5 115 q25.5 52 72 83.5 q46.5 31.5 122.5 31.5 q81 0 127 -44 q46 -44 46 -123 q0 -80 -42.5 -131.5 q-42.5 -51.5 -123.5 -70.5 q49 -11 83 -50 q34 -39 34 -113 q0 -69 -26.5 -124 q-26.5 -55 -78 -87 q-51.5 -32 -126.5 -32 q-54 0 -87.5 17.5 q-33.5 17.5 -56.5 36.5 l-60 -284 l-89 0 ZM260 62 q51 0 84.5 24 q33.5 24 50.5 62 q17 38 17 81 q0 59 -30 95.5 q-30 36.5 -101 36.5 l-29 0 l16 74 l33 0 q83 0 119.5 44.5 q36.5 44.5 36.5 111.5 q0 43 -22.5 72.5 q-22.5 29.5 -69.5 29.5 q-43 0 -70 -22.5 q-27 -22.5 -42.5 -59.5 q-15.5 -37 -24.5 -79 l-91 -428 q22 -19 55.5 -30.5 q33.5 -11.5 67.5 -11.5 Z" /><glyph glyph-name="gamma" unicode="&#x3b3;" d="M35 -240 q11 62 34 123.5 q23 61.5 54 122.5 l-71 530 l88 0 l31 -285 q2 -19 4 -47.5 q2 -28.5 3 -57 q1 -28.5 1.5 -48 q0.5 -19.5 0.5 -19.5 l2 0 q16 43 38 91.5 q22 48.5 37 78.5 l146 287 l94 0 l-275 -522 q-32 -61 -56.5 -123.5 q-24.5 -62.5 -38.5 -130.5 l-92 0 Z" /><glyph glyph-name="delta" unicode="&#x3b4;" d="M223 -10 q-63 0 -105 26 q-42 26 -62.5 68.5 q-20.5 42.5 -20.5 94.5 q0 113 66.5 183 q66.5 70 175.5 100 q-32 27 -55.5 62.5 q-23.5 35.5 -23.5 84.5 q0 67 47.5 111.5 q47.5 44.5 127.5 44.5 q55 0 96.5 -18.5 q41.5 -18.5 69.5 -37.5 l-35 -63 q-26 16 -59 32 q-33 16 -74 16 q-46 0 -67.5 -23 q-21.5 -23 -21.5 -61 q0 -38 21 -62.5 q21 -24.5 59 -56.5 q48 -41 81.5 -93 q33.5 -52 33.5 -130 q0 -74 -29 -137 q-29 -63 -85.5 -102 q-56.5 -39 -139.5 -39 ZM233 63 q48 0 82.5 27.5 q34.5 27.5 53 73.5 q18.5 46 18.5 103 q0 58 -18.5 93.5 q-18.5 35.5 -43.5 58.5 q-55 -14 -100 -43 q-45 -29 -72.5 -74.5 q-27.5 -45.5 -27.5 -110.5 q0 -60 27.5 -94 q27.5 -34 80.5 -34 Z" /><glyph glyph-name="epsilon" unicode="&#x3b5;" d="M199 -10 q-84 0 -127 38.5 q-43 38.5 -43 98.5 q0 71 41.5 107 q41.5 36 100.5 47 l0 3 q-29 13 -49.5 39 q-20.5 26 -20.5 68 q0 55 28 88.5 q28 33.5 72 49.5 q44 16 92 16 q49 0 85 -9.5 q36 -9.5 67 -26.5 l-32 -68 q-21 12 -51.5 21.5 q-30.5 9.5 -65.5 9.5 q-48 0 -81 -20.5 q-33 -20.5 -33 -67.5 q0 -29 22 -49 q22 -20 68 -20 l58 0 l-15 -74 l-56 0 q-39 0 -71 -9.5 q-32 -9.5 -51 -31.5 q-19 -22 -19 -59 q0 -34 22 -57 q22 -23 74 -23 q45 0 84.5 13.5 q39.5 13.5 71.5 30.5 l-1 -74 q-26 -14 -70 -27.5 q-44 -13.5 -100 -13.5 Z" /><glyph glyph-name="zeta" unicode="&#x3b6;" d="M171 -202 q44 40 66.5 69.5 q22.5 29.5 22.5 60.5 q0 27 -22 41.5 q-22 14.5 -62 32.5 q-68 30 -98.5 70 q-30.5 40 -30.5 115 q0 85 44.5 167.5 q44.5 82.5 123 166 q78.5 83.5 179.5 171.5 q-45 -6 -116 -6 l-98 0 l16 74 l316 0 l-15 -67 q-67 -59 -131 -119.5 q-64 -60.5 -116 -122 q-52 -61.5 -82.5 -124.5 q-30.5 -63 -30.5 -127 q0 -51 20.5 -78.5 q20.5 -27.5 71.5 -50.5 q54 -25 85 -52 q31 -27 31 -79 q0 -44 -24.5 -79.5 q-24.5 -35.5 -57.5 -62.5 l-92 0 Z" /><glyph glyph-name="eta" unicode="&#x3b7;" d="M283 -240 l122 576 q5 23 8 39.5 q3 16.5 3 30.5 q0 30 -16 48 q-16 18 -50 18 q-32 0 -68.5 -23.5 q-36.5 -23.5 -69 -76.5 q-32.5 -53 -50.5 -141 l-48 -231 l-88 0 l114 536 l71 0 l-11 -99 l5 0 q19 25 43 50 q24 25 56 42 q32 17 72 17 q58 0 93 -33 q35 -33 35 -97 q0 -24 -4 -47.5 q-4 -23.5 -8 -42.5 l-121 -566 l-88 0 Z" /><glyph glyph-name="theta" unicode="&#x3b8;" d="M204 -10 q-156 0 -156 202 q0 90 22 192 q26 120 64 205.5 q38 85.5 92 130.5 q54 45 130 45 q70 0 112 -48 q42 -48 42 -162 q0 -37 -6 -87 q-6 -50 -19 -109 q-24 -113 -61.5 -195.5 q-37.5 -82.5 -91.5 -128 q-54 -45.5 -128 -45.5 ZM166 426 l242 0 q8 35 11.5 70.5 q3.5 35.5 3.5 64.5 q0 131 -77 131 q-62 0 -105 -70 q-43 -70 -75 -196 ZM214 63 q63 0 104.5 72.5 q41.5 72.5 75.5 215.5 l-244 0 q-9 -43 -12.5 -80.5 q-3.5 -37.5 -3.5 -71.5 q0 -71 19.5 -103.5 q19.5 -32.5 60.5 -32.5 Z" /><glyph glyph-name="iota" unicode="&#x3b9;" d="M166 -10 q-50 0 -83.5 25.5 q-33.5 25.5 -33.5 89.5 q0 16 3.5 34.5 q3.5 18.5 7.5 40.5 l75 356 l87 0 l-76 -359 q-3 -14 -5.5 -30 q-2.5 -16 -2.5 -30 q0 -24 10.5 -39.5 q10.5 -15.5 36.5 -15.5 q17 0 32 3.5 q15 3.5 35 9.5 l-1 -67 q-13 -6 -38 -12 q-25 -6 -47 -6 Z" /><glyph glyph-name="lambda" unicode="&#x3bb;" d="M373 -10 q-41 0 -63.5 22.5 q-22.5 22.5 -27.5 80.5 l-16 189 q-3 32 -5 72 q-2 40 -2 78 q-13 -34 -26 -65.5 q-13 -31.5 -30 -61.5 l-162 -305 l-93 0 l293 525 l-7 70 q-4 44 -18 71 q-14 27 -49 27 q-13 0 -25 -1.5 q-12 -1.5 -23 -3.5 l-10 70 q13 3 31.5 5.5 q18.5 2.5 36.5 2.5 q73 0 102 -38 q29 -38 36 -115 l49 -499 q3 -25 11 -39 q8 -14 24 -14 q6 0 15 1.5 q9 1.5 17 4.5 l-1 -66 q-10 -5 -26 -8 q-16 -3 -31 -3 Z" /><glyph glyph-name="nu" unicode="&#x3bd;" d="M108 0 l-57 536 l88 0 l30 -306 q4 -40 5.5 -78 q1.5 -38 3.5 -75 q89 89 140.5 203.5 q51.5 114.5 82.5 255.5 l87 0 q-22 -110 -57.5 -203 q-35.5 -93 -91.5 -175 q-56 -82 -140 -158 l-91 0 Z" /><glyph glyph-name="xi" unicode="&#x3be;" d="M165 -202 q43 39 65 67.5 q22 28.5 22 61.5 q0 29 -21 44 q-21 15 -65 33 q-63 26 -94.5 65.5 q-31.5 39.5 -31.5 106.5 q0 82 50.5 142 q50.5 60 146.5 82 l0 3 q-43 13 -70.5 43 q-27.5 30 -27.5 81 q0 41 20.5 75.5 q20.5 34.5 55.5 59 q35 24.5 77 35.5 q-22 -6 -44 -8.5 q-22 -2.5 -52 -2.5 l-26 0 l16 74 l293 0 l-16 -68 l-4 0 q-41 0 -82 -10 q-41 -10 -75.5 -29.5 q-34.5 -19.5 -55.5 -49 q-21 -29.5 -21 -69.5 q0 -48 32 -75 q32 -27 102 -27 l44 0 l-16 -68 l-36 0 q-57 0 -107.5 -18.5 q-50.5 -18.5 -82 -57.5 q-31.5 -39 -31.5 -100 q0 -46 21.5 -71.5 q21.5 -25.5 76.5 -47.5 q28 -11 54 -27 q26 -16 42.5 -40.5 q16.5 -24.5 16.5 -60.5 q0 -46 -25 -81 q-25 -35 -56 -62 l-95 0 Z" /><glyph glyph-name="pi" unicode="&#x3c0;" d="M427 -10 q-44 0 -68 23.5 q-24 23.5 -24 63.5 q0 13 2 29.5 q2 16.5 7 40.5 l64 314 l-173 0 l-99 -461 l-89 0 l99 461 l-104 0 l8 36 l91 39 l471 0 l-16 -75 l-100 0 l-65 -321 q-3 -14 -4.5 -26.5 q-1.5 -12.5 -1.5 -19.5 q0 -32 31 -32 q12 0 23 2.5 q11 2.5 19 5.5 l0 -68 q-14 -4 -32.5 -8 q-18.5 -4 -38.5 -4 Z" /><glyph glyph-name="rho" unicode="&#x3c1;" d="M-24 -240 l117 555 q13 59 38.5 112 q25.5 53 71.5 85.5 q46 32.5 121 32.5 q87 0 133.5 -53.5 q46.5 -53.5 46.5 -153.5 q0 -57 -14.5 -118 q-14.5 -61 -45 -113 q-30.5 -52 -77 -84.5 q-46.5 -32.5 -110.5 -32.5 q-47 0 -79 17 q-32 17 -57 45 q-6 -39 -12.5 -73.5 q-6.5 -34.5 -15.5 -76.5 l-30 -142 l-87 0 ZM249 63 q41 0 72 25 q31 25 52 66 q21 41 31.5 89.5 q10.5 48.5 10.5 94.5 q0 62 -23 98 q-23 36 -74 36 q-61 0 -92.5 -48 q-31.5 -48 -48.5 -128 l-38 -180 q17 -21 45 -37 q28 -16 65 -16 Z" /><glyph glyph-name="sigma1" unicode="&#x3c2;" d="M171 -208 q43 40 65.5 72 q22.5 32 22.5 64 q0 23 -15.5 37.5 q-15.5 14.5 -62.5 34.5 q-33 13 -63.5 36 q-30.5 23 -50.5 63.5 q-20 40.5 -20 104.5 q0 60 17 120.5 q17 60.5 51 110.5 q34 50 85 80.5 q51 30.5 118 30.5 q37 0 68 -7 q31 -7 59 -19 l-26 -73 q-19 9 -45.5 17 q-26.5 8 -58.5 8 q-44 0 -77.5 -24.5 q-33.5 -24.5 -56 -63.5 q-22.5 -39 -33.5 -84 q-11 -45 -11 -87 q0 -65 25.5 -95 q25.5 -30 76.5 -52 q29 -12 53.5 -27.5 q24.5 -15.5 39.5 -39 q15 -23.5 15 -61.5 q0 -44 -24.5 -79.5 q-24.5 -35.5 -57.5 -66.5 l-94 0 Z" /><glyph glyph-name="sigma" unicode="&#x3c3;" d="M235 -8 q-83 0 -135 50.5 q-52 50.5 -52 165.5 q0 92 31 166 q31 74 96 118 q65 44 167 44 l238 0 l-15 -74 l-125 0 q16 -28 29 -66 q13 -38 13 -99 q0 -48 -13 -101 q-13 -53 -42 -99.5 q-29 -46.5 -76 -75.5 q-47 -29 -116 -29 ZM241 65 q56 0 90.5 35.5 q34.5 35.5 50 93.5 q15.5 58 15.5 126 q0 46 -8.5 82 q-8.5 36 -21.5 60 l-30 0 q-74 0 -118 -34.5 q-44 -34.5 -63 -92 q-19 -57.5 -19 -124.5 q0 -77 28 -111.5 q28 -34.5 76 -34.5 Z" /><glyph glyph-name="tau" unicode="&#x3c4;" d="M237 -10 q-52 0 -86.5 25.5 q-34.5 25.5 -34.5 89.5 q0 18 3.5 43 q3.5 25 8.5 50 l56 263 l-142 0 l8 36 l90 39 l303 0 l-17 -75 l-155 0 l-56 -265 q-5 -24 -7.5 -44 q-2.5 -20 -2.5 -36 q0 -22 11.5 -38 q11.5 -16 37.5 -16 q16 0 32 3.5 q16 3.5 36 9.5 l-1 -67 q-12 -6 -37 -12 q-25 -6 -47 -6 Z" /><glyph glyph-name="upsilon" unicode="&#x3c5;" d="M237 -10 q-85 0 -130 45.5 q-45 45.5 -45 127.5 q0 21 2.5 43.5 q2.5 22.5 12.5 66.5 l55 263 l88 0 l-55 -260 q-10 -44 -12.5 -66.5 q-2.5 -22.5 -2.5 -40.5 q0 -56 25 -81.5 q25 -25.5 69 -25.5 q42 0 72 24.5 q30 24.5 50.5 65.5 q20.5 41 33.5 92 q13 51 20 104.5 q7 53.5 9.5 102.5 q2.5 49 2.5 85 l88 0 q-1 -71 -7.5 -147.5 q-6.5 -76.5 -23.5 -147.5 q-17 -71 -48.5 -127.5 q-31.5 -56.5 -81 -90 q-49.5 -33.5 -122.5 -33.5 Z" /><glyph glyph-name="phi" unicode="&#x3c6;" d="M170 -240 l49 231 q-73 10 -122.5 61.5 q-49.5 51.5 -49.5 148.5 q0 104 40.5 183.5 q40.5 79.5 119.5 156.5 l56 -52 q-65 -65 -97 -131.5 q-32 -66.5 -32 -147.5 q0 -52 14 -83 q14 -31 37 -45.5 q23 -14.5 50 -18.5 l65 308 q16 80 55.5 127 q39.5 47 114.5 47 q69 0 104 -47 q35 -47 35 -131 q0 -65 -16.5 -129.5 q-16.5 -64.5 -53 -118.5 q-36.5 -54 -94.5 -89 q-58 -35 -141 -41 l-48 -229 l-86 0 ZM323 63 q57 6 95 36.5 q38 30.5 60.5 76 q22.5 45.5 32.5 96 q10 50.5 10 95.5 q0 59 -15.5 82 q-15.5 23 -40.5 23 q-32 0 -50.5 -27.5 q-18.5 -27.5 -29.5 -83.5 l-62 -298 Z" /><glyph glyph-name="chi" unicode="&#x3c7;" d="M-111 -240 l289 409 l-25 228 q-5 38 -16 53.5 q-11 15.5 -33 15.5 q-8 0 -16 -2.5 q-8 -2.5 -15 -4.5 l-16 65 q13 6 32 10 q19 4 35 4 q55 0 78.5 -33.5 q23.5 -33.5 29.5 -91.5 l16 -165 l186 288 l94 0 l-261 -385 l29 -242 q4 -39 16 -58.5 q12 -19.5 41 -19.5 q11 0 20.5 2 q9.5 2 18.5 4 l0 -66 q-14 -5 -30.5 -8 q-16.5 -3 -34.5 -3 q-39 0 -62 18 q-23 18 -34 49 q-11 31 -15 70 l-19 177 l-210 -314 l-98 0 Z" /><glyph glyph-name="psi" unicode="&#x3c8;" d="M197 -240 l50 232 q-94 10 -137 60 q-43 50 -43 127 q0 25 3 49 q3 24 9 56 l53 252 l89 0 l-54 -255 q-5 -26 -8 -49 q-3 -23 -3 -42 q0 -52 23.5 -86 q23.5 -34 83.5 -40 l146 695 l86 0 l-147 -693 q88 10 135.5 71 q47.5 61 67 163 q19.5 102 20.5 236 l90 0 q-1 -116 -16.5 -213 q-15.5 -97 -51.5 -169 q-36 -72 -99.5 -114 q-63.5 -42 -161.5 -48 l-49 -232 l-86 0 Z" /><glyph glyph-name="omega" unicode="&#x3c9;" d="M179 -10 q-65 0 -98.5 49 q-33.5 49 -33.5 129 q0 88 32.5 183 q32.5 95 91.5 185 l91 0 q-52 -82 -89.5 -175 q-37.5 -93 -37.5 -191 q0 -61 18 -84 q18 -23 46 -23 q37 0 62 34 q25 34 38 97 l32 149 l85 0 l-30 -137 q-8 -38 -8 -66 q0 -77 56 -77 q39 0 66 31.5 q27 31.5 44.5 82 q17.5 50.5 25.5 107.5 q8 57 8 107 q0 40 -2.5 76 q-2.5 36 -7.5 69 l86 0 q6 -34 9.5 -73 q3.5 -39 3.5 -74 q0 -43 -7.5 -96.5 q-7.5 -53.5 -24 -106.5 q-16.5 -53 -43.5 -97.5 q-27 -44.5 -67 -71.5 q-40 -27 -95 -27 q-44 0 -72 24 q-28 24 -39 63 q-25 -43 -58.5 -65 q-33.5 -22 -81.5 -22 Z" /><glyph glyph-name="afii10051" unicode="&#x402;" d="M383 -10 q-20 0 -38.5 3.5 q-18.5 3.5 -29.5 7.5 l1 78 q27 -10 60 -10 q46 0 68.5 27.5 q22.5 27.5 32.5 79.5 l7 36 q8 37 8 67 q0 80 -92 80 l-126 0 l-75 -359 l-89 0 l134 635 l-152 0 l18 79 l428 0 l-18 -79 l-187 0 l-41 -197 l118 0 q86 0 128.5 -38 q42.5 -38 42.5 -111 q0 -18 -2.5 -43 q-2.5 -25 -6.5 -45 l-8 -37 q-19 -90 -61.5 -132 q-42.5 -42 -119.5 -42 Z" /><glyph glyph-name="afii10053" unicode="&#x404;" d="M309 -10 q-119 0 -179 74 q-60 74 -60 195 q0 65 14.5 130.5 q14.5 65.5 44 125.5 q29.5 60 74 107 q44.5 47 104 74.5 q59.5 27.5 134.5 27.5 q97 0 168 -40 l-37 -74 q-26 14 -58.5 24.5 q-32.5 10.5 -73.5 10.5 q-67 0 -117.5 -31.5 q-50.5 -31.5 -84.5 -84.5 q-34 -53 -52 -116 l282 0 l-16 -79 l-283 0 q-3 -16 -4 -34.5 q-1 -18.5 -1 -38.5 q0 -91 42 -141.5 q42 -50.5 120 -50.5 q39 0 76.5 8 q37.5 8 74.5 21 l-1 -78 q-39 -15 -77.5 -22.5 q-38.5 -7.5 -89.5 -7.5 Z" /><glyph glyph-name="afii10058" unicode="&#x409;" d="M29 -11 q-19 0 -34 3.5 q-15 3.5 -25 7.5 l1 78 q9 -4 21.5 -7 q12.5 -3 25.5 -3 q28 0 49.5 12.5 q21.5 12.5 41 45 q19.5 32.5 39.5 92.5 q16 46 34 106 q18 60 37 127.5 q19 67.5 37 135 q18 67.5 35 127.5 l322 0 l-63 -302 l47 0 q79 0 123.5 -23.5 q44.5 -23.5 63.5 -63 q19 -39.5 19 -87.5 q0 -82 -34.5 -134.5 q-34.5 -52.5 -95.5 -78 q-61 -25.5 -142 -25.5 l-158 0 l133 634 l-150 0 q-13 -49 -28.5 -107.5 q-15.5 -58.5 -32 -119 q-16.5 -60.5 -33 -116 q-16.5 -55.5 -31.5 -98.5 q-23 -63 -48 -109 q-25 -46 -62 -70.5 q-37 -24.5 -92 -24.5 ZM478 76 l68 0 q165 0 165 154 q0 58 -30 81.5 q-30 23.5 -85 23.5 l-63 0 l-55 -259 Z" /><glyph glyph-name="afii10059" unicode="&#x40a;" d="M38 0 l151 714 l89 0 l-64 -301 l253 0 l64 301 l89 0 l-64 -301 l50 0 q78 0 122.5 -23.5 q44.5 -23.5 63 -63.5 q18.5 -40 18.5 -88 q0 -82 -34.5 -134.5 q-34.5 -52.5 -95 -78 q-60.5 -25.5 -140.5 -25.5 l-160 0 l70 334 l-253 0 l-70 -334 l-89 0 ZM485 76 l68 0 q165 0 165 154 q0 58 -30 81 q-30 23 -85 23 l-63 0 l-55 -258 Z" /><glyph glyph-name="afii10060" unicode="&#x40b;" d="M110 0 l134 635 l-152 0 l18 79 l428 0 l-18 -79 l-187 0 l-41 -197 l123 0 q85 0 125.5 -38 q40.5 -38 40.5 -113 q0 -19 -3.5 -40 q-3.5 -21 -8.5 -46 l-42 -201 l-90 0 l45 205 q4 20 7 39.5 q3 19.5 3 34.5 q0 80 -93 80 l-125 0 l-75 -359 l-89 0 Z" /><glyph glyph-name="afii10145" unicode="&#x40f;" d="M190 -188 l42 188 l-194 0 l151 714 l90 0 l-134 -635 l292 0 l134 635 l89 0 l-151 -714 l-193 0 l-40 -188 l-86 0 Z" /><glyph glyph-name="afii10018" unicode="&#x411;" d="M39 0 l151 714 l346 0 l-18 -79 l-256 0 l-46 -223 l64 0 q78 0 123 -23.5 q45 -23.5 64 -63 q19 -39.5 19 -87.5 q0 -82 -34.5 -134.5 q-34.5 -52.5 -96 -78 q-61.5 -25.5 -141.5 -25.5 l-175 0 ZM144 76 l83 0 q167 0 167 154 q0 58 -30 81.5 q-30 23.5 -85 23.5 l-80 0 l-55 -259 Z" /><glyph glyph-name="afii10021" unicode="&#x414;" d="M-83 -187 l57 267 l49 0 q43 62 87.5 141 q44.5 79 85 165.5 q40.5 86.5 73 170.5 q32.5 84 51.5 157 l283 0 l-134 -634 l87 0 l-58 -267 l-85 0 l39 187 l-411 0 l-41 -187 l-83 0 ZM124 80 l255 0 l116 553 l-112 0 q-17 -56 -46 -129.5 q-29 -73.5 -65 -151 q-36 -77.5 -74 -149 q-38 -71.5 -74 -123.5 Z" /><glyph glyph-name="afii10024" unicode="&#x416;" d="M-48 0 l316 376 l-159 338 l95 0 l157 -340 l72 340 l86 0 l-72 -340 l292 340 l105 0 l-310 -358 l165 -356 l-98 0 l-158 356 l-75 -356 l-86 0 l75 356 l-298 -356 l-107 0 Z" /><glyph glyph-name="afii10025" unicode="&#x417;" d="M185 -10 q-109 0 -184 39 l1 85 q34 -21 84.5 -35.5 q50.5 -14.5 102.5 -14.5 q62 0 102 21 q40 21 59 56 q19 35 19 75 q0 60 -38.5 88 q-38.5 28 -109.5 28 l-95 0 l16 73 l88 0 q46 0 89 14.5 q43 14.5 70.5 47 q27.5 32.5 27.5 87.5 q0 49 -27.5 72.5 q-27.5 23.5 -74.5 23.5 q-43 0 -84 -16 q-41 -16 -81 -42 l-35 64 q49 34 100.5 51 q51.5 17 118.5 17 q82 0 128.5 -43 q46.5 -43 46.5 -114 q0 -77 -47.5 -129 q-47.5 -52 -130.5 -69 l0 -2 q58 -9 94.5 -47.5 q36.5 -38.5 36.5 -107.5 q0 -60 -30.5 -110.5 q-30.5 -50.5 -92 -81 q-61.5 -30.5 -154.5 -30.5 Z" /><glyph glyph-name="afii10026" unicode="&#x418;" d="M38 0 l151 714 l84 0 l-83 -393 q-6 -30 -14.5 -68 q-8.5 -38 -16 -72.5 q-7.5 -34.5 -12.5 -51.5 l2 0 l430 585 l104 0 l-151 -714 l-84 0 l84 397 q7 34 15 71.5 q8 37.5 15.5 71 q7.5 33.5 13.5 55.5 l-2 0 l-432 -595 l-104 0 Z" /><glyph glyph-name="afii10028" unicode="&#x41a;" d="M38 0 l151 714 l89 0 l-74 -347 l319 347 l107 0 l-335 -357 l203 -357 l-102 0 l-195 354 l-74 -354 l-89 0 Z" /><glyph glyph-name="afii10029" unicode="&#x41b;" d="M29 -11 q-19 0 -34 3.5 q-15 3.5 -25 7.5 l1 78 q9 -4 21.5 -7 q12.5 -3 25.5 -3 q28 0 49.5 12.5 q21.5 12.5 41 45 q19.5 32.5 39.5 92.5 q16 46 34 106 q18 60 37 127.5 q19 67.5 37 135 q18 67.5 35 127.5 l341 0 l-152 -714 l-89 0 l134 634 l-169 0 q-13 -49 -28.5 -107.5 q-15.5 -58.5 -32 -119 q-16.5 -60.5 -33 -116 q-16.5 -55.5 -31.5 -98.5 q-23 -63 -48 -109 q-25 -46 -62 -70.5 q-37 -24.5 -92 -24.5 Z" /><glyph glyph-name="afii10037" unicode="&#x423;" d="M81 -10 q-22 0 -44.5 4.5 q-22.5 4.5 -35.5 9.5 l1 87 q16 -8 36.5 -13.5 q20.5 -5.5 41.5 -5.5 q50 0 85 31.5 q35 31.5 75 101.5 l-136 509 l90 0 l77 -313 q8 -35 15.5 -68.5 q7.5 -33.5 12.5 -66.5 q13 29 26.5 57.5 q13.5 28.5 29.5 57.5 l187 333 l100 0 l-316 -536 q-41 -69 -78 -110.5 q-37 -41.5 -77 -59.5 q-40 -18 -90 -18 Z" /><glyph glyph-name="afii10040" unicode="&#x426;" d="M450 -187 l40 187 l-453 0 l151 714 l90 0 l-134 -634 l280 0 l133 634 l90 0 l-133 -634 l80 0 l-59 -267 l-85 0 Z" /><glyph glyph-name="afii10041" unicode="&#x427;" d="M384 0 l61 291 q-32 -15 -79.5 -29 q-47.5 -14 -102.5 -14 q-70 0 -109 35 q-39 35 -39 100 q0 22 3 40.5 q3 18.5 8 41.5 l53 249 l89 0 l-52 -247 q-4 -21 -7 -38 q-3 -17 -3 -27 q0 -37 19 -56 q19 -19 63 -19 q46 0 92 12.5 q46 12.5 83 26.5 l72 348 l89 0 l-151 -714 l-89 0 Z" /><glyph glyph-name="afii10042" unicode="&#x428;" d="M37 0 l151 714 l90 0 l-134 -634 l235 0 l134 634 l90 0 l-134 -634 l235 0 l133 634 l90 0 l-151 -714 l-739 0 Z" /><glyph glyph-name="afii10043" unicode="&#x429;" d="M730 -187 l40 187 l-733 0 l151 714 l90 0 l-134 -634 l235 0 l134 634 l90 0 l-134 -634 l235 0 l133 634 l90 0 l-134 -634 l80 0 l-58 -267 l-85 0 Z" /><glyph glyph-name="afii10044" unicode="&#x42a;" d="M111 0 l133 635 l-152 0 l18 79 l241 0 l-64 -302 l59 0 q78 0 123 -23.5 q45 -23.5 64 -63 q19 -39.5 19 -87.5 q0 -82 -34.5 -134.5 q-34.5 -52.5 -95.5 -78 q-61 -25.5 -141 -25.5 l-170 0 ZM216 76 l78 0 q167 0 167 154 q0 58 -30.5 81.5 q-30.5 23.5 -85.5 23.5 l-75 0 l-54 -259 Z" /><glyph glyph-name="afii10045" unicode="&#x42b;" d="M39 0 l151 714 l89 0 l-64 -302 l58 0 q79 0 123.5 -23.5 q44.5 -23.5 63.5 -63 q19 -39.5 19 -87.5 q0 -82 -34.5 -134.5 q-34.5 -52.5 -96 -78 q-61.5 -25.5 -141.5 -25.5 l-168 0 ZM532 0 l151 714 l90 0 l-151 -714 l-90 0 ZM145 76 l75 0 q167 0 167 154 q0 58 -30.5 81.5 q-30.5 23.5 -84.5 23.5 l-73 0 l-54 -259 Z" /><glyph glyph-name="afii10046" unicode="&#x42c;" d="M38 0 l151 714 l89 0 l-64 -302 l60 0 q78 0 123 -23.5 q45 -23.5 64 -63 q19 -39.5 19 -87.5 q0 -82 -34.5 -134.5 q-34.5 -52.5 -96 -78 q-61.5 -25.5 -141.5 -25.5 l-170 0 ZM144 76 l77 0 q167 0 167 154 q0 58 -30 81.5 q-30 23.5 -85 23.5 l-75 0 l-54 -259 Z" /><glyph glyph-name="afii10047" unicode="&#x42d;" d="M172 -10 q-92 0 -163 39 l1 86 q39 -19 77 -32.5 q38 -13.5 89 -13.5 q107 0 169 72 q62 72 84 193 l-283 0 l16 79 l278 0 q0 10 0.5 20.5 q0.5 10.5 0.5 25.5 q0 82 -38 134 q-38 52 -115 52 q-45 0 -80.5 -9.5 q-35.5 -9.5 -69.5 -21.5 l-22 74 q36 14 82.5 25 q46.5 11 99.5 11 q110 0 173.5 -67.5 q63.5 -67.5 63.5 -196.5 q0 -88 -19.5 -172 q-19.5 -84 -62.5 -151.5 q-43 -67.5 -112 -107 q-69 -39.5 -169 -39.5 Z" /><glyph glyph-name="afii10048" unicode="&#x42e;" d="M580 -10 q-86 0 -138.5 37 q-52.5 37 -76.5 99 q-24 62 -24 137 q0 33 3 70 l-147 0 l-70 -333 l-89 0 l151 714 l89 0 l-64 -302 l144 0 q20 90 64 160.5 q44 70.5 109.5 111.5 q65.5 41 150.5 41 q106 0 166.5 -72.5 q60.5 -72.5 60.5 -203.5 q0 -93 -21 -176 q-21 -83 -62.5 -146.5 q-41.5 -63.5 -103 -100 q-61.5 -36.5 -142.5 -36.5 ZM585 69 q57 0 100.5 32.5 q43.5 32.5 72.5 87.5 q29 55 43.5 123 q14.5 68 14.5 138 q0 95 -39 145.5 q-39 50.5 -107 50.5 q-54 0 -97.5 -30 q-43.5 -30 -74 -82.5 q-30.5 -52.5 -47 -121.5 q-16.5 -69 -16.5 -147 q0 -55 15 -99 q15 -44 48.5 -70.5 q33.5 -26.5 86.5 -26.5 Z" /><glyph glyph-name="afii10049" unicode="&#x42f;" d="M-39 0 l242 326 q-37 22 -62.5 58.5 q-25.5 36.5 -25.5 99.5 q0 84 35 134.5 q35 50.5 94 73 q59 22.5 130 22.5 l185 0 l-150 -714 l-90 0 l63 296 l-99 0 l-214 -296 l-108 0 ZM333 372 l66 0 l55 265 l-81 0 q-47 0 -84.5 -13.5 q-37.5 -13.5 -59.5 -45.5 q-22 -32 -22 -87 q0 -53 31 -86 q31 -33 95 -33 Z" /><glyph glyph-name="afii10066" unicode="&#x431;" d="M229 -10 q-86 0 -133 56.5 q-47 56.5 -47 165.5 q0 45 8.5 103.5 q8.5 58.5 26.5 121 q18 62.5 46.5 119 q28.5 56.5 69.5 98 q41 41.5 95 58.5 q18 6 51.5 13.5 q33.5 7.5 72.5 16 q39 8.5 74.5 14.5 q35.5 6 57.5 9 l9 -72 q-27 -5 -68.5 -12.5 q-41.5 -7.5 -83.5 -17 q-42 -9.5 -71 -19.5 q-61 -20 -104.5 -80 q-43.5 -60 -68.5 -155 l3 -1 q25 32 69 61 q44 29 100 29 q70 0 105.5 -47 q35.5 -47 35.5 -130 q0 -61 -14 -120 q-14 -59 -44 -106.5 q-30 -47.5 -77 -76 q-47 -28.5 -113 -28.5 ZM238 63 q41 0 69.5 25 q28.5 25 46 64 q17.5 39 25.5 82 q8 43 8 78 q0 58 -19 85.5 q-19 27.5 -58 27.5 q-34 0 -65 -18 q-31 -18 -56 -42.5 q-25 -24.5 -39 -46.5 q-5 -28 -8.5 -56 q-3.5 -28 -3.5 -53 q0 -66 22.5 -106 q22.5 -40 77.5 -40 Z" /><glyph glyph-name="afii10067" unicode="&#x432;" d="M248 -10 q-104 0 -152 59.5 q-48 59.5 -48 157.5 q0 95 32.5 171.5 q32.5 76.5 94 121.5 q61.5 45 148.5 45 q80 0 125.5 -33.5 q45.5 -33.5 45.5 -100.5 q0 -60 -36.5 -93.5 q-36.5 -33.5 -92.5 -46.5 l0 -2 q41 -11 67 -36.5 q26 -25.5 26 -75.5 q0 -38 -20 -76.5 q-20 -38.5 -66 -64.5 q-46 -26 -124 -26 ZM148 303 l103 0 q41 0 76.5 9 q35.5 9 57 30.5 q21.5 21.5 21.5 58.5 q0 29 -20 50 q-20 21 -64 21 q-64 0 -109.5 -44 q-45.5 -44 -64.5 -125 ZM254 62 q62 0 90.5 28.5 q28.5 28.5 28.5 66.5 q0 37 -29 56 q-29 19 -91 19 l-116 0 q0 -5 -0.5 -11.5 q-0.5 -6.5 -0.5 -12.5 q0 -77 32 -111.5 q32 -34.5 86 -34.5 Z" /><glyph glyph-name="afii10068" unicode="&#x433;" d="M188 -10 q-44 0 -81.5 13.5 q-37.5 13.5 -60 43 q-22.5 29.5 -22.5 77.5 q0 54 26 87.5 q26 33.5 66 55 q40 21.5 81 38.5 q58 23 93.5 46.5 q35.5 23.5 35.5 65.5 q0 24 -15 39.5 q-15 15.5 -53 15.5 q-37 0 -72.5 -11 q-35.5 -11 -66.5 -24 l-23 70 q34 13 77 25.5 q43 12.5 96 12.5 q63 0 104.5 -28.5 q41.5 -28.5 41.5 -93.5 q0 -47 -23.5 -79 q-23.5 -32 -61.5 -54 q-38 -22 -79 -38 q-43 -17 -73.5 -32 q-30.5 -15 -47.5 -35.5 q-17 -20.5 -17 -52.5 q0 -32 21.5 -50.5 q21.5 -18.5 67.5 -18.5 q39 0 75.5 12 q36.5 12 71.5 29 l-1 -77 q-34 -17 -72 -27 q-38 -10 -88 -10 Z" /><glyph glyph-name="afii10069" unicode="&#x434;" d="M216 -10 q-84 0 -126.5 53 q-42.5 53 -42.5 139 q0 57 15.5 115.5 q15.5 58.5 46 107.5 q30.5 49 75 78.5 q44.5 29.5 102.5 29.5 q56 0 86 -25.5 q30 -25.5 46 -59.5 l3 0 q1 8 1 16.5 q0 8.5 0 19.5 q0 118 -30.5 175.5 q-30.5 57.5 -93.5 57.5 q-24 0 -51 -6 q-27 -6 -49 -16 l-21 65 q24 12 61.5 21 q37.5 9 71.5 9 q104 0 152.5 -77 q48.5 -77 48.5 -223 q0 -61 -11 -128 q-11 -67 -33.5 -129.5 q-22.5 -62.5 -57.5 -113 q-35 -50.5 -83 -80 q-48 -29.5 -110 -29.5 ZM225 64 q47 0 82.5 38 q35.5 38 60 99 q24.5 61 37.5 131 q-13 48 -40 80.5 q-27 32.5 -70 32.5 q-42 0 -78.5 -35.5 q-36.5 -35.5 -58.5 -94.5 q-22 -59 -22 -131 q0 -51 21 -85.5 q21 -34.5 68 -34.5 Z" /><glyph glyph-name="afii10072" unicode="&#x436;" d="M42 -10 q-14 0 -29.5 2 q-15.5 2 -27.5 6 l14 72 q21 -7 45 -7 q41 0 72.5 25.5 q31.5 25.5 53.5 66.5 q22 41 33 90 q11 49 11 96 q0 56 -20.5 93.5 q-20.5 37.5 -67.5 37.5 q-14 0 -27 -2 q-13 -2 -26 -5 l0 72 q14 3 31.5 6 q17.5 3 35.5 3 q81 0 122 -54 q41 -54 41 -148 q0 -11 -1 -21 q-1 -10 -2 -19 l78 0 l49 232 l81 0 l-49 -232 l74 0 q9 40 28 82.5 q19 42.5 48.5 78.5 q29.5 36 71.5 58.5 q42 22.5 96 22.5 q17 0 33 -2 q16 -2 32 -7 l-17 -71 q-21 6 -48 6 q-41 0 -72.5 -25.5 q-31.5 -25.5 -52.5 -66.5 q-21 -41 -31.5 -89.5 q-10.5 -48.5 -10.5 -95.5 q0 -57 20 -94.5 q20 -37.5 66 -37.5 q16 0 28 2 q12 2 26 6 l-1 -73 q-13 -2 -30 -5 q-17 -3 -36 -3 q-80 0 -121 53.5 q-41 53.5 -41 148.5 q0 14 0.5 24 q0.5 10 1.5 21 l-79 0 l-50 -237 l-80 0 l50 237 l-74 0 q-10 -45 -30.5 -89 q-20.5 -44 -51 -80 q-30.5 -36 -72 -57 q-41.5 -21 -94.5 -21 Z" /><glyph glyph-name="afii10073" unicode="&#x437;" d="M148 -10 q-42 0 -82 9.5 q-40 9.5 -66 24.5 l1 81 q25 -14 64 -28.5 q39 -14.5 90 -14.5 q59 0 95 27.5 q36 27.5 36 73.5 q0 35 -19.5 56.5 q-19.5 21.5 -74.5 21.5 l-71 0 l17 74 l47 0 q33 0 63.5 7 q30.5 7 50 27 q19.5 20 19.5 59 q0 29 -19 46.5 q-19 17.5 -58 17.5 q-34 0 -64.5 -8.5 q-30.5 -8.5 -68.5 -25.5 l-25 67 q41 19 81 30 q40 11 90 11 q71 0 111.5 -32.5 q40.5 -32.5 40.5 -92.5 q0 -54 -31.5 -90.5 q-31.5 -36.5 -89.5 -49.5 l0 -2 q40 -11 62.5 -38.5 q22.5 -27.5 22.5 -73.5 q0 -50 -24 -90 q-24 -40 -73.5 -63.5 q-49.5 -23.5 -124.5 -23.5 Z" /><glyph glyph-name="afii10076" unicode="&#x43a;" d="M26 0 l113 536 l87 0 l-55 -258 l238 258 l109 0 l-253 -265 l164 -271 l-104 0 l-155 267 l-56 -267 l-88 0 Z" /><glyph glyph-name="afii10077" unicode="&#x43b;" d="M0 -7 q-13 0 -23.5 2.5 q-10.5 2.5 -17.5 4.5 l1 76 q14 -6 32 -6 q30 0 51.5 21 q21.5 21 41.5 67 q20 46 45 121 q22 67 42.5 116 q20.5 49 46.5 81.5 q26 32.5 63.5 48.5 q37.5 16 94.5 16 q33 0 64 -4.5 q31 -4.5 57 -12.5 l-112 -524 l-89 0 l100 463 q-6 1 -15.5 2.5 q-9.5 1.5 -19.5 1.5 q-40 0 -63.5 -19.5 q-23.5 -19.5 -44 -66.5 q-20.5 -47 -48.5 -132 q-28 -83 -54 -140 q-26 -57 -61 -86.5 q-35 -29.5 -91 -29.5 Z" /><glyph glyph-name="afii10078" unicode="&#x43c;" d="M27 0 l113 535 l115 0 l46 -425 l2 0 l225 425 l123 0 l-112 -535 l-81 0 l66 307 q8 37 17.5 75.5 q9.5 38.5 17.5 70.5 l-2 0 l-241 -453 l-71 0 l-50 452 l-3 0 q-4 -28 -11 -69 q-7 -41 -15 -78 l-61 -305 l-78 0 Z" /><glyph glyph-name="afii10079" unicode="&#x43d;" d="M26 0 l114 536 l87 0 l-46 -223 l234 0 l47 223 l88 0 l-113 -536 l-89 0 l50 240 l-233 0 l-51 -240 l-88 0 Z" /><glyph glyph-name="afii10086" unicode="&#x444;" d="M178 -240 l49 231 q-87 12 -133 70 q-46 58 -46 155 q0 63 18.5 121 q18.5 58 56 103.5 q37.5 45.5 92.5 73 q55 27.5 129 30.5 l46 216 l81 0 l-46 -216 q84 -12 132 -67.5 q48 -55.5 48 -153.5 q0 -90 -35.5 -165 q-35.5 -75 -101.5 -120 q-66 -45 -160 -46 l-49 -232 l-81 0 ZM243 65 l85 406 q-66 -3 -108 -41 q-42 -38 -62 -94.5 q-20 -56.5 -20 -117.5 q0 -70 28.5 -109 q28.5 -39 76.5 -44 ZM324 65 q52 3 88.5 26.5 q36.5 23.5 59 60 q22.5 36.5 33 80.5 q10.5 44 10.5 87 q0 71 -29 108 q-29 37 -76 42 l-86 -404 Z" /><glyph glyph-name="afii10088" unicode="&#x446;" d="M370 -186 l40 179 q-28 8 -41 32.5 q-13 24.5 -13 71.5 l-4 0 q-18 -27 -43 -51.5 q-25 -24.5 -57 -40 q-32 -15.5 -72 -15.5 q-58 0 -92.5 33 q-34.5 33 -34.5 98 q0 23 3.5 44 q3.5 21 8.5 44 l69 327 l89 0 l-71 -337 q-10 -43 -10 -68 q0 -31 15 -49.5 q15 -18.5 49 -18.5 q32 0 69 24 q37 24 69 77 q32 53 51 141 l49 231 l87 0 l-80 -378 q-5 -20 -6.5 -34 q-1.5 -14 -1.5 -26 q0 -16 8.5 -26.5 q8.5 -10.5 26.5 -10.5 q8 0 17 2 q9 2 19 5 l-56 -254 l-88 0 Z" /><glyph glyph-name="afii10089" unicode="&#x447;" d="M309 0 l32 151 q7 35 16 68 q9 33 16 58 l-4 0 q-29 -40 -70 -66 q-41 -26 -93 -26 q-129 0 -129 135 q0 20 3.5 44 q3.5 24 8.5 49 l26 123 l89 0 l-27 -130 q-6 -27 -8.5 -44.5 q-2.5 -17.5 -2.5 -32.5 q0 -39 18 -54.5 q18 -15.5 49 -15.5 q33 0 67.5 19 q34.5 19 64 66.5 q29.5 47.5 48.5 135.5 l12 56 l88 0 l-114 -536 l-90 0 Z" /><glyph glyph-name="afii10090" unicode="&#x448;" d="M176 -10 q-59 0 -91 33.5 q-32 33.5 -32 96.5 q0 25 3.5 46 q3.5 21 8.5 44 l69 326 l88 0 l-70 -336 q-5 -23 -8 -39.5 q-3 -16.5 -3 -31.5 q0 -29 15 -47 q15 -18 47 -18 q31 0 65.5 24 q34.5 24 64 75 q29.5 51 46.5 131 l51 242 l88 0 l-71 -336 q-10 -44 -10 -67 q0 -33 14 -51 q14 -18 46 -18 q31 0 65.5 23.5 q34.5 23.5 65 76.5 q30.5 53 48.5 141 l48 231 l88 0 l-114 -536 l-71 0 l11 99 l-4 0 q-18 -25 -41.5 -50 q-23.5 -25 -54 -42 q-30.5 -17 -69.5 -17 q-53 0 -81 32 q-28 32 -33 87 l-4 0 q-19 -29 -45.5 -56.5 q-26.5 -27.5 -59 -45 q-32.5 -17.5 -70.5 -17.5 Z" /><glyph glyph-name="afii10091" unicode="&#x449;" d="M652 -186 l40 179 q-28 8 -41.5 32.5 q-13.5 24.5 -14.5 71.5 l-3 0 q-17 -25 -41 -50 q-24 -25 -54.5 -41 q-30.5 -16 -68.5 -16 q-53 0 -81 32 q-28 32 -33 87 l-4 0 q-19 -29 -45 -56.5 q-26 -27.5 -58.5 -45 q-32.5 -17.5 -71.5 -17.5 q-60 0 -91.5 34 q-31.5 34 -31.5 98 q0 24 3.5 44.5 q3.5 20.5 8.5 43.5 l68 326 l89 0 l-71 -337 q-5 -23 -7.5 -39 q-2.5 -16 -2.5 -31 q0 -29 15 -47 q15 -18 47 -18 q31 0 65 23.5 q34 23.5 64 74.5 q30 51 47 132 l51 242 l88 0 l-72 -337 q-9 -45 -9 -67 q0 -33 14 -50.5 q14 -17.5 46 -17.5 q31 0 65.5 23.5 q34.5 23.5 65 76.5 q30.5 53 48.5 141 l48 231 l88 0 l-79 -378 q-8 -35 -8 -60 q0 -37 34 -37 q12 0 21.5 2.5 q9.5 2.5 16.5 4.5 l-58 -254 l-87 0 Z" /><glyph glyph-name="afii10092" unicode="&#x44a;" d="M312 -10 q-78 0 -122 37 q-44 37 -44 115 q0 20 4 47 q4 27 8 49 l48 223 l-162 0 l17 75 l249 0 l-50 -233 q22 5 48.5 8.5 q26.5 3.5 53.5 3.5 q79 0 117.5 -36.5 q38.5 -36.5 38.5 -103.5 q0 -49 -21.5 -91.5 q-21.5 -42.5 -67 -68 q-45.5 -25.5 -117.5 -25.5 ZM320 62 q58 0 84.5 32 q26.5 32 26.5 73 q0 42 -23.5 59 q-23.5 17 -70.5 17 q-23 0 -46 -2.5 q-23 -2.5 -46 -7.5 q-6 -30 -9 -49 q-3 -19 -3 -34 q0 -40 20 -64 q20 -24 67 -24 Z" /><glyph glyph-name="afii10093" unicode="&#x44b;" d="M225 -10 q-78 0 -121.5 37 q-43.5 37 -43.5 115 q0 20 3 47 q3 27 8 49 l63 298 l89 0 l-49 -233 q22 5 48 8.5 q26 3.5 53 3.5 q75 0 113.5 -36 q38.5 -36 38.5 -103 q0 -50 -21.5 -92.5 q-21.5 -42.5 -66.5 -68 q-45 -25.5 -114 -25.5 ZM475 0 l113 536 l88 0 l-114 -536 l-87 0 ZM231 62 q57 0 83 32 q26 32 26 73 q0 43 -23.5 59.5 q-23.5 16.5 -68.5 16.5 q-22 0 -45 -2.5 q-23 -2.5 -45 -7.5 q-6 -31 -8.5 -49 q-2.5 -18 -2.5 -34 q0 -42 19.5 -65 q19.5 -23 64.5 -23 Z" /><glyph glyph-name="afii10094" unicode="&#x44c;" d="M230 -10 q-82 0 -126 37 q-44 37 -44 116 q0 20 3 46.5 q3 26.5 8 48.5 l63 298 l89 0 l-50 -233 q25 5 52.5 8.5 q27.5 3.5 58.5 3.5 q86 0 122.5 -39.5 q36.5 -39.5 36.5 -100.5 q0 -49 -23.5 -91.5 q-23.5 -42.5 -70.5 -68 q-47 -25.5 -119 -25.5 ZM239 62 q61 0 89 31.5 q28 31.5 28 73.5 q0 35 -21 55.5 q-21 20.5 -74 20.5 q-28 0 -54 -2.5 q-26 -2.5 -49 -7.5 q-6 -29 -8.5 -48.5 q-2.5 -19.5 -2.5 -34.5 q0 -38 19.5 -63 q19.5 -25 72.5 -25 Z" /><glyph glyph-name="afii10095" unicode="&#x44d;" d="M128 -10 q-37 0 -69.5 8 q-32.5 8 -48.5 16 l1 79 q28 -13 56 -21 q28 -8 62 -8 q65 0 108.5 46 q43.5 46 58.5 128 l-215 0 l16 74 l209 0 l0 15 q1 76 -27 110.5 q-28 34.5 -82 34.5 q-30 0 -57.5 -8 q-27.5 -8 -52.5 -20 l-25 67 q29 13 64.5 23.5 q35.5 10.5 81.5 10.5 q94 0 140.5 -57 q46.5 -57 46.5 -155 q0 -65 -14.5 -126 q-14.5 -61 -46.5 -110 q-32 -49 -83 -78 q-51 -29 -123 -29 Z" /><glyph glyph-name="afii10096" unicode="&#x44e;" d="M459 -8 q-89 0 -134.5 57 q-45.5 57 -45.5 146 q0 13 0.5 25.5 q0.5 12.5 0.5 19.5 l-115 0 l-51 -240 l-88 0 l114 536 l87 0 l-46 -223 l112 0 q30 115 92 172.5 q62 57.5 143 57.5 q89 0 134.5 -57.5 q45.5 -57.5 45.5 -146.5 q0 -65 -16 -127 q-16 -62 -47.5 -111.5 q-31.5 -49.5 -78 -79 q-46.5 -29.5 -107.5 -29.5 ZM465 65 q43 0 77.5 35.5 q34.5 35.5 55 99 q20.5 63.5 20.5 148.5 q0 55 -24 88.5 q-24 33.5 -69 33.5 q-40 0 -69.5 -24.5 q-29.5 -24.5 -49 -65.5 q-19.5 -41 -29.5 -90 q-10 -49 -10 -97 q0 -57 24 -92.5 q24 -35.5 74 -35.5 Z" /><glyph glyph-name="afii10097" unicode="&#x44f;" d="M23 -6 q-13 0 -23.5 2 q-10.5 2 -17.5 4 l1 70 q11 -3 24 -3 q25 0 40.5 17.5 q15.5 17.5 36.5 63.5 q15 32 35.5 57 q20.5 25 52.5 38 q-44 14 -65 46.5 q-21 32.5 -21 74.5 q0 74 52 123 q52 49 153 49 l195 0 l-113 -536 l-87 0 l45 211 l-59 0 q-45 0 -66.5 -22.5 q-21.5 -22.5 -43.5 -69.5 q-18 -40 -36 -68 q-18 -28 -42 -42.5 q-24 -14.5 -61 -14.5 ZM267 286 l81 0 l36 175 l-106 0 q-50 0 -77.5 -25.5 q-27.5 -25.5 -27.5 -70.5 q0 -44 26.5 -61.5 q26.5 -17.5 67.5 -17.5 Z" /><glyph glyph-name="afii10099" unicode="&#x452;" d="M247 -240 q-34 0 -61 10 l1 75 q13 -5 26 -8 q13 -3 29 -3 q57 0 78 99 l81 383 q5 23 7.5 39 q2.5 16 2.5 28 q0 32 -15.5 50.5 q-15.5 18.5 -49.5 18.5 q-32 0 -69 -23.5 q-37 -23.5 -69 -76.5 q-32 -53 -50 -141 l-44 -211 l-88 0 l128 604 l-71 0 l15 66 l70 0 l19 90 l88 0 l-20 -90 l159 0 l-15 -66 l-156 0 l-11 -50 q-8 -35 -15.5 -66.5 q-7.5 -31.5 -19.5 -69.5 l5 0 q27 41 68 74.5 q41 33.5 102 33.5 q60 0 93.5 -34 q33.5 -34 33.5 -102 q0 -20 -3.5 -40.5 q-3.5 -20.5 -7.5 -43.5 l-81 -383 q-16 -75 -52 -119 q-36 -44 -108 -44 Z" /><glyph glyph-name="afii10101" unicode="&#x454;" d="M234 -10 q-83 0 -135 49 q-52 49 -52 148 q0 61 16 124 q16 63 49 116.5 q33 53.5 84 86 q51 32.5 121 32.5 q35 0 68 -7 q33 -7 60 -19 l-25 -73 q-20 9 -45.5 17 q-25.5 8 -56.5 8 q-52 0 -96.5 -39.5 q-44.5 -39.5 -67.5 -120.5 l211 0 l-18 -74 l-209 0 q-2 -12 -2 -23.5 q0 -11.5 0 -25.5 q0 -53 27 -89.5 q27 -36.5 82 -36.5 q37 0 65.5 9.5 q28.5 9.5 57.5 23.5 l0 -74 q-27 -14 -60.5 -23 q-33.5 -9 -73.5 -9 Z" /><glyph glyph-name="afii10106" unicode="&#x459;" d="M476 -10 q-77 0 -121 37 q-44 37 -44 115 q0 20 3.5 47 q3.5 27 8.5 49 l47 225 q-5 1 -12.5 2.5 q-7.5 1.5 -15.5 1.5 q-30 0 -50.5 -19 q-20.5 -19 -40 -66.5 q-19.5 -47.5 -46.5 -132.5 q-27 -83 -53 -140 q-26 -57 -61 -86.5 q-35 -29.5 -90 -29.5 q-13 0 -24 2.5 q-11 2.5 -18 4.5 l1 76 q12 -6 32 -6 q30 0 51.5 21 q21.5 21 41 67 q19.5 46 44.5 121 q21 63 40 111.5 q19 48.5 42.5 82 q23.5 33.5 58.5 51 q35 17.5 88 17.5 q32 0 62 -5.5 q30 -5.5 51 -12.5 l-47 -220 q23 5 49.5 8.5 q26.5 3.5 53.5 3.5 q78 0 116.5 -36.5 q38.5 -36.5 38.5 -103.5 q0 -49 -21.5 -91.5 q-21.5 -42.5 -67 -68 q-45.5 -25.5 -117.5 -25.5 ZM485 62 q58 0 84 32 q26 32 26 73 q0 42 -23.5 59 q-23.5 17 -70.5 17 q-23 0 -46 -2.5 q-23 -2.5 -45 -7.5 q-7 -30 -9.5 -49 q-2.5 -19 -2.5 -34 q0 -40 19.5 -64 q19.5 -24 67.5 -24 Z" /><glyph glyph-name="afii10107" unicode="&#x45a;" d="M517 -10 q-78 0 -122 37 q-44 37 -44 115 q0 21 3.5 47.5 q3.5 26.5 8.5 50.5 l-198 0 l-50 -240 l-89 0 l115 536 l87 0 l-47 -223 l199 0 l47 223 l88 0 l-50 -233 q22 5 48 8.5 q26 3.5 54 3.5 q78 0 117 -36.5 q39 -36.5 39 -103.5 q0 -49 -22 -91.5 q-22 -42.5 -67.5 -68 q-45.5 -25.5 -116.5 -25.5 ZM524 62 q58 0 84.5 32 q26.5 32 26.5 73 q0 42 -23.5 59 q-23.5 17 -69.5 17 q-23 0 -46.5 -2.5 q-23.5 -2.5 -46.5 -7.5 q-6 -31 -8.5 -49.5 q-2.5 -18.5 -2.5 -34.5 q0 -40 20 -63.5 q20 -23.5 66 -23.5 Z" /><glyph glyph-name="afii10193" unicode="&#x45f;" d="M179 -10 q-58 0 -92 33 q-34 33 -34 98 q0 23 3.5 44 q3.5 21 7.5 44 l70 327 l89 0 l-71 -337 q-10 -43 -10 -68 q0 -31 15 -49.5 q15 -18.5 49 -18.5 q32 0 69 24 q37 24 69 77 q32 53 51 141 l49 231 l86 0 l-114 -536 l-71 0 l11 99 l-4 0 q-18 -25 -43 -50 q-25 -25 -57 -42 q-32 -17 -73 -17 ZM138 -240 l40 182 l73 24 l19 0 l-45 -206 l-87 0 Z" /><glyph glyph-name="afii10050" unicode="&#x490;" d="M38 0 l151 714 l260 0 l31 146 l84 0 l-50 -226 l-254 0 l-133 -634 l-89 0 Z" /><glyph glyph-name="afii10098" unicode="&#x491;" d="M26 0 l114 536 l188 0 l34 155 l88 0 l-48 -221 l-190 0 l-98 -470 l-88 0 Z" /><glyph glyph-name="endash" unicode="&#x2013;" d="M27 228 l18 81 l384 0 l-17 -81 l-385 0 Z" /><glyph glyph-name="emdash" unicode="&#x2014;" d="M27 228 l18 81 l840 0 l-17 -81 l-841 0 Z" /><glyph glyph-name="underscoredbl" unicode="&#x2017;" d="M-73 -90 l14 64 l378 0 l-14 -64 l-378 0 ZM-99 -222 l14 64 l377 0 l-14 -64 l-377 0 Z" /><glyph glyph-name="quoteleft" unicode="&#x2018;" d="M65 469 l-3 11 q23 53 57.5 116 q34.5 63 69.5 118 l66 0 q-25 -59 -51 -126 q-26 -67 -45 -119 l-94 0 Z" /><glyph glyph-name="quoteright" unicode="&#x2019;" d="M61 469 q25 59 52 126 q27 67 44 119 l95 0 l3 -11 q-23 -53 -58 -116 q-35 -63 -69 -118 l-67 0 Z" /><glyph glyph-name="quotesinglbase" unicode="&#x201a;" d="M-48 -129 q26 59 52 126 q26 67 44 119 l95 0 l3 -11 q-24 -53 -58.5 -116 q-34.5 -63 -68.5 -118 l-67 0 Z" /><glyph glyph-name="quotereversed" unicode="&#x201b;" d="M148 469 q-14 54 -22.5 117.5 q-8.5 63.5 -11.5 116.5 l8 11 l84 0 q-1 -59 0 -123.5 q1 -64.5 4 -121.5 l-62 0 Z" /><glyph glyph-name="quotedblleft" unicode="&#x201c;" d="M242 469 l-4 11 q23 53 58.5 116 q35.5 63 70.5 118 l66 0 q-25 -59 -52 -126 q-27 -67 -45 -119 l-94 0 ZM65 469 l-3 11 q23 53 57.5 116 q34.5 63 69.5 118 l66 0 q-25 -59 -51 -126 q-26 -67 -45 -119 l-94 0 Z" /><glyph glyph-name="quotedblright" unicode="&#x201d;" d="M238 469 q26 59 52 126 q26 67 44 119 l95 0 l4 -11 q-23 -53 -59 -116 q-36 -63 -70 -118 l-66 0 ZM61 469 q25 59 52 126 q27 67 44 119 l95 0 l3 -11 q-23 -53 -58 -116 q-35 -63 -69 -118 l-67 0 Z" /><glyph glyph-name="quotedblbase" unicode="&#x201e;" d="M128 -129 q26 59 52.5 126 q26.5 67 44.5 119 l94 0 l4 -11 q-23 -53 -58 -116 q-35 -63 -69 -118 l-68 0 ZM-48 -129 q26 59 52 126 q26 67 44 119 l95 0 l3 -11 q-24 -53 -58.5 -116 q-34.5 -63 -68.5 -118 l-67 0 Z" /><glyph glyph-name="dagger" unicode="&#x2020;" d="M116 0 l130 499 l-142 -16 l19 88 l135 -16 l19 205 l102 0 l-69 -205 l151 16 l-18 -88 l-145 15 l-81 -498 l-101 0 Z" /><glyph glyph-name="daggerdbl" unicode="&#x2021;" d="M119 0 l63 184 l-150 -15 l19 87 l145 -15 l8 143 l49 135 l-150 -16 l19 88 l144 -16 l15 185 l102 0 l-64 -185 l151 16 l-19 -88 l-145 16 l-7 -135 l-51 -143 l152 15 l-20 -87 l-145 15 l-14 -184 l-102 0 Z" /><glyph glyph-name="bullet" unicode="&#x2022;" d="M200 241 q-45 0 -75.5 28.5 q-30.5 28.5 -30.5 93.5 q0 68 31 97 q31 29 78 29 q44 0 75 -27.5 q31 -27.5 31 -94.5 q0 -67 -31.5 -96.5 q-31.5 -29.5 -77.5 -29.5 Z" /><glyph glyph-name="perthousand" unicode="&#x2030;" d="M188 276 q-52 0 -80.5 36.5 q-28.5 36.5 -28.5 105.5 q0 28 5 67.5 q5 39.5 17 81 q12 41.5 33.5 77.5 q21.5 36 53 58 q31.5 22 76.5 22 q54 0 82.5 -35 q28.5 -35 28.5 -99 q0 -27 -5.5 -66.5 q-5.5 -39.5 -18.5 -82.5 q-13 -43 -34.5 -80.5 q-21.5 -37.5 -53 -61 q-31.5 -23.5 -75.5 -23.5 ZM108 0 l511 714 l77 0 l-511 -714 l-77 0 ZM196 342 q24 0 42 20 q18 20 30.5 50.5 q12.5 30.5 20 64 q7.5 33.5 11 62.5 q3.5 29 3.5 44 q0 41 -11.5 58.5 q-11.5 17.5 -34.5 17.5 q-24 0 -42 -18 q-18 -18 -30 -47 q-12 -29 -19.5 -62 q-7.5 -33 -11 -62.5 q-3.5 -29.5 -3.5 -49.5 q0 -78 45 -78 ZM538 -10 q-52 0 -81 36 q-29 36 -29 105 q0 29 5 69 q5 40 17.5 81.5 q12.5 41.5 34 77 q21.5 35.5 53 57.5 q31.5 22 75.5 22 q55 0 83.5 -35 q28.5 -35 28.5 -99 q0 -27 -5.5 -66.5 q-5.5 -39.5 -18.5 -82.5 q-13 -43 -35 -80.5 q-22 -37.5 -53.5 -61 q-31.5 -23.5 -74.5 -23.5 ZM852 -10 q-52 0 -81 36 q-29 36 -29 105 q0 29 5 69 q5 40 17.5 81.5 q12.5 41.5 33.5 77 q21 35.5 53 57.5 q32 22 76 22 q55 0 83.5 -35 q28.5 -35 28.5 -99 q0 -27 -6 -66.5 q-6 -39.5 -19 -82.5 q-13 -43 -34.5 -80.5 q-21.5 -37.5 -53 -61 q-31.5 -23.5 -74.5 -23.5 ZM545 56 q25 0 43 20 q18 20 30.5 50.5 q12.5 30.5 20 64.5 q7.5 34 11 62.5 q3.5 28.5 3.5 43.5 q0 41 -12 58.5 q-12 17.5 -34 17.5 q-24 0 -42 -18 q-18 -18 -30.5 -47 q-12.5 -29 -19.5 -62 q-7 -33 -10.5 -63 q-3.5 -30 -3.5 -50 q0 -77 44 -77 ZM859 56 q25 0 43 20 q18 20 30 50.5 q12 30.5 19.5 64.5 q7.5 34 11 62.5 q3.5 28.5 3.5 43.5 q0 41 -11.5 58.5 q-11.5 17.5 -33.5 17.5 q-24 0 -42 -18 q-18 -18 -30.5 -47 q-12.5 -29 -20 -62 q-7.5 -33 -11 -63 q-3.5 -30 -3.5 -50 q0 -77 45 -77 Z" /><glyph glyph-name="minute" unicode="&#x2032;" d="M69 456 l125 258 l94 0 l-162 -258 l-57 0 Z" /><glyph glyph-name="guilsinglleft" unicode="&#x2039;" d="M145 54 l-103 214 l0 14 l185 189 l44 -43 l-138 -163 l75 -185 l-63 -26 Z" /><glyph glyph-name="guilsinglright" unicode="&#x203a;" d="M54 54 l-44 43 l138 163 l-75 185 l63 26 l102 -214 l0 -13 l-184 -190 Z" /><glyph glyph-name="fraction" unicode="&#x2044;" d="M-229 0 l511 714 l78 0 l-511 -714 l-78 0 Z" /><glyph glyph-name="franc" unicode="&#x20a3;" d="M71 0 l27 128 l-79 0 l14 66 l79 0 l110 520 l340 0 l-18 -79 l-254 0 l-52 -254 l238 0 l-18 -79 l-237 0 l-24 -108 l130 0 l-14 -66 l-129 0 l-28 -128 l-85 0 Z" /><glyph glyph-name="afii08941" unicode="&#x20a4;" d="M-10 0 l15 74 q49 12 78 48 q29 36 43 101 l-88 0 l15 67 l89 0 l15 77 l-92 0 l16 67 l91 0 l24 115 q17 82 66.5 128 q49.5 46 137.5 46 q48 0 90 -12.5 q42 -12.5 68 -29.5 l-34 -69 q-23 14 -58 26 q-35 12 -68 12 q-50 0 -78 -30 q-28 -30 -39 -83 l-21 -103 l168 0 l-15 -67 l-168 0 l-17 -77 l169 0 l-14 -67 l-169 0 q-13 -54 -34 -87.5 q-21 -33.5 -59 -55.5 l332 0 l-18 -80 l-445 0 Z" /><glyph glyph-name="peseta" unicode="&#x20a7;" d="M26 0 l152 714 l103 0 q103 0 151 -48.5 q48 -48.5 48 -130.5 q0 -75 -30.5 -133 q-30.5 -58 -93.5 -90.5 q-63 -32.5 -160 -32.5 l-25 0 l-59 -279 l-86 0 ZM189 354 l16 0 q72 0 112.5 26 q40.5 26 57 65 q16.5 39 16.5 78 q0 114 -121 114 l-24 0 l-57 -283 ZM552 -10 q-51 0 -74 26.5 q-23 26.5 -23 66.5 q0 14 3.5 34 q3.5 20 9.5 51 l38 178 l-69 0 l9 40 l77 38 l49 91 l53 0 l-23 -102 l95 0 l-14 -67 l-95 0 l-40 -184 q-4 -23 -6 -37.5 q-2 -14.5 -2 -24.5 q0 -17 10 -27.5 q10 -10.5 27 -10.5 q16 0 31 4 q15 4 28 8 l-1 -67 q-16 -7 -37 -12 q-21 -5 -46 -5 Z" /><glyph glyph-name="Euro" unicode="&#x20ac;" d="M311 -10 q-93 0 -149 62 q-56 62 -55 193 l-77 0 l13 66 l70 0 q2 19 6.5 41.5 q4.5 22.5 8.5 36.5 l-69 0 l15 67 l72 0 q43 122 117.5 194.5 q74.5 72.5 175.5 72.5 q48 0 81 -12.5 q33 -12.5 62 -32.5 l-41 -71 q-22 15 -47.5 26.5 q-25.5 11.5 -58.5 11.5 q-61 0 -112.5 -47.5 q-51.5 -47.5 -84.5 -141.5 l191 0 l-14 -67 l-198 0 q-5 -17 -9.5 -37.5 q-4.5 -20.5 -6.5 -40.5 l171 0 l-15 -66 l-161 0 q-1 -93 32.5 -134.5 q33.5 -41.5 95.5 -41.5 q33 0 63.5 7.5 q30.5 7.5 58.5 19.5 l-1 -77 q-26 -12 -61 -20.5 q-35 -8.5 -73 -8.5 Z" /><glyph glyph-name="afii61248" unicode="&#x2105;" d="M237 385 q-53 0 -85.5 31.5 q-32.5 31.5 -32.5 96.5 q0 50 19.5 97 q19.5 47 60 77.5 q40.5 30.5 102.5 30.5 q23 0 42 -5 q19 -5 38 -12 l-19 -51 q-15 7 -31.5 11.5 q-16.5 4.5 -34.5 4.5 q-34 0 -58.5 -21 q-24.5 -21 -37.5 -55.5 q-13 -34.5 -13 -73.5 q0 -77 60 -77 q22 0 39 5.5 q17 5.5 32 10.5 l-1 -52 q-15 -7 -36.5 -12.5 q-21.5 -5.5 -43.5 -5.5 ZM88 0 l516 714 l76 0 l-513 -714 l-79 0 ZM503 -4 q-54 0 -84.5 32 q-30.5 32 -30.5 91 q0 52 17.5 100.5 q17.5 48.5 53.5 79.5 q36 31 92 31 q55 0 86 -35 q31 -35 31 -95 q0 -58 -19 -104 q-19 -46 -55.5 -73 q-36.5 -27 -90.5 -27 ZM510 48 q32 0 52 25.5 q20 25.5 29 60.5 q9 35 9 64 q0 37 -13.5 57.5 q-13.5 20.5 -41.5 20.5 q-33 0 -52.5 -24.5 q-19.5 -24.5 -28.5 -60 q-9 -35.5 -9 -67.5 q0 -76 55 -76 Z" /><glyph glyph-name="afii61289" unicode="&#x2113;" d="M285 -10 q-40 0 -73.5 16.5 q-33.5 16.5 -53 54.5 q-19.5 38 -18.5 103 l1 113 q-22 -8 -44.5 -15 q-22.5 -7 -45.5 -13 l1 59 q24 7 46 14.5 q22 7.5 43 14.5 l3 239 q0 40 14.5 74 q14.5 34 45 54 q30.5 20 80.5 20 q56 0 89 -38 q33 -38 33 -107 q0 -65 -24 -119.5 q-24 -54.5 -65 -94.5 q-41 -40 -94 -63 l-1 -135 q-1 -50 16.5 -79.5 q17.5 -29.5 56.5 -29.5 q33 0 57 22.5 q24 22.5 29 80.5 l52 0 q-5 -82 -41 -126.5 q-36 -44.5 -107 -44.5 ZM224 366 q114 65 114 211 q0 89 -54 89 q-35 0 -46.5 -25.5 q-11.5 -25.5 -11.5 -66.5 l-2 -208 Z" /><glyph glyph-name="afii61352" unicode="&#x2116;" d="M25 0 l151 714 l98 0 l152 -587 q7 41 17 94.5 q10 53.5 19 99.5 l83 393 l80 0 l-151 -714 l-96 0 l-154 597 q-5 -44 -15.5 -100.5 q-10.5 -56.5 -21.5 -107.5 l-81 -389 l-81 0 ZM715 134 q-55 0 -85.5 34 q-30.5 34 -30.5 96 q0 52 18.5 100 q18.5 48 54.5 78.5 q36 30.5 90 30.5 q54 0 85.5 -36 q31.5 -36 31.5 -96 q0 -28 -8 -63.5 q-8 -35.5 -26.5 -68 q-18.5 -32.5 -50 -54 q-31.5 -21.5 -79.5 -21.5 ZM720 192 q32 0 52 22 q20 22 30 56 q10 34 10 68 q0 75 -55 75 q-30 0 -50.5 -22 q-20.5 -22 -30.5 -55.5 q-10 -33.5 -10 -68.5 q0 -75 54 -75 ZM567 0 l15 71 l227 0 l-16 -71 l-226 0 Z" /><glyph glyph-name="trademark" unicode="&#x2122;" d="M331 362 l3 352 l87 0 l80 -270 l92 270 l82 0 l-3 -352 l-59 0 l2 209 q0 13 0.5 30 q0.5 17 1.5 29 l-2 0 l-94 -268 l-46 0 l-84 268 l-3 0 q1 -13 1.5 -29.5 q0.5 -16.5 0.5 -29.5 l-2 -209 l-57 0 ZM150 362 l3 299 l-91 0 l1 53 l241 0 l-1 -53 l-92 0 l-3 -299 l-58 0 Z" /><glyph glyph-name="uni03A9" unicode="&#x3a9;" d="M-10 0 l17 79 l163 0 q-35 37 -63.5 97.5 q-28.5 60.5 -28.5 154.5 q0 79 22.5 150 q22.5 71 65.5 126 q43 55 106 86.5 q63 31.5 144 31.5 q85 0 140.5 -35.5 q55.5 -35.5 83 -97 q27.5 -61.5 27.5 -138.5 q0 -85 -27.5 -155.5 q-27.5 -70.5 -74 -125.5 q-46.5 -55 -102.5 -94 l168 0 l-17 -79 l-282 0 l15 70 q65 41 116 96.5 q51 55.5 80 127.5 q29 72 29 160 q0 55 -17 98.5 q-17 43.5 -53 68.5 q-36 25 -93 25 q-59 0 -103 -26 q-44 -26 -74 -70.5 q-30 -44.5 -45 -102 q-15 -57.5 -15 -121.5 q0 -90 24.5 -150 q24.5 -60 67.5 -106 l-15 -70 l-259 0 Z" /><glyph glyph-name="estimated" unicode="&#x212e;" d="M303 -17 q-79 0 -133 39 q-54 39 -82 102 q-28 63 -28 135 q0 72 21.5 124 q21.5 52 57 86 q35.5 34 78.5 50 q43 16 86 16 q69 0 124.5 -33.5 q55.5 -33.5 87.5 -95.5 q32 -62 32 -147 l-380 0 l0 -174 q20 -23 57 -41.5 q37 -18.5 79 -18.5 q69 0 110 30 q41 30 72 84 l33 -20 q-22 -37 -49.5 -68 q-27.5 -31 -67 -49.5 q-39.5 -18.5 -98.5 -18.5 ZM441 301 l0 135 q-18 20 -54 39 q-36 19 -84 19 q-47 0 -80.5 -17 q-33.5 -17 -55.5 -40 l0 -136 l274 0 Z" /><glyph glyph-name="uni0394" unicode="&#x394;" d="M-26 0 l11 54 l336 659 l93 0 l62 -660 l-12 -53 l-490 0 ZM91 79 l297 0 l-31 370 q-5 48 -6.5 90 q-1.5 42 -0.5 79 q-15 -40 -32 -80 q-17 -40 -40 -87 l-187 -372 Z" /><glyph glyph-name="uni2074" unicode="&#x2074;" d="M225 416 l19 97 l-169 0 l11 52 l226 282 l72 0 l-59 -275 l58 0 l-12 -59 l-59 0 l-20 -97 l-67 0 ZM156 572 l102 0 l20 92 q6 26 10.5 49.5 q4.5 23.5 11.5 47.5 q-6 -11 -22.5 -34 q-16.5 -23 -27.5 -37 l-94 -118 Z" /><glyph glyph-name="uni2075" unicode="&#x2075;" d="M192 409 q-58 0 -99 25 l1 67 q24 -16 50 -25 q26 -9 52 -9 q48 0 73.5 25.5 q25.5 25.5 25.5 68.5 q0 33 -21 50 q-21 17 -52 17 q-15 0 -30.5 -2.5 q-15.5 -2.5 -31.5 -8.5 l-26 23 l59 205 l205 0 l-13 -62 l-148 0 l-30 -105 q8 2 18.5 4 q10.5 2 24.5 2 q52 0 82 -30.5 q30 -30.5 30 -84.5 q0 -38 -17 -75 q-17 -37 -54 -61 q-37 -24 -99 -24 Z" /><glyph glyph-name="uni2077" unicode="&#x2077;" d="M111 417 l220 369 l-182 0 l13 59 l258 0 l-10 -48 l-221 -380 l-78 0 Z" /><glyph glyph-name="uni2078" unicode="&#x2078;" d="M209 409 q-54 0 -87.5 28.5 q-33.5 28.5 -33.5 77.5 q0 89 106 130 q-22 18 -35.5 38.5 q-13.5 20.5 -13.5 54.5 q0 50 36.5 82.5 q36.5 32.5 100.5 32.5 q56 0 83.5 -28.5 q27.5 -28.5 27.5 -68.5 q0 -40 -25.5 -69.5 q-25.5 -29.5 -68.5 -45.5 q28 -19 45 -43 q17 -24 17 -60 q0 -56 -41.5 -92.5 q-41.5 -36.5 -110.5 -36.5 ZM254 669 q26 10 49 27 q23 17 23 54 q0 22 -14 35 q-14 13 -36 13 q-31 0 -48 -17.5 q-17 -17.5 -17 -43.5 q0 -25 13 -40.5 q13 -15.5 30 -27.5 ZM216 464 q35 -1 55 19.5 q20 20.5 20 52.5 q0 25 -16 45 q-16 20 -37 32 q-34 -13 -58.5 -34 q-24.5 -21 -24.5 -57 q0 -26 17 -41.5 q17 -15.5 44 -16.5 Z" /><glyph glyph-name="uni2000" unicode="&#x2000;" d="" /><glyph glyph-name="uni2001" unicode="&#x2001;" d="" /><glyph glyph-name="uni2002" unicode="&#x2002;" d="" /><glyph glyph-name="uni2003" unicode="&#x2003;" d="" /><glyph glyph-name="uni2004" unicode="&#x2004;" d="" /><glyph glyph-name="uni2005" unicode="&#x2005;" d="" /><glyph glyph-name="uni2006" unicode="&#x2006;" d="" /><glyph glyph-name="uni2007" unicode="&#x2007;" d="" /><glyph glyph-name="uni2008" unicode="&#x2008;" d="" /><glyph glyph-name="uni2009" unicode="&#x2009;" d="" /><glyph glyph-name="uni200A" unicode="&#x200a;" d="" /><glyph glyph-name="uni200B" unicode="&#x200b;" d="" /><glyph glyph-name="uniFEFF" unicode="&#xfeff;" d="" /><glyph glyph-name="uniFFFC" unicode="&#xfffc;" d="M877 593 l1 94 l-91 0 l1 54 l140 0 l-1 -148 l-50 0 ZM606 687 l0 54 l127 0 l-1 -54 l-126 0 ZM424 687 l1 54 l126 0 l0 -54 l-127 0 ZM45 593 l2 148 l140 0 l0 -54 l-89 0 l-1 -94 l-52 0 ZM243 687 l1 54 l125 0 l-1 -54 l-125 0 ZM875 402 l1 132 l50 0 l-1 -132 l-50 0 ZM43 402 l2 132 l51 0 l-1 -132 l-52 0 ZM281 160 q-62 0 -91 40 q-29 40 -29 104 q0 68 30 109 q30 41 93 41 q62 0 91 -39.5 q29 -39.5 29 -104.5 q0 -68 -29.5 -109 q-29.5 -41 -93.5 -41 ZM693 161 q-22 0 -37 5 l1 50 q7 -2 14.5 -3 q7.5 -1 16.5 -1 q17 0 28.5 8.5 q11.5 8.5 11.5 33.5 l2 196 l58 0 l-2 -194 q-1 -50 -26.5 -72.5 q-25.5 -22.5 -66.5 -22.5 ZM442 164 l3 286 l79 0 q50 0 76 -16 q26 -16 26 -56 q0 -25 -11 -41 q-11 -16 -31 -20 l0 -4 q20 -5 34.5 -18.5 q14.5 -13.5 14.5 -46.5 q0 -40 -25.5 -62 q-25.5 -22 -69.5 -22 l-96 0 ZM282 211 q33 0 48 26 q15 26 15 72 q0 44 -14.5 69 q-14.5 25 -46.5 25 q-33 0 -48.5 -26 q-15.5 -26 -15.5 -72 q0 -44 15 -69 q15 -25 47 -25 ZM500 337 l31 0 q22 0 30 8.5 q8 8.5 8 24.5 q0 30 -40 30 l-28 0 l-1 -63 ZM41 210 l2 133 l51 0 l-1 -133 l-52 0 ZM872 210 l2 133 l50 0 l-1 -133 l-51 0 ZM499 214 l34 0 q23 0 32 10.5 q9 10.5 9 29.5 q0 15 -9 25 q-9 10 -33 10 l-32 0 l-1 -75 ZM870 19 l2 132 l50 0 l-1 -132 l-51 0 ZM39 19 l2 132 l51 0 l-2 -132 l-51 0 ZM778 -187 l1 53 l90 0 l1 95 l50 0 l-1 -148 l-141 0 ZM37 -187 l2 148 l51 0 l-1 -95 l89 0 l0 -53 l-141 0 ZM597 -187 l0 53 l126 0 l0 -53 l-126 0 ZM415 -187 l1 53 l126 0 l-1 -53 l-126 0 ZM234 -187 l0 53 l126 0 l-1 -53 l-125 0 Z" /><glyph glyph-name="uniFFFD" unicode="&#xfffd;" d="M472 -156 l-430 458 l440 458 l431 -458 l-441 -458 ZM408 179 l98 0 l0 23 q1 25 10.5 39.5 q9.5 14.5 41.5 40.5 q40 34 61 65 q21 31 22 80 q1 67 -42.5 104 q-43.5 37 -119.5 37 q-40 0 -82 -14 q-42 -14 -74 -34 l37 -87 q32 17 61 28 q29 11 55 11 q29 0 43.5 -14 q14.5 -14 13.5 -37 q0 -29 -12.5 -46 q-12.5 -17 -44.5 -43 q-35 -30 -51 -57.5 q-16 -27.5 -16 -66.5 l-1 -29 ZM459 -21 q26 0 45.5 15.5 q19.5 15.5 20.5 50.5 q0 37 -19.5 52 q-19.5 15 -44.5 15 q-28 0 -47 -15 q-19 -15 -19 -52 q-1 -35 17.5 -50.5 q18.5 -15.5 46.5 -15.5 Z" /><glyph glyph-name="uni03D1" unicode="&#x3d1;" d="M201 -10 q-79 0 -114.5 39.5 q-35.5 39.5 -35.5 95.5 q0 36 9.5 67.5 q9.5 31.5 20.5 63.5 q7 20 13.5 37 q6.5 17 6.5 34 q0 28 -25 28 q-10 0 -23 -4.5 q-13 -4.5 -22 -9.5 l5 67 q16 7 34 12 q18 5 41 5 q38 0 57.5 -22.5 q19.5 -22.5 19.5 -55.5 q0 -29 -8 -56 q-8 -27 -18 -53 q-9 -26 -16 -52 q-7 -26 -7 -53 q0 -31 16.5 -51.5 q16.5 -20.5 55.5 -20.5 q41 0 73 25.5 q32 25.5 55.5 66 q23.5 40.5 40 88 q16.5 47.5 27 92.5 q10.5 45 16.5 78 q-121 2 -181.5 47.5 q-60.5 45.5 -60.5 129.5 q0 80 47.5 128.5 q47.5 48.5 124.5 48.5 q87 0 128.5 -63.5 q41.5 -63.5 41.5 -170.5 q0 -13 -0.5 -28.5 q-0.5 -15.5 -2.5 -25.5 l67 0 l-15 -67 l-61 0 q-7 -48 -21.5 -104.5 q-14.5 -56.5 -38.5 -112 q-24 -55.5 -58.5 -101.5 q-34.5 -46 -82 -74 q-47.5 -28 -109.5 -28 ZM431 477 q1 0 2 20 q1 20 1 36 q0 161 -84 161 q-41 0 -61.5 -30 q-20.5 -30 -20.5 -74 q0 -62 42 -87.5 q42 -25.5 121 -25.5 Z" /><glyph glyph-name="uni03D2" unicode="&#x3d2;" d="M142 0 l58 268 l-105 446 l89 0 l75 -358 q26 50 56 105.5 q30 55.5 58 103.5 q28 48 48 76 q29 40 56 59.5 q27 19.5 64 19.5 q13 0 27.5 -2.5 q14.5 -2.5 25.5 -5.5 l-19 -71 q-6 1 -12 3 q-6 2 -14 2 q-15 0 -30.5 -11 q-15.5 -11 -36.5 -41 q-16 -22 -45.5 -72 q-29.5 -50 -68.5 -117.5 q-39 -67.5 -82 -144.5 l-54 -260 l-90 0 Z" /><glyph glyph-name="uni03D6" unicode="&#x3d6;" d="M213 -10 q-65 0 -101 43.5 q-36 43.5 -36 127.5 q0 71 27 149.5 q27 78.5 75 150.5 l-124 0 l8 36 l91 39 l650 0 l-16 -75 l-110 0 q6 -29 8.5 -58 q2.5 -29 2.5 -57 q0 -58 -12.5 -120 q-12.5 -62 -40 -115.5 q-27.5 -53.5 -70 -87 q-42.5 -33.5 -102.5 -33.5 q-47 0 -75 24.5 q-28 24.5 -38 67.5 q-24 -44 -57.5 -68 q-33.5 -24 -79.5 -24 ZM226 63 q41 0 65.5 37.5 q24.5 37.5 36.5 93.5 l19 86 l84 0 l-15 -73 q-3 -15 -6 -33.5 q-3 -18.5 -3 -33.5 q0 -77 57 -77 q31 0 56 24.5 q25 24.5 43 66 q18 41.5 27.5 93.5 q9.5 52 9.5 106 q0 27 -1.5 55 q-1.5 28 -5.5 53 l-327 0 q-41 -67 -71 -143 q-30 -76 -30 -155 q0 -49 16.5 -74.5 q16.5 -25.5 44.5 -25.5 Z" /><glyph glyph-name="uni02F3" unicode="&#x2f3;" d="M67 -273 q-46 0 -74.5 28 q-28.5 28 -28.5 78 q0 49 28.5 77.5 q28.5 28.5 74.5 28.5 q45 0 75.5 -28 q30.5 -28 30.5 -77 q0 -51 -30 -79 q-30 -28 -76 -28 ZM67 -223 q23 0 37.5 15 q14.5 15 14.5 41 q0 27 -14.5 41.5 q-14.5 14.5 -37.5 14.5 q-23 0 -37.5 -14.5 q-14.5 -14.5 -14.5 -41.5 q0 -26 13.5 -41 q13.5 -15 38.5 -15 Z" /><glyph glyph-name="Ohorn" unicode="&#x1a0;" d="M319 -10 q-122 0 -185.5 74.5 q-63.5 74.5 -63.5 202.5 q0 92 24 175 q24 83 69.5 146.5 q45.5 63.5 110 100 q64.5 36.5 145.5 36.5 q70 0 120.5 -27.5 q50.5 -27.5 81.5 -78.5 q40 18 58 53 q18 35 26 88 l95 0 l4 -11 q-17 -67 -55.5 -110 q-38.5 -43 -105.5 -71 q17 -56 17 -124 q0 -93 -22 -175 q-22 -82 -65.5 -144.5 q-43.5 -62.5 -107 -98.5 q-63.5 -36 -146.5 -36 ZM323 69 q55 0 100 30 q45 30 77 82.5 q32 52.5 49 120.5 q17 68 17 144 q0 95 -40.5 147.5 q-40.5 52.5 -113.5 52.5 q-56 0 -101.5 -29.5 q-45.5 -29.5 -78.5 -81 q-33 -51.5 -50.5 -120 q-17.5 -68.5 -17.5 -146.5 q0 -95 42 -147.5 q42 -52.5 117 -52.5 Z" /><glyph glyph-name="ohorn" unicode="&#x1a1;" d="M235 -8 q-87 0 -137.5 54.5 q-50.5 54.5 -50.5 148.5 q0 61 16.5 123 q16.5 62 49.5 112.5 q33 50.5 81.5 81.5 q48.5 31 112.5 31 q102 0 150 -70 q44 19 62.5 57 q18.5 38 26.5 88 l94 0 l3 -11 q-16 -66 -53.5 -109.5 q-37.5 -43.5 -107.5 -70.5 q13 -38 13 -88 q0 -61 -16.5 -122.5 q-16.5 -61.5 -49 -112 q-32.5 -50.5 -81 -81.5 q-48.5 -31 -113.5 -31 ZM242 65 q45 0 82.5 34 q37.5 34 59.5 97.5 q22 63.5 22 151.5 q0 29 -10 57 q-10 28 -32 46.5 q-22 18.5 -58 18.5 q-52 0 -90.5 -38 q-38.5 -38 -59 -101 q-20.5 -63 -20.5 -138 q0 -61 27.5 -94.5 q27.5 -33.5 78.5 -33.5 Z" /><glyph glyph-name="Uhorn" unicode="&#x1af;" d="M287 -10 q-106 0 -158.5 51.5 q-52.5 51.5 -52.5 145.5 q0 19 3.5 45 q3.5 26 8.5 51 l92 431 l89 0 l-93 -437 q-6 -25 -8.5 -46.5 q-2.5 -21.5 -2.5 -37.5 q0 -56 29.5 -90 q29.5 -34 96.5 -34 q79 0 121 45.5 q42 45.5 62 136.5 l99 463 l89 0 l-21 -96 q37 8 61 41 q24 33 35 101 l94 0 l4 -11 q-17 -79 -72 -128 q-55 -49 -135 -64 l-66 -314 q-16 -78 -49 -135 q-33 -57 -88 -87.5 q-55 -30.5 -138 -30.5 Z" /><glyph glyph-name="uhorn" unicode="&#x1b0;" d="M179 -10 q-59 0 -92.5 34 q-33.5 34 -33.5 102 q0 20 3.5 40.5 q3.5 20.5 8.5 42.5 l69 327 l89 0 l-72 -337 q-9 -43 -9 -65 q0 -34 15 -52.5 q15 -18.5 49 -18.5 q32 0 69 24 q37 24 69 77.5 q32 53.5 51 140.5 l49 231 l86 0 l-12 -61 q38 8 62 41.5 q24 33.5 35 101.5 l94 0 l4 -11 q-19 -80 -74 -128.5 q-55 -48.5 -135 -64.5 l-88 -414 l-71 0 l12 99 l-5 0 q-18 -25 -43 -50 q-25 -25 -57 -42 q-32 -17 -73 -17 Z" /><glyph glyph-name="uni0460" unicode="&#x460;" d="M169 -5 q-31 95 -50.5 214 q-19.5 119 -19.5 248 q0 64 5.5 128.5 q5.5 64.5 16.5 128.5 l93 0 q-10 -66 -15 -131 q-5 -65 -5 -126 q0 -108 11.5 -201 q11.5 -93 25.5 -159 l4 0 q13 29 32.5 67 q19.5 38 41.5 79 l143 263 q3 52 8.5 106 q5.5 54 14.5 102 l92 0 q-11 -59 -15.5 -120 q-4.5 -61 -4.5 -121 q0 -109 13 -209 q13 -100 32 -172 l3 0 q82 119 148.5 275.5 q66.5 156.5 108.5 346.5 l93 0 q-47 -205 -132 -389.5 q-85 -184.5 -203 -329.5 l-81 0 q-19 52 -34 118.5 q-15 66.5 -25 135 q-10 68.5 -13 127.5 l-202 -381 l-86 0 Z" /><glyph glyph-name="uni0461" unicode="&#x461;" d="M129 0 q-25 70 -42.5 161 q-17.5 91 -17.5 195 q0 44 4 89 q4 45 12 92 l87 0 q-8 -51 -11.5 -99.5 q-3.5 -48.5 -3.5 -93.5 q0 -81 9 -149 q9 -68 22 -117 l3 0 q13 26 31.5 52.5 q18.5 26.5 36.5 53.5 l100 149 q-1 49 4 102 q5 53 14 102 l88 0 q-9 -50 -13 -102 q-4 -52 -4 -102 q0 -148 28 -257 l4 0 q68 86 122.5 204.5 q54.5 118.5 90.5 256.5 l87 0 q-38 -146 -103.5 -278 q-65.5 -132 -174.5 -259 l-81 0 q-17 52 -32 117.5 q-15 65.5 -20 124.5 l-160 -242 l-80 0 Z" /><glyph glyph-name="uni0462" unicode="&#x462;" d="M69 0 l114 537 l-112 0 l17 76 l111 0 l22 101 l90 0 l-23 -101 l178 0 l-17 -76 l-177 0 l-27 -125 l62 0 q109 0 156 -47.5 q47 -47.5 47 -126.5 q0 -116 -77 -177 q-77 -61 -220 -61 l-144 0 ZM175 77 l52 0 q87 0 139.5 37.5 q52.5 37.5 52.5 118.5 q0 53 -31 76.5 q-31 23.5 -93 23.5 l-66 0 l-54 -256 Z" /><glyph glyph-name="uni0463" unicode="&#x463;" d="M261 -10 q-168 0 -168 153 q0 21 3.5 47 q3.5 26 7.5 48 l47 222 l-105 0 l16 75 l106 0 l22 109 l88 0 l-22 -109 l133 0 l-16 -75 l-133 0 l-35 -157 q24 5 53.5 8.5 q29.5 3.5 58.5 3.5 q81 0 119.5 -36.5 q38.5 -36.5 38.5 -103.5 q0 -53 -24.5 -94.5 q-24.5 -41.5 -72 -66 q-47.5 -24.5 -117.5 -24.5 ZM271 62 q57 0 87.5 29 q30.5 29 30.5 76 q0 40 -23.5 58 q-23.5 18 -71.5 18 q-24 0 -52 -2.5 q-28 -2.5 -52 -7.5 q-6 -30 -8.5 -49 q-2.5 -19 -2.5 -34 q0 -88 92 -88 Z" /><glyph glyph-name="uni0464" unicode="&#x464;" d="M570 -10 q-116 0 -177 72.5 q-61 72.5 -60 199.5 q1 18 2 35.5 q1 17.5 2 35.5 l-140 0 l-70 -333 l-89 0 l151 714 l89 0 l-64 -302 l139 0 q17 62 47 118 q30 56 73.5 100 q43.5 44 101 69 q57.5 25 129.5 25 q95 0 168 -40 l-37 -74 q-25 14 -58 24.5 q-33 10.5 -74 10.5 q-67 0 -117 -32 q-50 -32 -84.5 -84.5 q-34.5 -52.5 -52.5 -116.5 l282 0 l-17 -78 l-283 0 q-2 -17 -3.5 -34.5 q-1.5 -17.5 -1.5 -35.5 q-1 -93 42 -144 q43 -51 119 -51 q39 0 77 8 q38 8 76 21 l-1 -78 q-39 -15 -78 -22.5 q-39 -7.5 -91 -7.5 Z" /><glyph glyph-name="uni0465" unicode="&#x465;" d="M464 -10 q-85 0 -136.5 49 q-51.5 49 -50.5 151 q0 24 3 50 l-115 0 l-51 -240 l-88 0 l114 536 l87 0 l-46 -223 l113 0 q16 63 49.5 116 q33.5 53 84 85 q50.5 32 118.5 32 q35 0 67.5 -7 q32.5 -7 61.5 -19 l-26 -73 q-19 9 -45 17 q-26 8 -57 8 q-57 0 -99 -43 q-42 -43 -64 -117 l210 0 l-17 -74 l-208 0 q-2 -16 -3 -26 q-1 -10 -1 -21 q0 -59 29 -93.5 q29 -34.5 81 -34.5 q37 0 65 9.5 q28 9.5 57 23.5 l-1 -74 q-26 -14 -59 -23 q-33 -9 -73 -9 Z" /><glyph glyph-name="uni0466" unicode="&#x466;" d="M-54 0 l402 713 l83 0 l105 -713 l-87 0 l-45 333 l-50 0 l-68 -333 l-83 0 l71 333 l-51 0 l-184 -333 l-93 0 ZM268 412 l125 0 l-10 73 q-4 32 -7 66 q-3 34 -3 62 q-13 -29 -29 -59.5 q-16 -30.5 -36 -66.5 l-40 -75 Z" /><glyph glyph-name="uni0467" unicode="&#x467;" d="M-45 0 l304 536 l110 0 l82 -536 l-87 0 l-32 240 l-40 0 l-48 -240 l-81 0 l53 240 l-39 0 l-132 -240 l-90 0 ZM216 309 l107 0 q-7 46 -12 86 q-5 40 -9 76 q-22 -45 -43.5 -84.5 q-21.5 -39.5 -42.5 -77.5 Z" /><glyph glyph-name="uni0468" unicode="&#x468;" d="M38 0 l151 714 l89 0 l-64 -302 l194 0 l169 301 l84 0 l104 -713 l-87 0 l-45 333 l-50 0 l-69 -333 l-81 0 l71 333 l-52 0 l-183 -333 l-94 0 l188 333 l-167 0 l-69 -333 l-89 0 ZM497 412 l125 0 l-9 71 q-5 44 -7.5 72 q-2.5 28 -3.5 60 q-12 -29 -28 -61.5 q-16 -32.5 -36 -67.5 l-41 -74 Z" /><glyph glyph-name="uni0469" unicode="&#x469;" d="M26 0 l114 536 l87 0 l-47 -223 l146 0 l125 223 l110 0 l81 -536 l-86 0 l-32 240 l-38 0 l-49 -240 l-82 0 l53 240 l-38 0 l-133 -240 l-91 0 l136 240 l-118 0 l-51 -240 l-87 0 ZM411 311 l104 0 l-20 160 l-84 -160 Z" /><glyph glyph-name="uni046A" unicode="&#x46a;" d="M-38 0 l102 221 q25 55 50.5 95 q25.5 40 62.5 63.5 q37 23.5 94 27.5 l-113 239 l14 68 l496 0 l-15 -68 l-219 -239 q54 -5 81.5 -29 q27.5 -24 38 -64 q10.5 -40 12.5 -92 l10 -222 l-90 0 l-9 223 q-2 61 -19 90 q-17 29 -65 29 l-8 0 l-73 -342 l-89 0 l72 342 l-6 0 q-33 0 -55.5 -11.5 q-22.5 -11.5 -41 -38 q-18.5 -26.5 -38.5 -72.5 l-100 -220 l-92 0 ZM353 421 l186 214 l-283 0 l97 -214 Z" /><glyph glyph-name="uni046B" unicode="&#x46b;" d="M-51 0 l92 177 q19 35 40 64 q21 29 52 48 q31 19 81 24 l-100 172 l10 51 l435 0 l-11 -51 l-174 -172 q42 -7 64.5 -27 q22.5 -20 33 -50 q10.5 -30 14.5 -70 l20 -166 l-84 0 l-19 165 q-5 49 -22.5 70 q-17.5 21 -60.5 21 l-53 -256 l-81 0 l54 256 q-44 0 -68 -20.5 q-24 -20.5 -49 -69.5 l-84 -166 l-90 0 ZM291 316 l136 145 l-217 0 l81 -145 Z" /><glyph glyph-name="uni046C" unicode="&#x46c;" d="M38 0 l151 714 l89 0 l-64 -302 l293 0 l-111 234 l14 68 l496 0 l-14 -68 l-219 -239 q54 -5 81.5 -29 q27.5 -24 37.5 -64 q10 -40 12 -92 l10 -222 l-89 0 l-8 223 q-2 61 -19.5 90 q-17.5 29 -66.5 29 l-8 0 l-72 -342 l-89 0 l72 342 l-7 0 q-33 0 -55 -11.5 q-22 -11.5 -40 -37.5 q-18 -26 -39 -71 l-100 -222 l-93 0 l101 221 q16 35 31.5 63.5 q15.5 28.5 34.5 48.5 l-170 0 l-70 -333 l-89 0 ZM592 421 l185 214 l-283 0 l98 -214 Z" /><glyph glyph-name="uni046D" unicode="&#x46d;" d="M26 0 l114 536 l87 0 l-47 -223 l234 0 l-99 172 l9 51 l435 0 l-11 -51 l-173 -172 q41 -7 63.5 -27 q22.5 -20 32.5 -50 q10 -30 15 -70 l20 -166 l-84 0 l-18 165 q-5 49 -22.5 70 q-17.5 21 -59.5 21 l-55 -256 l-79 0 l52 256 q-44 0 -68 -20 q-24 -20 -49 -71 l-83 -165 l-90 0 l91 177 q8 16 19.5 33 q11.5 17 26.5 30 l-123 0 l-51 -240 l-87 0 ZM492 316 l137 145 l-218 0 l81 -145 Z" /><glyph glyph-name="uni046E" unicode="&#x46e;" d="M362 -208 q-15 6 -37.5 12 q-22.5 6 -57.5 6 q-38 0 -80 -2 q-42 -2 -89 -2 q-64 0 -98 30 q-34 30 -34 77 q0 53 25.5 82.5 q25.5 29.5 71.5 45 q46 15.5 110 22.5 q37 5 72 12.5 q35 7.5 63 23 q28 15.5 44.5 44 q16.5 28.5 16.5 73.5 q0 61 -38.5 88.5 q-38.5 27.5 -109.5 27.5 l-94 0 l16 73 l87 0 q47 0 90 14.5 q43 14.5 70.5 47 q27.5 32.5 27.5 87.5 q0 49 -28 72.5 q-28 23.5 -75 23.5 q-43 0 -84 -16 q-41 -16 -81 -42 l-35 64 q41 28 82 44.5 q41 16.5 89 21.5 q-13 28 -32.5 58.5 q-19.5 30.5 -35.5 55.5 l0 12 l60 0 q34 -38 68 -88 q30 37 58 64.5 q28 27.5 66 27.5 q15 0 23.5 -2.5 q8.5 -2.5 15.5 -5.5 l-1 -56 q-6 2 -13 3 q-7 1 -16 1 q-19 0 -37 -19 q-18 -19 -46 -57 q48 -10 81 -47 q33 -37 33 -102 q0 -77 -48 -129 q-48 -52 -131 -69 l0 -2 q58 -9 95 -47 q37 -38 37 -108 q0 -74 -34.5 -120.5 q-34.5 -46.5 -97.5 -72 q-63 -25.5 -148 -33.5 q-74 -8 -100.5 -20 q-26.5 -12 -26.5 -40 q0 -17 13 -29 q13 -12 47 -12 q40 0 76.5 3 q36.5 3 82.5 3 q31 0 51 -5 q20 -5 36 -10 l0 -84 Z" /><glyph glyph-name="uni046F" unicode="&#x46f;" d="M318 -192 q-17 8 -36.5 13.5 q-19.5 5.5 -47.5 5.5 q-39 0 -72 -2 q-33 -2 -79 -2 q-47 0 -74.5 15 q-27.5 15 -40 37.5 q-12.5 22.5 -12.5 47.5 q0 51 26.5 77 q26.5 26 69 37.5 q42.5 11.5 90.5 20.5 q39 8 74 18 q35 10 57 31 q22 21 22 62 q0 33 -21 52.5 q-21 19.5 -73 19.5 l-70 0 l16 74 l48 0 q32 0 62.5 6.5 q30.5 6.5 50.5 26.5 q20 20 20 59 q0 30 -18.5 47.5 q-18.5 17.5 -60.5 17.5 q-31 0 -63 -8.5 q-32 -8.5 -69 -25.5 l-24 67 q29 14 58 23.5 q29 9.5 60 14.5 q-13 25 -30 52 q-17 27 -34 52 l0 13 l60 0 q17 -20 33.5 -41.5 q16.5 -21.5 33.5 -45.5 q28 36 56 64 q28 28 66 28 q14 0 24 -2.5 q10 -2.5 16 -4.5 l0 -57 q-7 1 -13.5 2.5 q-6.5 1.5 -16.5 1.5 q-18 0 -35 -15.5 q-17 -15.5 -43 -51.5 q42 -13 65 -43 q23 -30 23 -75 q0 -54 -32 -90 q-32 -36 -90 -49 l0 -2 q38 -10 62 -37.5 q24 -27.5 24 -72.5 q0 -63 -32 -98 q-32 -35 -85 -53 q-53 -18 -118 -28 q-52 -8 -80.5 -19.5 q-28.5 -11.5 -28.5 -38.5 q0 -37 55 -37 q40 0 75.5 2.5 q35.5 2.5 69.5 2.5 q23 0 43.5 -3.5 q20.5 -3.5 39.5 -15.5 l-1 -73 Z" /><glyph glyph-name="uni0472" unicode="&#x472;" d="M319 -10 q-122 0 -185.5 74.5 q-63.5 74.5 -63.5 202.5 q0 92 24 175 q24 83 69.5 146.5 q45.5 63.5 110 100 q64.5 36.5 145.5 36.5 q116 0 178.5 -75.5 q62.5 -75.5 62.5 -205.5 q-1 -93 -23 -175 q-22 -82 -65 -144.5 q-43 -62.5 -106.5 -98.5 q-63.5 -36 -146.5 -36 ZM181 403 l383 0 q1 10 1.5 20.5 q0.5 10.5 0.5 22.5 q0 95 -40.5 147.5 q-40.5 52.5 -113.5 52.5 q-58 0 -104 -31 q-46 -31 -78 -86 q-32 -55 -49 -126 ZM323 69 q59 0 105 33.5 q46 33.5 78 91.5 q32 58 47 131 l-386 0 q-1 -13 -2.5 -28 q-1.5 -15 -1.5 -28 q0 -95 42.5 -147.5 q42.5 -52.5 117.5 -52.5 Z" /><glyph glyph-name="uni0473" unicode="&#x473;" d="M236 -8 q-87 0 -138 54.5 q-51 54.5 -51 148.5 q0 61 16.5 123 q16.5 62 49.5 112.5 q33 50.5 81.5 81.5 q48.5 31 112.5 31 q93 0 141.5 -55.5 q48.5 -55.5 48.5 -140.5 q0 -61 -16.5 -124 q-16.5 -63 -49.5 -115 q-33 -52 -82 -84 q-49 -32 -113 -32 ZM153 312 l253 0 q0 9 0.5 16.5 q0.5 7.5 1.5 17.5 q0 57 -25 90.5 q-25 33.5 -77 33.5 q-56 0 -95 -44 q-39 -44 -58 -114 ZM241 64 q51 0 93.5 46 q42.5 46 61.5 128 l-257 0 q-2 -11 -2.5 -22 q-0.5 -11 -0.5 -24 q0 -61 27.5 -94.5 q27.5 -33.5 77.5 -33.5 Z" /><glyph glyph-name="uni0474" unicode="&#x474;" d="M159 0 l-64 714 l87 0 l37 -453 q4 -41 5.5 -82 q1.5 -41 0.5 -79 l3 1 q11 35 29 79.5 q18 44.5 35 82.5 l121 266 q31 67 55.5 109 q24.5 42 54 62 q29.5 20 75.5 20 q17 0 30.5 -2 q13.5 -2 26.5 -6 l-1 -72 q-10 4 -21.5 6.5 q-11.5 2.5 -25.5 2.5 q-31 0 -52 -31 q-21 -31 -53 -98 l-246 -520 l-97 0 Z" /><glyph glyph-name="uni0475" unicode="&#x475;" d="M105 0 l-54 536 l88 0 l25 -296 q4 -44 5.5 -83.5 q1.5 -39.5 2.5 -89.5 l3 0 q17 46 36 93.5 q19 47.5 33 79.5 l73 163 q22 49 41.5 78.5 q19.5 29.5 44.5 43.5 q25 14 64 14 q22 0 39 -5 l0 -64 q-7 2 -14.5 3 q-7.5 1 -17.5 1 q-22 0 -37 -18 q-15 -18 -31 -56 l-187 -400 l-114 0 Z" /><glyph glyph-name="uni047A" unicode="&#x47a;" d="M303 -61 q-27 0 -41.5 18 q-14.5 18 -14.5 44 q-83 21 -130 91 q-47 70 -47 180 q0 86 21 162.5 q21 76.5 61 137 q40 60.5 97 99.5 q57 39 128 50 q10 29 27 41 q17 12 44 12 q27 0 41.5 -16.5 q14.5 -16.5 14.5 -43.5 q82 -22 129 -90.5 q47 -68.5 47 -183.5 q0 -116 -36 -213.5 q-36 -97.5 -104.5 -159.5 q-68.5 -62 -166.5 -74 q-10 -29 -27.5 -41.5 q-17.5 -12.5 -42.5 -12.5 ZM387 75 q61 16 105.5 69 q44.5 53 69 130 q24.5 77 24.5 166 q0 80 -27 126.5 q-27 46.5 -73 66.5 q-11 -20 -28.5 -29.5 q-17.5 -9.5 -37.5 -9.5 q-49 0 -57 44 q-59 -16 -104 -68 q-45 -52 -70 -128.5 q-25 -76.5 -25 -166.5 q0 -74 25.5 -124.5 q25.5 -50.5 76.5 -69.5 q22 38 64 38 q48 0 57 -44 Z" /><glyph glyph-name="uni047B" unicode="&#x47b;" d="M239 -54 q-23 0 -36 14.5 q-13 14.5 -15 38.5 q-68 13 -104.5 67.5 q-36.5 54.5 -36.5 137.5 q0 52 13.5 106.5 q13.5 54.5 40.5 101.5 q27 47 68 81 q41 34 95 46 q8 28 23.5 39 q15.5 11 40.5 11 q22 0 35.5 -14 q13.5 -14 14.5 -39 q68 -16 102 -69 q34 -53 34 -129 q0 -76 -23 -148 q-23 -72 -70 -123.5 q-47 -51.5 -118 -68.5 q-7 -28 -23.5 -40 q-16.5 -12 -40.5 -12 ZM204 72 q21 34 57 34 q17 0 28.5 -9 q11.5 -9 16.5 -21 q52 21 85 91 q33 70 34 174 q0 45 -14.5 77.5 q-14.5 32.5 -46.5 43.5 q-10 -18 -24 -25.5 q-14 -7.5 -32 -7.5 q-37 0 -47 32 q-32 -11 -60.5 -46 q-28.5 -35 -46.5 -89.5 q-18 -54.5 -18 -126.5 q0 -50 17 -84 q17 -34 51 -43 Z" /><glyph glyph-name="uni047C" unicode="&#x47c;" d="M435 910 q12 62 47.5 90.5 q35.5 28.5 87.5 28.5 q40 0 74 -14 q34 -14 69 -28 q35 -14 77 -14 l12 0 l-13 -63 l-9 0 q-39 0 -68 8.5 q-29 8.5 -52.5 19.5 q-23.5 11 -46.5 19.5 q-23 8.5 -50 8.5 q-23 0 -39 -14 q-16 -14 -23 -42 l-66 0 ZM527 755 l7 37 q57 22 57 45 q0 8 -5.5 12 q-5.5 4 -12.5 7 q-11 4 -20.5 10.5 q-9.5 6.5 -9.5 22.5 q0 36 47 36 q28 0 44.5 -16.5 q16.5 -16.5 16.5 -44.5 q0 -77 -124 -109 ZM267 -10 q-103 0 -150.5 66 q-47.5 66 -47.5 174 q0 68 13 138 q13 70 38.5 133.5 q25.5 63.5 62 113.5 q36.5 50 84 79 q47.5 29 105.5 29 q82 0 131 -44 l-42 -70 q-22 16 -42.5 25.5 q-20.5 9.5 -46.5 9.5 q-40 0 -73 -27 q-33 -27 -58 -71.5 q-25 -44.5 -42.5 -98.5 q-17.5 -54 -26.5 -109.5 q-9 -55.5 -9 -102.5 q0 -77 29.5 -121.5 q29.5 -44.5 90.5 -44.5 q37 0 63 19.5 q26 19.5 37 33.5 l43 201 l90 0 l-41 -205 q10 -13 34.5 -31 q24.5 -18 61.5 -18 q43 0 78.5 28 q35.5 28 63 75 q27.5 47 46.5 103.5 q19 56.5 29 115 q10 58.5 10 109.5 q0 72 -24.5 108 q-24.5 36 -67.5 36 q-25 0 -47 -10.5 q-22 -10.5 -45 -25.5 l-34 72 q64 43 139 43 q83 0 127 -58 q44 -58 44 -164 q0 -69 -14 -141 q-14 -72 -41 -138.5 q-27 -66.5 -66 -118.5 q-39 -52 -90 -82.5 q-51 -30.5 -113 -30.5 q-58 0 -93 20.5 q-35 20.5 -53 42.5 q-20 -21 -58 -42 q-38 -21 -95 -21 Z" /><glyph glyph-name="uni047D" unicode="&#x47d;" d="M330 761 q12 61 47.5 89.5 q35.5 28.5 87.5 28.5 q41 0 75 -14 q34 -14 69 -28 q35 -14 77 -14 l12 0 l-14 -62 l-8 0 q-39 0 -68 8.5 q-29 8.5 -53 19.5 q-24 11 -47 19.5 q-23 8.5 -50 8.5 q-48 0 -61 -56 l-67 0 ZM426 605 l8 37 q57 20 57 45 q0 8 -5.5 12.5 q-5.5 4.5 -13.5 7.5 q-10 5 -20 11 q-10 6 -10 21 q0 17 12.5 27 q12.5 10 34.5 10 q29 0 45.5 -17 q16.5 -17 16.5 -45 q0 -37 -31 -65 q-31 -28 -94 -44 ZM213 -10 q-83 0 -124 54 q-41 54 -41 154 q0 68 18.5 130 q18.5 62 52 111 q33.5 49 79 77.5 q45.5 28.5 100.5 28.5 q32 0 58 -8.5 q26 -8.5 43 -22.5 l-43 -67 q-28 22 -62 22 q-38 0 -67 -25 q-29 -25 -49 -65 q-20 -40 -30.5 -87 q-10.5 -47 -10.5 -92 q0 -62 21.5 -97.5 q21.5 -35.5 65.5 -35.5 q32 0 52 12 q20 12 29 23 l34 165 l87 0 l-34 -167 q10 -13 31 -22.5 q21 -9.5 45 -9.5 q50 0 87.5 40.5 q37.5 40.5 57.5 106 q20 65.5 20 140.5 q0 48 -14.5 81 q-14.5 33 -49.5 33 q-13 0 -30 -4.5 q-17 -4.5 -36 -17.5 l-30 69 q26 16 53.5 22.5 q27.5 6.5 59.5 6.5 q68 0 103 -51.5 q35 -51.5 35 -133.5 q0 -68 -15.5 -133.5 q-15.5 -65.5 -47.5 -119 q-32 -53.5 -82 -85.5 q-50 -32 -118 -32 q-41 0 -72.5 14 q-31.5 14 -46.5 30 q-22 -16 -53.5 -30 q-31.5 -14 -75.5 -14 Z" /><glyph glyph-name="uni0480" unicode="&#x480;" d="M240 -240 l50 231 q-105 6 -162.5 78 q-57.5 72 -57.5 193 q0 65 15 130.5 q15 65.5 44.5 125 q29.5 59.5 74 106 q44.5 46.5 104 73.5 q59.5 27 133.5 27 q97 0 168 -40 l-37 -74 q-26 14 -58.5 24.5 q-32.5 10.5 -73.5 10.5 q-70 0 -121.5 -33.5 q-51.5 -33.5 -86 -89 q-34.5 -55.5 -51.5 -123 q-17 -67.5 -17 -135.5 q0 -91 42.5 -142.5 q42.5 -51.5 118.5 -51.5 q19 0 37 3 q18 3 38 11 l-70 -324 l-90 0 Z" /><glyph glyph-name="uni0481" unicode="&#x481;" d="M177 -240 l49 230 q-81 1 -130 50.5 q-49 49.5 -49 145.5 q0 63 16.5 126.5 q16.5 63.5 50 116.5 q33.5 53 84.5 85 q51 32 119 32 q35 0 68 -7 q33 -7 60 -19 l-25 -73 q-20 9 -45.5 17 q-25.5 8 -56.5 8 q-54 0 -94.5 -38.5 q-40.5 -38.5 -63.5 -103 q-23 -64.5 -23 -142.5 q0 -62 28 -91.5 q28 -29.5 80 -29.5 q25 0 48 6.5 q23 6.5 42 16.5 l-70 -330 l-88 0 Z" /><glyph glyph-name="uni0482" unicode="&#x482;" d="M160 -3 l-59 36 l85 154 l-130 80 l33 60 l132 -80 l94 169 l-131 80 l34 61 l131 -80 l86 153 l59 -36 l-87 -154 l133 -80 l-35 -60 l-130 80 l-95 -169 l131 -81 l-34 -60 l-131 80 l-86 -153 Z" /><glyph glyph-name="uni0488" unicode="&#x488;" d="M374 601 q2 43 26 69 q24 26 72 26 q45 0 70 -26.5 q25 -26.5 27 -68.5 l-37 0 q-2 28 -20 35.5 q-18 7.5 -41 7.5 q-29 0 -44 -7 q-15 -7 -18 -36 l-35 0 ZM641 462 q2 44 26 69.5 q24 25.5 72 25.5 q46 0 71 -26.5 q25 -26.5 27 -68.5 l-37 0 q-3 28 -20.5 35.5 q-17.5 7.5 -41.5 7.5 q-28 0 -43.5 -7 q-15.5 -7 -18.5 -36 l-35 0 ZM106 462 q3 44 26.5 69.5 q23.5 25.5 71.5 25.5 q46 0 71 -26.5 q25 -26.5 27 -68.5 l-37 0 q-3 28 -20.5 35.5 q-17.5 7.5 -40.5 7.5 q-28 0 -43.5 -7 q-15.5 -7 -19.5 -36 l-35 0 ZM21 224 q2 44 26 69.5 q24 25.5 72 25.5 q46 0 70.5 -26.5 q24.5 -26.5 27.5 -68.5 l-37 0 q-3 28 -20.5 35.5 q-17.5 7.5 -41.5 7.5 q-28 0 -43.5 -7 q-15.5 -7 -18.5 -36 l-35 0 ZM727 224 q2 44 26 69.5 q24 25.5 72 25.5 q46 0 70.5 -26.5 q24.5 -26.5 27.5 -68.5 l-37 0 q-3 28 -20.5 35.5 q-17.5 7.5 -41.5 7.5 q-28 0 -43.5 -7 q-15.5 -7 -18.5 -36 l-35 0 ZM101 -20 q3 44 26.5 69.5 q23.5 25.5 71.5 25.5 q46 0 71 -26.5 q25 -26.5 27 -68.5 l-37 0 q-3 28 -20.5 35.5 q-17.5 7.5 -41.5 7.5 q-28 0 -43.5 -7 q-15.5 -7 -18.5 -36 l-35 0 ZM636 -20 q2 44 26 69.5 q24 25.5 72 25.5 q46 0 70.5 -26.5 q24.5 -26.5 27.5 -68.5 l-37 0 q-3 28 -20.5 35.5 q-17.5 7.5 -41.5 7.5 q-29 0 -44 -7 q-15 -7 -18 -36 l-35 0 ZM366 -156 q2 44 26 69.5 q24 25.5 72 25.5 q45 0 70 -26.5 q25 -26.5 27 -68.5 l-37 0 q-2 28 -20 35.5 q-18 7.5 -41 7.5 q-29 0 -44 -7 q-15 -7 -18 -36 l-35 0 Z" /><glyph glyph-name="uni0489" unicode="&#x489;" d="M414 557 l-4 7 q10 38 26 82 q16 44 33 82 l44 0 q-10 -41 -19.5 -88 q-9.5 -47 -14.5 -83 l-65 0 ZM233 428 l-8 1 q-18 34 -36.5 76.5 q-18.5 42.5 -32.5 81.5 l32 34 q21 -36 46 -76 q25 -40 45 -69 l-46 -48 ZM665 449 l-45 48 l1 8 q32 19 72.5 39 q40.5 20 78.5 35 l32 -33 q-34 -22 -72.5 -48.5 q-38.5 -26.5 -66.5 -48.5 ZM177 216 q-35 10 -77 26.5 q-42 16.5 -78 33.5 l0 47 q40 -10 84 -19.5 q44 -9.5 79 -14.5 l-1 -68 l-7 -5 ZM892 216 q-40 10 -84 19.5 q-44 9.5 -79 14.5 l1 68 l7 5 q35 -10 77 -26.5 q42 -16.5 78 -33.5 l0 -47 ZM725 -103 q-21 36 -46 76 q-25 40 -45 69 l46 48 l8 -1 q18 -34 36 -76.5 q18 -42.5 32 -81.5 l-31 -34 ZM142 -60 l-32 33 q34 23 72 49 q38 26 67 48 l45 -48 l-1 -8 q-32 -20 -72.5 -39.5 q-40.5 -19.5 -78.5 -34.5 ZM402 -188 q10 41 19.5 88 q9.5 47 14.5 83 l65 0 l4 -7 q-10 -38 -26 -82 q-16 -44 -33 -82 l-44 0 Z" /><glyph glyph-name="uni048A" unicode="&#x48a;" d="M436 772 q-82 0 -117 33 q-35 33 -35 86 q0 21 4 35 l77 0 q-3 -18 -3 -29 q0 -28 18 -45 q18 -17 62 -17 q44 0 73 18.5 q29 18.5 40 72.5 l83 0 q-14 -70 -61 -112 q-47 -42 -141 -42 ZM433 -188 l118 188 l-80 0 l84 397 q7 34 15.5 71.5 q8.5 37.5 16 71 q7.5 33.5 13.5 55.5 l-2 0 l-454 -595 l-104 0 l151 714 l85 0 l-84 -393 q-6 -30 -15 -68 q-9 -38 -17 -72.5 q-8 -34.5 -12 -51.5 l2 0 l452 585 l104 0 l-134 -634 l90 0 l-125 -268 l-104 0 Z" /><glyph glyph-name="uni048B" unicode="&#x48b;" d="M343 606 q-83 0 -117.5 33 q-34.5 33 -34.5 86 q0 21 4 35 l77 0 q-3 -18 -3 -29 q0 -28 18.5 -45 q18.5 -17 61.5 -17 q44 0 73.5 18.5 q29.5 18.5 39.5 72.5 l83 0 q-14 -70 -61 -112 q-47 -42 -141 -42 ZM335 -186 l98 186 l-69 0 l11 98 l-6 0 q-19 -25 -44 -50 q-25 -25 -59 -41.5 q-34 -16.5 -77 -16.5 q-59 0 -96.5 33 q-37.5 33 -37.5 100 q0 20 3.5 41.5 q3.5 21.5 7.5 44.5 l70 327 l89 0 l-72 -337 q-9 -43 -9 -67 q0 -69 70 -69 q34 0 73 24 q39 24 73.5 77 q34.5 53 53.5 141 l49 231 l87 0 l-98 -462 l84 0 l-113 -260 l-88 0 Z" /><glyph glyph-name="uni048C" unicode="&#x48c;" d="M38 0 l115 548 l-71 0 l17 78 l71 0 l19 88 l89 0 l-19 -88 l136 0 l-18 -78 l-135 0 l-28 -136 l61 0 q109 0 156 -47.5 q47 -47.5 47 -126.5 q0 -116 -76.5 -177 q-76.5 -61 -219.5 -61 l-144 0 ZM144 77 l52 0 q87 0 139 37.5 q52 37.5 52 118.5 q0 53 -30.5 76.5 q-30.5 23.5 -93.5 23.5 l-65 0 l-54 -256 Z" /><glyph glyph-name="uni048D" unicode="&#x48d;" d="M229 -10 q-170 0 -170 155 q0 21 3.5 46 q3.5 25 8.5 47 l72 336 l-70 0 l14 67 l70 0 l25 119 l88 0 l-26 -119 l125 0 l-14 -67 l-125 0 l-57 -271 q23 5 53 8.5 q30 3.5 58 3.5 q82 0 120 -37.5 q38 -37.5 38 -104.5 q0 -52 -24.5 -93.5 q-24.5 -41.5 -72 -65.5 q-47.5 -24 -116.5 -24 ZM238 62 q56 0 87 29 q31 29 31 75 q0 40 -23 58.5 q-23 18.5 -72 18.5 q-24 0 -52 -2.5 q-28 -2.5 -52 -7.5 q-6 -29 -8.5 -48 q-2.5 -19 -2.5 -33 q0 -90 92 -90 Z" /><glyph glyph-name="uni048E" unicode="&#x48e;" d="M39 0 l151 714 l156 0 q110 0 156.5 -50.5 q46.5 -50.5 46.5 -132.5 q0 -77 -30.5 -131 q-30.5 -54 -89.5 -85 l32 -75 l-63 -31 l-37 81 q-52 -11 -113 -11 l-62 0 l-58 -279 l-89 0 ZM203 354 l59 0 q18 0 35 1.5 q17 1.5 33 5.5 l-29 70 l62 31 l32 -74 q30 20 46.5 54.5 q16.5 34.5 16.5 84.5 q0 59 -30.5 84.5 q-30.5 25.5 -93.5 25.5 l-72 0 l-59 -283 Z" /><glyph glyph-name="uni048F" unicode="&#x48f;" d="M-24 -240 l164 776 l72 0 l-13 -100 l4 0 q34 44 75.5 76.5 q41.5 32.5 94.5 32.5 q60 0 98 -45.5 q38 -45.5 38 -134.5 q0 -68 -15 -131.5 q-15 -63.5 -44 -115 q-29 -51.5 -69 -84.5 l53 -96 l-59 -34 l-54 97 q-30 -11 -63 -11 q-51 0 -81.5 27.5 q-30.5 27.5 -46.5 64.5 l-5 0 q-1 -16 -5.5 -44.5 q-4.5 -28.5 -8.5 -46.5 l-48 -231 l-87 0 ZM251 63 q16 0 32 5 l-44 79 l60 34 l40 -72 q37 42 58.5 112.5 q21.5 70.5 21.5 144.5 q0 106 -78 106 q-32 0 -64.5 -24.5 q-32.5 -24.5 -59.5 -67 q-27 -42.5 -43.5 -97 q-16.5 -54.5 -16.5 -114.5 q0 -47 23 -76.5 q23 -29.5 71 -29.5 Z" /><glyph glyph-name="uni0492" unicode="&#x492;" d="M38 0 l66 315 l-68 0 l17 77 l67 0 l69 322 l343 0 l-18 -80 l-254 0 l-50 -242 l150 0 l-18 -77 l-150 0 l-65 -315 l-89 0 Z" /><glyph glyph-name="uni0493" unicode="&#x493;" d="M25 0 l50 236 l-69 0 l15 66 l69 0 l50 234 l277 0 l-17 -75 l-189 0 l-34 -159 l125 0 l-15 -66 l-124 0 l-50 -236 l-88 0 Z" /><glyph glyph-name="uni0494" unicode="&#x494;" d="M197 -250 q-38 0 -68.5 6 q-30.5 6 -55.5 17 l1 81 q27 -12 55 -19 q28 -7 60 -7 q55 0 97 25 q42 25 70 67.5 q28 42.5 42 96 q14 53.5 15 111.5 q1 85 -39.5 136.5 q-40.5 51.5 -121.5 51.5 q-16 0 -33 -1 q-17 -1 -27 -3 l-64 -312 l-89 0 l151 714 l346 0 l-16 -79 l-259 0 l-52 -250 q15 4 32 5.5 q17 1.5 34 1.5 q77 0 128.5 -34.5 q51.5 -34.5 77.5 -94 q26 -59.5 25 -135.5 q-1 -115 -40 -200 q-39 -85 -108.5 -131.5 q-69.5 -46.5 -160.5 -46.5 Z" /><glyph glyph-name="uni0495" unicode="&#x495;" d="M156 -245 q-30 0 -53 6.5 q-23 6.5 -43 18.5 l0 82 q20 -13 42 -21.5 q22 -8.5 50 -8.5 q52 0 90 33.5 q38 33.5 58.5 92 q20.5 58.5 21.5 132.5 q1 68 -26.5 106.5 q-27.5 38.5 -79.5 38.5 q-14 0 -28 -2 q-14 -2 -28 -7 l-46 -226 l-88 0 l114 536 l281 0 l-17 -75 l-193 0 l-32 -159 q14 4 28.5 6.5 q14.5 2.5 33.5 2.5 q48 0 87 -24.5 q39 -24.5 61.5 -73 q22.5 -48.5 21.5 -120.5 q0 -66 -15.5 -127 q-15.5 -61 -46.5 -108.5 q-31 -47.5 -79 -75 q-48 -27.5 -114 -27.5 Z" /><glyph glyph-name="uni0496" unicode="&#x496;" d="M604 -188 l39 188 l-42 0 l-158 356 l-75 -356 l-86 0 l75 356 l-298 -356 l-107 0 l316 376 l-159 338 l95 0 l157 -340 l72 340 l86 0 l-72 -340 l292 340 l105 0 l-310 -358 l126 -276 l87 0 l-58 -268 l-85 0 Z" /><glyph glyph-name="uni0497" unicode="&#x497;" d="M624 -185 l38 176 q-70 6 -105.5 59 q-35.5 53 -35.5 142 q0 14 0.5 24 q0.5 10 1.5 21 l-79 0 l-50 -237 l-80 0 l50 237 l-74 0 q-10 -45 -30.5 -89 q-20.5 -44 -51 -80 q-30.5 -36 -72 -57 q-41.5 -21 -94.5 -21 q-14 0 -29.5 2 q-15.5 2 -27.5 6 l14 72 q21 -7 45 -7 q41 0 72.5 25.5 q31.5 25.5 53.5 66.5 q22 41 33 90 q11 49 11 96 q0 56 -20.5 93.5 q-20.5 37.5 -67.5 37.5 q-14 0 -27 -2 q-13 -2 -26 -5 l0 72 q14 3 31.5 6 q17.5 3 35.5 3 q81 0 122 -54 q41 -54 41 -148 q0 -11 -1 -21 q-1 -10 -2 -19 l78 0 l49 232 l81 0 l-49 -232 l74 0 q9 40 28 82.5 q19 42.5 48.5 78.5 q29.5 36 71.5 58.5 q42 22.5 96 22.5 q17 0 33 -2 q16 -2 32 -7 l-17 -71 q-21 6 -48 6 q-41 0 -72.5 -25.5 q-31.5 -25.5 -52.5 -66.5 q-21 -41 -31.5 -89.5 q-10.5 -48.5 -10.5 -95.5 q0 -57 20 -94.5 q20 -37.5 66 -37.5 q20 0 38 3.5 q18 3.5 31 7.5 l-56 -259 l-85 0 Z" /><glyph glyph-name="uni049A" unicode="&#x49a;" d="M394 -187 l40 187 l-36 0 l-195 354 l-74 -354 l-90 0 l151 714 l90 0 l-74 -347 l319 347 l107 0 l-335 -357 l156 -277 l84 0 l-58 -267 l-85 0 Z" /><glyph glyph-name="uni049B" unicode="&#x49b;" d="M326 -186 l39 186 l-40 0 l-155 267 l-56 -267 l-88 0 l113 536 l87 0 l-54 -254 l237 254 l103 0 l-253 -264 l119 -198 l87 0 l-57 -260 l-82 0 Z" /><glyph glyph-name="uni049C" unicode="&#x49c;" d="M39 0 l151 714 l89 0 l-74 -347 l89 97 l28 125 l63 0 l-7 -34 l146 159 l107 0 l-285 -303 l-22 -103 l176 -308 l-102 0 l-101 182 l-9 -41 l-65 0 l28 125 l-49 88 l-74 -354 l-89 0 Z" /><glyph glyph-name="uni049D" unicode="&#x49d;" d="M28 0 l112 535 l88 0 l-54 -254 l56 56 l33 158 l60 0 l-17 -80 l119 120 l102 0 l-246 -241 l-10 -44 l156 -250 l-99 0 l-80 137 l-20 -93 l-60 0 l35 169 l-32 55 l-56 -268 l-87 0 Z" /><glyph glyph-name="uni049E" unicode="&#x49e;" d="M38 0 l116 548 l-69 0 l18 78 l67 0 l19 88 l89 0 l-19 -88 l84 0 l-17 -78 l-83 0 l-39 -181 l319 347 l107 0 l-335 -357 l203 -357 l-102 0 l-195 354 l-74 -354 l-89 0 Z" /><glyph glyph-name="uni049F" unicode="&#x49f;" d="M26 0 l128 604 l-72 0 l16 67 l70 0 l19 89 l87 0 l-19 -89 l123 0 l-14 -67 l-123 0 l-70 -326 l238 258 l109 0 l-253 -265 l164 -271 l-104 0 l-155 267 l-56 -267 l-88 0 Z" /><glyph glyph-name="uni04A0" unicode="&#x4a0;" d="M110 0 l133 635 l-151 0 l18 79 l240 0 l-74 -347 l318 347 l108 0 l-334 -357 l202 -357 l-101 0 l-196 354 l-74 -354 l-89 0 Z" /><glyph glyph-name="uni04A1" unicode="&#x4a1;" d="M104 0 l97 461 l-160 0 l17 75 l247 0 l-54 -254 l236 254 l103 0 l-253 -264 l166 -272 l-99 0 l-157 267 l-56 -267 l-87 0 Z" /><glyph glyph-name="uni04A2" unicode="&#x4a2;" d="M466 -188 l40 188 l-86 0 l70 333 l-292 0 l-70 -333 l-89 0 l151 714 l89 0 l-64 -302 l293 0 l63 302 l88 0 l-133 -634 l83 0 l-57 -268 l-86 0 Z" /><glyph glyph-name="uni04A3" unicode="&#x4a3;" d="M381 -186 l40 186 l-73 0 l50 240 l-233 0 l-51 -240 l-88 0 l114 536 l87 0 l-46 -223 l234 0 l47 223 l88 0 l-97 -462 l73 0 l-57 -260 l-88 0 Z" /><glyph glyph-name="uni04A4" unicode="&#x4a4;" d="M38 0 l151 714 l89 0 l-64 -302 l293 0 l63 302 l240 0 l-16 -79 l-153 0 l-134 -635 l-88 0 l70 333 l-292 0 l-70 -333 l-89 0 Z" /><glyph glyph-name="uni04A5" unicode="&#x4a5;" d="M26 0 l114 536 l87 0 l-46 -223 l234 0 l47 223 l250 0 l-17 -75 l-161 0 l-97 -461 l-89 0 l50 240 l-233 0 l-51 -240 l-88 0 Z" /><glyph glyph-name="uni04A6" unicode="&#x4a6;" d="M566 -250 q-38 0 -68 6 q-30 6 -56 17 l1 81 q27 -12 55 -19 q28 -7 59 -7 q56 0 98 25 q42 25 69.5 67.5 q27.5 42.5 42 96 q14.5 53.5 14.5 111.5 q1 86 -39 137 q-40 51 -120 51 q-17 0 -33.5 -1 q-16.5 -1 -26.5 -3 l-65 -312 l-90 0 l133 635 l-279 0 l-133 -635 l-89 0 l151 714 l458 0 l-70 -329 q15 4 32 5.5 q17 1.5 33 1.5 q77 0 129 -34.5 q52 -34.5 78 -94 q26 -59.5 25 -135.5 q-1 -116 -40.5 -200.5 q-39.5 -84.5 -108.5 -131 q-69 -46.5 -160 -46.5 Z" /><glyph glyph-name="uni04A7" unicode="&#x4a7;" d="M464 -245 q-32 0 -54 6.5 q-22 6.5 -42 18.5 l1 82 q19 -13 41 -21.5 q22 -8.5 50 -8.5 q52 0 90 33.5 q38 33.5 58 92 q20 58.5 21 132.5 q1 68 -26 106.5 q-27 38.5 -79 38.5 q-34 0 -58 -10 l-47 -225 l-88 0 l97 461 l-217 0 l-97 -461 l-88 0 l114 536 l393 0 l-50 -234 q14 4 29.5 6.5 q15.5 2.5 34.5 2.5 q49 0 88 -24.5 q39 -24.5 61.5 -73 q22.5 -48.5 21.5 -120.5 q-1 -66 -16 -127 q-15 -61 -46 -108.5 q-31 -47.5 -78.5 -75 q-47.5 -27.5 -113.5 -27.5 Z" /><glyph glyph-name="uni04A8" unicode="&#x4a8;" d="M532 -41 q-38 0 -70 12.5 q-32 12.5 -54 32.5 q-23 -8 -44.5 -11 q-21.5 -3 -49.5 -3 q-112 0 -178 71 q-66 71 -66 207 q0 99 25.5 182 q25.5 83 72.5 145 q47 62 111.5 96 q64.5 34 142.5 34 q32 0 60 -6.5 q28 -6.5 54 -16.5 l-29 -76 q-19 9 -40 14.5 q-21 5.5 -46 5.5 q-69 0 -127.5 -42.5 q-58.5 -42.5 -94 -126 q-35.5 -83.5 -35.5 -204.5 q0 -99 41.5 -151.5 q41.5 -52.5 113.5 -52.5 q9 0 16 0 q7 0 13 1 q-36 72 -36 170 q0 62 14 122 q14 60 40.5 109 q26.5 49 65.5 78.5 q39 29.5 90 29.5 q61 0 97 -41.5 q36 -41.5 36 -136.5 q0 -65 -17.5 -131 q-17.5 -66 -54 -123 q-36.5 -57 -92.5 -96 q20 -10 49 -10 q18 0 34 3.5 q16 3.5 32 9.5 l-1 -82 q-15 -6 -33 -9.5 q-18 -3.5 -40 -3.5 ZM430 101 q46 33 75.5 84.5 q29.5 51.5 43.5 110.5 q14 59 14 115 q0 94 -49 94 q-28 0 -53.5 -37 q-25.5 -37 -41.5 -98.5 q-16 -61.5 -16 -134.5 q0 -39 6 -72.5 q6 -33.5 21 -61.5 Z" /><glyph glyph-name="uni04A9" unicode="&#x4a9;" d="M430 -29 q-28 0 -55 8.5 q-27 8.5 -50 26.5 q-20 -8 -42.5 -12 q-22.5 -4 -48.5 -4 q-82 0 -134 54.5 q-52 54.5 -52 163.5 q0 60 15.5 119.5 q15.5 59.5 47 109 q31.5 49.5 81 79.5 q49.5 30 118.5 30 q20 0 44 -3.5 q24 -3.5 41 -9.5 l-19 -72 q-12 5 -29 8.5 q-17 3.5 -38 3.5 q-48 0 -80.5 -24.5 q-32.5 -24.5 -53 -64.5 q-20.5 -40 -29.5 -87.5 q-9 -47.5 -9 -93.5 q0 -63 27.5 -102 q27.5 -39 79.5 -39 q10 0 16.5 1 q6.5 1 13.5 2 q-14 22 -22.5 54 q-8.5 32 -8.5 70 q0 59 19 113 q19 54 57.5 88 q38.5 34 96.5 34 q51 0 82.5 -32.5 q31.5 -32.5 31.5 -95.5 q0 -71 -32.5 -138.5 q-32.5 -67.5 -91.5 -107.5 q17 -7 38 -7 q24 0 53 9 l-1 -71 q-10 -4 -28 -7 q-18 -3 -38 -3 ZM352 97 q44 30 68.5 85.5 q24.5 55.5 24.5 111.5 q0 55 -36 55 q-27 0 -44 -25.5 q-17 -25.5 -25.5 -62 q-8.5 -36.5 -8.5 -68.5 q0 -31 6 -56 q6 -25 15 -40 Z" /><glyph glyph-name="uni04AC" unicode="&#x4ac;" d="M189 -188 l40 188 l-86 0 l133 635 l-184 0 l18 79 l458 0 l-16 -79 l-185 0 l-117 -555 l81 0 l-57 -268 l-85 0 Z" /><glyph glyph-name="uni04AD" unicode="&#x4ad;" d="M659 -186 l40 179 q-25 7 -43.5 27 q-18.5 20 -17.5 60 q0 12 2 26 q2 14 5 28 l43 202 q9 45 9 67 q2 69 -62 69 q-31 0 -65 -24 q-34 -24 -63.5 -75 q-29.5 -51 -46.5 -131 l-51 -242 l-88 0 l71 336 q9 45 9 66 q1 33 -13 51.5 q-14 18.5 -47 18.5 q-31 0 -65.5 -23.5 q-34.5 -23.5 -65 -76.5 q-30.5 -53 -48.5 -141 l-48 -231 l-88 0 l114 536 l71 0 l-11 -99 l5 0 q17 25 41 50 q24 25 54 42 q30 17 69 17 q53 0 81 -32 q28 -32 33 -87 l4 0 q19 29 45.5 56.5 q26.5 27.5 59 45 q32.5 17.5 71.5 17.5 q59 0 91 -35 q32 -35 31 -103 q0 -20 -3.5 -39.5 q-3.5 -19.5 -7.5 -41.5 l-40 -192 q-3 -13 -4 -22 q-1 -9 -1 -17 q-1 -16 7 -25.5 q8 -9.5 22 -9.5 q13 0 23.5 2.5 q10.5 2.5 20.5 7.5 l-56 -257 l-87 0 Z" /><glyph glyph-name="uni04AF" unicode="&#x4af;" d="M63 -240 l51 238 l-63 538 l88 0 l27 -263 q2 -22 4 -52 q2 -30 3.5 -61.5 q1.5 -31.5 2.5 -57.5 l4 0 q15 38 38 84.5 q23 46.5 43 83.5 l144 266 l93 0 l-296 -538 l-50 -238 l-89 0 Z" /><glyph glyph-name="uni04B0" unicode="&#x4b0;" d="M142 0 l36 168 l-128 0 l17 80 l129 0 l4 20 l-105 446 l89 0 l75 -358 l223 358 l100 0 l-295 -449 l-5 -17 l135 0 l-17 -80 l-134 0 l-34 -168 l-90 0 Z" /><glyph glyph-name="uni04B1" unicode="&#x4b1;" d="M64 -240 l35 174 l-115 0 l15 66 l114 0 l-62 536 l89 0 l26 -263 q4 -34 7 -83 q3 -49 4 -88 l3 0 q15 38 38.5 84.5 q23.5 46.5 42.5 83.5 l144 266 l94 0 l-296 -536 l120 0 l-14 -66 l-121 0 l-36 -174 l-88 0 Z" /><glyph glyph-name="uni04B2" unicode="&#x4b2;" d="M368 -188 l40 188 l-47 0 l-92 309 l-221 -309 l-98 0 l280 378 l-117 336 l91 0 l87 -273 l202 273 l98 0 l-260 -340 l96 -294 l84 0 l-58 -268 l-85 0 Z" /><glyph glyph-name="uni04B3" unicode="&#x4b3;" d="M322 -186 l41 186 l-36 0 l-82 208 l-157 -208 l-101 0 l223 276 l-107 260 l90 0 l74 -198 l148 198 l102 0 l-214 -264 l81 -198 l79 0 l-57 -260 l-84 0 Z" /><glyph glyph-name="uni04B4" unicode="&#x4b4;" d="M555 -187 l40 187 l-453 0 l134 634 l-184 0 l17 80 l459 0 l-17 -80 l-185 0 l-115 -554 l278 0 l134 634 l89 0 l-133 -635 l79 0 l-57 -266 l-86 0 Z" /><glyph glyph-name="uni04B5" unicode="&#x4b5;" d="M439 -186 l41 179 q-28 8 -42.5 32.5 q-14.5 24.5 -14.5 71.5 l-4 0 q-18 -25 -42 -49.5 q-24 -24.5 -55.5 -41 q-31.5 -16.5 -72.5 -16.5 q-59 0 -93 34 q-34 34 -33 101 q0 21 3.5 41 q3.5 20 7.5 43 l52 252 l-139 0 l16 75 l367 0 l-16 -75 l-139 0 l-56 -262 q-4 -22 -6 -38.5 q-2 -16.5 -2 -26.5 q0 -34 15 -52.5 q15 -18.5 49 -18.5 q33 0 70 24 q37 24 69 77 q32 53 50 141 l49 231 l88 0 l-86 -400 q-3 -14 -4 -23 q-1 -9 -1 -16 q0 -16 8 -26 q8 -10 21 -10 q13 0 23.5 2.5 q10.5 2.5 21.5 7.5 l-56 -257 l-89 0 Z" /><glyph glyph-name="uni04B6" unicode="&#x4b6;" d="M429 -187 l40 187 l-85 0 l61 291 q-35 -14 -80.5 -28.5 q-45.5 -14.5 -97.5 -14.5 q-74 0 -113.5 35 q-39.5 35 -39.5 99 q0 14 2 29.5 q2 15.5 6 38.5 l57 264 l89 0 l-55 -263 q-5 -20 -6.5 -33 q-1.5 -13 -1.5 -22 q0 -34 19 -51.5 q19 -17.5 61 -17.5 q48 0 90 10.5 q42 10.5 88 28.5 l72 348 l89 0 l-133 -634 l82 0 l-59 -267 l-85 0 Z" /><glyph glyph-name="uni04B7" unicode="&#x4b7;" d="M344 -186 l40 186 l-75 0 l32 152 q7 34 16 67 q9 33 16 58 l-4 0 q-29 -40 -70 -66 q-41 -26 -93 -26 q-129 0 -129 135 q0 20 3.5 44 q3.5 24 8.5 49 l26 123 l89 0 l-27 -130 q-6 -27 -8.5 -44.5 q-2.5 -17.5 -2.5 -32.5 q0 -39 18 -54.5 q18 -15.5 49 -15.5 q33 0 67.5 19 q34.5 19 64 66.5 q29.5 47.5 48.5 135.5 l12 56 l88 0 l-98 -462 l73 0 l-56 -260 l-88 0 Z" /><glyph glyph-name="uni04B8" unicode="&#x4b8;" d="M384 0 l61 291 q-23 -10 -50.5 -20 q-27.5 -10 -58.5 -16 l-32 -151 l-64 0 l30 144 q-76 0 -116 35 q-40 35 -40 101 q0 27 7 56 l58 274 l89 0 l-58 -274 q-5 -25 -5 -43 q0 -35 19.5 -52.5 q19.5 -17.5 62.5 -17.5 l36 168 l64 0 l-34 -162 q27 5 54 13.5 q27 8.5 56 19.5 l72 348 l89 0 l-151 -714 l-89 0 Z" /><glyph glyph-name="uni04B9" unicode="&#x4b9;" d="M310 0 l31 151 q8 38 16.5 70 q8.5 32 16.5 59 l-3 0 q-20 -28 -47 -52.5 q-27 -24.5 -57 -35.5 l-27 -128 l-60 0 l25 121 q-60 0 -94.5 33.5 q-34.5 33.5 -34.5 100.5 q0 21 4 41.5 q4 20.5 8 43.5 l28 132 l88 0 l-30 -142 q-9 -44 -9 -65 q0 -32 14 -50.5 q14 -18.5 43 -20.5 l30 139 l60 0 l-29 -132 q41 16 75.5 66.5 q34.5 50.5 54.5 147.5 l12 57 l88 0 l-114 -536 l-89 0 Z" /><glyph glyph-name="uni04BA" unicode="&#x4ba;" d="M39 0 l151 714 l90 0 l-61 -292 q35 14 80 29 q45 15 97 15 q74 0 113.5 -35 q39.5 -35 39.5 -102 q0 -25 -6 -56 l-58 -273 l-90 0 l58 273 q5 25 5 44 q0 34 -19 51.5 q-19 17.5 -61 17.5 q-49 0 -90.5 -10.5 q-41.5 -10.5 -86.5 -28.5 l-72 -347 l-90 0 Z" /><glyph glyph-name="uni04BC" unicode="&#x4bc;" d="M408 -10 q-79 0 -132 34 q-53 34 -80 94.5 q-27 60.5 -27 141.5 q0 16 1.5 32 q1.5 16 3.5 32 q-51 1 -83 24.5 q-32 23.5 -32 73.5 q0 21 6.5 43.5 q6.5 22.5 18.5 38.5 l78 0 q-8 -12 -14.5 -30 q-6.5 -18 -6.5 -35 q0 -17 8 -27.5 q8 -10.5 28 -10.5 l10 0 q25 99 76.5 172 q51.5 73 121 112.5 q69.5 39.5 149.5 39.5 q95 0 145 -44.5 q50 -44.5 50 -120.5 q0 -53 -20.5 -96.5 q-20.5 -43.5 -68 -74.5 q-47.5 -31 -127.5 -48 q-80 -17 -199 -17 l-49 0 q-3 -32 -3 -56 q0 -103 44.5 -151 q44.5 -48 117.5 -48 q58 0 101 13.5 q43 13.5 90 32.5 l-1 -82 q-46 -19 -91.5 -31 q-45.5 -12 -114.5 -12 ZM281 401 l29 0 q126 0 196.5 19.5 q70.5 19.5 99 54.5 q28.5 35 28.5 81 q0 44 -28 66.5 q-28 22.5 -73 22.5 q-83 0 -152 -62 q-69 -62 -100 -182 Z" /><glyph glyph-name="uni04BD" unicode="&#x4bd;" d="M327 -10 q-87 0 -135 54 q-48 54 -48 145 q0 12 0 22.5 q0 10.5 2 21.5 q-50 4 -80 25 q-30 21 -30 71 q0 17 6 38.5 q6 21.5 18 35.5 l75 0 q-8 -12 -14.5 -28.5 q-6.5 -16.5 -6.5 -33.5 q0 -37 44 -37 q17 66 51.5 121 q34.5 55 83.5 88 q49 33 112 33 q68 0 107.5 -30.5 q39.5 -30.5 39.5 -92.5 q0 -49 -30 -93 q-30 -44 -96 -71 q-66 -27 -174 -27 l-16 0 q-3 -20 -3 -39 q0 -61 27 -95.5 q27 -34.5 84 -34.5 q36 0 70 11.5 q34 11.5 71 29.5 l-1 -75 q-38 -19 -76 -29 q-38 -10 -81 -10 ZM247 303 l9 0 q54 0 102 10 q48 10 77.5 34.5 q29.5 24.5 29.5 67.5 q0 27 -18.5 42.5 q-18.5 15.5 -47.5 15.5 q-45 0 -87 -44.5 q-42 -44.5 -65 -125.5 Z" /><glyph glyph-name="uni04BE" unicode="&#x4be;" d="M614 33 q-40 -16 -79.5 -27.5 q-39.5 -11.5 -93.5 -14.5 l-37 -178 l-89 0 l39 182 q-92 17 -138.5 87.5 q-46.5 70.5 -46.5 177.5 q0 16 1.5 32 q1.5 16 3.5 32 q-51 1 -83 24.5 q-32 23.5 -32 73.5 q0 21 6.5 43.5 q6.5 22.5 18.5 38.5 l78 0 q-8 -12 -14.5 -30 q-6.5 -18 -6.5 -35 q0 -17 8 -27.5 q8 -10.5 28 -10.5 l10 0 q25 99 76.5 172 q51.5 73 121 112.5 q69.5 39.5 149.5 39.5 q95 0 145 -44.5 q50 -44.5 50 -120.5 q0 -53 -20.5 -96.5 q-20.5 -43.5 -68 -74.5 q-47.5 -31 -127.5 -48 q-80 -17 -199 -17 l-49 0 q-3 -32 -3 -56 q0 -103 44.5 -151 q44.5 -48 117.5 -48 q58 0 101 13.5 q43 13.5 90 32.5 l-1 -82 ZM281 401 l29 0 q126 0 196.5 19.5 q70.5 19.5 99 54.5 q28.5 35 28.5 81 q0 44 -28 66.5 q-28 22.5 -73 22.5 q-83 0 -152 -62 q-69 -62 -100 -182 Z" /><glyph glyph-name="uni04BF" unicode="&#x4bf;" d="M484 29 q-32 -16 -64 -25.5 q-32 -9.5 -67 -12.5 l-36 -177 l-88 0 l38 184 q-59 17 -91 67 q-32 50 -32 124 q0 12 0 22.5 q0 10.5 2 21.5 q-50 4 -80 25 q-30 21 -30 71 q0 17 6 38.5 q6 21.5 18 35.5 l75 0 q-8 -12 -14.5 -28.5 q-6.5 -16.5 -6.5 -33.5 q0 -37 44 -37 q17 66 51.5 121 q34.5 55 83.5 88 q49 33 112 33 q68 0 107.5 -30.5 q39.5 -30.5 39.5 -92.5 q0 -49 -30 -93 q-30 -44 -96 -71 q-66 -27 -174 -27 l-16 0 q-3 -20 -3 -39 q0 -61 27 -95.5 q27 -34.5 84 -34.5 q36 0 70 11.5 q34 11.5 71 29.5 l-1 -75 ZM247 303 l9 0 q54 0 102 10 q48 10 77.5 34.5 q29.5 24.5 29.5 67.5 q0 27 -18.5 42.5 q-18.5 15.5 -47.5 15.5 q-45 0 -87 -44.5 q-42 -44.5 -65 -125.5 Z" /><glyph glyph-name="uni04C3" unicode="&#x4c3;" d="M221 -250 q-37 0 -67.5 6 q-30.5 6 -55.5 17 l1 81 q27 -12 54.5 -19 q27.5 -7 58.5 -7 q56 0 98 24 q42 24 70 65.5 q28 41.5 42.5 94.5 q14.5 53 14.5 110 q1 85 -38.5 134 q-39.5 49 -123.5 49 q-17 0 -40 -3 q-23 -3 -47 -12 l-60 -290 l-89 0 l151 714 l89 0 l-74 -347 l319 347 l107 0 l-314 -332 q108 -9 161.5 -79.5 q53.5 -70.5 52.5 -179.5 q-1 -113 -39.5 -197 q-38.5 -84 -107.5 -130 q-69 -46 -163 -46 Z" /><glyph glyph-name="uni04C4" unicode="&#x4c4;" d="M183 -245 q-31 0 -56 6.5 q-25 6.5 -46 18.5 l1 82 q20 -13 42 -21.5 q22 -8.5 50 -8.5 q81 0 127 70.5 q46 70.5 46 186.5 q0 71 -32.5 108 q-32.5 37 -84.5 37 q-22 0 -38 -3 q-16 -3 -33 -9 l-45 -222 l-88 0 l113 536 l87 0 l-54 -254 l237 254 l103 0 l-228 -239 q40 -7 75 -29.5 q35 -22.5 56.5 -66 q21.5 -43.5 21.5 -111.5 q0 -66 -15.5 -126 q-15.5 -60 -46.5 -107.5 q-31 -47.5 -79 -74.5 q-48 -27 -113 -27 Z" /><glyph glyph-name="uni04C5" unicode="&#x4c5;" d="M361 -187 l115 187 l-85 0 l134 634 l-169 0 q-13 -49 -28.5 -107.5 q-15.5 -58.5 -32 -119 q-16.5 -60.5 -33 -116 q-16.5 -55.5 -31.5 -98.5 q-23 -63 -48 -109 q-25 -46 -62 -70.5 q-37 -24.5 -92 -24.5 q-19 0 -34 3.5 q-15 3.5 -25 7.5 l1 78 q9 -4 21.5 -7 q12.5 -3 25.5 -3 q28 0 49.5 12.5 q21.5 12.5 41 45 q19.5 32.5 39.5 92.5 q16 46 34 106 q18 60 37 127.5 q19 67.5 37 135 q18 67.5 35 127.5 l341 0 l-134 -635 l89 0 l-122 -266 l-104 0 Z" /><glyph glyph-name="uni04C6" unicode="&#x4c6;" d="M285 -186 l96 186 l-84 0 l100 463 q-6 1 -15.5 2.5 q-9.5 1.5 -19.5 1.5 q-40 0 -63.5 -19.5 q-23.5 -19.5 -44 -66.5 q-20.5 -47 -48.5 -132 q-28 -83 -54 -140 q-26 -57 -61 -86.5 q-35 -29.5 -91 -29.5 q-13 0 -23.5 2.5 q-10.5 2.5 -17.5 4.5 l1 76 q14 -6 32 -6 q30 0 51.5 21 q21.5 21 41.5 67 q20 46 45 121 q22 67 42.5 116 q20.5 49 46.5 81.5 q26 32.5 63.5 48.5 q37.5 16 94.5 16 q33 0 64 -4.5 q31 -4.5 57 -12.5 l-96 -450 l83 0 l-113 -260 l-87 0 Z" /><glyph glyph-name="uni04C7" unicode="&#x4c7;" d="M218 -250 q-39 0 -69.5 7 q-30.5 7 -55.5 17 l1 85 q25 -11 55.5 -18.5 q30.5 -7.5 65.5 -7.5 q96 0 144.5 55.5 q48.5 55.5 74.5 177.5 l56 267 l-292 0 l-70 -333 l-89 0 l151 714 l89 0 l-64 -302 l293 0 l63 302 l88 0 l-139 -663 q-34 -160 -108.5 -230.5 q-74.5 -70.5 -193.5 -70.5 Z" /><glyph glyph-name="uni04C8" unicode="&#x4c8;" d="M210 -245 q-32 0 -57 6.5 q-25 6.5 -47 17.5 l1 84 q20 -14 46.5 -22.5 q26.5 -8.5 54.5 -8.5 q59 0 92 46 q33 46 54 150 l44 212 l-233 0 l-51 -240 l-88 0 l114 536 l87 0 l-46 -223 l234 0 l47 223 l88 0 l-111 -521 q-29 -139 -82.5 -199.5 q-53.5 -60.5 -146.5 -60.5 Z" /><glyph glyph-name="uni04C9" unicode="&#x4c9;" d="M391 -188 l115 188 l-86 0 l70 333 l-292 0 l-70 -333 l-89 0 l151 714 l89 0 l-64 -302 l293 0 l63 302 l88 0 l-133 -634 l91 0 l-122 -268 l-104 0 Z" /><glyph glyph-name="uni04CA" unicode="&#x4ca;" d="M336 -186 l95 186 l-83 0 l50 240 l-233 0 l-51 -240 l-88 0 l114 536 l87 0 l-46 -223 l234 0 l47 223 l88 0 l-97 -462 l82 0 l-111 -260 l-88 0 Z" /><glyph glyph-name="uni04CB" unicode="&#x4cb;" d="M263 -187 l57 267 l81 0 l44 211 q-35 -14 -80.5 -28.5 q-45.5 -14.5 -97.5 -14.5 q-74 0 -113.5 35 q-39.5 35 -39.5 101 q0 27 7 56 l58 274 l89 0 l-58 -274 q-5 -25 -5 -43 q0 -35 19 -52.5 q19 -17.5 61 -17.5 q48 0 89.5 10.5 q41.5 10.5 87.5 28.5 l73 348 l89 0 l-151 -714 l-84 0 l-42 -187 l-84 0 Z" /><glyph glyph-name="uni04CC" unicode="&#x4cc;" d="M215 -186 l56 260 l73 0 l15 77 q7 34 14 60.5 q7 26.5 18 61.5 l-4 0 q-29 -38 -70 -63 q-41 -25 -94 -25 q-60 0 -94.5 34.5 q-34.5 34.5 -34.5 102.5 q0 20 3.5 39.5 q3.5 19.5 8.5 42.5 l28 132 l88 0 l-30 -141 q-9 -43 -9 -65 q0 -34 15.5 -52.5 q15.5 -18.5 49.5 -18.5 q34 0 69.5 19.5 q35.5 19.5 66 68 q30.5 48.5 48.5 136.5 l11 53 l87 0 l-113 -536 l-75 0 l-40 -186 l-87 0 Z" /><glyph glyph-name="uni04CD" unicode="&#x4cd;" d="M546 -187 l115 187 l-84 0 l89 424 q14 65 27 119 q13 54 21 84 l-2 0 l-329 -627 l-72 0 l-62 626 l-4 0 q-2 -20 -7 -53.5 q-5 -33.5 -12 -72 q-7 -38.5 -14 -71.5 l-90 -429 l-83 0 l151 714 l125 0 l57 -583 l3 0 l304 583 l135 0 l-131 -635 l90 0 l-122 -266 l-105 0 Z" /><glyph glyph-name="uni04CE" unicode="&#x4ce;" d="M434 -185 l96 185 l-72 0 l66 307 q8 37 17.5 75.5 q9.5 38.5 17.5 70.5 l-2 0 l-241 -453 l-71 0 l-50 452 l-3 0 q-4 -28 -11 -69 q-7 -41 -15 -78 l-61 -305 l-78 0 l113 535 l115 0 l46 -425 l2 0 l225 425 l123 0 l-97 -461 l80 0 l-111 -259 l-89 0 Z" /><glyph glyph-name="uni04D8" unicode="&#x4d8;" d="M235 -10 q-69 0 -112 22.5 q-43 22.5 -63.5 60 q-20.5 37.5 -20.5 84.5 q0 75 40.5 127 q40.5 52 132 79 q91.5 27 244.5 27 l48 0 q2 18 3 28 q1 10 1 26 q0 58 -17 103.5 q-17 45.5 -51.5 72 q-34.5 26.5 -88.5 26.5 q-57 0 -105.5 -13 q-48.5 -13 -91.5 -33 l1 82 q41 18 89 30.5 q48 12.5 116 12.5 q82 0 135 -35 q53 -35 79 -97 q26 -62 26 -143 q0 -94 -27.5 -177.5 q-27.5 -83.5 -77 -147 q-49.5 -63.5 -116 -99.5 q-66.5 -36 -144.5 -36 ZM236 70 q87 0 153.5 63 q66.5 63 99.5 180 l-53 0 q-117 0 -182.5 -19.5 q-65.5 -19.5 -92.5 -54.5 q-27 -35 -27 -79 q0 -38 24.5 -64 q24.5 -26 77.5 -26 Z" /><glyph glyph-name="uni04D9" unicode="&#x4d9;" d="M171 -10 q-72 0 -109 32.5 q-37 32.5 -37 90.5 q0 53 31 96.5 q31 43.5 97.5 69 q66.5 25.5 170.5 25.5 l17 0 q1 10 1.5 20 q0.5 10 0.5 19 q0 61 -27.5 95.5 q-27.5 34.5 -83.5 34.5 q-36 0 -69 -10.5 q-33 -10.5 -72 -30.5 l1 75 q37 17 72 28 q35 11 84 11 q88 0 136 -54 q48 -54 48 -145 q0 -64 -18 -127 q-18 -63 -52 -115 q-34 -52 -82 -83.5 q-48 -31.5 -109 -31.5 ZM177 63 q45 0 87.5 44.5 q42.5 44.5 63.5 125.5 l-8 0 q-57 0 -104.5 -10.5 q-47.5 -10.5 -76 -35.5 q-28.5 -25 -28.5 -66 q0 -25 16 -41.5 q16 -16.5 50 -16.5 Z" /><glyph glyph-name="uni04E0" unicode="&#x4e0;" d="M169 -10 q-41 0 -85 10 q-44 10 -78 30 l1 84 q36 -22 79.5 -36 q43.5 -14 87.5 -14 q66 0 105.5 23 q39.5 23 57.5 60 q18 37 18 77 q0 57 -34.5 83 q-34.5 26 -95.5 26 l-74 0 l15 70 l231 231 l-262 0 l18 80 l374 0 l-15 -71 l-246 -242 q80 -2 131 -44.5 q51 -42.5 51 -129.5 q0 -66 -31 -119.5 q-31 -53.5 -93 -85.5 q-62 -32 -155 -32 Z" /><glyph glyph-name="uni04E1" unicode="&#x4e1;" d="M91 -240 q-52 0 -88.5 9 q-36.5 9 -65.5 25 l1 81 q26 -16 65 -29.5 q39 -13.5 89 -13.5 q60 0 100 25.5 q40 25.5 60 69 q20 43.5 20 96.5 q0 71 -40 103.5 q-40 32.5 -111 32.5 l-37 0 l14 60 l222 243 l-247 0 l17 74 l349 0 l-14 -64 l-232 -250 q71 -6 119 -54.5 q48 -48.5 48 -139.5 q0 -78 -32 -138.5 q-32 -60.5 -92 -95 q-60 -34.5 -145 -34.5 Z" /><glyph glyph-name="uni04F6" unicode="&#x4f6;" d="M83 -188 l41 188 l-85 0 l151 714 l346 0 l-16 -79 l-259 0 l-116 -555 l82 0 l-58 -268 l-86 0 Z" /><glyph glyph-name="uni04F7" unicode="&#x4f7;" d="M59 -186 l39 186 l-72 0 l114 536 l277 0 l-16 -75 l-190 0 l-80 -387 l72 0 l-56 -260 l-88 0 Z" /><glyph glyph-name="uni04FB" unicode="&#x4fb;" d="M52 -196 q-16 0 -30.5 3 q-14.5 3 -22.5 8 l1 73 q22 -9 47 -9 q40 0 53 57 l13 64 l-87 0 l50 236 l-69 0 l15 66 l69 0 l49 234 l277 0 l-16 -75 l-190 0 l-34 -159 l126 0 l-15 -66 l-124 0 l-34 -163 l77 0 l-32 -146 q-14 -67 -43.5 -95 q-29.5 -28 -79.5 -28 Z" /><glyph glyph-name="uni04FC" unicode="&#x4fc;" d="M348 -196 q-16 0 -30.5 3 q-14.5 3 -22.5 8 l1 73 q11 -4 22 -6.5 q11 -2.5 25 -2.5 q39 0 52 57 l13 64 l-47 0 l-92 309 l-221 -309 l-98 0 l280 378 l-117 336 l91 0 l87 -273 l202 273 l98 0 l-260 -340 l96 -295 l76 0 l-32 -152 q-15 -67 -44.5 -95 q-29.5 -28 -78.5 -28 Z" /><glyph glyph-name="uni04FD" unicode="&#x4fd;" d="M284 -196 q-16 0 -30.5 3 q-14.5 3 -22.5 8 l1 73 q11 -4 21.5 -6.5 q10.5 -2.5 24.5 -2.5 q42 0 53 57 l14 64 l-41 0 l-82 208 l-156 -208 l-102 0 l223 276 l-107 260 l90 0 l75 -198 l148 198 l102 0 l-215 -264 l82 -199 l77 0 l-32 -146 q-14 -67 -44 -95 q-30 -28 -79 -28 Z" /><glyph glyph-name="uni04FE" unicode="&#x4fe;" d="M-50 0 l247 338 l-124 0 l17 80 l125 0 l-102 296 l91 0 l87 -273 l202 273 l98 0 l-225 -296 l123 0 l-18 -80 l-128 0 l112 -338 l-94 0 l-92 309 l-221 -309 l-98 0 Z" /><glyph glyph-name="uni04FF" unicode="&#x4ff;" d="M-36 0 l196 244 l-116 0 l15 65 l114 0 l-93 227 l90 0 l75 -198 l148 198 l102 0 l-183 -227 l116 0 l-15 -65 l-120 0 l101 -244 l-90 0 l-82 208 l-156 -208 l-102 0 Z" /><glyph glyph-name="uni0500" unicode="&#x500;" d="M251 0 q-109 0 -158 50 q-49 50 -49 137 q0 65 32 116 q32 51 94 80 q62 29 152 29 l77 0 l64 302 l89 0 l-151 -714 l-150 0 ZM262 77 l66 0 l54 259 l-74 0 q-85 0 -128.5 -40 q-43.5 -40 -43.5 -105 q0 -61 33 -87.5 q33 -26.5 93 -26.5 Z" /><glyph glyph-name="uni0502" unicode="&#x502;" d="M507 -10 q-53 0 -85 22 q-32 22 -47 59 q-31 -40 -71 -60 q-40 -20 -93 -20 q-74 0 -119.5 43 q-45.5 43 -45.5 129 q0 80 37.5 135.5 q37.5 55.5 104.5 84.5 q67 29 154 29 l61 0 l64 302 l89 0 l-113 -535 q-4 -19 -4 -35 q0 -36 18.5 -55.5 q18.5 -19.5 52.5 -19.5 q79 0 102 106 l50 239 l90 0 l-49 -238 q-18 -87 -64.5 -136.5 q-46.5 -49.5 -131.5 -49.5 ZM229 69 q56 0 86 33.5 q30 33.5 38 73.5 l33 157 l-50 0 q-88 0 -142.5 -39.5 q-54.5 -39.5 -54.5 -130.5 q0 -43 23.5 -68.5 q23.5 -25.5 66.5 -25.5 Z" /><glyph glyph-name="uni0503" unicode="&#x503;" d="M186 -10 q-64 0 -101.5 46 q-37.5 46 -37.5 134 q0 73 17 140 q17 67 49.5 120 q32.5 53 78.5 84 q46 31 105 31 q52 0 83 -27.5 q31 -27.5 47 -64.5 l4 0 q5 32 10 63 q5 31 12 71 l37 173 l87 0 l-118 -556 q-3 -15 -5 -29.5 q-2 -14.5 -2 -27.5 q0 -40 18 -62.5 q18 -22.5 55 -22.5 q49 0 74 32 q25 32 38 96 l32 152 l85 0 l-32 -156 q-21 -103 -68 -149.5 q-47 -46.5 -131 -46.5 q-61 0 -98 30.5 q-37 30.5 -47 82.5 l-5 0 q-35 -47 -80.5 -80 q-45.5 -33 -106.5 -33 ZM215 63 q31 0 63.5 24.5 q32.5 24.5 59.5 66.5 q27 42 43.5 96.5 q16.5 54.5 16.5 115.5 q0 47 -22 76.5 q-22 29.5 -70 29.5 q-38 0 -69 -26 q-31 -26 -53.5 -69.5 q-22.5 -43.5 -34.5 -97.5 q-12 -54 -12 -110 q0 -106 78 -106 Z" /><glyph glyph-name="uni0504" unicode="&#x504;" d="M507 -10 q-75 0 -119 35.5 q-44 35.5 -44 117.5 q0 19 3 40.5 q3 21.5 3 48.5 q0 48 -28 74 q-28 26 -103 26 l-95 0 l15 73 l91 0 q46 0 88 14.5 q42 14.5 69 46.5 q27 32 27 87 q0 49 -27 73 q-27 24 -74 24 q-41 0 -82 -16 q-41 -16 -77 -41 l-36 64 q48 33 99 50 q51 17 115 17 q82 0 129 -43.5 q47 -43.5 46 -115.5 q-1 -75 -48 -126.5 q-47 -51.5 -126 -69.5 l0 -3 q61 -14 85.5 -44.5 q24.5 -30.5 24.5 -84.5 q0 -19 -2 -38.5 q-2 -19.5 -2 -41.5 q0 -46 17.5 -67 q17.5 -21 55.5 -21 q47 0 71.5 28.5 q24.5 28.5 37.5 92.5 l46 224 l90 0 l-49 -238 q-22 -103 -70.5 -144.5 q-48.5 -41.5 -130.5 -41.5 Z" /><glyph glyph-name="uni0505" unicode="&#x505;" d="M426 -10 q-153 0 -153 132 q0 14 0.5 24.5 q0.5 10.5 0.5 20.5 q0 43 -22 58.5 q-22 15.5 -66 15.5 l-74 0 l16 74 l52 0 q34 0 63.5 8 q29.5 8 47.5 27.5 q18 19.5 18 55.5 q0 28 -18 47 q-18 19 -60 19 q-33 0 -65 -9.5 q-32 -9.5 -66 -24.5 l-26 67 q42 20 82.5 30.5 q40.5 10.5 82.5 10.5 q72 0 115 -32 q43 -32 43 -93 q0 -53 -31 -89.5 q-31 -36.5 -90 -50.5 l0 -4 q83 -14 83 -101 q0 -9 -0.5 -20.5 q-0.5 -11.5 -0.5 -22.5 q0 -33 17.5 -52 q17.5 -19 54.5 -19 q48 0 73 32 q25 32 38 95 l31 153 l88 0 l-32 -156 q-21 -103 -68.5 -149.5 q-47.5 -46.5 -133.5 -46.5 Z" /><glyph glyph-name="uni0506" unicode="&#x506;" d="M360 -188 l41 188 l-86 0 l37 174 q4 19 6 33.5 q2 14.5 2 25.5 q0 47 -29.5 73 q-29.5 26 -94.5 26 l-112 0 l16 73 l94 0 q47 0 88 16.5 q41 16.5 66.5 50 q25.5 33.5 26.5 84.5 q1 46 -25 70 q-26 24 -70 24 q-48 0 -89.5 -15.5 q-41.5 -15.5 -81.5 -42.5 l-36 64 q47 32 100 50 q53 18 118 18 q86 0 131.5 -44.5 q45.5 -44.5 44.5 -114.5 q-1 -80 -50 -128.5 q-49 -48.5 -128 -66.5 l0 -2 q59 -8 89.5 -43 q30.5 -35 30.5 -88 q0 -15 -3 -33 q-3 -18 -6 -34 l-18 -90 l82 0 l-58 -268 l-86 0 Z" /><glyph glyph-name="uni0507" unicode="&#x507;" d="M278 -185 l40 185 l-73 0 l25 116 q3 14 5 29 q2 15 2 28 q0 37 -21.5 52.5 q-21.5 15.5 -64.5 15.5 l-76 0 l16 74 l51 0 q34 0 63.5 8 q29.5 8 48 27.5 q18.5 19.5 18.5 55.5 q0 28 -18.5 47 q-18.5 19 -60.5 19 q-33 0 -64 -9.5 q-31 -9.5 -66 -24.5 l-26 67 q42 20 82.5 30.5 q40.5 10.5 82.5 10.5 q72 0 115.5 -32 q43.5 -32 43.5 -93 q0 -53 -31 -89.5 q-31 -36.5 -91 -51.5 l0 -2 q40 -7 62.5 -33 q22.5 -26 22.5 -67 q0 -18 -3.5 -36.5 q-3.5 -18.5 -5.5 -30.5 l-8 -37 l74 0 l-56 -259 l-87 0 Z" /><glyph glyph-name="uni0508" unicode="&#x508;" d="M29 -11 q-19 0 -34 3.5 q-15 3.5 -25 7.5 l1 78 q9 -4 21.5 -7 q12.5 -3 25.5 -3 q28 0 49.5 12.5 q21.5 12.5 41 45 q19.5 32.5 39.5 92.5 q16 46 34 106 q18 60 37 127.5 q19 67.5 37 135 q18 67.5 35 127.5 l323 0 l-104 -487 q-8 -36 -10 -54 q-2 -18 -2 -29 q0 -75 75 -75 q47 0 71.5 29 q24.5 29 37.5 92 l47 224 l87 0 l-50 -236 q-22 -103 -70 -145.5 q-48 -42.5 -129 -42.5 q-68 0 -113 35.5 q-45 35.5 -45 110.5 q0 16 2 36 q2 20 11 63 l84 399 l-150 0 q-13 -49 -28.5 -107.5 q-15.5 -58.5 -32 -119 q-16.5 -60.5 -33 -116 q-16.5 -55.5 -31.5 -98.5 q-23 -63 -48 -109 q-25 -46 -62 -70.5 q-37 -24.5 -92 -24.5 Z" /><glyph glyph-name="uni0509" unicode="&#x509;" d="M486 -10 q-72 0 -112 36 q-40 36 -40 107 q0 14 1 31 q1 17 6 35 l56 264 q-6 1 -15.5 2.5 q-9.5 1.5 -19.5 1.5 q-40 0 -63.5 -19.5 q-23.5 -19.5 -44 -66.5 q-20.5 -47 -48.5 -132 q-28 -83 -54 -140 q-26 -57 -61 -86.5 q-35 -29.5 -91 -29.5 q-13 0 -23.5 2.5 q-10.5 2.5 -17.5 4.5 l1 76 q14 -6 32 -6 q30 0 51.5 21 q21.5 21 41.5 67 q20 46 45 121 q22 67 42.5 116 q20.5 49 46.5 81.5 q26 32.5 63.5 48.5 q37.5 16 94.5 16 q33 0 64 -4.5 q31 -4.5 57 -12.5 l-70 -333 q-6 -30 -6 -50 q0 -78 73 -78 q50 0 72.5 31.5 q22.5 31.5 36.5 95.5 l32 152 l88 0 l-35 -166 q-12 -56 -34.5 -97.5 q-22.5 -41.5 -63 -65 q-40.5 -23.5 -105.5 -23.5 Z" /><glyph glyph-name="uni050A" unicode="&#x50a;" d="M615 -10 q-68 0 -113.5 35.5 q-45.5 35.5 -45.5 110.5 q0 16 2.5 33.5 q2.5 17.5 7.5 44.5 l24 119 l-292 0 l-70 -333 l-89 0 l151 714 l89 0 l-64 -302 l293 0 l63 302 l90 0 l-109 -513 q-3 -16 -5 -31 q-2 -15 -2 -26 q0 -75 75 -75 q47 0 72 29 q25 29 38 92 l46 224 l89 0 l-51 -236 q-22 -103 -70.5 -145.5 q-48.5 -42.5 -128.5 -42.5 Z" /><glyph glyph-name="uni050B" unicode="&#x50b;" d="M536 -10 q-73 0 -113.5 36 q-40.5 36 -40.5 107 q0 15 2 31 q2 16 7 37 l7 39 l-233 0 l-51 -240 l-88 0 l114 536 l87 0 l-46 -223 l234 0 l47 223 l88 0 l-73 -345 q-3 -15 -5 -27 q-2 -12 -2 -22 q0 -79 75 -79 q49 0 72 32 q23 32 36 95 l31 152 l89 0 l-35 -166 q-12 -56 -35 -97.5 q-23 -41.5 -63 -65 q-40 -23.5 -104 -23.5 Z" /><glyph glyph-name="uni050C" unicode="&#x50c;" d="M318 -10 q-117 0 -182.5 70.5 q-65.5 70.5 -65.5 203.5 q0 95 26.5 178.5 q26.5 83.5 76.5 146.5 q50 63 118.5 99 q68.5 36 152.5 36 q60 0 107 -11 q47 -11 88 -31 l-35 -78 q-35 16 -72.5 28.5 q-37.5 12.5 -90.5 12.5 q-80 0 -142.5 -49 q-62.5 -49 -98.5 -134.5 q-36 -85.5 -36 -195.5 q0 -57 16 -101.5 q16 -44.5 52 -70 q36 -25.5 94 -25.5 q64 0 104 26.5 q40 26.5 63.5 76.5 q23.5 50 36.5 118 l-169 0 l17 79 l262 0 l-12 -62 q-13 -67 -34.5 -125 q-21.5 -58 -56.5 -101 q-35 -43 -88.5 -67 q-53.5 -24 -130.5 -24 Z" /><glyph glyph-name="uni050D" unicode="&#x50d;" d="M256 -10 q-98 0 -153 58 q-55 58 -55 160 q0 68 20 129 q20 61 59.5 108 q39.5 47 96.5 74 q57 27 132 27 q52 0 92 -10 q40 -10 73 -29 l-34 -70 q-27 17 -58 27.5 q-31 10.5 -75 10.5 q-72 0 -120 -36 q-48 -36 -72.5 -97.5 q-24.5 -61.5 -24.5 -135.5 q0 -63 30.5 -104 q30.5 -41 94.5 -41 q73 0 110 42.5 q37 42.5 50 108.5 l-144 0 l16 73 l233 0 l-11 -48 q-30 -132 -93 -189.5 q-63 -57.5 -167 -57.5 Z" /><glyph glyph-name="uni050E" unicode="&#x50e;" d="M337 -10 q-68 0 -114.5 36 q-46.5 36 -45.5 112 q0 15 2.5 31.5 q2.5 16.5 7.5 42.5 l89 423 l-184 0 l18 79 l460 0 l-18 -79 l-186 0 l-92 -434 q-3 -15 -5 -30 q-2 -15 -2 -26 q-2 -76 75 -76 q47 0 72 29 q25 29 38 92 l46 224 l88 0 l-49 -236 q-22 -103 -71 -145.5 q-49 -42.5 -129 -42.5 Z" /><glyph glyph-name="uni050F" unicode="&#x50f;" d="M278 -10 q-73 0 -113 36 q-40 36 -40 107 q0 16 2.5 33 q2.5 17 6.5 36 l55 259 l-144 0 l16 75 l374 0 l-17 -75 l-142 0 l-56 -270 q-3 -14 -5 -26.5 q-2 -12.5 -2 -23.5 q0 -78 74 -78 q50 0 72.5 31.5 q22.5 31.5 35.5 95.5 l31 152 l89 0 l-35 -166 q-12 -56 -34.5 -97.5 q-22.5 -41.5 -63 -65 q-40.5 -23.5 -104.5 -23.5 Z" /><glyph glyph-name="uni0510" unicode="&#x510;" d="M262 -10 q-72 0 -118 24 q-46 24 -68 64.5 q-22 40.5 -22 90.5 q0 86 52 140 q52 54 146 63 l0 3 q-49 17 -77 54.5 q-28 37.5 -28 90.5 q0 66 30.5 111.5 q30.5 45.5 81.5 69 q51 23.5 112 23.5 q63 0 107 -18 q44 -18 81 -51 l-46 -63 q-31 27 -65 42.5 q-34 15.5 -78 15.5 q-56 0 -95.5 -34 q-39.5 -34 -39.5 -99 q0 -49 30 -80.5 q30 -31.5 102 -31.5 l82 0 l-17 -73 l-79 0 q-58 0 -104 -14.5 q-46 -14.5 -73 -47.5 q-27 -33 -27 -89 q0 -53 32.5 -85 q32.5 -32 98.5 -32 q51 0 94.5 13.5 q43.5 13.5 80.5 31.5 l-1 -79 q-34 -15 -81 -27.5 q-47 -12.5 -111 -12.5 Z" /><glyph glyph-name="uni0512" unicode="&#x512;" d="M29 -11 q-19 0 -34 3.5 q-15 3.5 -25 7.5 l1 78 q9 -4 21.5 -7 q12.5 -3 25.5 -3 q28 0 49.5 12.5 q21.5 12.5 41 45 q19.5 32.5 39.5 92.5 q16 46 34 106 q18 60 37 127.5 q19 67.5 37 135 q18 67.5 35 127.5 l341 0 l-135 -635 l79 0 l-33 -152 q-14 -67 -44 -95 q-30 -28 -78 -28 q-36 0 -54 11 l0 73 q21 -9 48 -9 q19 0 33 15 q14 15 19 42 l12 64 l-88 0 l134 634 l-169 0 q-13 -49 -28.5 -107.5 q-15.5 -58.5 -32 -119 q-16.5 -60.5 -33 -116 q-16.5 -55.5 -31.5 -98.5 q-23 -63 -48 -109 q-25 -46 -62 -70.5 q-37 -24.5 -92 -24.5 Z" /><glyph glyph-name="uni0513" unicode="&#x513;" d="M325 -196 q-17 0 -31.5 3 q-14.5 3 -22.5 8 l0 73 q12 -4 22.5 -6.5 q10.5 -2.5 24.5 -2.5 q41 0 54 57 l13 64 l-88 0 l100 463 q-6 1 -15.5 2.5 q-9.5 1.5 -19.5 1.5 q-40 0 -63.5 -19.5 q-23.5 -19.5 -44 -66.5 q-20.5 -47 -48.5 -132 q-28 -83 -54 -140 q-26 -57 -61 -86.5 q-35 -29.5 -91 -29.5 q-13 0 -23.5 2.5 q-10.5 2.5 -17.5 4.5 l1 76 q14 -6 32 -6 q30 0 51.5 21 q21.5 21 41.5 67 q20 46 45 121 q22 67 42.5 116 q20.5 49 46.5 81.5 q26 32.5 63.5 48.5 q37.5 16 94.5 16 q33 0 64 -4.5 q31 -4.5 57 -12.5 l-96 -451 l77 0 l-32 -146 q-14 -67 -43.5 -95 q-29.5 -28 -78.5 -28 Z" /><glyph glyph-name="uni0180" unicode="&#x180;" d="M258 -10 q-52 0 -83.5 27.5 q-31.5 27.5 -45.5 64.5 l-5 0 l-32 -82 l-66 0 l128 605 l-67 0 l15 66 l66 0 l19 89 l88 0 l-19 -89 l182 0 l-14 -66 l-182 0 q-8 -35 -16.5 -73 q-8.5 -38 -16 -65.5 q-7.5 -27.5 -9.5 -30.5 l4 0 q34 44 74 76.5 q40 32.5 93 32.5 q61 0 99.5 -45.5 q38.5 -45.5 38.5 -133.5 q0 -73 -17.5 -140.5 q-17.5 -67.5 -50 -120.5 q-32.5 -53 -79 -84 q-46.5 -31 -104.5 -31 ZM250 63 q38 0 69 26 q31 26 53.5 69.5 q22.5 43.5 34.5 97.5 q12 54 12 110 q0 106 -78 106 q-32 0 -64.5 -25 q-32.5 -25 -59.5 -67.5 q-27 -42.5 -43.5 -97 q-16.5 -54.5 -16.5 -113.5 q0 -47 23 -76.5 q23 -29.5 70 -29.5 Z" /><glyph glyph-name="uni0181" unicode="&#x181;" d="M114 0 l133 637 l-18 0 q-34 0 -53 -17.5 q-19 -17.5 -19 -55.5 q0 -8 1 -16 q1 -8 3 -15 l-74 0 q-3 6 -4.5 17 q-1.5 11 -1.5 20 q0 64 38 104 q38 40 120 40 l203 0 q94 0 147.5 -38.5 q53.5 -38.5 53.5 -123.5 q0 -74 -42.5 -120 q-42.5 -46 -112.5 -60 l0 -5 q46 -13 76.5 -48.5 q30.5 -35.5 30.5 -94.5 q0 -74 -34 -123.5 q-34 -49.5 -93.5 -75 q-59.5 -25.5 -135.5 -25.5 l-218 0 ZM290 410 l108 0 q63 0 107.5 31.5 q44.5 31.5 44.5 98.5 q0 47 -27.5 72 q-27.5 25 -91.5 25 l-94 0 l-47 -227 ZM219 76 l117 0 q80 0 123 39 q43 39 43 109 q0 47 -28.5 79.5 q-28.5 32.5 -96.5 32.5 l-104 0 l-54 -260 Z" /><glyph glyph-name="uni0183" unicode="&#x183;" d="M258 -10 q-52 0 -83.5 27.5 q-31.5 27.5 -45.5 64.5 l-5 0 l-32 -82 l-66 0 l161 760 l373 0 l-17 -74 l-285 0 l-21 -106 q-7 -34 -15 -67 q-8 -33 -14 -54 q-6 -21 -8 -23 l4 0 q34 44 74 76.5 q40 32.5 93 32.5 q61 0 99.5 -45.5 q38.5 -45.5 38.5 -133.5 q0 -73 -17.5 -140.5 q-17.5 -67.5 -50 -120.5 q-32.5 -53 -79 -84 q-46.5 -31 -104.5 -31 ZM250 63 q38 0 69 26 q31 26 53.5 69.5 q22.5 43.5 34.5 97.5 q12 54 12 110 q0 106 -78 106 q-32 0 -64.5 -25 q-32.5 -25 -59.5 -67.5 q-27 -42.5 -43.5 -97 q-16.5 -54.5 -16.5 -113.5 q0 -47 23 -76.5 q23 -29.5 70 -29.5 Z" /><glyph glyph-name="uni0184" unicode="&#x184;" d="M263 -10 q-102 0 -149 43 q-47 43 -47 115 q0 14 1.5 30 q1.5 16 5.5 32 l107 504 l89 0 l-64 -302 l96 0 q76 0 123 -23.5 q47 -23.5 69 -64 q22 -40.5 22 -91.5 q0 -73 -31 -127.5 q-31 -54.5 -88 -85 q-57 -30.5 -134 -30.5 ZM265 67 q67 0 113.5 40 q46.5 40 46.5 121 q0 55 -36.5 81 q-36.5 26 -103.5 26 l-96 0 l-26 -125 q-3 -16 -5 -29.5 q-2 -13.5 -2 -25.5 q0 -88 109 -88 Z" /><glyph glyph-name="uni0185" unicode="&#x185;" d="M240 -10 q-80 0 -128 45.5 q-48 45.5 -48 138.5 q0 21 3.5 44.5 q3.5 23.5 8.5 48.5 l105 493 l88 0 l-39 -185 q-5 -23 -12 -51 q-7 -28 -13.5 -52.5 q-6.5 -24.5 -9.5 -35.5 l3 0 q18 24 42.5 49 q24.5 25 54.5 42.5 q30 17.5 66 17.5 q69 0 105.5 -47 q36.5 -47 36.5 -136 q0 -72 -16.5 -138.5 q-16.5 -66.5 -50 -119 q-33.5 -52.5 -82.5 -83.5 q-49 -31 -114 -31 ZM242 63 q42 0 73.5 27.5 q31.5 27.5 53.5 72.5 q22 45 33 97.5 q11 52.5 11 103.5 q0 108 -78 108 q-37 0 -70.5 -28 q-33.5 -28 -59 -73.5 q-25.5 -45.5 -40 -97 q-14.5 -51.5 -14.5 -97.5 q0 -55 23 -84 q23 -29 68 -29 Z" /><glyph glyph-name="uni0187" unicode="&#x187;" d="M309 -10 q-113 0 -176 72 q-63 72 -63 197 q0 65 14.5 130.5 q14.5 65.5 44 125.5 q29.5 60 74 107 q44.5 47 104 74.5 q59.5 27.5 134.5 27.5 q55 0 97 -13 l7 33 q13 65 45 89.5 q32 24.5 74 24.5 q16 0 30 -3 q14 -3 22 -8 l0 -73 q-11 4 -22 6.5 q-11 2.5 -22 2.5 q-22 0 -34 -12.5 q-12 -12.5 -20 -44.5 l-29 -122 q-26 14 -65 27.5 q-39 13.5 -84 13.5 q-70 0 -122 -34 q-52 -34 -86.5 -90 q-34.5 -56 -51 -123.5 q-16.5 -67.5 -16.5 -135.5 q0 -89 43 -141 q43 -52 119 -52 q39 0 76.5 8 q37.5 8 74.5 21 l-1 -78 q-37 -14 -75.5 -22 q-38.5 -8 -91.5 -8 Z" /><glyph glyph-name="uni0188" unicode="&#x188;" d="M234 -10 q-83 0 -135 49 q-52 49 -52 148 q0 72 18.5 136.5 q18.5 64.5 54 115 q35.5 50.5 85.5 79 q50 28.5 112 28.5 q13 0 27 -1.5 q14 -1.5 27 -3.5 l23 110 q14 66 45.5 90 q31.5 24 74.5 24 q16 0 30 -3.5 q14 -3.5 22 -7.5 l-1 -73 q-11 4 -21.5 6.5 q-10.5 2.5 -22.5 2.5 q-21 0 -33 -12 q-12 -12 -19 -45 l-41 -190 q-26 14 -52 21.5 q-26 7.5 -58 7.5 q-54 0 -95 -39 q-41 -39 -63.5 -103.5 q-22.5 -64.5 -22.5 -140.5 q0 -60 28.5 -93 q28.5 -33 79.5 -33 q34 0 64 9.5 q30 9.5 59 23.5 l0 -74 q-27 -14 -60.5 -23 q-33.5 -9 -73.5 -9 Z" /><glyph glyph-name="uni018A" unicode="&#x18a;" d="M113 0 l133 637 l-18 0 q-34 0 -53 -17.5 q-19 -17.5 -19 -55.5 q0 -8 1 -16 q1 -8 3 -15 l-74 0 q-3 6 -4.5 17 q-1.5 11 -1.5 20 q0 64 38 104 q38 40 120 40 l188 0 q122 0 190 -69 q68 -69 68 -211 q0 -125 -46.5 -223 q-46.5 -98 -136 -154.5 q-89.5 -56.5 -218.5 -56.5 l-170 0 ZM218 77 l71 0 q97 0 164.5 47.5 q67.5 47.5 102.5 128.5 q35 81 35 181 q0 107 -48.5 155 q-48.5 48 -128.5 48 l-78 0 l-118 -560 Z" /><glyph glyph-name="uni018B" unicode="&#x18b;" d="M250 0 q-109 0 -156.5 48.5 q-47.5 48.5 -47.5 126.5 q0 115 77 176 q77 61 220 61 l60 0 l46 223 l-286 0 l18 79 l373 0 l-151 -714 l-153 0 ZM261 77 l70 0 l54 258 l-57 0 q-86 0 -138.5 -37.5 q-52.5 -37.5 -52.5 -118.5 q0 -53 32.5 -77.5 q32.5 -24.5 91.5 -24.5 Z" /><glyph glyph-name="uni018C" unicode="&#x18c;" d="M183 -10 q-60 0 -98 45 q-38 45 -38 135 q0 74 17.5 141 q17.5 67 50.5 120 q33 53 80 83.5 q47 30.5 105 30.5 q51 0 81 -27.5 q30 -27.5 46 -64.5 l4 0 q5 34 10 65 q5 31 12 67 l21 101 l-284 0 l16 74 l371 0 l-161 -760 l-71 0 l11 99 l-4 0 q-34 -45 -75 -77 q-41 -32 -94 -32 ZM215 63 q32 0 64 24.5 q32 24.5 59 67 q27 42.5 43.5 97 q16.5 54.5 16.5 114.5 q0 47 -21.5 76.5 q-21.5 29.5 -70.5 29.5 q-37 0 -68 -26 q-31 -26 -53.5 -69.5 q-22.5 -43.5 -35 -97.5 q-12.5 -54 -12.5 -110 q0 -106 78 -106 Z" /><glyph glyph-name="uni018E" unicode="&#x18e;" d="M3 0 l18 79 l258 0 l53 255 l-241 0 l16 78 l241 0 l47 223 l-259 0 l18 79 l347 0 l-151 -714 l-347 0 Z" /><glyph glyph-name="uni0190" unicode="&#x190;" d="M253 -10 q-77 0 -126 24 q-49 24 -72 65 q-23 41 -23 90 q0 69 26.5 111.5 q26.5 42.5 72.5 65 q46 22.5 105 31.5 l1 4 q-46 12 -74 46.5 q-28 34.5 -28 90.5 q0 68 31 113.5 q31 45.5 83.5 69 q52.5 23.5 116.5 23.5 q44 0 75.5 -7 q31.5 -7 60 -22 q28.5 -15 62.5 -40 l-42 -61 q-34 27 -70 41.5 q-36 14.5 -88 14.5 q-60 0 -99.5 -35 q-39.5 -35 -39.5 -102 q0 -48 32.5 -77 q32.5 -29 107.5 -29 l82 0 l-16 -75 l-87 0 q-100 0 -159.5 -36 q-59.5 -36 -59.5 -121 q0 -53 34 -82 q34 -29 100 -29 q47 0 97 14 q50 14 95 36 l-1 -82 q-44 -22 -92.5 -32 q-48.5 -10 -104.5 -10 Z" /><glyph glyph-name="uni0191" unicode="&#x191;" d="M-37 -240 q-16 0 -31.5 4.5 q-15.5 4.5 -24.5 10.5 l1 76 q8 -5 18.5 -8.5 q10.5 -3.5 22.5 -3.5 q26 0 44 17.5 q18 17.5 28 64.5 l168 793 l346 0 l-16 -79 l-259 0 l-52 -254 l242 0 l-18 -79 l-241 0 l-82 -385 q-18 -84 -52 -120.5 q-34 -36.5 -94 -36.5 Z" /><glyph glyph-name="uni0193" unicode="&#x193;" d="M324 -10 q-120 0 -187 70 q-67 70 -67 195 q0 98 26.5 183.5 q26.5 85.5 76 149.5 q49.5 64 118 100 q68.5 36 152.5 36 q37 0 67 -5 q30 -5 57 -13 l9 39 q15 65 46 89 q31 24 73 24 q17 0 30.5 -3 q13.5 -3 21.5 -8 l-1 -73 q-10 4 -21 6.5 q-11 2.5 -23 2.5 q-21 0 -33.5 -12.5 q-12.5 -12.5 -19.5 -44.5 l-30 -125 q-45 21 -87.5 32.5 q-42.5 11.5 -90.5 11.5 q-79 0 -142 -49.5 q-63 -49.5 -99 -135.5 q-36 -86 -36 -198 q0 -54 18 -98 q18 -44 56 -69.5 q38 -25.5 97 -25.5 q35 0 64.5 5.5 q29.5 5.5 49.5 12.5 l45 211 l-132 0 l18 78 l221 0 l-77 -349 q-43 -16 -90.5 -26.5 q-47.5 -10.5 -109.5 -10.5 Z" /><glyph glyph-name="uni0194" unicode="&#x194;" d="M162 -240 q-45 0 -70 31 q-25 31 -25 77 q0 50 29 108.5 q29 58.5 84 130.5 l-86 607 l89 0 l45 -369 q5 -41 9 -81.5 q4 -40.5 5 -76.5 q13 35 32.5 76 q19.5 41 41.5 80 l206 371 l100 0 l-350 -613 q21 -96 21 -166 q0 -75 -33 -125 q-33 -50 -98 -50 ZM169 -162 q17 0 28 17.5 q11 17.5 15.5 43 q4.5 25.5 4.5 49.5 q0 18 -2.5 38 q-2.5 20 -6.5 39 q-33 -52 -46.5 -90.5 q-13.5 -38.5 -13.5 -62.5 q0 -34 21 -34 Z" /><glyph glyph-name="uni0195" unicode="&#x195;" d="M525 -10 q-83 0 -126 38 q-43 38 -43 106 q0 12 2.5 25.5 q2.5 13.5 4.5 26.5 l30 150 q5 25 7 40 q2 15 2 27 q0 32 -14.5 50.5 q-14.5 18.5 -46.5 18.5 q-31 0 -65.5 -23.5 q-34.5 -23.5 -64 -76.5 q-29.5 -53 -48.5 -141 l-49 -231 l-88 0 l161 760 l88 0 l-42 -197 q-7 -30 -16 -62.5 q-9 -32.5 -17 -64.5 l5 0 q17 25 41 50 q24 25 54.5 42 q30.5 17 68.5 17 q56 0 89 -33.5 q33 -33.5 33 -101.5 q0 -20 -3.5 -40.5 q-3.5 -20.5 -7.5 -43.5 l-28 -134 q-3 -14 -5 -25 q-2 -11 -2 -21 q0 -83 88 -83 q55 0 85 36.5 q30 36.5 46 115.5 l68 321 l89 0 l-69 -327 q-26 -120 -78.5 -169.5 q-52.5 -49.5 -148.5 -49.5 Z" /><glyph glyph-name="uni0196" unicode="&#x196;" d="M167 -10 q-50 0 -83.5 25.5 q-33.5 25.5 -33.5 89.5 q0 16 3 34.5 q3 18.5 7 40.5 l113 534 l88 0 l-114 -537 q-2 -14 -5 -30 q-3 -16 -3 -30 q0 -24 10.5 -39.5 q10.5 -15.5 37.5 -15.5 q16 0 31.5 3.5 q15.5 3.5 34.5 9.5 l-1 -67 q-13 -6 -37.5 -12 q-24.5 -6 -47.5 -6 Z" /><glyph glyph-name="uni0197" unicode="&#x197;" d="M-20 0 l11 49 l81 20 l54 258 l-80 0 l18 78 l78 0 l50 240 l-72 19 l11 50 l242 0 l-10 -50 l-83 -19 l-50 -240 l81 0 l-18 -78 l-80 0 l-53 -258 l73 -20 l-11 -49 l-242 0 Z" /><glyph glyph-name="uni0198" unicode="&#x198;" d="M38 0 l151 714 l89 0 l-74 -347 l60 66 l200 221 q38 41 65 53.5 q27 12.5 55 12.5 q14 0 26 -3 q12 -3 20 -6 l-1 -71 q-11 2 -19 3.5 q-8 1.5 -18 1.5 q-16 0 -32 -9.5 q-16 -9.5 -44 -39.5 l-182 -196 l154 -400 l-98 0 l-126 346 l-78 -61 l-59 -285 l-89 0 Z" /><glyph glyph-name="uni0199" unicode="&#x199;" d="M25 0 l132 625 q14 69 44.5 104.5 q30.5 35.5 91.5 35.5 q17 0 33 -4.5 q16 -4.5 23 -8.5 l0 -73 q-8 4 -21.5 7 q-13.5 3 -28.5 3 q-19 0 -32.5 -13.5 q-13.5 -13.5 -20.5 -44.5 l-37 -173 q-17 -80 -29 -123.5 q-12 -43.5 -16 -57.5 l2 0 l242 259 l103 0 l-222 -230 l133 -306 l-97 0 l-103 251 l-68 -57 l-40 -194 l-89 0 Z" /><glyph glyph-name="uni019A" unicode="&#x19a;" d="M25 0 l75 354 l-61 0 l14 66 l62 0 l72 340 l88 0 l-73 -340 l63 0 l-14 -66 l-64 0 l-74 -354 l-88 0 Z" /><glyph glyph-name="uni019B" unicode="&#x19b;" d="M373 -10 q-41 0 -63.5 22.5 q-22.5 22.5 -27.5 80.5 l-16 189 q-3 32 -5 72 q-2 40 -2 78 q-13 -34 -26 -65.5 q-13 -31.5 -30 -61.5 l-162 -305 l-93 0 l294 525 l-7 63 l-98 -32 l-17 60 l103 34 q-7 20 -20.5 31.5 q-13.5 11.5 -35.5 11.5 q-13 0 -25 -1.5 q-12 -1.5 -23 -3.5 l-10 70 q13 3 31.5 5.5 q18.5 2.5 36.5 2.5 q55 0 85 -22 q30 -22 43 -69 l91 31 l16 -61 l-97 -32 l49 -499 q3 -25 11 -39 q8 -14 24 -14 q6 0 15 1.5 q9 1.5 17 4.5 l-1 -66 q-10 -5 -26 -8 q-16 -3 -31 -3 Z" /><glyph glyph-name="uni019C" unicode="&#x19c;" d="M217 -10 q-66 0 -109 39 q-43 39 -43 116 q0 14 1.5 30 q1.5 16 6.5 33 l107 506 l89 0 l-107 -506 q-3 -14 -5 -26.5 q-2 -12.5 -2 -24.5 q0 -43 20.5 -66 q20.5 -23 60.5 -23 q76 0 117.5 50 q41.5 50 61.5 144 l95 452 l90 0 l-107 -506 q-3 -14 -5 -27 q-2 -13 -2 -25 q0 -41 20 -64.5 q20 -23.5 60 -23.5 q52 0 87 27 q35 27 57 75 q22 48 35 112 l91 432 l88 0 l-151 -714 l-65 0 l7 82 l-4 0 q-60 -92 -169 -92 q-105 0 -131 100 l-4 0 q-37 -51 -84.5 -75.5 q-47.5 -24.5 -105.5 -24.5 Z" /><glyph glyph-name="uni019D" unicode="&#x19d;" d="M-38 -240 q-16 0 -31.5 4.5 q-15.5 4.5 -24.5 10.5 l1 76 q7 -5 18 -8.5 q11 -3.5 23 -3.5 q26 0 44 17.5 q18 17.5 28 64.5 l168 793 l96 0 l198 -590 l3 0 q5 36 15 91.5 q10 55.5 20 105.5 l84 393 l83 0 l-151 -714 l-95 0 l-200 592 l-3 0 q-2 -21 -8 -55.5 q-6 -34.5 -13 -74.5 q-7 -40 -15 -76 l-101 -480 q-15 -70 -47.5 -108 q-32.5 -38 -91.5 -38 Z" /><glyph glyph-name="uni01A2" unicode="&#x1a2;" d="M317 -10 q-119 0 -183 73 q-64 73 -64 200 q0 93 24 176.5 q24 83.5 69 147.5 q45 64 109 101 q64 37 144 37 q61 0 108 -23 q47 -23 77 -66 q36 40 83.5 64.5 q47.5 24.5 100.5 24.5 q74 0 114.5 -41 q40.5 -41 40.5 -112 q0 -15 -2 -31.5 q-2 -16.5 -6 -33.5 l-106 -507 l-89 0 l107 507 q3 15 5 28.5 q2 13.5 2 25.5 q0 86 -83 86 q-41 0 -76.5 -19.5 q-35.5 -19.5 -61.5 -45.5 q22 -60 22 -134 q0 -93 -22 -175.5 q-22 -82.5 -64.5 -146 q-42.5 -63.5 -105 -100 q-62.5 -36.5 -143.5 -36.5 ZM321 69 q54 0 97.5 30.5 q43.5 30.5 74.5 83.5 q31 53 47.5 121.5 q16.5 68.5 16.5 144.5 q0 94 -40.5 145.5 q-40.5 51.5 -107.5 51.5 q-54 0 -99 -29.5 q-45 -29.5 -78 -82 q-33 -52.5 -50.5 -121.5 q-17.5 -69 -17.5 -147 q0 -93 42 -145 q42 -52 115 -52 Z" /><glyph glyph-name="uni01A3" unicode="&#x1a3;" d="M495 -240 l125 585 q3 17 5 31 q2 14 2 26 q0 70 -61 70 q-27 0 -51.5 -13 q-24.5 -13 -43.5 -35 q5 -19 8 -40 q3 -21 3 -45 q0 -61 -16.5 -122.5 q-16.5 -61.5 -48.5 -112 q-32 -50.5 -79.5 -81.5 q-47.5 -31 -110.5 -31 q-85 0 -132.5 54.5 q-47.5 54.5 -47.5 148.5 q0 61 16.5 123 q16.5 62 49.5 112.5 q33 50.5 81.5 81.5 q48.5 31 112.5 31 q95 0 140 -71 q31 37 69 55.5 q38 18.5 76 18.5 q59 0 91 -35.5 q32 -35.5 32 -98.5 q0 -30 -6 -63 l-124 -589 l-90 0 ZM233 65 q43 0 79 34 q36 34 58 97.5 q22 63.5 22 151.5 q0 29 -8 57 q-8 28 -27 46.5 q-19 18.5 -51 18.5 q-52 0 -90.5 -38.5 q-38.5 -38.5 -59 -101.5 q-20.5 -63 -20.5 -138 q0 -61 24.5 -94 q24.5 -33 72.5 -33 Z" /><glyph glyph-name="uni01A4" unicode="&#x1a4;" d="M112 0 l133 637 l-17 0 q-34 0 -53 -17.5 q-19 -17.5 -19 -55.5 q0 -8 1 -16 q1 -8 3 -15 l-74 0 q-3 6 -4.5 17 q-1.5 11 -1.5 20 q0 64 38 104 q38 40 120 40 l180 0 q110 0 157 -50.5 q47 -50.5 47 -132.5 q0 -122 -78 -187 q-78 -65 -223 -65 l-62 0 l-58 -279 l-89 0 ZM276 354 l59 0 q90 0 143 42 q53 42 53 131 q0 59 -31 84.5 q-31 25.5 -93 25.5 l-72 0 l-59 -283 Z" /><glyph glyph-name="uni01A5" unicode="&#x1a5;" d="M-24 -240 l182 865 q15 71 44.5 105.5 q29.5 34.5 90.5 34.5 q17 0 33 -4.5 q16 -4.5 23 -8.5 l0 -73 q-8 4 -21.5 7 q-13.5 3 -28.5 3 q-19 0 -33 -14 q-14 -14 -20 -46 l-9 -48 q-8 -43 -18.5 -80 q-10.5 -37 -18.5 -65 l4 0 q34 44 75 76.5 q41 32.5 93 32.5 q62 0 99.5 -45.5 q37.5 -45.5 37.5 -134.5 q0 -73 -17 -140 q-17 -67 -49.5 -120 q-32.5 -53 -78.5 -84 q-46 -31 -105 -31 q-51 0 -83 27.5 q-32 27.5 -48 64.5 l-4 0 q-2 -15 -5.5 -44 q-3.5 -29 -7.5 -47 l-48 -231 l-87 0 ZM250 63 q38 0 69 26 q31 26 53.5 69.5 q22.5 43.5 34.5 97.5 q12 54 12 110 q0 106 -78 106 q-31 0 -63.5 -24.5 q-32.5 -24.5 -60 -66.5 q-27.5 -42 -44 -97 q-16.5 -55 -16.5 -115 q0 -47 22 -76.5 q22 -29.5 71 -29.5 Z" /><glyph glyph-name="uni01A6" unicode="&#x1a6;" d="M368 -100 l-93 295 l-108 0 l-41 -195 l-88 0 l151 714 l89 0 l-21 -100 l61 0 q208 0 208 -178 q0 -79 -39 -136.5 q-39 -57.5 -130 -84.5 l109 -315 l-98 0 ZM184 271 l72 0 q93 0 136 44 q43 44 43 114 q0 59 -32 83 q-32 24 -94 24 l-70 0 l-55 -265 Z" /><glyph glyph-name="uni01A7" unicode="&#x1a7;" d="M217 -10 q-91 0 -144 44 q-53 44 -53 127 q0 57 19.5 95.5 q19.5 38.5 52 64 q32.5 25.5 72.5 43 q40 17.5 82 33.5 q57 22 94 42 q37 20 55 46.5 q18 26.5 18 69.5 q0 41 -26.5 65.5 q-26.5 24.5 -73.5 24.5 q-36 0 -69.5 -10.5 q-33.5 -10.5 -67.5 -26.5 l-26 76 q38 18 83 29 q45 11 92 11 q84 0 132.5 -47 q48.5 -47 48.5 -120 q0 -67 -28.5 -110 q-28.5 -43 -77 -72 q-48.5 -29 -110.5 -53 q-64 -25 -103.5 -44.5 q-39.5 -19.5 -58 -44.5 q-18.5 -25 -18.5 -66 q0 -45 30.5 -72 q30.5 -27 84.5 -27 q49 0 89.5 10.5 q40.5 10.5 76.5 26.5 l0 -78 q-34 -17 -77.5 -27 q-43.5 -10 -96.5 -10 Z" /><glyph glyph-name="uni01A8" unicode="&#x1a8;" d="M179 -10 q-79 0 -123.5 38 q-44.5 38 -44.5 106 q0 56 27 90 q27 34 68 53 q41 19 82 31 q54 16 84 29.5 q30 13.5 41.5 30 q11.5 16.5 11.5 42.5 q0 29 -19.5 46.5 q-19.5 17.5 -57.5 17.5 q-29 0 -61 -10 q-32 -10 -64 -24 l-22 69 q37 17 77 27 q40 10 80 10 q73 0 113.5 -35 q40.5 -35 40.5 -96 q0 -55 -24 -87.5 q-24 -32.5 -66 -52 q-42 -19.5 -96 -36.5 q-35 -11 -64 -23 q-29 -12 -46 -31 q-17 -19 -17 -51 q0 -33 22 -53 q22 -20 67 -20 q41 0 76.5 12.5 q35.5 12.5 67.5 28.5 l-1 -77 q-31 -17 -67 -26 q-36 -9 -85 -9 Z" /><glyph glyph-name="uni01AA" unicode="&#x1aa;" d="M140 -240 q-50 0 -84 25.5 q-34 25.5 -34 89.5 q0 16 2.5 35.5 q2.5 19.5 7.5 41.5 l127 595 l-24 0 q-55 0 -81 30 q-26 30 -26 73 q0 52 32 86 q32 34 99 34 q53 0 80 -30.5 q27 -30.5 27 -78.5 q0 -10 -1 -20 q-1 -10 -3 -21 l-143 -673 q-3 -14 -5.5 -30 q-2.5 -16 -2.5 -30 q0 -24 10.5 -39.5 q10.5 -15.5 37.5 -15.5 q16 0 31.5 3.5 q15.5 3.5 35.5 9.5 l-1 -67 q-13 -6 -38 -12 q-25 -6 -47 -6 ZM144 619 l30 0 l3 13 q3 14 3 26 q0 40 -34 40 q-20 0 -31 -12 q-11 -12 -11 -30 q0 -19 11.5 -28 q11.5 -9 28.5 -9 Z" /><glyph glyph-name="uni01AB" unicode="&#x1ab;" d="M106 -240 q-16 0 -30.5 3 q-14.5 3 -22.5 8 l1 73 q10 -4 21.5 -6.5 q11.5 -2.5 22.5 -2.5 q22 0 33.5 12 q11.5 12 18.5 45 l21 98 q-50 2 -83 28 q-33 26 -33 87 q0 33 9 73 l61 291 l-78 0 l8 40 l87 38 l60 111 l53 0 l-27 -122 l128 0 l-14 -67 l-128 0 l-62 -292 q-3 -13 -5.5 -30 q-2.5 -17 -2.5 -31 q0 -22 11.5 -38 q11.5 -16 37.5 -16 q17 0 37 3.5 q20 3.5 39 9.5 l-43 -201 q-14 -66 -45 -90 q-31 -24 -75 -24 Z" /><glyph glyph-name="uni01AC" unicode="&#x1ac;" d="M180 0 l134 635 l-86 0 q-35 0 -53.5 -16.5 q-18.5 -16.5 -18.5 -54.5 q0 -8 1 -16 q1 -8 3 -15 l-74 0 q-3 6 -4.5 17 q-1.5 11 -1.5 20 q0 64 38 104 q38 40 120 40 l368 0 l-17 -79 l-185 0 l-134 -635 l-90 0 Z" /><glyph glyph-name="uni01AD" unicode="&#x1ad;" d="M177 -10 q-52 0 -87 25.5 q-35 25.5 -35 89.5 q0 33 9 73 l61 291 l-78 0 l8 40 l88 39 l14 63 q17 77 51.5 115.5 q34.5 38.5 103.5 38.5 q20 0 38 -4.5 q18 -4.5 28 -8.5 l0 -73 q-9 3 -26 6.5 q-17 3.5 -36 3.5 q-57 0 -71 -68 l-17 -85 l128 0 l-14 -67 l-128 0 l-62 -292 q-3 -13 -5.5 -30 q-2.5 -17 -2.5 -31 q0 -22 11.5 -38 q11.5 -16 37.5 -16 q17 0 33 3.5 q16 3.5 35 9.5 l-1 -67 q-12 -6 -36.5 -12 q-24.5 -6 -46.5 -6 Z" /><glyph glyph-name="uni01AE" unicode="&#x1ae;" d="M231 -240 q-50 0 -81 28.5 q-31 28.5 -31 81.5 q0 22 7 47 l150 718 l-184 0 l18 79 l458 0 l-16 -79 l-185 0 l-150 -714 q-4 -20 -4 -36 q0 -46 45 -46 q22 0 42 10 l-1 -76 q-10 -6 -29.5 -9.5 q-19.5 -3.5 -38.5 -3.5 Z" /><glyph glyph-name="uni01B1" unicode="&#x1b1;" d="M325 -11 q-84 0 -140.5 35.5 q-56.5 35.5 -84.5 97 q-28 61.5 -28 138.5 q0 85 27.5 155.5 q27.5 70.5 74 125.5 q46.5 55 102.5 94 l-161 0 l17 79 l275 0 l-15 -70 q-64 -41 -115.5 -96.5 q-51.5 -55.5 -81 -127.5 q-29.5 -72 -29.5 -160 q0 -54 18 -97.5 q18 -43.5 55 -69 q37 -25.5 94 -25.5 q56 0 99.5 25.5 q43.5 25.5 73 70.5 q29.5 45 44.5 102.5 q15 57.5 15 120.5 q0 91 -24.5 151 q-24.5 60 -67.5 106 l15 70 l267 0 l-17 -79 l-170 0 q35 -37 63 -97.5 q28 -60.5 28 -154.5 q0 -79 -22.5 -150 q-22.5 -71 -65.5 -126 q-43 -55 -105 -86.5 q-62 -31.5 -141 -31.5 Z" /><glyph glyph-name="uni01B2" unicode="&#x1b2;" d="M284 -10 q-105 0 -156.5 50.5 q-51.5 50.5 -51.5 144.5 q0 18 3 43.5 q3 25.5 10 54.5 l92 431 l88 0 l-93 -436 q-5 -24 -8 -49.5 q-3 -25.5 -3 -41.5 q0 -55 31.5 -86.5 q31.5 -31.5 94.5 -31.5 q82 0 122.5 46 q40.5 46 60.5 135 l65 303 q2 11 3.5 20.5 q1.5 9.5 1.5 17.5 q0 54 -49 54 q-31 0 -64 -18 l0 78 q18 8 41.5 13.5 q23.5 5.5 46.5 5.5 q47 0 81 -28 q34 -28 34 -89 q0 -11 -1 -23 q-1 -12 -4 -25 l-67 -316 q-16 -78 -49.5 -135 q-33.5 -57 -89 -87.5 q-55.5 -30.5 -139.5 -30.5 Z" /><glyph glyph-name="uni01B3" unicode="&#x1b3;" d="M163 0 l57 268 l-68 346 q-3 19 -13 27 q-10 8 -24 8 q-16 0 -32 -7 l1 71 q10 5 24 8.5 q14 3.5 33 3.5 q35 0 58.5 -17.5 q23.5 -17.5 31.5 -64.5 l52 -281 l219 352 l101 0 l-295 -449 l-56 -265 l-89 0 Z" /><glyph glyph-name="uni01B4" unicode="&#x1b4;" d="M-24 -240 q-23 0 -37.5 3 q-14.5 3 -28.5 7 l1 71 q13 -4 28 -6.5 q15 -2.5 32 -2.5 q39 0 66 25 q27 25 53 73 l33 62 l-72 544 l88 0 l30 -265 q3 -33 5.5 -71 q2.5 -38 3.5 -72.5 q1 -34.5 1 -55.5 l3 0 q6 16 19 48 q13 32 28 66 q15 34 26 56 l105 207 q28 56 52 76.5 q24 20.5 61 20.5 q15 0 28 -3.5 q13 -3.5 23 -8.5 l-13 -65 q-5 1 -11.5 3 q-6.5 2 -12.5 2 q-16 0 -26.5 -13 q-10.5 -13 -25.5 -41 l-265 -510 q-39 -75 -83 -112.5 q-44 -37.5 -111 -37.5 Z" /><glyph glyph-name="uni01B5" unicode="&#x1b5;" d="M-11 0 l14 70 l198 266 l-118 0 l16 71 l159 0 l169 227 l-295 0 l17 80 l404 0 l-14 -71 l-178 -236 l110 0 l-16 -71 l-151 0 l-189 -256 l315 0 l-17 -80 l-424 0 Z" /><glyph glyph-name="uni01B6" unicode="&#x1b6;" d="M-15 0 l12 60 l142 183 l-89 0 l15 70 l130 0 l119 157 l-216 0 l15 66 l312 0 l-15 -71 l-118 -152 l89 0 l-16 -70 l-130 0 l-136 -177 l239 0 l-13 -66 l-340 0 Z" /><glyph glyph-name="uni01B8" unicode="&#x1b8;" d="M249 -10 q-111 0 -163.5 51.5 q-52.5 51.5 -52.5 132.5 q0 61 22.5 103.5 q22.5 42.5 60.5 69 q38 26.5 86.5 40 q48.5 13.5 100.5 15.5 l-162 241 l16 71 l391 0 l-17 -80 l-293 0 l160 -237 l-13 -64 l-34 0 q-59 0 -110.5 -13 q-51.5 -13 -83 -47.5 q-31.5 -34.5 -31.5 -97.5 q0 -55 36 -83 q36 -28 103 -28 q44 0 91.5 14 q47.5 14 93.5 36 l-1 -83 q-44 -22 -93 -31.5 q-49 -9.5 -107 -9.5 Z" /><glyph glyph-name="uni01B9" unicode="&#x1b9;" d="M171 -240 q-67 0 -112.5 26.5 q-45.5 26.5 -69 72 q-23.5 45.5 -23.5 102.5 q0 88 37.5 145.5 q37.5 57.5 100 87.5 q62.5 30 136.5 34 l-149 244 l14 64 l357 0 l-16 -74 l-263 0 l150 -243 l-14 -61 l-52 0 q-59 0 -107.5 -20.5 q-48.5 -20.5 -77 -63 q-28.5 -42.5 -28.5 -107.5 q0 -64 36 -99 q36 -35 92 -35 q51 0 88.5 12.5 q37.5 12.5 70.5 28.5 l-1 -77 q-32 -17 -74 -27 q-42 -10 -95 -10 Z" /><glyph glyph-name="uni01BA" unicode="&#x1ba;" d="M104 -240 q-76 0 -118 31 q-42 31 -42 83 q0 40 17.5 67.5 q17.5 27.5 58.5 45 q41 17.5 112 29.5 q77 13 121.5 39.5 q44.5 26.5 44.5 91.5 q0 37 -19 56.5 q-19 19.5 -51 27 q-32 7.5 -73 7.5 l-49 0 l12 61 l187 163 l-230 0 l15 74 l348 0 l-13 -64 l-199 -169 q69 -6 114.5 -45.5 q45.5 -39.5 45.5 -112.5 q0 -63 -26.5 -103.5 q-26.5 -40.5 -84 -65 q-57.5 -24.5 -150.5 -39.5 q-57 -9 -78.5 -22 q-21.5 -13 -21.5 -37 q0 -20 20.5 -32.5 q20.5 -12.5 62.5 -12.5 q45 0 82.5 10.5 q37.5 10.5 66.5 23.5 l-1 -76 q-28 -13 -67 -22 q-39 -9 -85 -9 Z" /><glyph glyph-name="uni01BB" unicode="&#x1bb;" d="M-16 0 l16 75 l251 274 l-164 0 l16 70 l210 0 q43 52 62 95 q19 43 19 92 q0 38 -21.5 61 q-21.5 23 -58.5 23 q-41 0 -75.5 -18 q-34.5 -18 -69.5 -44 l-42 60 q40 33 87 55 q47 22 105 22 q80 0 123.5 -43.5 q43.5 -43.5 43.5 -104.5 q0 -52 -19 -101.5 q-19 -49.5 -60 -96.5 l91 0 l-16 -70 l-128 0 l-240 -265 l0 -4 l308 0 l-16 -80 l-422 0 Z" /><glyph glyph-name="uni01BC" unicode="&#x1bc;" d="M180 -10 q-47 0 -93.5 8.5 q-46.5 8.5 -80.5 30.5 l1 82 q36 -22 81.5 -34.5 q45.5 -12.5 89.5 -12.5 q88 0 138 46 q50 46 50 131 q0 65 -36 95.5 q-36 30.5 -98 30.5 l-96 0 l59 267 l-75 0 l18 80 l392 0 l-18 -80 l-232 0 l-43 -193 l17 0 q101 0 152.5 -52.5 q51.5 -52.5 51.5 -138.5 q0 -120 -72 -190 q-72 -70 -206 -70 Z" /><glyph glyph-name="uni01BD" unicode="&#x1bd;" d="M155 -10 q-104 0 -155 35 l1 79 q26 -16 65 -29 q39 -13 86 -13 q36 0 70.5 12 q34.5 12 56.5 40 q22 28 22 76 q0 42 -35.5 62.5 q-35.5 20.5 -95.5 20.5 l-66 0 l41 189 l-61 0 l16 74 l334 0 l-15 -74 l-193 0 l-26 -117 l16 0 q61 0 98 -22 q37 -22 54 -56.5 q17 -34.5 17 -72.5 q0 -90 -58 -147 q-58 -57 -172 -57 Z" /><glyph glyph-name="uni01BE" unicode="&#x1be;" d="M146 -10 q-43 0 -83 9 q-40 9 -63 26 l1 79 q24 -16 61 -29.5 q37 -13.5 78 -13.5 q69 0 98 27.5 q29 27.5 29 61.5 q0 23 -15 42.5 q-15 19.5 -54 44.5 q-26 17 -43.5 37.5 q-17.5 20.5 -17.5 56.5 q0 20 6 47 l19 91 l-80 0 l8 40 l86 38 l61 111 l52 0 l-27 -122 l129 0 l-15 -67 l-126 0 l-20 -93 q-4 -17 -4 -31 q0 -17 7.5 -28 q7.5 -11 22.5 -20 q45 -28 70 -58.5 q25 -30.5 25 -79.5 q0 -79 -55.5 -124 q-55.5 -45 -149.5 -45 Z" /><glyph glyph-name="uni01BF" unicode="&#x1bf;" d="M-24 -240 l164 776 l72 0 l-13 -101 l4 0 q25 44 65.5 77 q40.5 33 98.5 33 q70 0 104.5 -46.5 q34.5 -46.5 34.5 -122.5 q0 -73 -30 -138.5 q-30 -65.5 -83.5 -118 q-53.5 -52.5 -125 -86.5 q-71.5 -34 -155.5 -43 l-49 -230 l-87 0 ZM194 123 q7 -23 31 -18 q24 5 56 30 q32 25 62.5 63 q30.5 38 51 82.5 q20.5 44.5 20.5 86.5 q0 45 -17.5 75 q-17.5 30 -61.5 30 q-40 0 -74.5 -32.5 q-34.5 -32.5 -60 -86 q-25.5 -53.5 -38.5 -116.5 l31 -114 Z" /><glyph glyph-name="uni01C0" unicode="&#x1c0;" d="M53 0 l162 760 l76 0 l-162 -760 l-76 0 Z" /><glyph glyph-name="uni01C2" unicode="&#x1c2;" d="M149 0 l57 267 l-146 0 l16 72 l146 0 l20 94 l-146 0 l15 72 l146 0 l54 255 l76 0 l-54 -255 l147 0 l-15 -72 l-147 0 l-20 -94 l147 0 l-16 -72 l-147 0 l-57 -267 l-76 0 Z" /><glyph glyph-name="uni01E4" unicode="&#x1e4;" d="M324 -10 q-120 0 -187 70 q-67 70 -67 195 q0 98 26.5 183.5 q26.5 85.5 76 149.5 q49.5 64 118 100 q68.5 36 152.5 36 q61 0 107.5 -11 q46.5 -11 88.5 -31 l-35 -78 q-35 16 -75 28.5 q-40 12.5 -88 12.5 q-79 0 -142 -49.5 q-63 -49.5 -99 -135.5 q-36 -86 -36 -198 q0 -54 18.5 -98 q18.5 -44 56 -69.5 q37.5 -25.5 96.5 -25.5 q35 0 64.5 5.5 q29.5 5.5 49.5 12.5 l15 69 l-126 0 l15 71 l126 0 l16 71 l-133 0 l18 78 l221 0 l-33 -149 l60 0 l-16 -71 l-60 0 l-28 -129 q-43 -16 -90.5 -26.5 q-47.5 -10.5 -109.5 -10.5 Z" /><glyph glyph-name="uni01E5" unicode="&#x1e5;" d="M175 -240 q-47 0 -86.5 9.5 q-39.5 9.5 -67.5 24.5 l1 81 q26 -16 68 -29 q42 -13 82 -13 q46 0 74 11.5 q28 11.5 45 38.5 l-134 0 l15 71 l148 0 l11 47 q4 16 11.5 48 q7.5 32 15.5 60 l-4 0 q-33 -44 -74 -76.5 q-41 -32.5 -94 -32.5 q-61 0 -99 43 q-38 43 -38 132 q0 73 17.5 139.5 q17.5 66.5 50 118.5 q32.5 52 79 82.5 q46.5 30.5 104.5 30.5 q52 0 82.5 -28 q30.5 -28 46.5 -65 l3 0 l32 83 l67 0 l-125 -582 l62 0 l-14 -71 l-72 0 q-32 -65 -83.5 -94 q-51.5 -29 -123.5 -29 ZM217 73 q32 0 64 24 q32 24 58.5 65 q26.5 41 42.5 93.5 q16 52.5 16 110.5 q0 47 -21 76.5 q-21 29.5 -70 29.5 q-37 0 -68 -25 q-31 -25 -53.5 -68 q-22.5 -43 -34.5 -96 q-12 -53 -12 -109 q0 -53 20.5 -77 q20.5 -24 57.5 -24 Z" /><glyph glyph-name="uni01F6" unicode="&#x1f6;" d="M571 -10 q-74 0 -112.5 38 q-38.5 38 -38.5 104 q0 12 2.5 28 q2.5 16 4.5 29 l30 144 l-260 0 l-70 -333 l-89 0 l151 714 l89 0 l-64 -302 l260 0 l64 302 l88 0 l-110 -519 q-6 -29 -6 -50 q0 -40 16.5 -58 q16.5 -18 50.5 -18 q43 0 67 34 q24 34 40 112 l68 321 l89 0 l-69 -327 q-16 -79 -40.5 -127.5 q-24.5 -48.5 -63 -70 q-38.5 -21.5 -97.5 -21.5 Z" /><glyph glyph-name="uni01F7" unicode="&#x1f7;" d="M-14 -240 l203 955 l72 0 l-14 -106 l5 0 q18 32 42 58.5 q24 26.5 59 42 q35 15.5 87 15.5 q48 0 86 -24 q38 -24 59.5 -67.5 q21.5 -43.5 21.5 -100.5 q0 -133 -60.5 -235 q-60.5 -102 -170 -178 q-109.5 -76 -255.5 -130 l-49 -230 l-86 0 ZM141 77 q110 44 194 108 q84 64 131.5 148 q47.5 84 47.5 188 q0 62 -28.5 94 q-28.5 32 -78.5 32 q-75 0 -125 -67.5 q-50 -67.5 -75 -186.5 l-66 -316 Z" /><glyph glyph-name="uni021C" unicode="&#x21c;" d="M-62 -180 l18 86 q83 21 157.5 47.5 q74.5 26.5 132 61 q57.5 34.5 90.5 80.5 q33 46 33 107 q0 48 -23.5 76.5 q-23.5 28.5 -62.5 50.5 q-29 -11 -59 -19 q-30 -8 -61 -16 l-3 72 q51 15 97 30 q46 15 82 35 q36 20 56.5 49.5 q20.5 29.5 20.5 73.5 q0 45 -24 70 q-24 25 -67 25 q-51 0 -94.5 -15.5 q-43.5 -15.5 -87.5 -44.5 l-31 64 q58 39 115 54.5 q57 15.5 115 15.5 q46 0 83.5 -17.5 q37.5 -17.5 60.5 -52 q23 -34.5 23 -86.5 q0 -72 -38 -122 q-38 -50 -103 -81 q37 -20 65.5 -59.5 q28.5 -39.5 28.5 -102.5 q0 -82 -43.5 -143.5 q-43.5 -61.5 -117.5 -106 q-74 -44.5 -168 -76.5 q-94 -32 -195 -56 Z" /><glyph glyph-name="uni021D" unicode="&#x21d;" d="M-88 -240 l17 79 q67 14 130 34.5 q63 20.5 113 49.5 q50 29 79.5 69 q29.5 40 29.5 93 q0 39 -16.5 62 q-16.5 23 -45.5 39 q-25 -9 -54 -16 q-29 -7 -60 -14 l0 66 q83 22 131.5 45 q48.5 23 69.5 53 q21 30 21 69 q0 43 -23.5 64.5 q-23.5 21.5 -66.5 21.5 q-34 0 -64.5 -10.5 q-30.5 -10.5 -61.5 -29.5 l-25 64 q40 25 80 36 q40 11 79 11 q46 0 85.5 -16.5 q39.5 -16.5 63.5 -50 q24 -33.5 24 -84.5 q0 -56 -34 -101 q-34 -45 -89 -75 q34 -18 55 -48 q21 -30 21 -84 q0 -75 -38.5 -129 q-38.5 -54 -104 -92 q-65.5 -38 -147.5 -63.5 q-82 -25.5 -169 -42.5 Z" /><glyph glyph-name="uni0220" unicode="&#x220;" d="M394 -240 l149 701 q4 19 6.5 37 q2.5 18 2.5 35 q0 54 -25.5 84 q-25.5 30 -83.5 30 q-60 0 -108 -37.5 q-48 -37.5 -81 -99.5 q-33 -62 -48 -133 l-79 -377 l-89 0 l151 714 l74 0 l-16 -117 l4 0 q34 58 88.5 93 q54.5 35 124.5 35 q85 0 131.5 -45.5 q46.5 -45.5 46.5 -136.5 q0 -19 -3 -39 q-3 -20 -7 -43 l-148 -701 l-90 0 Z" /><glyph glyph-name="uni0221" unicode="&#x221;" d="M460 -105 l-62 12 q6 27 15.5 60 q9.5 33 18.5 56 q-48 31 -49 112 l-3 0 q-21 -41 -53.5 -74 q-32.5 -33 -70.5 -52 q-38 -19 -73 -19 q-60 0 -98 45 q-38 45 -38 135 q0 74 17.5 141 q17.5 67 50.5 120 q33 53 80 83.5 q47 30.5 105 30.5 q51 0 81 -27.5 q30 -27.5 46 -64.5 l4 0 q5 34 10 65 q5 31 12 67 l38 175 l86 0 l-117 -554 q-4 -22 -7.5 -44.5 q-3.5 -22.5 -3.5 -37.5 q0 -14 2.5 -24 q2.5 -10 6.5 -17 q16 29 36.5 56.5 q20.5 27.5 51 44.5 q30.5 17 74.5 17 q53 0 79 -28 q26 -28 26 -70 q0 -62 -42.5 -87.5 q-42.5 -25.5 -112.5 -25.5 q-26 0 -47 3 q-21 3 -34 7 q-7 -19 -15.5 -49.5 q-8.5 -30.5 -13.5 -55.5 ZM215 63 q32 0 64 24.5 q32 24.5 59 67 q27 42.5 43.5 97 q16.5 54.5 16.5 114.5 q0 47 -21.5 76.5 q-21.5 29.5 -70.5 29.5 q-37 0 -68 -26 q-31 -26 -53.5 -69.5 q-22.5 -43.5 -35 -97.5 q-12.5 -54 -12.5 -110 q0 -106 78 -106 ZM577 48 q47 0 65.5 15.5 q18.5 15.5 18.5 39.5 q0 19 -12.5 31 q-12.5 12 -37.5 12 q-35 0 -60 -25 q-25 -25 -41 -65 q26 -8 67 -8 Z" /><glyph glyph-name="uni0222" unicode="&#x222;" d="M261 -10 q-63 0 -112.5 24.5 q-49.5 24.5 -77.5 71 q-28 46.5 -28 112.5 q0 65 24 113.5 q24 48.5 65.5 80.5 q41.5 32 92.5 47 q-31 21 -50 53 q-19 32 -19 81 q0 13 2 26 q2 13 5 27 l18 88 l89 0 l-18 -88 q-6 -27 -6 -51 q0 -52 28 -78.5 q28 -26.5 81 -26.5 q71 0 113.5 44 q42.5 44 56.5 112 l18 88 l89 0 l-19 -94 q-14 -70 -49.5 -118.5 q-35.5 -48.5 -97.5 -70.5 q42 -23 71 -67.5 q29 -44.5 29 -106.5 q0 -88 -38.5 -147.5 q-38.5 -59.5 -107 -89.5 q-68.5 -30 -159.5 -30 ZM270 68 q92 0 146.5 52 q54.5 52 54.5 139 q0 61 -36 97.5 q-36 36.5 -99 36.5 q-56 0 -101 -24 q-45 -24 -71.5 -67.5 q-26.5 -43.5 -26.5 -103.5 q0 -57 33.5 -93.5 q33.5 -36.5 99.5 -36.5 Z" /><glyph glyph-name="uni0223" unicode="&#x223;" d="M239 -10 q-91 0 -145.5 52 q-54.5 52 -54.5 144 q0 96 42.5 169 q42.5 73 126.5 98 q-28 19 -42 48 q-14 29 -14 72 q0 27 7 58 l26 129 l89 0 l-27 -126 q-4 -19 -6 -34.5 q-2 -15.5 -2 -29.5 q0 -44 23.5 -64.5 q23.5 -20.5 67.5 -20.5 q56 0 87 34.5 q31 34.5 47 114.5 l26 126 l89 0 l-27 -129 q-17 -82 -49 -125.5 q-32 -43.5 -84 -60.5 q38 -20 61 -59.5 q23 -39.5 23 -98.5 q0 -57 -15.5 -110 q-15.5 -53 -48 -95 q-32.5 -42 -82 -67 q-49.5 -25 -118.5 -25 ZM247 63 q54 0 90.5 31 q36.5 31 54.5 82 q18 51 18 112 q0 58 -29 91 q-29 33 -82 33 q-56 0 -93.5 -29.5 q-37.5 -29.5 -56 -79 q-18.5 -49.5 -18.5 -110.5 q0 -59 30 -94.5 q30 -35.5 86 -35.5 Z" /><glyph glyph-name="uni0224" unicode="&#x224;" d="M276 -198 q-16 0 -30.5 3 q-14.5 3 -22.5 8 l1 73 q10 -4 21.5 -6.5 q11.5 -2.5 22.5 -2.5 q22 0 34.5 12.5 q12.5 12.5 19.5 44.5 l14 66 l-347 0 l14 70 l424 564 l-295 0 l17 80 l404 0 l-14 -71 l-424 -563 l316 0 l-35 -164 q-14 -66 -45.5 -90 q-31.5 -24 -74.5 -24 Z" /><glyph glyph-name="uni0234" unicode="&#x234;" d="M9 -29 l-57 22 q22 48 49.5 87.5 q27.5 39.5 55.5 67.5 q3 13 5.5 25 q2.5 12 5.5 25 l120 562 l87 0 l-114 -538 q21 8 47 8 q52 0 78 -33 q26 -33 26 -76 q0 -61 -40 -96 q-40 -35 -103 -35 q-41 0 -69 17.5 q-28 17.5 -41 47.5 q-13 -16 -26 -38 q-13 -22 -24 -46 ZM180 58 q22 0 39 15 q17 15 17 44 q0 21 -13 33 q-13 12 -30 12 q-18 0 -33 -8.5 q-15 -8.5 -26 -22.5 q0 -31 10 -52 q10 -21 36 -21 Z" /><glyph glyph-name="uni0235" unicode="&#x235;" d="M320 -29 l-56 22 q22 48 49 87.5 q27 39.5 53 67.5 q2 13 4.5 25 q2.5 12 5.5 25 l30 140 q4 21 7 37.5 q3 16.5 3 30.5 q0 30 -16 48 q-16 18 -50 18 q-32 0 -68.5 -23.5 q-36.5 -23.5 -69 -76.5 q-32.5 -53 -50.5 -141 l-48 -231 l-88 0 l114 536 l71 0 l-11 -99 l5 0 q19 25 43 50 q24 25 56 42 q32 17 72 17 q58 0 93 -33 q35 -33 35 -97 q0 -32 -4.5 -55 q-4.5 -23 -8.5 -40 l-22 -99 q22 8 48 8 q52 0 78 -33 q26 -33 26 -76 q0 -61 -40 -96 q-40 -35 -104 -35 q-40 0 -67.5 17.5 q-27.5 17.5 -40.5 47.5 q-13 -16 -25.5 -38 q-12.5 -22 -23.5 -46 ZM488 58 q23 0 39.5 15 q16.5 15 16.5 44 q0 21 -13 33 q-13 12 -29 12 q-19 0 -33.5 -8.5 q-14.5 -8.5 -25.5 -22.5 q0 -31 9.5 -52 q9.5 -21 35.5 -21 Z" /><glyph glyph-name="uni0236" unicode="&#x236;" d="M13 -29 l-56 22 q23 48 49.5 87.5 q26.5 39.5 52.5 67.5 q1 12 4.5 25 q3.5 13 5.5 26 l56 270 l-78 0 l9 40 l86 38 l60 111 l53 0 l-27 -122 l129 0 l-15 -67 l-128 0 l-52 -247 q22 8 48 8 q52 0 78 -33 q26 -33 26 -76 q0 -61 -40 -96 q-40 -35 -103 -35 q-40 0 -68 17.5 q-28 17.5 -40 47.5 q-13 -16 -26 -38 q-13 -22 -24 -46 ZM181 58 q23 0 39.5 15 q16.5 15 16.5 44 q0 21 -12.5 33 q-12.5 12 -29.5 12 q-19 0 -33 -8.5 q-14 -8.5 -25 -22.5 q-1 -31 8.5 -52 q9.5 -21 35.5 -21 Z" /><glyph glyph-name="uni0238" unicode="&#x238;" d="M195 -10 q-69 0 -108.5 45 q-39.5 45 -39.5 135 q0 74 17.5 141 q17.5 67 50.5 120 q33 53 80 83.5 q47 30.5 105 30.5 q50 0 80.5 -27.5 q30.5 -27.5 46.5 -64.5 l4 0 q5 34 10 65 q5 31 12 67 l37 175 l88 0 l-38 -180 q-8 -34 -16 -67 q-8 -33 -14 -54 q-6 -21 -7 -23 l4 0 q35 44 74.5 76.5 q39.5 32.5 92.5 32.5 q62 0 100 -45.5 q38 -45.5 38 -133.5 q0 -73 -17.5 -140.5 q-17.5 -67.5 -51 -120.5 q-33.5 -53 -82 -84 q-48.5 -31 -110.5 -31 q-65 0 -104 32.5 q-39 32.5 -49 92.5 q-20 -30 -45 -59 q-25 -29 -62.5 -47.5 q-37.5 -18.5 -95.5 -18.5 ZM215 63 q45 0 79 24.5 q34 24.5 57 67 q23 42.5 35 96 q12 53.5 12 110.5 q0 47 -23.5 79 q-23.5 32 -68.5 32 q-38 0 -68.5 -26 q-30.5 -26 -53.5 -69.5 q-23 -43.5 -35 -97.5 q-12 -54 -12 -110 q0 -106 78 -106 ZM553 63 q38 0 69 26 q31 26 53.5 69.5 q22.5 43.5 34.5 97.5 q12 54 12 110 q0 106 -78 106 q-32 0 -64.5 -24 q-32.5 -24 -59.5 -65.5 q-27 -41.5 -43.5 -95.5 q-16.5 -54 -16.5 -113 q0 -51 25 -81 q25 -30 68 -30 Z" /><glyph glyph-name="uni023A" unicode="&#x23a;" d="M-54 0 l375 714 l96 0 l7 -70 l61 116 l66 0 l-116 -221 l57 -539 l-88 0 l-22 222 l-113 0 l-155 -297 l-67 0 l156 297 l-49 0 l-111 -222 l-97 0 ZM197 302 l48 0 l111 213 q-1 27 -2.5 53.5 q-1.5 26.5 -1.5 48.5 l-3 0 q-16 -38 -35.5 -81.5 q-19.5 -43.5 -41.5 -87.5 l-75 -146 ZM374 302 l-9 103 l-54 -103 l63 0 Z" /><glyph glyph-name="uni023B" unicode="&#x23b;" d="M87 -75 l63 120 q-80 71 -80 214 q0 65 14.5 130.5 q14.5 65.5 44 125.5 q29.5 60 74 107 q44.5 47 104 74.5 q59.5 27.5 134.5 27.5 q34 0 63 -4 l21 40 l66 0 l-29 -55 q24 -8 47 -21 l-37 -74 q-11 6 -23 11.5 q-12 5.5 -25 10.5 l-283 -541 q36 -22 85 -22 q39 0 76.5 8 q37.5 8 74.5 21 l-1 -78 q-37 -14 -75.5 -22 q-38.5 -8 -91.5 -8 q-61 0 -109 22 l-46 -87 l-67 0 ZM164 262 q0 -78 33 -128 l267 510 q-12 1 -24 1 q-70 0 -122 -34 q-52 -34 -86.5 -90 q-34.5 -56 -51 -123.5 q-16.5 -67.5 -16.5 -135.5 Z" /><glyph glyph-name="uni023C" unicode="&#x23c;" d="M7 -145 l95 181 q-26 25 -40.5 62.5 q-14.5 37.5 -14.5 88.5 q0 72 18.5 136.5 q18.5 64.5 54 115 q35.5 50.5 85.5 79 q50 28.5 112 28.5 q25 0 50 -4 l78 148 l66 0 l-85 -162 q10 -4 19 -8 l-25 -73 q-7 3 -14.5 6 q-7.5 3 -15.5 6 l-200 -383 q23 -13 55 -13 q34 0 64 9.5 q30 9.5 59 23.5 l0 -74 q-27 -14 -60.5 -23 q-33.5 -9 -73.5 -9 q-46 0 -82 14 l-78 -149 l-67 0 ZM137 189 q0 -37 11 -65 l182 348 q-6 0 -12 0 q-54 0 -95 -39 q-41 -39 -63.5 -103.5 q-22.5 -64.5 -22.5 -140.5 Z" /><glyph glyph-name="uni023D" unicode="&#x23d;" d="M37 0 l70 332 l-75 0 l16 71 l75 0 l66 311 l88 0 l-66 -311 l146 0 l-16 -71 l-146 0 l-52 -252 l259 0 l-18 -80 l-347 0 Z" /><glyph glyph-name="uni023E" unicode="&#x23e;" d="M-51 -33 l268 388 l59 280 l-184 0 l18 79 l356 0 l61 88 l72 0 l-61 -88 l30 0 l-16 -79 l-68 0 l-168 -243 l-83 -392 l-90 0 l43 204 l-164 -237 l-73 0 ZM367 635 l-19 -92 l63 92 l-44 0 Z" /><glyph glyph-name="uni023F" unicode="&#x23f;" d="M221 -240 q-67 0 -97 37.5 q-30 37.5 -35 119.5 q-2 36 -12.5 53 q-10.5 17 -33.5 33 q-10 7 -19 10.5 q-9 3.5 -19 10.5 l1 81 q25 -16 62.5 -29.5 q37.5 -13.5 77.5 -13.5 q55 0 84 23.5 q29 23.5 29 61.5 q0 29 -17.5 48 q-17.5 19 -65.5 48 q-53 32 -80.5 65.5 q-27.5 33.5 -27.5 83.5 q0 69 48 111.5 q48 42.5 129 42.5 q46 0 85.5 -11.5 q39.5 -11.5 68.5 -25.5 l-28 -70 q-25 12 -56 22.5 q-31 10.5 -71 10.5 q-40 0 -64 -20.5 q-24 -20.5 -24 -53.5 q0 -26 17 -45 q17 -19 66 -48 q48 -29 79 -61 q31 -32 31 -87 q0 -79 -53.5 -123 q-53.5 -44 -150.5 -44 q11 -12 15.5 -32 q4.5 -20 6.5 -41 q5 -45 19.5 -64.5 q14.5 -19.5 44.5 -19.5 q16 0 31 4 q15 4 28 9 l0 -72 q-11 -5 -29.5 -9.5 q-18.5 -4.5 -39.5 -4.5 Z" /><glyph glyph-name="uni0240" unicode="&#x240;" d="M238 -240 q-71 0 -100 39.5 q-29 39.5 -36 117.5 q-4 43 -21.5 63 q-17.5 20 -60.5 20 l-35 0 l12 60 l317 410 l-216 0 l15 66 l312 0 l-15 -71 l-314 -401 q42 -14 61 -48 q19 -34 27 -99 q5 -44 19.5 -64 q14.5 -20 48.5 -20 q16 0 30 4.5 q14 4.5 28 9.5 l-1 -73 q-11 -5 -30 -9.5 q-19 -4.5 -41 -4.5 Z" /><glyph glyph-name="uni0241" unicode="&#x241;" d="M64 0 l68 322 q38 14 77.5 31.5 q39.5 17.5 73.5 42.5 q34 25 55 59 q21 34 21 81 q0 49 -26.5 79 q-26.5 30 -73.5 30 q-35 0 -73 -13.5 q-38 -13.5 -71 -35.5 l-31 72 q40 26 86.5 41 q46.5 15 100.5 15 q87 0 134.5 -51 q47.5 -51 47.5 -133 q0 -72 -33 -123 q-33 -51 -87.5 -87 q-54.5 -36 -121.5 -59 l-57 -271 l-90 0 Z" /><glyph glyph-name="uni0242" unicode="&#x242;" d="M60 0 l30 144 q38 14 75.5 32 q37.5 18 68.5 43.5 q31 25.5 50 59.5 q19 34 19 79 q0 49 -27.5 80.5 q-27.5 31.5 -70.5 31.5 q-37 0 -68.5 -9.5 q-31.5 -9.5 -64.5 -34.5 l-33 69 q41 28 82 39.5 q41 11.5 94 11.5 q83 0 130.5 -50 q47.5 -50 47.5 -132 q0 -104 -61.5 -170 q-61.5 -66 -166.5 -101 l-18 -93 l-87 0 Z" /><glyph glyph-name="uni0243" unicode="&#x243;" d="M38 0 l36 171 l-71 0 l16 78 l72 0 l98 465 l178 0 q93 0 146.5 -38.5 q53.5 -38.5 53.5 -123.5 q0 -74 -42 -120 q-42 -46 -112 -60 l0 -5 q46 -13 76.5 -48.5 q30.5 -35.5 30.5 -94.5 q0 -74 -34 -123.5 q-34 -49.5 -93.5 -75 q-59.5 -25.5 -135.5 -25.5 l-219 0 ZM214 410 l108 0 q63 0 107.5 31.5 q44.5 31.5 44.5 98.5 q0 47 -27.5 72 q-27.5 25 -91.5 25 l-94 0 l-47 -227 ZM144 76 l117 0 q79 0 122.5 39 q43.5 39 43.5 109 q0 47 -28.5 79.5 q-28.5 32.5 -96.5 32.5 l-104 0 l-19 -87 l129 0 l-17 -78 l-128 0 l-19 -95 Z" /><glyph glyph-name="uni0244" unicode="&#x244;" d="M284 -10 q-105 0 -156.5 50.5 q-51.5 50.5 -51.5 144.5 q0 18 2.5 43.5 q2.5 25.5 9.5 54.5 l15 71 l-70 0 l17 78 l70 0 l60 282 l89 0 l-60 -282 l303 0 l61 282 l89 0 l-60 -282 l73 0 l-17 -78 l-73 0 l-23 -111 q-16 -78 -50 -135 q-34 -57 -89.5 -87.5 q-55.5 -30.5 -138.5 -30.5 ZM290 69 q82 0 123 46 q41 46 61 135 l22 104 l-304 0 l-16 -76 q-5 -24 -8 -49.5 q-3 -25.5 -3 -41.5 q0 -55 31.5 -86.5 q31.5 -31.5 93.5 -31.5 Z" /><glyph glyph-name="uni0246" unicode="&#x246;" d="M38 0 l151 714 l246 0 l20 46 l70 0 l-20 -46 l31 0 l-18 -79 l-47 0 l-96 -223 l80 0 l-16 -78 l-98 0 l-110 -255 l171 0 l-17 -79 l-189 0 l-32 -75 l-71 0 l33 75 l-88 0 ZM214 412 l90 0 l97 223 l-141 0 l-46 -223 ZM144 79 l16 0 l110 255 l-73 0 l-53 -255 Z" /><glyph glyph-name="uni0247" unicode="&#x247;" d="M-42 -208 l132 261 q-43 52 -43 136 q0 64 18 127 q18 63 52 115 q34 52 82.5 83.5 q48.5 31.5 108.5 31.5 q8 0 16 -0.5 q8 -0.5 16 -1.5 l110 216 l68 0 l-118 -235 q54 -33 54 -102 q0 -66 -48 -116 q-48 -50 -152 -67 l-77 -154 q26 -23 71 -23 q36 0 69 10.5 q33 10.5 71 30.5 l-1 -75 q-37 -17 -72 -28 q-35 -11 -84 -11 q-28 0 -50.5 6 q-22.5 6 -42.5 16 l-111 -220 l-69 0 ZM151 303 l8 0 q31 0 61 3 l84 167 q-52 0 -93 -47.5 q-41 -47.5 -60 -122.5 ZM297 324 q33 13 53 35 q20 22 20 56 q0 20 -10 34 l-63 -125 ZM139 149 l43 83 l-44 0 q-1 -10 -1.5 -20 q-0.5 -10 -0.5 -20 q0 -24 3 -43 Z" /><glyph glyph-name="uni0248" unicode="&#x248;" d="M-77 -190 q-47 0 -73 12 l3 77 q15 -5 32 -7.5 q17 -2.5 36 -2.5 q43 0 75 27.5 q32 27.5 45 92.5 l64 305 l-72 0 l17 78 l73 0 l68 322 l89 0 l-68 -322 l72 0 l-18 -78 l-72 0 l-66 -315 q-21 -101 -74 -145 q-53 -44 -131 -44 Z" /><glyph glyph-name="uni0249" unicode="&#x249;" d="M210 625 q-20 0 -33 12 q-13 12 -13 34 q0 26 15 45.5 q15 19.5 44 19.5 q22 0 33 -12 q11 -12 11 -32 q0 -32 -17.5 -49.5 q-17.5 -17.5 -39.5 -17.5 ZM-62 -240 q-35 0 -60 10 l1 74 q11 -4 25 -7.5 q14 -3.5 30 -3.5 q57 0 78 98 l66 317 l-65 0 l15 71 l66 0 l46 217 l87 0 l-46 -217 l66 0 l-15 -71 l-67 0 l-68 -325 q-16 -75 -51.5 -119 q-35.5 -44 -107.5 -44 Z" /><glyph glyph-name="uni024A" unicode="&#x24a;" d="M551 -240 q-48 0 -80.5 25.5 q-32.5 25.5 -32.5 83.5 q0 21 6 48 l21 103 q4 18 8.5 36.5 q4.5 18.5 9.5 35.5 l-4 0 q-31 -41 -77 -71.5 q-46 -30.5 -112 -30.5 q-108 0 -164 75.5 q-56 75.5 -56 200.5 q0 90 23.5 172 q23.5 82 68.5 147 q45 65 108.5 102.5 q63.5 37.5 144.5 37.5 q65 0 107 -32 q42 -32 67 -79 l4 0 l35 100 l74 0 l-167 -793 q-6 -23 -6 -39 q0 -23 12.5 -33 q12.5 -10 30.5 -10 q12 0 22.5 2.5 q10.5 2.5 19.5 7.5 l-1 -76 q-10 -6 -28.5 -9.5 q-18.5 -3.5 -33.5 -3.5 ZM308 68 q58 0 101.5 28.5 q43.5 28.5 72 77 q28.5 48.5 41.5 108.5 l25 120 q5 28 8.5 54 q3.5 26 3.5 39 q0 71 -40.5 111 q-40.5 40 -109.5 40 q-58 0 -104 -32 q-46 -32 -77.5 -86.5 q-31.5 -54.5 -48 -121.5 q-16.5 -67 -16.5 -137 q0 -95 38.5 -148 q38.5 -53 105.5 -53 Z" /></font>
</defs>
</svg>
