<?xml version="1.0" standalone="no"?><!DOCTYPE svg PUBLIC "-//W3C//DTD SVG 1.1//EN" "http://www.w3.org/Graphics/SVG/1.1/DTD/svg11.dtd" ><svg xmlns="http://www.w3.org/2000/svg"><metadata></metadata><defs><font id="2.000;GOOG;NotoSansDisplay-Medium" horiz-adv-x="2840"><font-face font-family="Noto Sans Disp Med" font-weight="500" font-stretch="normal" units-per-em="1000" panose-1="2 11 6 2 4 5 4 2 2 4" ascent="1068" descent="-292" x-height="4" bbox="-625 -389 2743 1071" underline-thickness="50" underline-position="-100" unicode-range="U+0000-fffd" /><missing-glyph horiz-adv-x="561" d="M87 0 l0 714 l386 0 l0 -714 l-386 0 ZM135 51 l290 0 l0 612 l-290 0 l0 -612 Z" /><glyph glyph-name="NULL" unicode="" d="" /><glyph glyph-name="CR" unicode="" d="" /><glyph glyph-name="space" unicode=" " d="" /><glyph glyph-name="exclam" unicode="!" d="M174 212 l-88 0 l-19 502 l127 0 l-20 -502 ZM61 59 q0 39 20 55 q20 16 49 16 q27 0 47.5 -16 q20.5 -16 20.5 -55 q0 -39 -20.5 -56 q-20.5 -17 -47.5 -17 q-29 0 -49 17 q-20 17 -20 56 Z" /><glyph glyph-name="quotedbl" unicode="&quot;" d="M168 714 l-19 -258 l-70 0 l-19 258 l108 0 ZM351 714 l-19 -258 l-70 0 l-18 258 l107 0 Z" /><glyph glyph-name="numbersign" unicode="#" d="M456 429 l-25 -146 l124 0 l0 -77 l-139 0 l-37 -206 l-81 0 l37 206 l-117 0 l-36 -206 l-81 0 l35 206 l-114 0 l0 77 l129 0 l26 146 l-121 0 l0 77 l135 0 l37 208 l82 0 l-36 -208 l117 0 l37 208 l80 0 l-37 -208 l116 0 l0 -77 l-131 0 ZM233 283 l117 0 l25 146 l-117 0 l-25 -146 Z" /><glyph glyph-name="dollar" unicode="$" d="M236 -58 l0 104 q-113 3 -184 36 l0 98 q35 -17 86 -30.5 q51 -13.5 98 -14.5 l0 187 q-95 32 -140.5 73.5 q-45.5 41.5 -45.5 113.5 q0 74 50.5 117 q50.5 43 135.5 49 l0 84 l65 0 l0 -83 q51 -2 94 -12 q43 -10 80 -27 l-32 -86 q-31 13 -68 23 q-37 10 -74 13 l0 -184 q61 -19 103.5 -41.5 q42.5 -22.5 65.5 -55 q23 -32.5 23 -85.5 q0 -71 -48.5 -116 q-48.5 -45 -143.5 -55 l0 -108 l-65 0 ZM236 426 l0 159 q-42 -4 -63 -23 q-21 -19 -21 -48 q0 -34 18.5 -53.5 q18.5 -19.5 65.5 -34.5 ZM301 139 q46 6 67.5 25.5 q21.5 19.5 21.5 50.5 q0 32 -19.5 50 q-19.5 18 -69.5 34 l0 -160 Z" /><glyph glyph-name="percent" unicode="%" d="M185 724 q73 0 111.5 -58.5 q38.5 -58.5 38.5 -164.5 q0 -106 -36.5 -165.5 q-36.5 -59.5 -113.5 -59.5 q-71 0 -108.5 59.5 q-37.5 59.5 -37.5 165.5 q0 106 35.5 164.5 q35.5 58.5 110.5 58.5 ZM636 714 l-372 -714 l-90 0 l372 714 l90 0 ZM185 650 q-31 0 -44.5 -37.5 q-13.5 -37.5 -13.5 -111.5 q0 -75 13.5 -113 q13.5 -38 44.5 -38 q61 0 61 151 q0 149 -61 149 ZM622 438 q72 0 111 -58.5 q39 -58.5 39 -164.5 q0 -106 -37 -165.5 q-37 -59.5 -113 -59.5 q-70 0 -108 59.5 q-38 59.5 -38 165.5 q0 106 35.5 164.5 q35.5 58.5 110.5 58.5 ZM623 364 q-31 0 -44.5 -37 q-13.5 -37 -13.5 -112 q0 -75 13.5 -112.5 q13.5 -37.5 44.5 -37.5 q61 0 61 150 q0 149 -61 149 Z" /><glyph glyph-name="ampersand" unicode="&amp;" d="M290 725 q80 0 127.5 -40.5 q47.5 -40.5 47.5 -114.5 q0 -64 -38 -109 q-38 -45 -95 -81 l158 -171 q22 31 36.5 71 q14.5 40 24.5 85 l111 0 q-14 -62 -39 -119.5 q-25 -57.5 -62 -103.5 l139 -142 l-142 0 l-70 75 q-43 -38 -94.5 -61.5 q-51.5 -23.5 -126.5 -23.5 q-103 0 -162.5 52.5 q-59.5 52.5 -59.5 145.5 q0 76 36.5 122.5 q36.5 46.5 100.5 85.5 q-31 38 -53 78 q-22 40 -22 92 q0 74 49 116.5 q49 42.5 134 42.5 ZM288 640 q-33 0 -55.5 -19 q-22.5 -19 -22.5 -57 q0 -33 16 -61.5 q16 -28.5 44 -61.5 q47 31 69 59 q22 28 22 66 q0 34 -20.5 54 q-20.5 20 -52.5 20 ZM245 331 q-41 -29 -64 -59.5 q-23 -30.5 -23 -77.5 q0 -51 32 -81.5 q32 -30.5 84 -30.5 q49 0 85.5 17 q36.5 17 61.5 42 l-176 190 Z" /><glyph glyph-name="quotesingle" unicode="&#39;" d="M168 714 l-19 -258 l-70 0 l-19 258 l108 0 Z" /><glyph glyph-name="parenleft" unicode="(" d="M37 274 q0 122 33 235.5 q33 113.5 104 204.5 l96 0 q-64 -94 -97 -207 q-33 -113 -33 -232 q0 -116 32.5 -228 q32.5 -112 96.5 -205 l-95 0 q-71 88 -104 199.5 q-33 111.5 -33 232.5 Z" /><glyph glyph-name="parenright" unicode=")" d="M260 274 q0 -121 -32.5 -232.5 q-32.5 -111.5 -103.5 -199.5 l-95 0 q64 93 96.5 205 q32.5 112 32.5 228 q0 119 -33 232 q-33 113 -97 207 l96 0 q71 -91 103.5 -204.5 q32.5 -113.5 32.5 -235.5 Z" /><glyph glyph-name="asterisk" unicode="*" d="M308 760 l-18 -188 l176 53 l14 -101 l-166 -15 l108 -154 l-91 -50 l-76 168 l-68 -168 l-95 50 l106 154 l-164 15 l16 101 l173 -53 l-19 188 l104 0 Z" /><glyph glyph-name="plus" unicode="+" d="M309 393 l183 0 l0 -81 l-183 0 l0 -201 l-83 0 l0 201 l-183 0 l0 81 l183 0 l0 202 l83 0 l0 -202 Z" /><glyph glyph-name="comma" unicode="," d="M188 116 l7 -11 q-13 -53 -36 -116.5 q-23 -63.5 -45 -117.5 l-79 0 q13 58 26.5 125.5 q13.5 67.5 20.5 119.5 l106 0 Z" /><glyph glyph-name="hyphen" unicode="-" d="M33 223 l0 90 l236 0 l0 -90 l-236 0 Z" /><glyph glyph-name="period" unicode="." d="M61 59 q0 39 19.5 55 q19.5 16 48.5 16 q28 0 48.5 -16 q20.5 -16 20.5 -55 q0 -39 -20.5 -56 q-20.5 -17 -48.5 -17 q-29 0 -48.5 17 q-19.5 17 -19.5 56 Z" /><glyph glyph-name="slash" unicode="/" d="M360 714 l-250 -714 l-102 0 l250 714 l102 0 Z" /><glyph glyph-name="zero" unicode="0" d="M497 358 q0 -116 -22.5 -198 q-22.5 -82 -72.5 -126 q-50 -44 -133 -44 q-117 0 -172.5 97.5 q-55.5 97.5 -55.5 270.5 q0 116 22.5 198 q22.5 82 72.5 125.5 q50 43.5 133 43.5 q116 0 172 -96.5 q56 -96.5 56 -270.5 ZM150 358 q0 -140 26.5 -209.5 q26.5 -69.5 92.5 -69.5 q65 0 92 69 q27 69 27 210 q0 139 -27 208.5 q-27 69.5 -92 69.5 q-66 0 -92.5 -69.5 q-26.5 -69.5 -26.5 -208.5 Z" /><glyph glyph-name="one" unicode="1" d="M359 0 l-108 0 l0 474 q0 38 0.5 68.5 q0.5 30.5 2.5 59.5 q-12 -14 -25 -26.5 q-13 -12.5 -29 -26.5 l-72 -63 l-57 68 l195 160 l93 0 l0 -714 Z" /><glyph glyph-name="two" unicode="2" d="M497 0 l-456 0 l0 82 l173 187 q50 55 83 95.5 q33 40.5 49.5 78 q16.5 37.5 16.5 81.5 q0 54 -28.5 82 q-28.5 28 -74.5 28 q-44 0 -80.5 -18 q-36.5 -18 -75.5 -52 l-59 71 q41 36 93.5 62.5 q52.5 26.5 126.5 26.5 q96 0 152 -52 q56 -52 56 -139 q0 -57 -22 -105 q-22 -48 -61.5 -96.5 q-39.5 -48.5 -92.5 -105.5 l-118 -127 l0 -5 l318 0 l0 -94 Z" /><glyph glyph-name="three" unicode="3" d="M471 549 q0 -73 -39.5 -116 q-39.5 -43 -102.5 -57 l0 -4 q81 -10 122 -54 q41 -44 41 -114 q0 -62 -28 -110.5 q-28 -48.5 -86.5 -76 q-58.5 -27.5 -149.5 -27.5 q-55 0 -100.5 9 q-45.5 9 -87.5 30 l0 96 q42 -23 90 -35 q48 -12 92 -12 q84 0 119.5 34.5 q35.5 34.5 35.5 96.5 q0 60 -43 88 q-43 28 -133 28 l-58 0 l0 87 l59 0 q84 0 122 34 q38 34 38 89 q0 48 -29 74.5 q-29 26.5 -81 26.5 q-52 0 -89.5 -17.5 q-37.5 -17.5 -68.5 -40.5 l-51 73 q37 30 90 51.5 q53 21.5 125 21.5 q104 0 158.5 -48.5 q54.5 -48.5 54.5 -126.5 Z" /><glyph glyph-name="four" unicode="4" d="M522 158 l-91 0 l0 -158 l-106 0 l0 158 l-307 0 l0 84 l306 475 l107 0 l0 -469 l91 0 l0 -90 ZM325 248 l0 194 q0 47 1.5 88.5 q1.5 41.5 3.5 69.5 l-4 0 q-9 -20 -19 -41 q-10 -21 -20 -37 l-168 -274 l206 0 Z" /><glyph glyph-name="five" unicode="5" d="M270 443 q98 0 159 -55 q61 -55 61 -157 q0 -113 -67 -177 q-67 -64 -191 -64 q-53 0 -99 10 q-46 10 -79 29 l0 97 q34 -21 83 -34 q49 -13 92 -13 q68 0 109 34.5 q41 34.5 41 107.5 q0 65 -37 99.5 q-37 34.5 -116 34.5 q-27 0 -58.5 -5 q-31.5 -5 -50.5 -10 l-48 29 l25 345 l349 0 l0 -94 l-255 0 l-14 -187 q16 3 39.5 6.5 q23.5 3.5 56.5 3.5 Z" /><glyph glyph-name="six" unicode="6" d="M45 304 q0 77 13 151.5 q13 74.5 47.5 135 q34.5 60.5 97.5 96.5 q63 36 162 36 q19 0 44 -1.5 q25 -1.5 42 -6.5 l0 -89 q-36 12 -84 12 q-83 0 -129.5 -36.5 q-46.5 -36.5 -66 -98 q-19.5 -61.5 -22.5 -135.5 l6 0 q20 35 56.5 59.5 q36.5 24.5 95.5 24.5 q88 0 140.5 -57.5 q52.5 -57.5 52.5 -162.5 q0 -112 -59.5 -177 q-59.5 -65 -160.5 -65 q-66 0 -119 34 q-53 34 -84.5 103.5 q-31.5 69.5 -31.5 176.5 ZM279 78 q51 0 82.5 37.5 q31.5 37.5 31.5 116.5 q0 63 -28 100 q-28 37 -84 37 q-39 0 -67.5 -18 q-28.5 -18 -44 -46 q-15.5 -28 -15.5 -57 q0 -40 14 -79.5 q14 -39.5 42 -65 q28 -25.5 69 -25.5 Z" /><glyph glyph-name="seven" unicode="7" d="M119 0 l264 620 l-346 0 l0 94 l462 0 l0 -76 l-263 -638 l-117 0 Z" /><glyph glyph-name="eight" unicode="8" d="M269 724 q60 0 106.5 -19.5 q46.5 -19.5 73.5 -58 q27 -38.5 27 -94.5 q0 -64 -36 -105 q-36 -41 -88 -69 q39 -21 72 -47.5 q33 -26.5 53.5 -62 q20.5 -35.5 20.5 -83.5 q0 -90 -61.5 -142.5 q-61.5 -52.5 -165.5 -52.5 q-113 0 -171.5 50.5 q-58.5 50.5 -58.5 141.5 q0 73 40 118.5 q40 45.5 95 72.5 q-48 30 -80.5 72.5 q-32.5 42.5 -32.5 107.5 q0 55 27 93.5 q27 38.5 73.5 58 q46.5 19.5 105.5 19.5 ZM268 641 q-44 0 -72.5 -24.5 q-28.5 -24.5 -28.5 -69.5 q0 -50 30.5 -77.5 q30.5 -27.5 73.5 -49.5 q41 20 70.5 49 q29.5 29 29.5 78 q0 45 -28.5 69.5 q-28.5 24.5 -74.5 24.5 ZM145 184 q0 -48 30.5 -80 q30.5 -32 93.5 -32 q61 0 93 31.5 q32 31.5 32 81.5 q0 49 -35 81.5 q-35 32.5 -87 56.5 l-13 6 q-54 -26 -84 -60.5 q-30 -34.5 -30 -84.5 Z" /><glyph glyph-name="nine" unicode="9" d="M496 409 q0 -79 -13.5 -153.5 q-13.5 -74.5 -48.5 -134.5 q-35 -60 -97.5 -95.5 q-62.5 -35.5 -160.5 -35.5 q-20 0 -45 2 q-25 2 -42 7 l0 89 q17 -6 38.5 -9 q21.5 -3 42.5 -3 q86 0 133 36 q47 36 66 97 q19 61 22 135 l-5 0 q-21 -34 -57 -58.5 q-36 -24.5 -98 -24.5 q-85 0 -137 57.5 q-52 57.5 -52 161.5 q0 113 59.5 178.5 q59.5 65.5 159.5 65.5 q67 0 120 -34.5 q53 -34.5 84 -104 q31 -69.5 31 -176.5 ZM263 636 q-51 0 -83 -38 q-32 -38 -32 -116 q0 -64 28 -100.5 q28 -36.5 83 -36.5 q39 0 68 18 q29 18 44.5 45.5 q15.5 27.5 15.5 57.5 q0 41 -14 80 q-14 39 -41.5 64.5 q-27.5 25.5 -68.5 25.5 Z" /><glyph glyph-name="colon" unicode=":" d="M61 479 q0 41 19.5 57 q19.5 16 48.5 16 q28 0 48.5 -16 q20.5 -16 20.5 -57 q0 -38 -20.5 -55 q-20.5 -17 -48.5 -17 q-29 0 -48.5 17 q-19.5 17 -19.5 55 ZM61 59 q0 39 19.5 55 q19.5 16 48.5 16 q28 0 48.5 -16 q20.5 -16 20.5 -55 q0 -39 -20.5 -56 q-20.5 -17 -48.5 -17 q-29 0 -48.5 17 q-19.5 17 -19.5 56 Z" /><glyph glyph-name="semicolon" unicode=";" d="M60 479 q0 41 20 57 q20 16 48 16 q28 0 48.5 -16 q20.5 -16 20.5 -57 q0 -38 -20.5 -55 q-20.5 -17 -48.5 -17 q-28 0 -48 17 q-20 17 -20 55 ZM182 116 l7 -11 q-13 -53 -36 -116.5 q-23 -63.5 -45 -117.5 l-79 0 q13 57 26 125 q13 68 21 120 l106 0 Z" /><glyph glyph-name="less" unicode="&lt;" d="M492 111 l-449 209 l0 56 l449 237 l0 -89 l-336 -172 l336 -152 l0 -89 Z" /><glyph glyph-name="equal" unicode="=" d="M48 410 l0 81 l440 0 l0 -81 l-440 0 ZM48 213 l0 82 l440 0 l0 -82 l-440 0 Z" /><glyph glyph-name="greater" unicode="&gt;" d="M43 200 l336 152 l-336 172 l0 89 l449 -237 l0 -56 l-449 -209 l0 89 Z" /><glyph glyph-name="question" unicode="?" d="M132 212 l0 29 q0 55 17 90.5 q17 35.5 64 75.5 q33 29 52 49.5 q19 20.5 27 41 q8 20.5 8 47.5 q0 43 -26.5 66 q-26.5 23 -73.5 23 q-44 0 -80.5 -12.5 q-36.5 -12.5 -72.5 -30.5 l-39 80 q41 23 90.5 38 q49.5 15 109.5 15 q93 0 144 -48 q51 -48 51 -128 q0 -44 -13 -74.5 q-13 -30.5 -37.5 -57 q-24.5 -26.5 -59.5 -56.5 q-30 -26 -45.5 -45 q-15.5 -19 -21.5 -38 q-6 -19 -6 -45 l0 -20 l-88 0 ZM111 59 q0 39 20 55 q20 16 49 16 q27 0 47.5 -16 q20.5 -16 20.5 -55 q0 -39 -20.5 -56 q-20.5 -17 -47.5 -17 q-29 0 -49 17 q-20 17 -20 56 Z" /><glyph glyph-name="at" unicode="@" d="M794 357 q0 -46 -10.5 -90 q-10.5 -44 -31 -80 q-20.5 -36 -51.5 -57.5 q-31 -21.5 -73 -21.5 q-40 0 -66 23.5 q-26 23.5 -34 56.5 l-6 0 q-18 -34 -50 -57 q-32 -23 -79 -23 q-77 0 -117.5 51.5 q-40.5 51.5 -40.5 136.5 q0 66 25 117 q25 51 72 80 q47 29 112 29 q43 0 84.5 -7.5 q41.5 -7.5 66.5 -17.5 l-9 -203 q-1 -16 -1.5 -24.5 q-0.5 -8.5 -0.5 -11.5 q0 -49 14.5 -64.5 q14.5 -15.5 33.5 -15.5 q26 0 44.5 24.5 q18.5 24.5 27.5 65 q9 40.5 9 90.5 q0 90 -33.5 153 q-33.5 63 -92.5 96 q-59 33 -135 33 q-104 0 -175 -46 q-71 -46 -107.5 -126 q-36.5 -80 -36.5 -184 q0 -144 71 -221 q71 -77 205 -77 q55 0 111 13.5 q56 13.5 100 30.5 l0 -76 q-43 -19 -95.5 -30.5 q-52.5 -11.5 -113.5 -11.5 q-113 0 -194 44 q-81 44 -124 126.5 q-43 82.5 -43 198.5 q0 93 28 171.5 q28 78.5 80 137.5 q52 59 126 91.5 q74 32.5 167 32.5 q100 0 177.5 -43 q77.5 -43 121.5 -123 q44 -80 44 -191 ZM323 294 q0 -62 22 -89 q22 -27 60 -27 q49 0 70.5 40 q21.5 40 25.5 105 l6 120 q-12 4 -28 6.5 q-16 2.5 -33 2.5 q-45 0 -72 -23 q-27 -23 -39 -59 q-12 -36 -12 -76 Z" /><glyph glyph-name="A" unicode="a" d="M505 0 l-67 206 l-255 0 l-67 -206 l-116 0 l251 717 l120 0 l250 -717 l-116 0 ZM409 300 l-66 201 q-3 12 -9.5 33.5 q-6.5 21.5 -13 44.5 q-6.5 23 -10.5 40 q-7 -34 -15.5 -65.5 q-8.5 -31.5 -14.5 -52.5 l-66 -201 l195 0 Z" /><glyph glyph-name="B" unicode="b" d="M87 714 l202 0 q130 0 195 -40 q65 -40 65 -138 q0 -62 -31.5 -104 q-31.5 -42 -87.5 -53 l0 -5 q38 -8 69.5 -26.5 q31.5 -18.5 50.5 -53 q19 -34.5 19 -90.5 q0 -98 -64 -151 q-64 -53 -175 -53 l-243 0 l0 714 ZM198 416 l105 0 q76 0 104 27 q28 27 28 80 q0 53 -34.5 76.5 q-34.5 23.5 -107.5 23.5 l-95 0 l0 -207 ZM198 328 l0 -238 l116 0 q78 0 109 34 q31 34 31 90 q0 51 -32 82.5 q-32 31.5 -113 31.5 l-111 0 Z" /><glyph glyph-name="C" unicode="c" d="M376 631 q-96 0 -151 -73.5 q-55 -73.5 -55 -201.5 q0 -127 51 -200 q51 -73 155 -73 q44 0 84 8.5 q40 8.5 81 22.5 l0 -93 q-40 -16 -81.5 -23.5 q-41.5 -7.5 -96.5 -7.5 q-104 0 -172.5 45.5 q-68.5 45.5 -102 128 q-33.5 82.5 -33.5 193.5 q0 108 37 190.5 q37 82.5 109 129.5 q72 47 176 47 q50 0 100 -11.5 q50 -11.5 90 -32.5 l-39 -90 q-33 16 -71 28.5 q-38 12.5 -81 12.5 Z" /><glyph glyph-name="D" unicode="d" d="M634 364 q0 -181 -94 -272.5 q-94 -91.5 -261 -91.5 l-192 0 l0 714 l212 0 q155 0 245 -89 q90 -89 90 -261 ZM518 361 q0 135 -58.5 198.5 q-58.5 63.5 -167.5 63.5 l-94 0 l0 -532 l77 0 q243 0 243 270 Z" /><glyph glyph-name="E" unicode="e" d="M468 0 l-381 0 l0 714 l381 0 l0 -92 l-270 0 l0 -204 l253 0 l0 -91 l-253 0 l0 -234 l270 0 l0 -93 Z" /><glyph glyph-name="F" unicode="f" d="M197 0 l-110 0 l0 714 l381 0 l0 -92 l-271 0 l0 -233 l253 0 l0 -92 l-253 0 l0 -297 Z" /><glyph glyph-name="G" unicode="g" d="M368 384 l247 0 l0 -356 q-53 -19 -111 -28.5 q-58 -9.5 -129 -9.5 q-153 0 -236.5 97 q-83.5 97 -83.5 270 q0 112 41 194.5 q41 82.5 119 127.5 q78 45 189 45 q57 0 108.5 -12 q51.5 -12 94.5 -31 l-39 -90 q-34 17 -77 28.5 q-43 11.5 -89 11.5 q-111 0 -171.5 -74 q-60.5 -74 -60.5 -201 q0 -80 23 -142 q23 -62 72 -97 q49 -35 127 -35 q38 0 65.5 4.5 q27.5 4.5 49.5 10.5 l0 194 l-139 0 l0 93 Z" /><glyph glyph-name="H" unicode="h" d="M617 0 l-111 0 l0 326 l-308 0 l0 -326 l-111 0 l0 714 l111 0 l0 -296 l308 0 l0 296 l111 0 l0 -714 Z" /><glyph glyph-name="I" unicode="i" d="M306 0 l-271 0 l0 62 l80 25 l0 539 l-80 26 l0 62 l271 0 l0 -62 l-80 -26 l0 -539 l80 -25 l0 -62 Z" /><glyph glyph-name="J" unicode="j" d="M4 -196 q-26 0 -45 3.5 q-19 3.5 -32 9.5 l0 90 q15 -4 32 -7 q17 -3 36 -3 q25 0 45 10 q20 10 32 35.5 q12 25.5 12 73.5 l0 698 l111 0 l0 -693 q0 -113 -52.5 -165 q-52.5 -52 -138.5 -52 Z" /><glyph glyph-name="K" unicode="k" d="M600 0 l-128 0 l-209 329 l-65 -58 l0 -271 l-111 0 l0 714 l111 0 l0 -345 q22 30 46.5 60.5 q24.5 30.5 48.5 60.5 l175 224 l126 0 l-252 -312 l258 -402 Z" /><glyph glyph-name="L" unicode="l" d="M87 0 l0 714 l111 0 l0 -621 l284 0 l0 -93 l-395 0 Z" /><glyph glyph-name="M" unicode="m" d="M380 0 l-196 607 l-4 0 q2 -21 4 -54.5 q2 -33.5 3 -73 q1 -39.5 1 -76.5 l0 -403 l-101 0 l0 714 l156 0 l187 -573 l4 0 l191 573 l156 0 l0 -714 l-106 0 l0 409 q0 35 1 72 q1 37 2.5 70 q1.5 33 3.5 55 l-4 0 l-201 -606 l-97 0 Z" /><glyph glyph-name="N" unicode="n" d="M648 0 l-136 0 l-329 577 l-4 0 q2 -40 5 -91.5 q3 -51.5 4 -105.5 l0 -380 l-101 0 l0 714 l135 0 l328 -574 l4 0 q-1 21 -2.5 53 q-1.5 32 -3 68.5 q-1.5 36.5 -1.5 68.5 l0 384 l101 0 l0 -714 Z" /><glyph glyph-name="O" unicode="o" d="M684 358 q0 -111 -35 -193.5 q-35 -82.5 -105 -128.5 q-70 -46 -174 -46 q-107 0 -177 46 q-70 46 -104 129 q-34 83 -34 194 q0 110 34 192.5 q34 82.5 104.5 128 q70.5 45.5 177.5 45.5 q104 0 173.5 -45.5 q69.5 -45.5 104.5 -128 q35 -82.5 35 -193.5 ZM172 358 q0 -128 47.5 -202 q47.5 -74 150.5 -74 q104 0 150.5 74 q46.5 74 46.5 202 q0 128 -46.5 201 q-46.5 73 -149.5 73 q-103 0 -151 -73 q-48 -73 -48 -201 Z" /><glyph glyph-name="P" unicode="p" d="M280 714 q131 0 191.5 -56.5 q60.5 -56.5 60.5 -157.5 q0 -60 -24.5 -112 q-24.5 -52 -82 -84.5 q-57.5 -32.5 -157.5 -32.5 l-70 0 l0 -271 l-111 0 l0 714 l193 0 ZM274 623 l-76 0 l0 -261 l59 0 q79 0 120.5 30.5 q41.5 30.5 41.5 103.5 q0 64 -35 95.5 q-35 31.5 -110 31.5 Z" /><glyph glyph-name="Q" unicode="q" d="M684 358 q0 -128 -45.5 -219 q-45.5 -91 -136.5 -127 l161 -182 l-149 0 l-126 161 q-4 0 -9 -0.5 q-5 -0.5 -9 -0.5 q-107 0 -177 46 q-70 46 -104 129 q-34 83 -34 194 q0 110 34 192.5 q34 82.5 104.5 128 q70.5 45.5 177.5 45.5 q104 0 173.5 -45.5 q69.5 -45.5 104.5 -128 q35 -82.5 35 -193.5 ZM172 358 q0 -128 47.5 -202 q47.5 -74 150.5 -74 q104 0 150.5 74 q46.5 74 46.5 202 q0 128 -46.5 201 q-46.5 73 -149.5 73 q-103 0 -151 -73 q-48 -73 -48 -201 Z" /><glyph glyph-name="R" unicode="r" d="M280 714 q129 0 191 -51 q62 -51 62 -155 q0 -55 -18.5 -92.5 q-18.5 -37.5 -48 -61.5 q-29.5 -24 -63.5 -37 l189 -317 l-126 0 l-159 289 l-109 0 l0 -289 l-111 0 l0 714 l193 0 ZM274 622 l-76 0 l0 -243 l79 0 q73 0 108 31.5 q35 31.5 35 93.5 q0 64 -35.5 91 q-35.5 27 -110.5 27 Z" /><glyph glyph-name="S" unicode="s" d="M479 193 q0 -95 -64.5 -149 q-64.5 -54 -179.5 -54 q-115 0 -189 37 l0 102 q40 -18 91 -32.5 q51 -14.5 103 -14.5 q65 0 97.5 28 q32.5 28 32.5 75 q0 33 -14.5 55.5 q-14.5 22.5 -47 42 q-32.5 19.5 -86.5 40.5 q-51 21 -88.5 48 q-37.5 27 -58.5 67 q-21 40 -21 98 q0 88 61.5 138 q61.5 50 161.5 50 q55 0 103 -12 q48 -12 89 -31 l-35 -89 q-38 17 -79 28 q-41 11 -81 11 q-55 0 -82.5 -26 q-27.5 -26 -27.5 -68 q0 -33 14 -55 q14 -22 45 -40.5 q31 -18.5 82 -40.5 q56 -24 95 -50.5 q39 -26.5 59 -64 q20 -37.5 20 -93.5 Z" /><glyph glyph-name="T" unicode="t" d="M321 0 l-110 0 l0 621 l-198 0 l0 93 l505 0 l0 -93 l-197 0 l0 -621 Z" /><glyph glyph-name="U" unicode="u" d="M614 714 l0 -462 q0 -74 -29.5 -133.5 q-29.5 -59.5 -89 -94 q-59.5 -34.5 -150.5 -34.5 q-130 0 -197 72.5 q-67 72.5 -67 191.5 l0 460 l111 0 l0 -455 q0 -177 157 -177 q82 0 118 48 q36 48 36 130 l0 454 l111 0 Z" /><glyph glyph-name="V" unicode="v" d="M587 714 l-235 -714 l-118 0 l-234 714 l117 0 l137 -448 q11 -36 22.5 -79 q11.5 -43 16.5 -78 q6 35 17 78 q11 43 22 80 l137 447 l118 0 Z" /><glyph glyph-name="W" unicode="w" d="M886 714 l-175 -714 l-120 0 l-113 441 q-6 24 -13 54 q-7 30 -12 56.5 q-5 26.5 -7 37.5 q-2 -11 -6.5 -37 q-4.5 -26 -11 -57 q-6.5 -31 -13.5 -57 l-111 -438 l-120 0 l-175 714 l112 0 l96 -422 q10 -43 18.5 -90.5 q8.5 -47.5 13.5 -84.5 q5 38 15 87 q10 49 20 89 l107 421 l109 0 l111 -424 q11 -40 20.5 -89 q9.5 -49 14.5 -84 q4 37 13.5 84 q9.5 47 19.5 91 l95 422 l112 0 Z" /><glyph glyph-name="X" unicode="x" d="M582 0 l-126 0 l-166 298 l-169 -298 l-119 0 l223 371 l-209 343 l123 0 l154 -273 l154 273 l119 0 l-209 -344 l225 -370 Z" /><glyph glyph-name="Y" unicode="y" d="M278 380 l159 334 l119 0 l-222 -437 l0 -277 l-111 0 l0 273 l-223 441 l120 0 l158 -334 Z" /><glyph glyph-name="Z" unicode="z" d="M513 0 l-481 0 l0 77 l338 544 l-328 0 l0 93 l462 0 l0 -77 l-338 -544 l347 0 l0 -93 Z" /><glyph glyph-name="bracketleft" unicode="[" d="M285 -158 l-215 0 l0 872 l215 0 l0 -81 l-117 0 l0 -710 l117 0 l0 -81 Z" /><glyph glyph-name="backslash" unicode="\" d="M109 714 l251 -714 l-102 0 l-250 714 l101 0 Z" /><glyph glyph-name="bracketright" unicode="]" d="M24 -77 l117 0 l0 710 l-117 0 l0 81 l215 0 l0 -872 l-215 0 l0 81 Z" /><glyph glyph-name="asciicircum" unicode="^" d="M27 263 l200 456 l55 0 l223 -456 l-90 0 l-159 346 l-140 -346 l-89 0 Z" /><glyph glyph-name="underscore" unicode="_" d="M421 -155 l-423 0 l0 65 l423 0 l0 -65 Z" /><glyph glyph-name="grave" unicode="`" d="M165 766 q11 -22 29 -49.5 q18 -27.5 36 -54 q18 -26.5 33 -44.5 l0 -12 l-73 0 q-22 18 -52 46.5 q-30 28.5 -57 57 q-27 28.5 -41 46.5 l0 10 l125 0 Z" /><glyph glyph-name="a" unicode="a" d="M280 549 q95 0 143.5 -44.5 q48.5 -44.5 48.5 -139.5 l0 -365 l-77 0 l-21 75 l-4 0 q-33 -44 -69.5 -64.5 q-36.5 -20.5 -100.5 -20.5 q-68 0 -113.5 39.5 q-45.5 39.5 -45.5 123.5 q0 163 237 172 l86 3 l0 30 q0 59 -24.5 83.5 q-24.5 24.5 -68.5 24.5 q-37 0 -73.5 -12 q-36.5 -12 -69.5 -29 l-33 77 q37 20 84.5 33.5 q47.5 13.5 100.5 13.5 ZM364 259 l-65 -2 q-83 -4 -114.5 -31 q-31.5 -27 -31.5 -74 q0 -42 22.5 -61 q22.5 -19 58.5 -19 q55 0 92.5 35 q37.5 35 37.5 105 l0 47 Z" /><glyph glyph-name="b" unicode="b" d="M184 760 l0 -183 q0 -32 -2 -62.5 q-2 -30.5 -3 -46.5 l5 0 q21 34 57.5 57 q36.5 23 93.5 23 q91 0 146.5 -70 q55.5 -70 55.5 -208 q0 -139 -56 -209.5 q-56 -70.5 -147 -70.5 q-58 0 -93.5 22.5 q-35.5 22.5 -56.5 53.5 l-8 0 l-19 -66 l-81 0 l0 760 l108 0 ZM308 462 q-69 0 -96.5 -45.5 q-27.5 -45.5 -27.5 -139.5 l0 -8 q0 -93 26.5 -142.5 q26.5 -49.5 99.5 -49.5 q57 0 86.5 50 q29.5 50 29.5 144 q0 191 -118 191 Z" /><glyph glyph-name="c" unicode="c" d="M285 -10 q-107 0 -172 66.5 q-65 66.5 -65 209.5 q0 100 31.5 162 q31.5 62 87 91.5 q55.5 29.5 126.5 29.5 q42 0 80.5 -9 q38.5 -9 63.5 -22 l-33 -85 q-26 11 -54.5 18.5 q-28.5 7.5 -55.5 7.5 q-134 0 -134 -192 q0 -92 33.5 -140 q33.5 -48 97.5 -48 q41 0 73 10 q32 10 61 26 l0 -92 q-28 -17 -61 -25 q-33 -8 -79 -8 Z" /><glyph glyph-name="d" unicode="d" d="M249 -10 q-90 0 -145.5 70 q-55.5 70 -55.5 208 q0 139 56 210 q56 71 147 71 q57 0 93 -23 q36 -23 58 -56 l6 0 q-2 14 -4.5 41 q-2.5 27 -2.5 47 l0 202 l108 0 l0 -760 l-85 0 l-19 72 l-4 0 q-22 -34 -58 -58 q-36 -24 -94 -24 ZM278 77 q70 0 98.5 43 q28.5 43 28.5 131 l0 16 q0 95 -27.5 145 q-27.5 50 -100.5 50 q-59 0 -88.5 -52 q-29.5 -52 -29.5 -144 q0 -91 30 -140 q30 -49 89 -49 Z" /><glyph glyph-name="e" unicode="e" d="M280 549 q100 0 159 -65.5 q59 -65.5 59 -178.5 l0 -58 l-339 0 q2 -83 40 -127 q38 -44 107 -44 q49 0 87.5 9.5 q38.5 9.5 78.5 28.5 l0 -88 q-38 -19 -77.5 -27.5 q-39.5 -8.5 -95.5 -8.5 q-74 0 -130.5 31 q-56.5 31 -88.5 92 q-32 61 -32 152 q0 136 64 210 q64 74 168 74 ZM281 467 q-53 0 -83.5 -37 q-30.5 -37 -35.5 -105 l229 0 q-1 63 -27.5 102.5 q-26.5 39.5 -82.5 39.5 Z" /><glyph glyph-name="f" unicode="f" d="M331 458 l-123 0 l0 -458 l-109 0 l0 458 l-83 0 l0 50 l83 33 l0 34 q0 103 44 146.5 q44 43.5 125 43.5 q34 0 62 -6 q28 -6 49 -13 l-27 -81 q-15 5 -34 9.5 q-19 4.5 -40 4.5 q-70 0 -70 -105 l0 -35 l123 0 l0 -81 Z" /><glyph glyph-name="g" unicode="g" d="M250 549 q101 0 154 -81 l4 0 l12 71 l89 0 l0 -546 q0 -115 -58.5 -174 q-58.5 -59 -180.5 -59 q-56 0 -102 8 q-46 8 -84 25 l0 93 q80 -42 189 -42 q61 0 95 37.5 q34 37.5 34 105.5 l0 18 q0 13 1 34 q1 21 2 32 l-4 0 q-25 -42 -63 -61.5 q-38 -19.5 -88 -19.5 q-94 0 -148 73.5 q-54 73.5 -54 204.5 q0 130 54 205.5 q54 75.5 148 75.5 ZM277 461 q-57 0 -87 -49.5 q-30 -49.5 -30 -144.5 q0 -94 30 -143 q30 -49 89 -49 q67 0 97 40.5 q30 40.5 30 132.5 l0 20 q0 104 -31 148.5 q-31 44.5 -98 44.5 Z" /><glyph glyph-name="h" unicode="h" d="M184 760 l0 -203 q0 -25 -2 -50 q-2 -25 -3 -41 l6 0 q25 41 65.5 61.5 q40.5 20.5 87.5 20.5 q88 0 136.5 -47 q48.5 -47 48.5 -150 l0 -351 l-109 0 l0 336 q0 126 -99 126 q-75 0 -103 -50 q-28 -50 -28 -141 l0 -271 l-108 0 l0 760 l108 0 Z" /><glyph glyph-name="i" unicode="i" d="M131 744 q25 0 43 -14 q18 -14 18 -47 q0 -32 -18 -46.5 q-18 -14.5 -43 -14.5 q-25 0 -43 14.5 q-18 14.5 -18 46.5 q0 33 18 47 q18 14 43 14 ZM185 539 l0 -539 l-109 0 l0 539 l109 0 Z" /><glyph glyph-name="j" unicode="j" d="M70 683 q0 33 18 47 q18 14 43 14 q25 0 43 -14 q18 -14 18 -47 q0 -32 -18 -46.5 q-18 -14.5 -43 -14.5 q-25 0 -43 14.5 q-18 14.5 -18 46.5 ZM27 -240 q-23 0 -44.5 3.5 q-21.5 3.5 -35.5 8.5 l0 85 q15 -5 29.5 -7.5 q14.5 -2.5 32.5 -2.5 q29 0 48 17.5 q19 17.5 19 66.5 l0 608 l109 0 l0 -613 q0 -75 -37 -120.5 q-37 -45.5 -121 -45.5 Z" /><glyph glyph-name="k" unicode="k" d="M184 760 l0 -380 q0 -20 -2 -48 q-2 -28 -4 -50 l4 0 q8 15 27 39.5 q19 24.5 33 40.5 l151 177 l124 0 l-201 -231 l214 -308 l-128 0 l-160 241 l-58 -52 l0 -189 l-108 0 l0 760 l108 0 Z" /><glyph glyph-name="l" unicode="l" d="M184 0 l-108 0 l0 760 l108 0 l0 -760 Z" /><glyph glyph-name="m" unicode="m" d="M651 549 q86 0 129.5 -47 q43.5 -47 43.5 -151 l0 -351 l-108 0 l0 337 q0 125 -92 125 q-65 0 -92.5 -44.5 q-27.5 -44.5 -27.5 -127.5 l0 -290 l-109 0 l0 337 q0 125 -91 125 q-68 0 -94 -49 q-26 -49 -26 -141 l0 -272 l-108 0 l0 539 l85 0 l16 -72 l5 0 q22 42 62.5 62 q40.5 20 87.5 20 q116 0 154 -87 l7 0 q24 44 66.5 65.5 q42.5 21.5 91.5 21.5 Z" /><glyph glyph-name="n" unicode="n" d="M340 549 q88 0 135.5 -47 q47.5 -47 47.5 -151 l0 -351 l-108 0 l0 336 q0 126 -100 126 q-75 0 -103 -49 q-28 -49 -28 -141 l0 -272 l-108 0 l0 539 l85 0 l15 -72 l6 0 q24 42 66.5 62 q42.5 20 91.5 20 Z" /><glyph glyph-name="o" unicode="o" d="M529 270 q0 -134 -65.5 -207 q-65.5 -73 -177.5 -73 q-69 0 -122.5 32.5 q-53.5 32.5 -84.5 95 q-31 62.5 -31 152.5 q0 134 64.5 206.5 q64.5 72.5 176.5 72.5 q70 0 124 -32.5 q54 -32.5 85 -94.5 q31 -62 31 -152 ZM160 270 q0 -91 30 -142 q30 -51 98 -51 q68 0 98.5 51 q30.5 51 30.5 142 q0 92 -31 141.5 q-31 49.5 -99 49.5 q-67 0 -97 -49.5 q-30 -49.5 -30 -141.5 Z" /><glyph glyph-name="p" unicode="p" d="M336 549 q92 0 146.5 -70 q54.5 -70 54.5 -209 q0 -137 -56.5 -208.5 q-56.5 -71.5 -146.5 -71.5 q-58 0 -93.5 22.5 q-35.5 22.5 -56.5 53.5 l-6 0 q2 -18 4 -42.5 q2 -24.5 2 -43.5 l0 -220 l-108 0 l0 779 l88 0 l15 -72 l5 0 q22 34 57.5 58 q35.5 24 94.5 24 ZM307 462 q-67 0 -95 -43 q-28 -43 -28 -132 l0 -16 q0 -94 26.5 -144 q26.5 -50 98.5 -50 q59 0 88 54 q29 54 29 141 q0 88 -29 139 q-29 51 -90 51 Z" /><glyph glyph-name="q" unicode="q" d="M401 -240 l0 229 q0 19 1 42 q1 23 4 41 l-6 0 q-21 -34 -57.5 -58 q-36.5 -24 -94.5 -24 q-89 0 -144.5 70 q-55.5 70 -55.5 208 q0 139 56 210 q56 71 147 71 q58 0 94.5 -23.5 q36.5 -23.5 58.5 -58.5 l4 0 l12 72 l89 0 l0 -779 l-108 0 ZM279 76 q69 0 97.5 42.5 q28.5 42.5 28.5 130.5 l0 18 q0 96 -27.5 145.5 q-27.5 49.5 -100.5 49.5 q-60 0 -88.5 -52 q-28.5 -52 -28.5 -144 q0 -91 29 -140.5 q29 -49.5 90 -49.5 Z" /><glyph glyph-name="r" unicode="r" d="M333 549 q13 0 29 -1.5 q16 -1.5 27 -3.5 l-11 -99 q-11 3 -25.5 5 q-14.5 2 -27.5 2 q-36 0 -68.5 -20 q-32.5 -20 -52.5 -57.5 q-20 -37.5 -20 -90.5 l0 -284 l-108 0 l0 539 l85 0 l14 -96 l6 0 q23 43 62 74.5 q39 31.5 90 31.5 Z" /><glyph glyph-name="s" unicode="s" d="M419 152 q0 -80 -53.5 -121 q-53.5 -41 -153.5 -41 q-54 0 -93 8 q-39 8 -72 25 l0 93 q35 -17 80 -30.5 q45 -13.5 86 -13.5 q53 0 77 19 q24 19 24 51 q0 18 -9.5 32.5 q-9.5 14.5 -35.5 30 q-26 15.5 -75 35.5 q-48 20 -81 41 q-33 21 -50 50 q-17 29 -17 73 q0 70 54 107.5 q54 37.5 142 37.5 q46 0 87.5 -10 q41.5 -10 80.5 -28 l-33 -81 q-35 15 -70 25.5 q-35 10.5 -69 10.5 q-87 0 -87 -57 q0 -19 10.5 -33.5 q10.5 -14.5 37 -28.5 q26.5 -14 73.5 -33 q47 -19 80 -39.5 q33 -20.5 50 -49.5 q17 -29 17 -73 Z" /><glyph glyph-name="t" unicode="t" d="M267 76 q43 0 76 13 l0 -80 q-17 -8 -44.5 -13.5 q-27.5 -5.5 -57.5 -5.5 q-43 0 -77.5 15 q-34.5 15 -55.5 52 q-21 37 -21 103 l0 298 l-69 0 l0 48 l75 40 l36 114 l67 0 l0 -121 l143 0 l0 -81 l-143 0 l0 -296 q0 -44 20 -65 q20 -21 51 -21 Z" /><glyph glyph-name="u" unicode="u" d="M519 539 l0 -539 l-85 0 l-15 71 l-6 0 q-25 -42 -67.5 -61.5 q-42.5 -19.5 -91.5 -19.5 q-87 0 -134.5 46.5 q-47.5 46.5 -47.5 149.5 l0 353 l109 0 l0 -337 q0 -125 99 -125 q74 0 102.5 48.5 q28.5 48.5 28.5 140.5 l0 273 l108 0 Z" /><glyph glyph-name="v" unicode="v" d="M193 0 l-193 539 l115 0 l101 -315 q10 -31 20 -69.5 q10 -38.5 13 -63.5 l4 0 q3 25 13 63.5 q10 38.5 21 69.5 l101 315 l116 0 l-194 -539 l-117 0 Z" /><glyph glyph-name="w" unicode="w" d="M494 1 l-76 298 q-10 39 -19 76.5 q-9 37.5 -13 62.5 l-4 0 q-3 -25 -11.5 -63 q-8.5 -38 -19.5 -78 l-80 -296 l-124 0 l-137 539 l109 0 l64 -284 q10 -42 18 -84 q8 -42 11 -71 l4 0 q3 17 8 43.5 q5 26.5 11 53 q6 26.5 11 45.5 l80 297 l119 0 l77 -297 q8 -30 17 -71.5 q9 -41.5 12 -69.5 l3 0 q3 26 11.5 68 q8.5 42 19.5 86 l66 284 l107 0 l-138 -539 l-126 0 Z" /><glyph glyph-name="x" unicode="x" d="M192 275 l-171 264 l123 0 l117 -194 l115 194 l124 0 l-172 -264 l180 -275 l-123 0 l-124 206 l-126 -206 l-122 0 l179 275 Z" /><glyph glyph-name="y" unicode="y" d="M1 539 l116 0 l103 -306 q24 -70 33 -131 l3 0 q5 26 14 61 q9 35 20 71 l98 305 l117 0 l-216 -612 q-28 -78 -74.5 -122.5 q-46.5 -44.5 -124.5 -44.5 q-22 0 -39.5 2.5 q-17.5 2.5 -30.5 5.5 l0 84 q10 -2 25 -4 q15 -2 31 -2 q44 0 69 26.5 q25 26.5 39 69.5 l20 58 l-203 539 Z" /><glyph glyph-name="z" unicode="z" d="M417 0 l-385 0 l0 67 l256 390 l-240 0 l0 82 l362 0 l0 -75 l-251 -382 l258 0 l0 -82 Z" /><glyph glyph-name="braceleft" unicode="{" d="M335 -158 q-102 1 -149 37.5 q-47 36.5 -47 114.5 l0 149 q0 50 -31 71 q-31 21 -84 21 l0 86 q54 1 84.5 21.5 q30.5 20.5 30.5 69.5 l0 150 q0 78 48 115 q48 37 148 37 l0 -83 q-43 -1 -69.5 -20.5 q-26.5 -19.5 -26.5 -66.5 l0 -144 q0 -100 -105 -118 l0 -6 q105 -20 105 -118 l0 -147 q0 -47 26.5 -66 q26.5 -19 69.5 -20 l0 -83 Z" /><glyph glyph-name="bar" unicode="|" d="M214 759 l83 0 l0 -996 l-83 0 l0 996 Z" /><glyph glyph-name="braceright" unicode="}" d="M32 -158 l0 83 q44 1 70.5 20.5 q26.5 19.5 26.5 66.5 l0 145 q0 100 104 118 l0 6 q-104 18 -104 118 l0 146 q0 47 -26.5 66 q-26.5 19 -70.5 20 l0 83 q102 -1 149 -37.5 q47 -36.5 47 -114.5 l0 -149 q0 -49 30.5 -70.5 q30.5 -21.5 84.5 -21.5 l0 -86 q-54 0 -84.5 -20.5 q-30.5 -20.5 -30.5 -70.5 l0 -150 q0 -78 -48.5 -115 q-48.5 -37 -147.5 -37 Z" /><glyph glyph-name="asciitilde" unicode="~" d="M252 314 q-34 16 -57.5 21.5 q-23.5 5.5 -44.5 5.5 q-26 0 -55 -17 q-29 -17 -52 -42 l0 88 q47 53 115 53 q27 0 54.5 -6 q27.5 -6 71.5 -26 q34 -16 57 -21.5 q23 -5.5 44 -5.5 q26 0 55.5 17 q29.5 17 51.5 42 l0 -87 q-46 -54 -115 -54 q-27 0 -54.5 6 q-27.5 6 -70.5 26 Z" /><glyph glyph-name="uni00A0" unicode=" " d="" /><glyph glyph-name="exclamdown" unicode="¡" d="M198 474 q0 -40 -20 -56 q-20 -16 -48 -16 q-28 0 -48.5 16 q-20.5 16 -20.5 56 q0 38 20.5 55 q20.5 17 48.5 17 q28 0 48 -17 q20 -17 20 -55 ZM86 320 l88 0 l19 -501 l-128 0 l21 501 Z" /><glyph glyph-name="cent" unicode="¢" d="M337 724 l0 -79 q37 -1 71 -10 q34 -9 60 -21 l-32 -86 q-28 11 -58 19.5 q-30 8.5 -57 8.5 q-132 0 -132 -193 q0 -97 33 -142 q33 -45 97 -45 q41 0 73 9 q32 9 64 23 l0 -91 q-27 -14 -55 -21.5 q-28 -7.5 -64 -9.5 l0 -96 l-72 0 l0 99 q-86 13 -136.5 76.5 q-50.5 63.5 -50.5 196.5 q0 92 23.5 150 q23.5 58 65.5 89 q42 31 98 40 l0 83 l72 0 Z" /><glyph glyph-name="sterling" unicode="£" d="M319 723 q50 0 93.5 -11.5 q43.5 -11.5 77.5 -28.5 l-35 -83 q-30 14 -63.5 25 q-33.5 11 -67.5 11 q-44 0 -69 -26 q-25 -26 -25 -87 l0 -125 l183 0 l0 -79 l-183 0 l0 -94 q0 -59 -20.5 -87.5 q-20.5 -28.5 -45.5 -43.5 l347 0 l0 -94 l-476 0 l0 88 q39 13 63.5 43 q24.5 30 24.5 93 l0 95 l-86 0 l0 79 l86 0 l0 132 q0 95 54.5 144 q54.5 49 141.5 49 Z" /><glyph glyph-name="currency" unicode="¤" d="M85 353 q0 29 7.5 56 q7.5 27 21.5 50 l-61 66 l56 54 l60 -63 q45 32 99 32 q53 0 97 -32 l61 63 l56 -53 l-61 -66 q13 -22 21.5 -50 q8.5 -28 8.5 -57 q0 -61 -30 -108 l60 -64 l-55 -54 l-61 63 q-21 -14 -45.5 -22.5 q-24.5 -8.5 -51.5 -8.5 q-57 0 -100 32 l-59 -63 l-55 54 l60 64 q-14 23 -21.5 50.5 q-7.5 27.5 -7.5 56.5 ZM162 353 q0 -49 30.5 -83.5 q30.5 -34.5 75.5 -34.5 q44 0 75 34.5 q31 34.5 31 83.5 q0 50 -31 85 q-31 35 -75 35 q-45 0 -75.5 -35 q-30.5 -35 -30.5 -85 Z" /><glyph glyph-name="yen" unicode="¥" d="M269 381 l146 333 l113 0 l-183 -372 l107 0 l0 -71 l-131 0 l0 -77 l131 0 l0 -71 l-131 0 l0 -123 l-104 0 l0 123 l-133 0 l0 71 l133 0 l0 77 l-133 0 l0 71 l106 0 l-181 372 l114 0 l146 -333 Z" /><glyph glyph-name="brokenbar" unicode="¦" d="M214 759 l83 0 l0 -386 l-83 0 l0 386 ZM214 149 l83 0 l0 -386 l-83 0 l0 386 Z" /><glyph glyph-name="section" unicode="§" d="M59 394 q0 47 22 77.5 q22 30.5 50 46.5 q-32 20 -50 47.5 q-18 27.5 -18 67.5 q0 61 48.5 96.5 q48.5 35.5 136.5 35.5 q51 0 89 -10 q38 -10 74 -26 l-30 -75 q-32 14 -64.5 25 q-32.5 11 -72.5 11 q-48 0 -68 -14.5 q-20 -14.5 -20 -40.5 q0 -27 24 -46 q24 -19 88 -45 q72 -28 111.5 -65 q39.5 -37 39.5 -97 q0 -50 -20.5 -81.5 q-20.5 -31.5 -46.5 -49.5 q31 -19 48 -45 q17 -26 17 -64 q0 -70 -54 -109 q-54 -39 -150 -39 q-50 0 -89 9 q-39 9 -70 25 l0 83 q33 -17 77.5 -30 q44.5 -13 84.5 -13 q62 0 84.5 20 q22.5 20 22.5 47 q0 18 -8 32 q-8 14 -31.5 28 q-23.5 14 -70.5 33 q-49 20 -83 41.5 q-34 21.5 -52.5 51 q-18.5 29.5 -18.5 73.5 ZM145 404 q0 -34 28 -59 q28 -25 94 -54 l16 -6 q18 12 33.5 32.5 q15.5 20.5 15.5 51.5 q0 35 -27 61.5 q-27 26.5 -103 54.5 q-22 -7 -39.5 -28.5 q-17.5 -21.5 -17.5 -52.5 Z" /><glyph glyph-name="dieresis" unicode="¨" d="M132 682 q0 29 15 41.5 q15 12.5 38 12.5 q21 0 37 -12.5 q16 -12.5 16 -41.5 q0 -27 -16 -40.5 q-16 -13.5 -37 -13.5 q-23 0 -38 13.5 q-15 13.5 -15 40.5 ZM316 682 q0 29 16 41.5 q16 12.5 37 12.5 q22 0 38 -12.5 q16 -12.5 16 -41.5 q0 -27 -16 -40.5 q-16 -13.5 -38 -13.5 q-21 0 -37 13.5 q-16 13.5 -16 40.5 Z" /><glyph glyph-name="copyright" unicode="©" d="M45 357 q0 76 26.5 142.5 q26.5 66.5 74 117 q47.5 50.5 110 79 q62.5 28.5 134.5 28.5 q72 0 134.5 -28.5 q62.5 -28.5 110 -79 q47.5 -50.5 74 -117 q26.5 -66.5 26.5 -142.5 q0 -76 -26.5 -142.5 q-26.5 -66.5 -74 -117 q-47.5 -50.5 -110 -79 q-62.5 -28.5 -134.5 -28.5 q-72 0 -134.5 28.5 q-62.5 28.5 -110 79 q-47.5 50.5 -74 117 q-26.5 66.5 -26.5 142.5 ZM99 357 q0 -65 22.5 -122 q22.5 -57 62.5 -100 q40 -43 93 -67.5 q53 -24.5 113 -24.5 q60 0 113 24.5 q53 24.5 93.5 67.5 q40.5 43 63 100 q22.5 57 22.5 122 q0 65 -22.5 122 q-22.5 57 -63 100 q-40.5 43 -93.5 67.5 q-53 24.5 -113 24.5 q-60 0 -113 -24.5 q-53 -24.5 -93 -67.5 q-40 -43 -62.5 -100 q-22.5 -57 -22.5 -122 ZM409 515 q-53 0 -82 -42.5 q-29 -42.5 -29 -115.5 q0 -77 26 -118 q26 -41 85 -41 q23 0 50.5 6.5 q27.5 6.5 51.5 16.5 l0 -64 q-24 -11 -48 -17.5 q-24 -6.5 -58 -6.5 q-95 0 -141.5 61.5 q-46.5 61.5 -46.5 162.5 q0 65 22 115.5 q22 50.5 64.5 79 q42.5 28.5 104.5 28.5 q62 0 119 -30 l-29 -61 q-47 26 -89 26 Z" /><glyph glyph-name="ordfeminine" unicode="ª" d="M176 722 q126 0 126 -119 l0 -219 l-52 0 l-14 46 q-19 -23 -45.5 -37.5 q-26.5 -14.5 -62.5 -14.5 q-46 0 -73.5 25 q-27.5 25 -27.5 77 q0 52 38.5 78 q38.5 26 114.5 29 l49 2 l0 18 q0 30 -18 43 q-18 13 -45 13 q-25 0 -48.5 -7.5 q-23.5 -7.5 -47.5 -19.5 l-24 54 q26 14 58.5 23 q32.5 9 71.5 9 ZM229 540 l-44 -2 q-49 -2 -66 -17.5 q-17 -15.5 -17 -39.5 q0 -24 12.5 -34.5 q12.5 -10.5 32.5 -10.5 q42 0 62 23 q20 23 20 60 l0 21 Z" /><glyph glyph-name="guillemotleft" unicode="«" d="M37 273 l164 207 l77 -42 l-129 -171 l129 -171 l-77 -43 l-164 207 l0 13 ZM245 273 l164 207 l77 -42 l-130 -171 l130 -171 l-77 -43 l-164 207 l0 13 Z" /><glyph glyph-name="logicalnot" unicode="¬" d="M492 393 l0 -267 l-82 0 l0 186 l-367 0 l0 81 l449 0 Z" /><glyph glyph-name="registered" unicode="®" d="M45 357 q0 76 26.5 142.5 q26.5 66.5 74 117 q47.5 50.5 110 79 q62.5 28.5 134.5 28.5 q72 0 134.5 -28.5 q62.5 -28.5 110 -79 q47.5 -50.5 74 -117 q26.5 -66.5 26.5 -142.5 q0 -76 -26.5 -142.5 q-26.5 -66.5 -74 -117 q-47.5 -50.5 -110 -79 q-62.5 -28.5 -134.5 -28.5 q-72 0 -134.5 28.5 q-62.5 28.5 -110 79 q-47.5 50.5 -74 117 q-26.5 66.5 -26.5 142.5 ZM99 357 q0 -65 22.5 -122 q22.5 -57 62.5 -100 q40 -43 93 -67.5 q53 -24.5 113 -24.5 q60 0 113 24.5 q53 24.5 93.5 67.5 q40.5 43 63 100 q22.5 57 22.5 122 q0 65 -22.5 122 q-22.5 57 -63 100 q-40.5 43 -93.5 67.5 q-53 24.5 -113 24.5 q-60 0 -113 -24.5 q-53 -24.5 -93 -67.5 q-40 -43 -62.5 -100 q-22.5 -57 -22.5 -122 ZM534 446 q0 -47 -22 -74.5 q-22 -27.5 -50 -39.5 l106 -194 l-88 0 l-90 173 l-52 0 l0 -173 l-80 0 l0 437 l122 0 q80 0 117 -32.5 q37 -32.5 37 -96.5 ZM338 373 l41 0 q35 0 55 19.5 q20 19.5 20 51.5 q0 35 -19 51 q-19 16 -57 16 l-40 0 l0 -138 Z" /><glyph glyph-name="overscore" unicode="¯" d="M473 760 l-476 0 l0 75 l476 0 l0 -75 Z" /><glyph glyph-name="degree" unicode="°" d="M49 566 q0 44 20.5 80 q20.5 36 55 57 q34.5 21 76.5 21 q41 0 75.5 -21 q34.5 -21 55 -57 q20.5 -36 20.5 -80 q0 -44 -20.5 -80 q-20.5 -36 -55 -57 q-34.5 -21 -75.5 -21 q-42 0 -76.5 21 q-34.5 21 -55 57 q-20.5 36 -20.5 80 ZM120 566 q0 -37 24 -63 q24 -26 57 -26 q34 0 57.5 26 q23.5 26 23.5 63 q0 37 -23.5 63 q-23.5 26 -57.5 26 q-33 0 -57 -26 q-24 -26 -24 -63 Z" /><glyph glyph-name="plusminus" unicode="±" d="M309 404 l183 0 l0 -81 l-183 0 l0 -201 l-83 0 l0 201 l-183 0 l0 81 l183 0 l0 202 l83 0 l0 -202 ZM43 0 l0 82 l449 0 l0 -82 l-449 0 Z" /><glyph glyph-name="uni00B2" unicode="²" d="M303 416 l-278 0 l0 62 l105 111 q34 36 52.5 59 q18.5 23 25.5 41 q7 18 7 39 q0 28 -14.5 42.5 q-14.5 14.5 -39.5 14.5 q-24 0 -46 -11.5 q-22 -11.5 -46 -31.5 l-43 54 q28 26 63 41.5 q35 15.5 80 15.5 q61 0 96 -31.5 q35 -31.5 35 -87.5 q0 -48 -28.5 -86.5 q-28.5 -38.5 -79.5 -91.5 l-65 -67 l176 0 l0 -73 Z" /><glyph glyph-name="uni00B3" unicode="³" d="M164 853 q65 0 100 -30.5 q35 -30.5 35 -80.5 q0 -38 -19.5 -64 q-19.5 -26 -51.5 -36 l0 -4 q40 -8 62 -35 q22 -27 22 -65 q0 -58 -41 -94 q-41 -36 -124 -36 q-35 0 -66 7 q-31 7 -60 23 l0 72 q63 -37 126 -37 q82 0 82 69 q0 64 -91 64 l-53 0 l0 61 l49 0 q46 0 65 18.5 q19 18.5 19 46.5 q0 28 -16 42 q-16 14 -42 14 q-27 0 -50.5 -10 q-23.5 -10 -48.5 -28 l-39 53 q28 23 62 36.5 q34 13.5 80 13.5 Z" /><glyph glyph-name="acute" unicode="´" d="M263 766 l0 -10 q-15 -18 -42 -46.5 q-27 -28.5 -57 -57 q-30 -28.5 -53 -46.5 l-71 0 l0 12 q14 18 32.5 44.5 q18.5 26.5 36 54 q17.5 27.5 29.5 49.5 l125 0 Z" /><glyph glyph-name="uni00B5" unicode="µ" d="M524 539 l0 -539 l-85 0 l-17 72 l-5 0 q-22 -40 -55.5 -61 q-33.5 -21 -80.5 -21 q-33 0 -57 12 q-24 12 -41 33 l-4 0 q2 -17 3.5 -49.5 q1.5 -32.5 1.5 -69.5 l0 -156 l-108 0 l0 779 l108 0 l0 -338 q0 -124 101 -124 q73 0 101 48.5 q28 48.5 28 140.5 l0 273 l110 0 Z" /><glyph glyph-name="paragraph" unicode="¶" d="M524 -127 l-63 0 l0 819 l-89 0 l0 -819 l-63 0 l0 400 q-13 -5 -30.5 -7 q-17.5 -2 -34.5 -2 q-58 0 -101.5 23 q-43.5 23 -67.5 77 q-24 54 -24 145 q0 95 26 150 q26 55 72.5 78 q46.5 23 108.5 23 l266 0 l0 -887 Z" /><glyph glyph-name="cedilla" unicode="¸" d="M210 -134 q0 -50 -34 -78 q-34 -28 -103 -28 q-19 0 -34 2 q-15 2 -26 4 l0 63 q11 -2 26 -4 q15 -2 29 -2 q27 0 42.5 8.5 q15.5 8.5 15.5 31.5 q0 24 -22 36.5 q-22 12.5 -59 17.5 l37 83 l67 0 l-19 -46 q31 -9 55.5 -29.5 q24.5 -20.5 24.5 -58.5 Z" /><glyph glyph-name="uni00B9" unicode="¹" d="M240 844 l0 -428 l-85 0 l0 259 q0 24 0.5 49 q0.5 25 2.5 43 q-8 -8 -18.5 -19 q-10.5 -11 -20.5 -19 l-46 -37 l-41 53 l130 99 l78 0 Z" /><glyph glyph-name="ordmasculine" unicode="º" d="M331 551 q0 -83 -41.5 -128 q-41.5 -45 -111.5 -45 q-65 0 -107.5 44.5 q-42.5 44.5 -42.5 128.5 q0 83 41 127 q41 44 111 44 q67 0 109 -44 q42 -44 42 -127 ZM103 551 q0 -56 17.5 -84 q17.5 -28 58.5 -28 q40 0 58 28 q18 28 18 84 q0 56 -18 83 q-18 27 -58 27 q-40 0 -58 -27 q-18 -27 -18 -83 Z" /><glyph glyph-name="guillemotright" unicode="»" d="M486 260 l-165 -207 l-77 43 l130 171 l-130 171 l77 42 l165 -207 l0 -13 ZM278 260 l-164 -207 l-77 43 l129 171 l-129 171 l77 42 l164 -207 l0 -13 Z" /><glyph glyph-name="onequarter" unicode="¼" d="M131 0 l392 714 l89 0 l-393 -714 l-88 0 ZM148 286 l0 259 q0 24 1 49 q1 25 2 43 q-7 -8 -18 -19 q-11 -11 -22 -19 l-46 -37 l-41 53 l130 99 l78 0 l0 -428 l-84 0 ZM584 0 l0 90 l-180 0 l0 58 l180 283 l87 0 l0 -275 l57 0 l0 -66 l-57 0 l0 -90 l-87 0 ZM479 156 l105 0 l0 89 q0 21 1 47.5 q1 26.5 2 50.5 q-6 -12 -18.5 -36.5 q-12.5 -24.5 -22.5 -40.5 l-67 -110 Z" /><glyph glyph-name="onehalf" unicode="½" d="M114 0 l393 714 l88 0 l-392 -714 l-89 0 ZM141 286 l0 259 q0 24 0.5 49 q0.5 25 2.5 43 q-8 -8 -18.5 -19 q-10.5 -11 -21.5 -19 l-46 -37 l-41 53 l130 99 l78 0 l0 -428 l-84 0 ZM450 0 l0 62 l105 111 q35 36 53 59 q18 23 25 41 q7 18 7 39 q0 28 -15 42.5 q-15 14.5 -39 14.5 q-25 0 -47 -11.5 q-22 -11.5 -46 -31.5 l-42 54 q29 26 64 41.5 q35 15.5 78 15.5 q61 0 96.5 -31.5 q35.5 -31.5 35.5 -87.5 q0 -48 -25.5 -87 q-25.5 -39 -76.5 -89 l-71 -69 l176 0 l0 -73 l-278 0 Z" /><glyph glyph-name="threequarters" unicode="¾" d="M149 278 q-70 0 -126 30 l0 72 q63 -37 126 -37 q83 0 83 69 q0 64 -92 64 l-53 0 l0 61 l49 0 q46 0 65 18.5 q19 18.5 19 46.5 q0 28 -16 42 q-16 14 -42 14 q-26 0 -49 -10 q-23 -10 -49 -28 l-40 53 q30 23 64 36.5 q34 13.5 78 13.5 q65 0 100.5 -30.5 q35.5 -30.5 35.5 -80.5 q0 -38 -20 -64 q-20 -26 -51 -36 l0 -4 q39 -8 61 -35 q22 -27 22 -65 q0 -58 -40.5 -94 q-40.5 -36 -124.5 -36 ZM171 0 l393 714 l89 0 l-393 -714 l-89 0 ZM613 0 l0 90 l-179 0 l0 58 l179 283 l87 0 l0 -275 l57 0 l0 -66 l-57 0 l0 -90 l-87 0 ZM508 156 l105 0 l0 89 q0 21 0.5 47.5 q0.5 26.5 2.5 50.5 q-5 -12 -18 -36.5 q-13 -24.5 -23 -40.5 l-67 -110 Z" /><glyph glyph-name="AE" unicode="æ" d="M796 0 l-367 0 l0 206 l-228 0 l-86 -206 l-116 0 l310 714 l487 0 l0 -92 l-257 0 l0 -204 l240 0 l0 -91 l-240 0 l0 -234 l257 0 l0 -93 ZM241 300 l188 0 l0 320 l-55 0 l-133 -320 Z" /><glyph glyph-name="Eth" unicode="ð" d="M299 714 q103 0 178 -40 q75 -40 116 -118 q41 -78 41 -192 q0 -181 -94.5 -272.5 q-94.5 -91.5 -261.5 -91.5 l-186 0 l0 307 l-67 0 l0 92 l67 0 l0 315 l207 0 ZM292 623 l-90 0 l0 -224 l145 0 l0 -92 l-145 0 l0 -216 l73 0 q243 0 243 270 q0 135 -59 198.5 q-59 63.5 -167 63.5 Z" /><glyph glyph-name="multiply" unicode="×" d="M418 574 l58 -57 l-151 -164 l150 -164 l-57 -57 l-152 162 l-148 -162 l-58 58 l149 163 l-150 163 l58 58 l150 -163 l151 163 Z" /><glyph glyph-name="Oslash" unicode="ø" d="M684 358 q0 -111 -35 -193.5 q-35 -82.5 -105 -128.5 q-70 -46 -174 -46 q-99 0 -165 43 l-44 -68 l-65 44 l45 72 q-43 49 -64.5 119.5 q-21.5 70.5 -21.5 158.5 q0 110 34 192.5 q34 82.5 104.5 128 q70.5 45.5 177.5 45.5 q47 0 88 -11.5 q41 -11.5 74 -30.5 l41 65 l66 -44 l-45 -69 q89 -98 89 -277 ZM172 358 q0 -57 8.5 -103.5 q8.5 -46.5 27.5 -80.5 l268 427 q-43 31 -105 31 q-103 0 -151 -73 q-48 -73 -48 -201 ZM567 358 q0 57 -9 103.5 q-9 46.5 -28 81.5 l-268 -428 q42 -33 108 -33 q104 0 150.5 74 q46.5 74 46.5 202 Z" /><glyph glyph-name="Thorn" unicode="þ" d="M532 380 q0 -60 -24.5 -112 q-24.5 -52 -82 -84.5 q-57.5 -32.5 -156.5 -32.5 l-71 0 l0 -151 l-111 0 l0 714 l111 0 l0 -120 l83 0 q132 0 191.5 -57 q59.5 -57 59.5 -157 ZM198 241 l58 0 q82 0 122.5 31.5 q40.5 31.5 40.5 104.5 q0 64 -35 95 q-35 31 -113 31 l-73 0 l0 -262 Z" /><glyph glyph-name="germandbls" unicode="ß" d="M526 614 q0 -35 -13 -61 q-13 -26 -32.5 -45.5 q-19.5 -19.5 -39.5 -35 q-20 -15.5 -33 -30 q-13 -14.5 -13 -31.5 q0 -13 7.5 -24.5 q7.5 -11.5 26.5 -26 q19 -14.5 54 -38.5 q49 -34 76.5 -71 q27.5 -37 27.5 -96 q0 -85 -51 -125 q-51 -40 -137 -40 q-47 0 -81 8 q-34 8 -60 25 l0 91 q23 -16 59.5 -29 q36.5 -13 71.5 -13 q45 0 66.5 20.5 q21.5 20.5 21.5 57.5 q0 22 -7.5 39 q-7.5 17 -26.5 34 q-19 17 -53 40 q-58 39 -80.5 68.5 q-22.5 29.5 -22.5 69.5 q0 31 13 53 q13 22 32 38.5 q19 16.5 38 32 q19 15.5 32 34 q13 18.5 13 44.5 q0 38 -31.5 57 q-31.5 19 -80.5 19 q-49 0 -84 -22.5 q-35 -22.5 -35 -82.5 l0 -574 l-108 0 l0 576 q0 68 30 109.5 q30 41.5 81 60.5 q51 19 116 19 q98 0 160.5 -38 q62.5 -38 62.5 -113 Z" /><glyph glyph-name="ae" unicode="æ" d="M581 549 q63 0 109 -30 q46 -30 71.5 -84.5 q25.5 -54.5 25.5 -127.5 l0 -60 l-324 0 q4 -171 139 -171 q44 0 82.5 9.5 q38.5 9.5 77.5 28.5 l0 -88 q-38 -19 -76 -27.5 q-38 -8.5 -91 -8.5 q-132 0 -194 109 q-25 -35 -51 -59 q-26 -24 -61.5 -37 q-35.5 -13 -86.5 -13 q-44 0 -81 17.5 q-37 17.5 -58.5 53.5 q-21.5 36 -21.5 92 q0 164 228 172 l85 3 l0 36 q0 56 -25.5 79 q-25.5 23 -67.5 23 q-36 0 -72.5 -12 q-36.5 -12 -68.5 -28 l-33 76 q36 20 84.5 33.5 q48.5 13.5 97.5 13.5 q110 0 155 -80 q27 38 66 59 q39 21 91 21 ZM579 467 q-50 0 -79.5 -36 q-29.5 -36 -34.5 -106 l215 0 q0 63 -25 102.5 q-25 39.5 -76 39.5 ZM353 259 l-62 -2 q-78 -4 -108 -31 q-30 -27 -30 -74 q0 -42 21.5 -61 q21.5 -19 56.5 -19 q52 0 87 35 q35 35 35 105 l0 47 Z" /><glyph glyph-name="eth" unicode="ð" d="M207 765 q31 -15 61.5 -33 q30.5 -18 57.5 -38 l105 67 l40 -60 l-86 -55 q65 -64 104.5 -156.5 q39.5 -92.5 39.5 -213.5 q0 -141 -65.5 -213.5 q-65.5 -72.5 -177.5 -72.5 q-70 0 -123.5 29.5 q-53.5 29.5 -84 84 q-30.5 54.5 -30.5 131.5 q0 113 60.5 177.5 q60.5 64.5 160.5 64.5 q98 0 137 -55 l4 2 q-15 52 -42 95.5 q-27 43.5 -62 78.5 l-113 -73 l-40 61 l94 61 q-36 27 -79 50 l39 68 ZM288 394 q-69 0 -99.5 -41 q-30.5 -41 -30.5 -121 q0 -70 31 -114.5 q31 -44.5 99 -44.5 q68 0 99 46.5 q31 46.5 31 134.5 q0 57 -31.5 98.5 q-31.5 41.5 -98.5 41.5 Z" /><glyph glyph-name="divide" unicode="÷" d="M267 458 q-23 0 -40 15 q-17 15 -17 50 q0 36 17 50 q17 14 40 14 q23 0 40 -14 q17 -14 17 -50 q0 -35 -17 -50 q-17 -15 -40 -15 ZM43 312 l0 81 l449 0 l0 -81 l-449 0 ZM267 117 q-23 0 -40 15.5 q-17 15.5 -17 49.5 q0 36 17 50 q17 14 40 14 q23 0 40 -14 q17 -14 17 -50 q0 -34 -17 -49.5 q-17 -15.5 -40 -15.5 Z" /><glyph glyph-name="oslash" unicode="ø" d="M532 270 q0 -134 -66 -207 q-66 -73 -178 -73 q-65 0 -116 30 l-36 -54 l-62 42 l40 59 q-32 36 -49 87 q-17 51 -17 116 q0 134 65 206.5 q65 72.5 178 72.5 q66 0 119 -33 l34 51 l61 -42 l-37 -56 q30 -36 47 -85.5 q17 -49.5 17 -113.5 ZM158 270 q0 -34 4 -63 q4 -29 13 -51 l184 285 q-29 20 -70 20 q-69 0 -100 -49.5 q-31 -49.5 -31 -141.5 ZM423 270 q0 63 -17 108 l-182 -283 q27 -18 66 -18 q70 0 101.5 51 q31.5 51 31.5 142 Z" /><glyph glyph-name="thorn" unicode="þ" d="M537 270 q0 -137 -55.5 -208.5 q-55.5 -71.5 -146.5 -71.5 q-56 0 -92.5 22 q-36.5 22 -58.5 53 l-6 0 q2 -13 4 -39.5 q2 -26.5 2 -42.5 l0 -223 l-108 0 l0 1000 l108 0 l0 -214 q0 -17 -1.5 -41.5 q-1.5 -24.5 -2.5 -37.5 l5 0 q22 34 57.5 58 q35.5 24 93.5 24 q90 0 145.5 -71 q55.5 -71 55.5 -208 ZM426 272 q0 95 -28 142.5 q-28 47.5 -90 47.5 q-67 0 -95.5 -43 q-28.5 -43 -28.5 -130 l0 -18 q0 -94 27 -144 q27 -50 99 -50 q60 0 88 50.5 q28 50.5 28 144.5 Z" /><glyph glyph-name="dcroat" unicode="&#x111;" d="M248 -10 q-90 0 -145 69 q-55 69 -55 204 q0 138 56 206.5 q56 68.5 147 68.5 q58 0 94 -23 q36 -23 58 -56 l6 0 q-4 19 -6 44 q-2 25 -2 45 l0 51 l-175 0 l0 75 l175 0 l0 86 l108 0 l0 -86 l72 0 l0 -75 l-72 0 l0 -599 l-87 0 l-19 72 l-5 0 q-22 -34 -57.5 -58 q-35.5 -24 -92.5 -24 ZM280 77 q69 0 97 42 q28 42 28 127 l0 16 q0 92 -27.5 140.5 q-27.5 48.5 -99.5 48.5 q-58 0 -87 -50.5 q-29 -50.5 -29 -139.5 q0 -89 29.5 -136.5 q29.5 -47.5 88.5 -47.5 Z" /><glyph glyph-name="eogonek" unicode="&#x119;" d="M369 -115 q0 -22 11.5 -32.5 q11.5 -10.5 31.5 -10.5 q16 0 29 2.5 q13 2.5 22 4.5 l0 -65 q-15 -4 -30.5 -7 q-15.5 -3 -36.5 -3 q-54 0 -81 26.5 q-27 26.5 -27 72.5 q0 34 20 65 q20 31 46 54 q-25 -2 -55 -2 q-74 0 -130.5 31 q-56.5 31 -88.5 92 q-32 61 -32 152 q0 136 64 210 q64 74 168 74 q100 0 159 -65.5 q59 -65.5 59 -178.5 l0 -58 l-339 0 q2 -83 40 -127 q38 -44 107 -44 q49 0 87.5 9.5 q38.5 9.5 78.5 28.5 l0 -88 q-3 -1 -5 -2 q-58 -49 -78 -79.5 q-20 -30.5 -20 -59.5 ZM281 467 q-53 0 -83.5 -37 q-30.5 -37 -35.5 -105 l229 0 q-1 63 -27.5 102.5 q-26.5 39.5 -82.5 39.5 Z" /><glyph glyph-name="Hbar" unicode="&#x126;" d="M88 0 l0 523 l-88 0 l0 79 l88 0 l0 112 l111 0 l0 -112 l309 0 l0 112 l110 0 l0 -112 l88 0 l0 -79 l-88 0 l0 -523 l-110 0 l0 326 l-309 0 l0 -326 l-111 0 ZM199 418 l309 0 l0 105 l-309 0 l0 -105 Z" /><glyph glyph-name="hbar" unicode="&#x127;" d="M186 760 l0 -87 l175 0 l0 -75 l-175 0 l0 -64 q0 -26 -2 -50 q-2 -24 -3 -40 l7 0 q24 41 64 61.5 q40 20.5 89 20.5 q87 0 135 -47 q48 -47 48 -151 l0 -328 l-108 0 l0 313 q0 126 -99 126 q-75 0 -103 -49.5 q-28 -49.5 -28 -140.5 l0 -249 l-109 0 l0 598 l-71 0 l0 75 l71 0 l0 87 l109 0 Z" /><glyph glyph-name="kgreenlandic" unicode="&#x138;" d="M516 539 l-192 -241 l206 -298 l-126 0 l-154 232 l-63 -51 l0 -181 l-111 0 l0 539 l111 0 l0 -140 q0 -37 -1.5 -73 q-1.5 -36 -3.5 -58 l3 0 q10 15 22 30.5 q12 15.5 23 30.5 l162 210 l124 0 Z" /><glyph glyph-name="Lslash" unicode="&#x141;" d="M90 0 l0 245 l-43 -26 l-41 71 l84 51 l0 373 l111 0 l0 -308 l111 69 l43 -72 l-154 -94 l0 -216 l284 0 l0 -93 l-395 0 Z" /><glyph glyph-name="lslash" unicode="&#x142;" d="M78 0 l0 270 l-46 -29 l-42 70 l88 56 l0 393 l109 0 l0 -326 l53 37 l43 -70 l-96 -64 l0 -337 l-109 0 Z" /><glyph glyph-name="Eng" unicode="&#x14a;" d="M454 -196 q-26 0 -45.5 3.5 q-19.5 3.5 -34.5 9.5 l0 88 q16 -5 34.5 -7.5 q18.5 -2.5 39.5 -2.5 q42 0 71 22.5 q29 22.5 30 83.5 l-366 576 l-4 0 q1 -13 3.5 -48 q2.5 -35 4 -78 q1.5 -43 1.5 -79 l0 -372 l-101 0 l0 714 l132 0 l331 -533 l4 0 q-2 15 -3.5 48.5 q-1.5 33.5 -2.5 74 q-1 40.5 -1 76.5 l0 334 l101 0 l0 -710 q0 -103 -53 -151.5 q-53 -48.5 -141 -48.5 Z" /><glyph glyph-name="eng" unicode="&#x14b;" d="M374 -240 q-22 0 -42 3.5 q-20 3.5 -33 8.5 l0 85 q13 -5 26 -7.5 q13 -2.5 30 -2.5 q25 0 42 17.5 q17 17.5 17 66.5 l0 409 q0 122 -98 122 q-75 0 -103.5 -49 q-28.5 -49 -28.5 -140 l0 -273 l-108 0 l0 539 l85 0 l15 -72 l7 0 q25 42 67 62 q42 20 90 20 q88 0 136 -46.5 q48 -46.5 48 -150.5 l0 -426 q0 -75 -35.5 -120.5 q-35.5 -45.5 -114.5 -45.5 Z" /><glyph glyph-name="OE" unicode="&#x152;" d="M360 725 q25 0 51 -3 q26 -3 47 -8 l372 0 l0 -92 l-260 0 l0 -204 l243 0 l0 -91 l-243 0 l0 -234 l260 0 l0 -93 l-370 0 q-21 -4 -47 -7 q-26 -3 -50 -3 q-104 0 -172.5 46 q-68.5 46 -102 129 q-33.5 83 -33.5 194 q0 111 33.5 193 q33.5 82 101 127.5 q67.5 45.5 170.5 45.5 ZM365 632 q-100 0 -147 -73 q-47 -73 -47 -201 q0 -128 47 -202 q47 -74 146 -74 q56 0 97 18 l0 515 q-19 9 -44 13 q-25 4 -52 4 Z" /><glyph glyph-name="oe" unicode="&#x153;" d="M641 548 q98 0 155.5 -65 q57.5 -65 57.5 -178 l0 -58 l-334 0 q2 -87 39 -129 q37 -42 105 -42 q48 0 86.5 9.5 q38.5 9.5 78.5 28.5 l0 -88 q-38 -19 -77 -27.5 q-39 -8.5 -94 -8.5 q-61 0 -109.5 25 q-48.5 25 -79.5 76 q-62 -101 -185 -101 q-69 0 -122.5 32.5 q-53.5 32.5 -84 95 q-30.5 62.5 -30.5 152.5 q0 134 63.5 206 q63.5 72 175.5 72 q56 0 102.5 -25 q46.5 -25 76.5 -75 q60 100 176 100 ZM639 466 q-50 0 -80.5 -35.5 q-30.5 -35.5 -35.5 -105.5 l224 0 q-1 63 -27 102 q-26 39 -81 39 ZM283 461 q-66 0 -94.5 -48 q-28.5 -48 -28.5 -143 q0 -95 29 -144 q29 -49 96 -49 q65 0 94.5 48.5 q29.5 48.5 29.5 142.5 q0 98 -30 145.5 q-30 47.5 -96 47.5 Z" /><glyph glyph-name="Tbar" unicode="&#x166;" d="M210 0 l0 315 l-128 0 l0 89 l128 0 l0 216 l-197 0 l0 94 l505 0 l0 -94 l-197 0 l0 -216 l127 0 l0 -89 l-127 0 l0 -315 l-111 0 Z" /><glyph glyph-name="tbar" unicode="&#x167;" d="M26 269 l0 75 l61 0 l0 114 l-69 0 l0 48 l75 40 l36 114 l67 0 l0 -121 l143 0 l0 -81 l-143 0 l0 -114 l146 0 l0 -75 l-146 0 l0 -107 q0 -44 20 -65 q20 -21 51 -21 q43 0 76 13 l0 -80 q-17 -8 -44.5 -13.5 q-27.5 -5.5 -57.5 -5.5 q-43 0 -77.5 15 q-34.5 15 -55.5 52 q-21 37 -21 103 l0 109 l-61 0 Z" /><glyph glyph-name="Uogonek" unicode="&#x172;" d="M441 -105 q0 -28 12 -40.5 q12 -12.5 32 -12.5 q16 0 28.5 2.5 q12.5 2.5 20.5 4.5 l0 -65 q-14 -4 -29.5 -7 q-15.5 -3 -36.5 -3 q-108 0 -108 108 q0 30 14.5 59.5 q14.5 29.5 35.5 53.5 q-31 -5 -65 -5 q-130 0 -197 72.5 q-67 72.5 -67 191.5 l0 460 l111 0 l0 -455 q0 -177 157 -177 q82 0 118 48 q36 48 36 130 l0 454 l111 0 l0 -462 q0 -63 -21.5 -116.5 q-21.5 -53.5 -65.5 -88.5 q-45 -49 -65.5 -84 q-20.5 -35 -20.5 -68 Z" /><glyph glyph-name="longs" unicode="&#x17f;" d="M257 679 q-36 0 -54.5 -24 q-18.5 -24 -18.5 -77 l0 -578 l-108 0 l0 580 q0 103 47 144 q47 41 125 41 q36 0 62.5 -6.5 q26.5 -6.5 46.5 -13.5 l-26 -81 q-15 5 -34 10 q-19 5 -40 5 Z" /><glyph glyph-name="florin" unicode="&#x192;" d="M373 724 q34 0 62 -7 q28 -7 48 -15 l-26 -80 q-15 5 -33 10.5 q-18 5.5 -37 5.5 q-36 0 -52 -22 q-16 -22 -16 -74 l0 -59 l121 0 l0 -81 l-120 0 l0 -465 q0 -91 -41 -134 q-41 -43 -121 -43 q-43 0 -73 10 l0 86 q14 -4 27.5 -6.5 q13.5 -2.5 29.5 -2.5 q34 0 51 20.5 q17 20.5 17 76.5 l0 458 l-90 0 l0 50 l90 33 l0 58 q0 103 42 142 q42 39 121 39 Z" /><glyph glyph-name="Aringacute" unicode="&#x1fa;" d="M259 837 l0 9 q19 22 42 54 q23 32 38 58 l125 0 l0 -7 q-10 -14 -33.5 -35.5 q-23.5 -21.5 -51 -43 q-27.5 -21.5 -48.5 -35.5 l-72 0 ZM0 0 l237 618 q-35 29 -35 84 q0 52 30 80.5 q30 28.5 78 28.5 q46 0 78 -28.5 q32 -28.5 32 -79.5 q0 -29 -9 -50 q-9 -21 -25 -34 l237 -619 l-117 0 l-65 183 l-262 0 l-62 -183 l-117 0 ZM310 649 q22 0 35.5 13.5 q13.5 13.5 13.5 39.5 q0 26 -14 40 q-14 14 -35 14 q-21 0 -35 -14 q-14 -14 -14 -40 q0 -25 12.5 -39 q12.5 -14 36.5 -14 ZM211 277 l203 0 l-66 187 q-7 20 -18.5 54.5 q-11.5 34.5 -18.5 60.5 q-5 -17 -11.5 -40 q-6.5 -23 -13 -44 q-6.5 -21 -10.5 -31 l-65 -187 Z" /><glyph glyph-name="aringacute" unicode="&#x1fb;" d="M434 958 l0 -6 q-10 -12 -36.5 -30 q-26.5 -18 -56.5 -36 q-30 -18 -51 -30 l-74 0 l0 8 q20 19 42.5 45.5 q22.5 26.5 37.5 48.5 l138 0 ZM276 817 q46 0 78.5 -28.5 q32.5 -28.5 32.5 -78.5 q0 -52 -32 -81 q-32 -29 -79 -29 q-47 0 -77 28.5 q-30 28.5 -30 80.5 q0 51 30 79.5 q30 28.5 77 28.5 ZM276 762 q-20 0 -34 -14 q-14 -14 -14 -39 q0 -25 12.5 -39.5 q12.5 -14.5 35.5 -14.5 q22 0 35.5 14.5 q13.5 14.5 13.5 39.5 q0 25 -13.5 39 q-13.5 14 -35.5 14 ZM280 549 q95 0 143.5 -44.5 q48.5 -44.5 48.5 -139.5 l0 -365 l-77 0 l-21 75 l-4 0 q-33 -44 -69.5 -64.5 q-36.5 -20.5 -100.5 -20.5 q-68 0 -113.5 39.5 q-45.5 39.5 -45.5 123.5 q0 163 237 172 l86 3 l0 30 q0 59 -24.5 83.5 q-24.5 24.5 -68.5 24.5 q-37 0 -73.5 -12 q-36.5 -12 -69.5 -29 l-33 77 q37 20 84.5 33.5 q47.5 13.5 100.5 13.5 ZM364 259 l-65 -2 q-83 -4 -114.5 -31 q-31.5 -27 -31.5 -74 q0 -42 22.5 -61 q22.5 -19 58.5 -19 q55 0 92.5 35 q37.5 35 37.5 105 l0 47 Z" /><glyph glyph-name="circumflex" unicode="&#x2c6;" d="M271 766 q12 -22 33 -49.5 q21 -27.5 44 -54 q23 -26.5 40 -44.5 l0 -12 l-73 0 q-25 16 -51 39 q-26 23 -51 50 q-25 -27 -50 -50 q-25 -23 -50 -39 l-73 0 l0 12 q18 19 40 45 q22 26 43 53.5 q21 27.5 34 49.5 l114 0 Z" /><glyph glyph-name="caron" unicode="&#x2c7;" d="M388 766 l0 -13 q-17 -19 -40 -44.5 q-23 -25.5 -44 -53 q-21 -27.5 -33 -49.5 l-114 0 q-13 22 -34 49 q-21 27 -43.5 53 q-22.5 26 -39.5 45 l0 13 l73 0 q25 -17 50.5 -40 q25.5 -23 49.5 -50 q52 57 102 90 l73 0 Z" /><glyph glyph-name="macron" unicode="&#x2c9;" d="M334 686 l0 -80 l-294 0 l0 80 l294 0 Z" /><glyph glyph-name="breve" unicode="&#x2d8;" d="M358 749 q-5 -64 -47 -103.5 q-42 -39.5 -114 -39.5 q-75 0 -114 39 q-39 39 -43 104 l63 0 q5 -41 29 -51.5 q24 -10.5 66 -10.5 q35 0 62.5 11.5 q27.5 11.5 32.5 50.5 l65 0 Z" /><glyph glyph-name="dotaccent" unicode="&#x2d9;" d="M101 744 q25 0 43 -14 q18 -14 18 -47 q0 -32 -18 -46.5 q-18 -14.5 -43 -14.5 q-25 0 -43 14.5 q-18 14.5 -18 46.5 q0 33 18 47 q18 14 43 14 Z" /><glyph glyph-name="ring" unicode="&#x2da;" d="M147 606 q-48 0 -77.5 28.5 q-29.5 28.5 -29.5 80.5 q0 50 29.5 79 q29.5 29 77.5 29 q47 0 79 -28.5 q32 -28.5 32 -78.5 q0 -52 -32 -81 q-32 -29 -79 -29 ZM147 661 q22 0 35.5 14.5 q13.5 14.5 13.5 39.5 q0 25 -14 39 q-14 14 -35 14 q-20 0 -34.5 -14 q-14.5 -14 -14.5 -39 q0 -54 49 -54 Z" /><glyph glyph-name="ogonek" unicode="&#x2db;" d="M121 -115 q0 -43 40 -43 q15 0 27.5 2.5 q12.5 2.5 20.5 4.5 l0 -65 q-14 -4 -29 -7 q-15 -3 -35 -3 q-51 0 -78 26.5 q-27 26.5 -27 72.5 q0 43 28.5 82 q28.5 39 64.5 61 l52 -16 q-31 -32 -47.5 -59 q-16.5 -27 -16.5 -56 Z" /><glyph glyph-name="tilde" unicode="&#x2dc;" d="M399 741 q-6 -64 -35 -99 q-29 -35 -74 -35 q-26 0 -51.5 13.5 q-25.5 13.5 -49 27.5 q-23.5 14 -44.5 14 q-37 0 -47 -56 l-58 0 q6 64 34.5 99 q28.5 35 74.5 35 q27 0 52 -14 q25 -14 48.5 -27.5 q23.5 -13.5 44.5 -13.5 q35 0 47 56 l58 0 Z" /><glyph glyph-name="hungarumlaut" unicode="&#x2dd;" d="M413 766 l0 -10 q-10 -18 -34.5 -46.5 q-24.5 -28.5 -53 -57 q-28.5 -28.5 -50.5 -46.5 l-59 0 l0 12 q13 19 29 45 q16 26 30.5 53.5 q14.5 27.5 25.5 49.5 l112 0 ZM237 766 l0 -10 q-10 -18 -34.5 -46.5 q-24.5 -28.5 -52.5 -57 q-28 -28.5 -51 -46.5 l-59 0 l0 12 q13 19 29 45 q16 26 30.5 53.5 q14.5 27.5 25.5 49.5 l112 0 Z" /><glyph glyph-name="tonos" unicode="&#x384;" d="M227 606 l0 14 q8 24 16 56.5 q8 32.5 14.5 66 q6.5 33.5 9.5 59.5 l107 0 l0 -11 q-7 -23 -20 -55 q-13 -32 -29.5 -66.5 q-16.5 -34.5 -33.5 -63.5 l-64 0 Z" /><glyph glyph-name="dieresistonos" unicode="&#x385;" d="M368 838 l0 -10 q-14 -32 -38.5 -73 q-24.5 -41 -50.5 -77 l-51 0 l0 12 q10 30 20.5 72 q10.5 42 15.5 76 l104 0 ZM157 736 q21 0 36 -12.5 q15 -12.5 15 -41.5 q0 -27 -15 -40.5 q-15 -13.5 -36 -13.5 q-23 0 -37 13.5 q-14 13.5 -14 40.5 q0 29 14 41.5 q14 12.5 37 12.5 ZM384 736 q20 0 35 -12.5 q15 -12.5 15 -41.5 q0 -27 -15 -40.5 q-15 -13.5 -35 -13.5 q-23 0 -37.5 13.5 q-14.5 13.5 -14.5 40.5 q0 29 14.5 41.5 q14.5 12.5 37.5 12.5 Z" /><glyph glyph-name="Gamma" unicode="&#x393;" d="M485 714 l0 -93 l-287 0 l0 -621 l-111 0 l0 714 l398 0 Z" /><glyph glyph-name="uni0394" unicode="&#x394;" d="M348 715 l210 -652 l0 -63 l-538 0 l0 64 l209 651 l119 0 ZM439 93 l-115 373 q-10 34 -20 74.5 q-10 40.5 -16 68.5 q-6 -28 -15 -68 q-9 -40 -20 -74 l-116 -374 l302 0 Z" /><glyph glyph-name="Theta" unicode="&#x398;" d="M684 358 q0 -111 -35 -193.5 q-35 -82.5 -105 -128.5 q-70 -46 -174 -46 q-107 0 -177 46 q-70 46 -104 129 q-34 83 -34 194 q0 110 34 192.5 q34 82.5 104.5 128 q70.5 45.5 177.5 45.5 q104 0 173.5 -45.5 q69.5 -45.5 104.5 -128 q35 -82.5 35 -193.5 ZM172 358 q0 -128 47.5 -202 q47.5 -74 150.5 -74 q104 0 150.5 74 q46.5 74 46.5 202 q0 128 -46.5 201 q-46.5 73 -149.5 73 q-103 0 -151 -73 q-48 -73 -48 -201 ZM516 409 l0 -92 l-287 0 l0 92 l287 0 Z" /><glyph glyph-name="Lambda" unicode="&#x39b;" d="M355 714 l236 -714 l-117 0 l-136 444 q-12 39 -24.5 84 q-12.5 45 -18.5 79 q-7 -34 -19 -79.5 q-12 -45.5 -24 -83.5 l-135 -444 l-117 0 l235 714 l120 0 Z" /><glyph glyph-name="Xi" unicode="&#x39e;" d="M53 622 l0 92 l421 0 l0 -92 l-421 0 ZM90 327 l0 91 l346 0 l0 -91 l-346 0 ZM34 0 l0 93 l458 0 l0 -93 l-458 0 Z" /><glyph glyph-name="Pi" unicode="&#x3a0;" d="M87 0 l0 714 l516 0 l0 -714 l-109 0 l0 621 l-296 0 l0 -621 l-111 0 Z" /><glyph glyph-name="Sigma" unicode="&#x3a3;" d="M34 0 l0 87 l217 286 l-211 254 l0 87 l451 0 l0 -93 l-219 0 q-23 0 -56.5 0.5 q-33.5 0.5 -52.5 1.5 l208 -249 l-218 -284 q35 1 68.5 2 q33.5 1 69.5 1 l227 0 l0 -93 l-484 0 Z" /><glyph glyph-name="Phi" unicode="&#x3a6;" d="M443 724 l0 -88 q109 -2 172.5 -39 q63.5 -37 91 -96 q27.5 -59 27.5 -131 q0 -48 -14.5 -95 q-14.5 -47 -47.5 -86 q-33 -39 -89 -63 q-56 -24 -140 -26 l0 -110 l-107 0 l0 110 q-85 2 -141.5 27 q-56.5 25 -89 64.5 q-32.5 39.5 -46.5 86 q-14 46.5 -14 92.5 q0 70 27.5 129.5 q27.5 59.5 91.5 97 q64 37.5 172 39.5 l0 88 l107 0 ZM336 548 q-68 -2 -108 -25 q-40 -23 -57 -62 q-17 -39 -17 -90 q0 -83 42 -131.5 q42 -48.5 140 -52.5 l0 361 ZM443 548 l0 -361 q99 4 140.5 53.5 q41.5 49.5 41.5 130.5 q0 52 -17 91 q-17 39 -56.5 61.5 q-39.5 22.5 -108.5 24.5 Z" /><glyph glyph-name="Psi" unicode="&#x3a8;" d="M737 714 l0 -235 q0 -74 -26 -133.5 q-26 -59.5 -89.5 -94.5 q-63.5 -35 -175.5 -35 l0 -216 l-105 0 l0 216 q-85 0 -141.5 20.5 q-56.5 20.5 -89 56.5 q-32.5 36 -46.5 83.5 q-14 47.5 -14 101.5 l0 236 l108 0 l0 -234 q0 -92 44 -133 q44 -41 139 -41 l0 408 l105 0 l0 -408 q93 0 137 41 q44 41 44 131 l0 236 l110 0 Z" /><glyph glyph-name="uni03A9" unicode="&#x3a9;" d="M369 632 q-98 0 -148 -61.5 q-50 -61.5 -50 -171.5 q0 -96 31 -172.5 q31 -76.5 110 -135.5 l0 -91 l-280 0 l0 93 l169 0 q-64 47 -104.5 128 q-40.5 81 -40.5 189 q0 96 37 167 q37 71 107 109.5 q70 38.5 169 38.5 q99 0 169 -38.5 q70 -38.5 107 -109 q37 -70.5 37 -166.5 q0 -109 -40 -190 q-40 -81 -104 -128 l169 0 l0 -93 l-282 0 l0 91 q80 58 111.5 135.5 q31.5 77.5 31.5 172.5 q0 110 -50 171.5 q-50 61.5 -149 61.5 Z" /><glyph glyph-name="alpha" unicode="&#x3b1;" d="M252 -10 q-92 0 -148 70 q-56 70 -56 207 q0 137 56.5 209.5 q56.5 72.5 156.5 72.5 q55 0 91 -20.5 q36 -20.5 61 -61.5 l5 0 q4 17 12 37 q8 20 19 35 l87 0 q-7 -22 -13 -57.5 q-6 -35.5 -10 -76.5 q-4 -41 -4 -79 l0 -192 q0 -32 11.5 -44 q11.5 -12 27.5 -12 q6 0 14.5 2 q8.5 2 12.5 3 l0 -80 q-7 -5 -24.5 -9 q-17.5 -4 -32.5 -4 q-40 0 -65.5 18 q-25.5 18 -37.5 64 l-9 0 q-21 -34 -57 -58 q-36 -24 -97 -24 ZM279 77 q69 0 97.5 44.5 q28.5 44.5 28.5 140.5 l0 6 q0 94 -27 143.5 q-27 49.5 -100 49.5 q-61 0 -89.5 -49.5 q-28.5 -49.5 -28.5 -145.5 q0 -94 29 -141.5 q29 -47.5 90 -47.5 Z" /><glyph glyph-name="beta" unicode="&#x3b2;" d="M310 765 q65 0 115.5 -21.5 q50.5 -21.5 79 -63.5 q28.5 -42 28.5 -106 q0 -72 -36 -114.5 q-36 -42.5 -103 -53.5 l0 -4 q83 -10 127.5 -58 q44.5 -48 44.5 -139 q0 -103 -60.5 -159 q-60.5 -56 -166.5 -56 q-51 0 -88.5 8.5 q-37.5 8.5 -66.5 24.5 l0 -263 l-108 0 l0 775 q0 81 30.5 131.5 q30.5 50.5 83.5 74.5 q53 24 120 24 ZM307 679 q-33 0 -61 -13 q-28 -13 -45 -46 q-17 -33 -17 -92 l0 -413 q28 -17 61.5 -28 q33.5 -11 73.5 -11 q71 0 104.5 36 q33.5 36 33.5 101 q0 74 -41.5 107 q-41.5 33 -103.5 33 l-43 0 l0 87 l33 0 q64 0 93 34.5 q29 34.5 29 91.5 q0 57 -32 85 q-32 28 -85 28 Z" /><glyph glyph-name="gamma" unicode="&#x3b3;" d="M506 539 l-188 -527 q-14 -40 -24.5 -86 q-10.5 -46 -16 -89 q-5.5 -43 -5.5 -77 l-116 0 q0 28 6 70 q6 42 16.5 88.5 q10.5 46.5 24.5 87.5 l-200 533 l113 0 l92 -269 q9 -26 19 -60 q10 -34 18 -64 q8 -30 11 -48 l3 0 q3 16 10.5 46 q7.5 30 17 63 q9.5 33 17.5 58 l90 274 l112 0 Z" /><glyph glyph-name="delta" unicode="&#x3b4;" d="M308 761 q64 0 112.5 -16 q48.5 -16 91.5 -38 l-45 -79 q-38 21 -77.5 35.5 q-39.5 14.5 -83.5 14.5 q-40 0 -57.5 -19 q-17.5 -19 -17.5 -44 q0 -33 28 -59.5 q28 -26.5 97 -65.5 q86 -48 129 -106.5 q43 -58.5 43 -143.5 q0 -124 -67 -187 q-67 -63 -176 -63 q-69 0 -123 26 q-54 26 -84.5 76 q-30.5 50 -30.5 122 q0 98 53 156 q53 58 136 84 q-50 31 -81.5 70.5 q-31.5 39.5 -31.5 94.5 q0 70 51.5 106 q51.5 36 133.5 36 ZM309 409 q-33 -9 -67.5 -30.5 q-34.5 -21.5 -58 -61 q-23.5 -39.5 -23.5 -102.5 q0 -61 33 -99.5 q33 -38.5 93 -38.5 q62 0 96 41 q34 41 34 118 q0 63 -29 103.5 q-29 40.5 -78 69.5 Z" /><glyph glyph-name="epsilon" unicode="&#x3b5;" d="M352 321 l0 -81 l-71 0 q-71 0 -103 -21.5 q-32 -21.5 -32 -63.5 q0 -43 33 -61.5 q33 -18.5 93 -18.5 q54 0 97 13 q43 13 74 29 l0 -90 q-31 -17 -75 -27 q-44 -10 -105 -10 q-117 0 -171 44.5 q-54 44.5 -54 112.5 q0 60 33 89 q33 29 83 42 l0 5 q-44 13 -69 44 q-25 31 -25 80 q0 47 26.5 78.5 q26.5 31.5 73 47.5 q46.5 16 105.5 16 q55 0 98 -10.5 q43 -10.5 82 -28.5 l-37 -81 q-32 15 -65 25.5 q-33 10.5 -77 10.5 q-105 0 -105 -69 q0 -40 34.5 -57.5 q34.5 -17.5 99.5 -17.5 l57 0 Z" /><glyph glyph-name="zeta" unicode="&#x3b6;" d="M445 -34 q0 -44 -18.5 -85 q-18.5 -41 -41.5 -73 l-110 0 q25 34 43.5 71.5 q18.5 37.5 18.5 63.5 q0 13 -7 23.5 q-7 10.5 -29.5 20 q-22.5 9.5 -69.5 18.5 q-92 17 -137.5 69 q-45.5 52 -45.5 151 q0 95 36.5 173 q36.5 78 98 147 q61.5 69 136.5 137 q-7 -2 -27 -3 q-20 -1 -46 -2 q-26 -1 -50 -1 l-121 0 l0 84 l368 0 l0 -73 q-93 -85 -149.5 -153 q-56.5 -68 -85.5 -122.5 q-29 -54.5 -38.5 -98.5 q-9.5 -44 -9.5 -82 q0 -55 17 -82.5 q17 -27.5 50 -41 q33 -13.5 81 -23.5 q76 -16 106.5 -45 q30.5 -29 30.5 -73 Z" /><glyph glyph-name="eta" unicode="&#x3b7;" d="M340 549 q87 0 135 -47 q48 -47 48 -151 l0 -591 l-108 0 l0 576 q0 62 -24 94 q-24 32 -76 32 q-74 0 -102.5 -49 q-28.5 -49 -28.5 -141 l0 -272 l-108 0 l0 539 l85 0 l15 -72 l6 0 q25 42 67.5 62 q42.5 20 90.5 20 Z" /><glyph glyph-name="theta" unicode="&#x3b8;" d="M522 377 q0 -121 -23.5 -207.5 q-23.5 -86.5 -76 -133 q-52.5 -46.5 -138.5 -46.5 q-121 0 -178.5 103 q-57.5 103 -57.5 284 q0 122 23.5 209 q23.5 87 75.5 133 q52 46 137 46 q121 0 179.5 -101.5 q58.5 -101.5 58.5 -286.5 ZM284 682 q-63 0 -92 -64 q-29 -64 -34 -190 l254 0 q-5 126 -35 190 q-30 64 -93 64 ZM284 73 q64 0 95 67 q31 67 33 203 l-254 0 q2 -134 31.5 -202 q29.5 -68 94.5 -68 Z" /><glyph glyph-name="iota" unicode="&#x3b9;" d="M182 539 l0 -377 q0 -86 67 -86 q22 0 44.5 4 q22.5 4 38.5 9 l0 -80 q-17 -8 -45 -13.5 q-28 -5.5 -58 -5.5 q-45 0 -80 15 q-35 15 -55 52 q-20 37 -20 104 l0 378 l108 0 Z" /><glyph glyph-name="lambda" unicode="&#x3bb;" d="M-3 0 l218 523 l-22 66 q-14 46 -34.5 67.5 q-20.5 21.5 -57.5 21.5 q-16 0 -29.5 -2 q-13.5 -2 -23.5 -4 l0 86 q13 3 32.5 5.5 q19.5 2.5 35.5 2.5 q53 0 86.5 -19 q33.5 -19 55.5 -56.5 q22 -37.5 41 -94.5 l151 -451 q12 -38 25.5 -52.5 q13.5 -14.5 32.5 -14.5 q15 0 30 5 l0 -80 q-10 -5 -29.5 -9 q-19.5 -4 -35.5 -4 q-46 0 -71 22 q-25 22 -39 69 l-59 183 q-11 34 -23.5 76.5 q-12.5 42.5 -17.5 69.5 l-3 0 q-8 -33 -19.5 -70.5 q-11.5 -37.5 -25.5 -71.5 l-105 -268 l-113 0 Z" /><glyph glyph-name="nu" unicode="&#x3bd;" d="M0 539 l113 0 l99 -293 q7 -22 15.5 -51 q8.5 -29 16.5 -57.5 q8 -28.5 12 -46.5 l4 0 q48 44 76 112 q28 68 40 153.5 q12 85.5 12 182.5 l108 0 q0 -106 -17.5 -197 q-17.5 -91 -61 -174.5 q-43.5 -83.5 -121.5 -167.5 l-106 0 l-190 539 Z" /><glyph glyph-name="xi" unicode="&#x3be;" d="M47 208 q0 73 38 120.5 q38 47.5 93 66.5 l0 6 q-47 13 -73.5 45 q-26.5 32 -26.5 87 q0 65 37 98 q37 33 95 51 q-18 -2 -49 -4 q-31 -2 -63 -2 l-24 0 l0 84 l347 0 l0 -78 l-35 0 q-50 0 -96.5 -16 q-46.5 -16 -75.5 -48 q-29 -32 -29 -81 q0 -48 31 -74 q31 -26 110 -26 l77 0 l0 -77 l-79 0 q-84 0 -124 -40.5 q-40 -40.5 -40 -103.5 q0 -48 17.5 -73 q17.5 -25 51 -37 q33.5 -12 81.5 -23 q75 -16 105 -45.5 q30 -29.5 30 -71.5 q0 -44 -18.5 -85 q-18.5 -41 -40.5 -73 l-106 0 q25 34 42.5 71.5 q17.5 37.5 17.5 64.5 q0 12 -7 22.5 q-7 10.5 -29.5 20 q-22.5 9.5 -67.5 18.5 q-93 17 -141 66.5 q-48 49.5 -48 136.5 Z" /><glyph glyph-name="pi" unicode="&#x3c0;" d="M562 75 q14 0 26.5 3.5 q12.5 3.5 22.5 8.5 l0 -80 q-11 -6 -33 -11.5 q-22 -5.5 -48 -5.5 q-119 0 -119 137 l0 327 l-187 0 l0 -454 l-108 0 l0 454 l-105 0 l0 46 l74 39 l537 0 l0 -85 l-103 0 l0 -321 q0 -31 12 -44.5 q12 -13.5 31 -13.5 Z" /><glyph glyph-name="rho" unicode="&#x3c1;" d="M530 269 q0 -136 -59 -207.5 q-59 -71.5 -159 -71.5 q-78 0 -134 43 l-6 0 q2 -12 4 -50 q2 -38 2 -82 l0 -141 l-109 0 l0 515 q0 136 62 205 q62 69 171 69 q66 0 117.5 -32.5 q51.5 -32.5 81 -95 q29.5 -62.5 29.5 -152.5 ZM299 461 q-61 0 -91 -45.5 q-30 -45.5 -30 -139.5 l0 -152 q23 -24 54.5 -35.5 q31.5 -11.5 65.5 -11.5 q64 0 92.5 47.5 q28.5 47.5 28.5 144.5 q0 98 -28.5 145 q-28.5 47 -91.5 47 Z" /><glyph glyph-name="sigma1" unicode="&#x3c2;" d="M297 549 q40 0 78.5 -9 q38.5 -9 70.5 -23 l-33 -85 q-29 11 -59.5 19 q-30.5 8 -59.5 8 q-72 0 -103 -52.5 q-31 -52.5 -31 -155.5 q0 -55 13 -86 q13 -31 45.5 -47.5 q32.5 -16.5 91.5 -29.5 q76 -17 105.5 -46.5 q29.5 -29.5 29.5 -72.5 q0 -45 -18.5 -87 q-18.5 -42 -40.5 -74 l-106 0 q25 34 43 72.5 q18 38.5 18 66.5 q0 13 -7.5 23 q-7.5 10 -30.5 20 q-23 10 -70 19 q-53 11 -95 38 q-42 27 -66 76 q-24 49 -24 126 q0 107 31 173 q31 66 87 96.5 q56 30.5 131 30.5 Z" /><glyph glyph-name="sigma" unicode="&#x3c3;" d="M531 242 q0 -72 -27.5 -129 q-27.5 -57 -81.5 -90 q-54 -33 -134 -33 q-108 0 -174 69 q-66 69 -66 200 q0 151 75 215.5 q75 64.5 208 64.5 l242 0 l0 -83 l-124 0 q37 -38 59.5 -91 q22.5 -53 22.5 -123 ZM160 259 q0 -80 30.5 -131 q30.5 -51 99.5 -51 q68 0 99 48 q31 48 31 122 q0 63 -18 115 q-18 52 -51 94 l-25 0 q-85 0 -125.5 -44.5 q-40.5 -44.5 -40.5 -152.5 Z" /><glyph glyph-name="tau" unicode="&#x3c4;" d="M440 539 l0 -85 l-187 0 l0 -288 q0 -50 21.5 -71 q21.5 -21 56.5 -21 q21 0 43 4 q22 4 39 9 l0 -79 q-16 -8 -44.5 -13.5 q-28.5 -5.5 -59.5 -5.5 q-45 0 -82.5 14.5 q-37.5 14.5 -60 51.5 q-22.5 37 -22.5 105 l0 294 l-133 0 l0 46 l75 39 l354 0 Z" /><glyph glyph-name="upsilon" unicode="&#x3c5;" d="M295 -10 q-87 0 -136 34 q-49 34 -68.5 91.5 q-19.5 57.5 -19.5 129.5 l0 294 l108 0 l0 -294 q0 -81 29 -125 q29 -44 92 -44 q66 0 98.5 53 q32.5 53 32.5 168 q0 68 -8 124.5 q-8 56.5 -23 117.5 l109 0 q15 -61 23 -117 q8 -56 8 -129 q0 -156 -62 -229.5 q-62 -73.5 -183 -73.5 Z" /><glyph glyph-name="phi" unicode="&#x3c6;" d="M148 546 l81 -54 q-35 -50 -55 -103 q-20 -53 -20 -121 q0 -67 19.5 -107.5 q19.5 -40.5 52 -60 q32.5 -19.5 71.5 -24.5 l0 284 q0 92 43.5 140 q43.5 48 120.5 48 q63 0 108 -33 q45 -33 69.5 -92.5 q24.5 -59.5 24.5 -139.5 q0 -96 -36 -158.5 q-36 -62.5 -95.5 -95 q-59.5 -32.5 -130.5 -37.5 l0 -232 l-104 0 l0 232 q-71 6 -127.5 35 q-56.5 29 -89 88.5 q-32.5 59.5 -32.5 155.5 q0 82 28 150.5 q28 68.5 72 124.5 ZM463 465 q-27 0 -44.5 -22.5 q-17.5 -22.5 -17.5 -81.5 l0 -285 q68 7 111 58.5 q43 51.5 43 147.5 q0 86 -24.5 134.5 q-24.5 48.5 -67.5 48.5 Z" /><glyph glyph-name="chi" unicode="&#x3c7;" d="M96 543 q55 0 81.5 -31.5 q26.5 -31.5 47.5 -95.5 l52 -153 l133 276 l113 0 l-199 -375 l86 -235 q16 -42 33 -61.5 q17 -19.5 48 -19.5 q23 0 44 4 l0 -82 q-15 -4 -31.5 -7 q-16.5 -3 -41.5 -3 q-63 0 -95.5 36 q-32.5 36 -53.5 102 l-58 178 l-152 -316 l-118 0 l220 416 l-71 201 q-14 40 -29 59.5 q-15 19.5 -38 19.5 q-20 0 -40 -7 l0 84 q13 4 30 7 q17 3 39 3 Z" /><glyph glyph-name="psi" unicode="&#x3c8;" d="M429 759 l0 -682 q75 7 118 54 q43 47 43 150 q0 67 -8.5 127.5 q-8.5 60.5 -24.5 130.5 l105 0 q16 -68 24 -129.5 q8 -61.5 8 -127.5 q0 -102 -35.5 -164.5 q-35.5 -62.5 -96 -92 q-60.5 -29.5 -133.5 -34.5 l0 -231 l-104 0 l0 231 q-75 3 -132 31 q-57 28 -89.5 88 q-32.5 60 -32.5 160 l0 269 l106 0 l0 -272 q0 -70 19 -110.5 q19 -40.5 52.5 -58.5 q33.5 -18 76.5 -22 l0 683 l104 0 Z" /><glyph glyph-name="omega" unicode="&#x3c9;" d="M664 539 q28 -71 40.5 -135 q12.5 -64 12.5 -143 q0 -81 -21.5 -142 q-21.5 -61 -64.5 -95 q-43 -34 -106 -34 q-55 0 -89 24.5 q-34 24.5 -50 69.5 l-5 0 q-16 -45 -49.5 -69.5 q-33.5 -24.5 -88.5 -24.5 q-63 0 -106 34 q-43 34 -64.5 95 q-21.5 61 -21.5 142 q0 79 12.5 143 q12.5 64 40.5 135 l110 0 q-30 -69 -44 -134 q-14 -65 -14 -143 q0 -89 25 -137.5 q25 -48.5 70 -48.5 q43 0 62.5 35 q19.5 35 19.5 92 l0 149 l102 0 l0 -149 q0 -61 20.5 -94 q20.5 -33 61.5 -33 q47 0 71 48.5 q24 48.5 24 137.5 q0 77 -14 142.5 q-14 65.5 -44 134.5 l110 0 Z" /><glyph glyph-name="afii10051" unicode="&#x402;" d="M480 -10 q-23 0 -44 4 q-21 4 -35 10 l0 92 q30 -13 69 -13 q19 0 37 7.5 q18 7.5 29.5 28.5 q11.5 21 11.5 64 l0 64 q0 53 -23 78 q-23 25 -79 25 l-163 0 l0 -350 l-110 0 l0 621 l-160 0 l0 93 l470 0 l0 -93 l-200 0 l0 -178 l168 0 q100 0 153.5 -48 q53.5 -48 53.5 -137 l0 -67 q0 -101 -48 -151 q-48 -50 -130 -50 Z" /><glyph glyph-name="afii10053" unicode="&#x404;" d="M384 631 q-89 0 -145 -55 q-56 -55 -66 -162 l310 0 l0 -91 l-311 0 q4 -115 57 -177.5 q53 -62.5 155 -62.5 q47 0 90 8.5 q43 8.5 87 22.5 l0 -93 q-80 -31 -188 -31 q-111 0 -181 46 q-70 46 -103.5 128.5 q-33.5 82.5 -33.5 192.5 q0 109 38 192 q38 83 111.5 129.5 q73.5 46.5 181.5 46.5 q62 0 110 -12.5 q48 -12.5 90 -33.5 l-42 -91 q-35 18 -73.5 30.5 q-38.5 12.5 -86.5 12.5 Z" /><glyph glyph-name="afii10058" unicode="&#x409;" d="M68 -11 q-18 0 -34.5 3.5 q-16.5 3.5 -30.5 8.5 l0 89 q11 -4 24 -7.5 q13 -3.5 27 -3.5 q24 0 38.5 20.5 q14.5 20.5 24.5 55.5 q10 35 18 79 q7 38 17.5 109.5 q10.5 71.5 23 167 q12.5 95.5 24.5 203.5 l353 0 l0 -294 l57 0 q95 0 152 -27 q57 -27 82 -74 q25 -47 25 -106 q0 -97 -62.5 -155 q-62.5 -58 -192.5 -58 l-172 0 l0 621 l-149 0 q-8 -70 -18 -149.5 q-10 -79.5 -20.5 -152.5 q-10.5 -73 -20.5 -125 q-18 -99 -53.5 -152 q-35.5 -53 -112.5 -53 ZM553 91 l54 0 q76 0 112.5 29.5 q36.5 29.5 36.5 92.5 q0 65 -40 90.5 q-40 25.5 -119 25.5 l-44 0 l0 -238 Z" /><glyph glyph-name="afii10059" unicode="&#x40a;" d="M87 0 l0 714 l111 0 l0 -296 l256 0 l0 296 l111 0 l0 -294 l56 0 q95 0 152 -27 q57 -27 82 -74 q25 -47 25 -106 q0 -97 -62 -155 q-62 -58 -192 -58 l-172 0 l0 326 l-256 0 l0 -326 l-111 0 ZM565 91 l54 0 q75 0 112 29.5 q37 29.5 37 92.5 q0 65 -40.5 90.5 q-40.5 25.5 -118.5 25.5 l-44 0 l0 -238 Z" /><glyph glyph-name="afii10060" unicode="&#x40b;" d="M500 714 l0 -94 l-217 0 l0 -178 l173 0 q98 0 150 -47.5 q52 -47.5 52 -136.5 l0 -258 l-111 0 l0 247 q0 53 -22 77.5 q-22 24.5 -75 24.5 l-167 0 l0 -349 l-111 0 l0 620 l-159 0 l0 94 l487 0 Z" /><glyph glyph-name="afii10145" unicode="&#x40f;" d="M604 0 l-205 0 l0 -194 l-110 0 l0 194 l-202 0 l0 714 l111 0 l0 -620 l296 0 l0 620 l110 0 l0 -714 Z" /><glyph glyph-name="afii10018" unicode="&#x411;" d="M87 0 l0 714 l411 0 l0 -93 l-300 0 l0 -201 l86 0 q97 0 153.5 -27 q56.5 -27 80.5 -73.5 q24 -46.5 24 -106.5 q0 -101 -60 -157 q-60 -56 -194 -56 l-201 0 ZM198 91 l84 0 q79 0 113 29.5 q34 29.5 34 92.5 q0 65 -37.5 90.5 q-37.5 25.5 -120.5 25.5 l-73 0 l0 -238 Z" /><glyph glyph-name="afii10021" unicode="&#x414;" d="M574 714 l0 -620 l87 0 l0 -288 l-106 0 l0 194 l-443 0 l0 -194 l-107 0 l0 288 l53 0 q42 80 78 181.5 q36 101.5 60 213.5 q24 112 31 225 l347 0 ZM464 620 l-144 0 q-4 -57 -17.5 -125.5 q-13.5 -68.5 -33 -140 q-19.5 -71.5 -44 -139 q-24.5 -67.5 -51.5 -121.5 l290 0 l0 526 Z" /><glyph glyph-name="afii10024" unicode="&#x416;" d="M255 368 l-243 346 l119 0 l238 -346 l0 346 l105 0 l0 -346 l239 346 l119 0 l-244 -345 l255 -369 l-123 0 l-246 362 l0 -362 l-105 0 l0 362 l-246 -362 l-123 0 l255 368 Z" /><glyph glyph-name="afii10025" unicode="&#x417;" d="M510 547 q0 -73 -44 -116 q-44 -43 -117 -54 l0 -4 q88 -11 133 -55.5 q45 -44.5 45 -115.5 q0 -94 -68.5 -153 q-68.5 -59 -205.5 -59 q-64 0 -117.5 9 q-53.5 9 -95.5 30 l0 95 q44 -22 98.5 -34.5 q54.5 -12.5 101.5 -12.5 q88 0 131 33.5 q43 33.5 43 95.5 q0 62 -53 91 q-53 29 -147 29 l-88 0 l0 88 l82 0 q101 0 145.5 32 q44.5 32 44.5 88 q0 49 -34 75.5 q-34 26.5 -92 26.5 q-58 0 -100.5 -16.5 q-42.5 -16.5 -81.5 -43.5 l-50 73 q44 32 103.5 53.5 q59.5 21.5 137.5 21.5 q111 0 170 -50 q59 -50 59 -127 Z" /><glyph glyph-name="afii10026" unicode="&#x418;" d="M88 714 l102 0 l0 -378 q0 -34 -1 -75 q-1 -41 -2.5 -75.5 q-1.5 -34.5 -3.5 -48.5 l4 0 l344 577 l126 0 l0 -714 l-102 0 l0 375 q0 37 1.5 79.5 q1.5 42.5 3.5 77 q2 34.5 2 48.5 l-3 0 l-344 -580 l-127 0 l0 714 Z" /><glyph glyph-name="afii10028" unicode="&#x41a;" d="M603 0 l-129 0 l-276 362 l0 -362 l-111 0 l0 714 l111 0 l0 -346 l270 346 l122 0 l-270 -346 l283 -368 Z" /><glyph glyph-name="afii10029" unicode="&#x41b;" d="M592 0 l-110 0 l0 621 l-191 0 q-7 -70 -17 -149.5 q-10 -79.5 -20 -152.5 q-10 -73 -20 -125 q-18 -99 -53.5 -152 q-35.5 -53 -112.5 -53 q-18 0 -35 3.5 q-17 3.5 -30 8.5 l0 89 q11 -4 24 -7.5 q13 -3.5 27 -3.5 q24 0 39 21 q15 21 24.5 56.5 q9.5 35.5 17.5 77.5 q7 36 17 108 q10 72 22.5 168 q12.5 96 24.5 204 l393 0 l0 -714 Z" /><glyph glyph-name="afii10037" unicode="&#x423;" d="M604 714 l-212 -510 q-30 -70 -61 -118 q-31 -48 -76 -72 q-45 -24 -115 -24 q-25 0 -51 4 q-26 4 -47 11 l0 102 q43 -19 92 -19 q49 0 77.5 23 q28.5 23 49.5 76 l-251 527 l119 0 l162 -357 q7 -16 14 -35.5 q7 -19.5 12 -36.5 l5 0 q4 15 11 34.5 q7 19.5 13 35.5 l141 359 l117 0 Z" /><glyph glyph-name="afii10040" unicode="&#x426;" d="M698 91 l0 -285 l-107 0 l0 194 l-504 0 l0 714 l111 0 l0 -620 l296 0 l0 620 l110 0 l0 -623 l94 0 Z" /><glyph glyph-name="afii10041" unicode="&#x427;" d="M583 0 l-111 0 l0 288 q-56 -21 -104.5 -33 q-48.5 -12 -102.5 -12 q-95 0 -147 47.5 q-52 47.5 -52 135.5 l0 288 l110 0 l0 -266 q0 -56 26 -84 q26 -28 86 -28 q48 0 90 10 q42 10 94 30 l0 338 l111 0 l0 -714 Z" /><glyph glyph-name="afii10042" unicode="&#x428;" d="M903 0 l-816 0 l0 714 l111 0 l0 -620 l241 0 l0 620 l110 0 l0 -620 l242 0 l0 620 l112 0 l0 -714 Z" /><glyph glyph-name="afii10043" unicode="&#x429;" d="M987 91 l0 -285 l-107 0 l0 194 l-793 0 l0 714 l111 0 l0 -620 l237 0 l0 620 l111 0 l0 -620 l237 0 l0 620 l110 0 l0 -623 l94 0 Z" /><glyph glyph-name="afii10044" unicode="&#x42a;" d="M168 0 l0 621 l-160 0 l0 93 l270 0 l0 -294 l91 0 q93 0 149 -27.5 q56 -27.5 80.5 -74 q24.5 -46.5 24.5 -105.5 q0 -97 -61.5 -155 q-61.5 -58 -189.5 -58 l-204 0 ZM278 91 l88 0 q73 0 108.5 29.5 q35.5 29.5 35.5 92.5 q0 65 -39 90.5 q-39 25.5 -116 25.5 l-77 0 l0 -238 Z" /><glyph glyph-name="afii10045" unicode="&#x42b;" d="M87 0 l0 714 l111 0 l0 -294 l85 0 q93 0 148.5 -27.5 q55.5 -27.5 80.5 -74 q25 -46.5 25 -105.5 q0 -97 -61 -155 q-61 -58 -190 -58 l-199 0 ZM628 0 l0 714 l110 0 l0 -714 l-110 0 ZM198 90 l83 0 q143 0 143 123 q0 65 -38 90 q-38 25 -114 25 l-74 0 l0 -238 Z" /><glyph glyph-name="afii10046" unicode="&#x42c;" d="M87 0 l0 714 l111 0 l0 -294 l103 0 q93 0 149.5 -27.5 q56.5 -27.5 82.5 -74 q26 -46.5 26 -105.5 q0 -97 -63 -155 q-63 -58 -192 -58 l-217 0 ZM198 91 l100 0 q73 0 110.5 29.5 q37.5 29.5 37.5 92.5 q0 65 -41 90.5 q-41 25.5 -116 25.5 l-91 0 l0 -238 Z" /><glyph glyph-name="afii10047" unicode="&#x42d;" d="M229 631 q-47 0 -86 -12 q-39 -12 -74 -28 l-39 89 q41 21 93 32.5 q52 11.5 109 11.5 q106 0 177 -45.5 q71 -45.5 106 -126 q35 -80.5 35 -187.5 q0 -114 -35.5 -198.5 q-35.5 -84.5 -108 -130.5 q-72.5 -46 -182.5 -46 q-58 0 -101 7.5 q-43 7.5 -84 23.5 l0 93 q43 -14 85 -22.5 q42 -8.5 89 -8.5 q107 0 162 61.5 q55 61.5 59 178.5 l-311 0 l0 93 l310 0 q-8 101 -62 158 q-54 57 -142 57 Z" /><glyph glyph-name="afii10048" unicode="&#x42e;" d="M940 358 q0 -111 -33 -193.5 q-33 -82.5 -99 -128.5 q-66 -46 -166 -46 q-95 0 -159.5 41.5 q-64.5 41.5 -99 117 q-34.5 75.5 -39.5 177.5 l-146 0 l0 -326 l-111 0 l0 714 l111 0 l0 -296 l148 0 q12 140 85 223.5 q73 83.5 210 83.5 q99 0 165.5 -45.5 q66.5 -45.5 100 -128 q33.5 -82.5 33.5 -193.5 ZM457 358 q0 -128 44.5 -202 q44.5 -74 138.5 -74 q97 0 141 74 q44 74 44 202 q0 128 -43.5 201 q-43.5 73 -139.5 73 q-96 0 -140.5 -73 q-44.5 -73 -44.5 -201 Z" /><glyph glyph-name="afii10049" unicode="&#x42f;" d="M302 290 l-164 -290 l-127 0 l188 313 q-33 12 -62.5 35 q-29.5 23 -48 63 q-18.5 40 -18.5 102 q0 97 64.5 149 q64.5 52 190.5 52 l199 0 l0 -714 l-110 0 l0 290 l-112 0 ZM414 623 l-86 0 q-72 0 -108.5 -27.5 q-36.5 -27.5 -36.5 -88.5 q0 -61 37 -94.5 q37 -33.5 112 -33.5 l82 0 l0 244 Z" /><glyph glyph-name="afii10066" unicode="&#x431;" d="M49 323 q0 178 56 277 q56 99 185 125 q56 12 111.5 22 q55.5 10 107.5 18 l15 -93 q-32 -5 -72.5 -11.5 q-40.5 -6.5 -79.5 -13.5 q-39 -7 -68 -13 q-46 -9 -76 -32.5 q-30 -23.5 -46 -68 q-16 -44.5 -19 -117.5 l6 0 q12 19 34 39 q22 20 53.5 33.5 q31.5 13.5 71.5 13.5 q95 0 147 -65 q52 -65 52 -175 q0 -91 -30.5 -151.5 q-30.5 -60.5 -84.5 -90.5 q-54 -30 -125 -30 q-108 0 -173 85.5 q-65 85.5 -65 247.5 ZM295 77 q53 0 86 39 q33 39 33 135 q0 77 -25 122 q-25 45 -83 45 q-36 0 -66.5 -18.5 q-30.5 -18.5 -51 -42 q-20.5 -23.5 -28.5 -38.5 q0 -61 11.5 -116.5 q11.5 -55.5 40.5 -90.5 q29 -35 83 -35 Z" /><glyph glyph-name="afii10067" unicode="&#x432;" d="M502 402 q0 -49 -27 -77.5 q-27 -28.5 -74 -38.5 l0 -4 q49 -7 83 -36.5 q34 -29.5 34 -86.5 q0 -46 -21 -82 q-21 -36 -68 -56.5 q-47 -20.5 -125 -20.5 l-228 0 l0 539 l227 0 q59 0 104 -13 q45 -13 70 -42.5 q25 -29.5 25 -81.5 ZM393 390 q0 34 -22.5 50.5 q-22.5 16.5 -71.5 16.5 l-115 0 l0 -136 l100 0 q109 0 109 69 ZM407 161 q0 42 -28.5 60.5 q-28.5 18.5 -84.5 18.5 l-110 0 l0 -160 l111 0 q53 0 82.5 18.5 q29.5 18.5 29.5 62.5 Z" /><glyph glyph-name="afii10068" unicode="&#x433;" d="M404 539 l0 -85 l-220 0 l0 -454 l-108 0 l0 539 l328 0 Z" /><glyph glyph-name="afii10069" unicode="&#x434;" d="M487 539 l0 -455 l74 0 l0 -273 l-101 0 l0 189 l-344 0 l0 -189 l-100 0 l0 273 l42 0 q58 92 88 212 q30 120 35 243 l306 0 ZM380 457 l-107 0 q-5 -65 -18.5 -133 q-13.5 -68 -35 -130 q-21.5 -62 -50.5 -110 l211 0 l0 373 Z" /><glyph glyph-name="afii10072" unicode="&#x436;" d="M740 539 l-200 -261 l217 -278 l-120 0 l-207 273 l0 -273 l-102 0 l0 273 l-208 -273 l-120 0 l217 278 l-199 261 l116 0 l194 -262 l0 262 l102 0 l0 -262 l194 262 l116 0 Z" /><glyph glyph-name="afii10073" unicode="&#x437;" d="M225 549 q86 0 142.5 -36 q56.5 -36 56.5 -106 q0 -49 -26 -78 q-26 -29 -70 -42 l0 -4 q48 -13 80.5 -42 q32.5 -29 32.5 -90 q0 -45 -24.5 -81.5 q-24.5 -36.5 -75.5 -58 q-51 -21.5 -130 -21.5 q-58 0 -102.5 9 q-44.5 9 -76.5 26 l0 92 q32 -16 76.5 -29 q44.5 -13 97.5 -13 q57 0 92.5 18 q35.5 18 35.5 64 q0 42 -33.5 62.5 q-33.5 20.5 -104.5 20.5 l-65 0 l0 81 l54 0 q65 0 101.5 17 q36.5 17 36.5 58 q0 69 -107 69 q-40 0 -74 -8.5 q-34 -8.5 -71 -25.5 l-35 80 q43 18 88.5 28 q45.5 10 100.5 10 Z" /><glyph glyph-name="afii10074" unicode="&#x438;" d="M178 539 l0 -294 q0 -15 -1.5 -43 q-1.5 -28 -3 -54 q-1.5 -26 -2.5 -39 l253 430 l128 0 l0 -539 l-101 0 l0 287 q0 19 1 47 q1 28 2 54.5 q1 26.5 2 40.5 l-251 -429 l-129 0 l0 539 l102 0 Z" /><glyph glyph-name="afii10076" unicode="&#x43a;" d="M391 539 l119 0 l-209 -259 l227 -280 l-125 0 l-219 273 l0 -273 l-108 0 l0 539 l108 0 l0 -262 l207 262 Z" /><glyph glyph-name="afii10077" unicode="&#x43b;" d="M496 0 l-110 0 l0 454 l-138 0 q-12 -166 -34 -267.5 q-22 -101.5 -58.5 -148 q-36.5 -46.5 -94.5 -46.5 q-16 0 -30.5 2.5 q-14.5 2.5 -25.5 7.5 l0 81 q17 -5 32 -5 q29 0 51 46 q22 46 38 147 q16 101 28 268 l342 0 l0 -539 Z" /><glyph glyph-name="afii10078" unicode="&#x43c;" d="M659 539 l0 -539 l-99 0 l0 320 q0 56 6 107 l-3 0 l-154 -427 l-85 0 l-151 427 l-3 0 q2 -25 3 -52.5 q1 -27.5 1 -57.5 l0 -317 l-98 0 l0 539 l147 0 l144 -413 l146 413 l146 0 Z" /><glyph glyph-name="afii10079" unicode="&#x43d;" d="M184 539 l0 -219 l239 0 l0 219 l108 0 l0 -539 l-108 0 l0 235 l-239 0 l0 -235 l-108 0 l0 539 l108 0 Z" /><glyph glyph-name="afii10081" unicode="&#x43f;" d="M520 539 l0 -539 l-109 0 l0 453 l-227 0 l0 -453 l-108 0 l0 539 l444 0 Z" /><glyph glyph-name="afii10084" unicode="&#x442;" d="M459 454 l-167 0 l0 -454 l-107 0 l0 454 l-165 0 l0 85 l439 0 l0 -85 Z" /><glyph glyph-name="afii10086" unicode="&#x444;" d="M411 760 l0 -215 q121 -11 190 -83.5 q69 -72.5 69 -192.5 q0 -119 -67 -192 q-67 -73 -192 -84 l0 -233 l-104 0 l0 233 q-120 11 -190 84 q-70 73 -70 192 q0 121 67 193.5 q67 72.5 195 82.5 l0 215 l102 0 ZM309 461 q-75 -9 -112.5 -59 q-37.5 -50 -37.5 -133 q0 -83 37 -133 q37 -50 113 -59 l0 384 ZM411 460 l0 -383 q74 10 111 59.5 q37 49.5 37 132.5 q0 83 -37.5 132 q-37.5 49 -110.5 59 Z" /><glyph glyph-name="afii10088" unicode="&#x446;" d="M607 -189 l-101 0 l0 189 l-430 0 l0 539 l108 0 l0 -454 l235 0 l0 454 l109 0 l0 -455 l79 0 l0 -273 Z" /><glyph glyph-name="afii10089" unicode="&#x447;" d="M171 539 l0 -197 q0 -85 83 -85 q44 0 80 13.5 q36 13.5 74 36.5 l0 232 l109 0 l0 -539 l-109 0 l0 233 q-38 -26 -79.5 -42.5 q-41.5 -16.5 -96.5 -16.5 q-81 0 -125 43 q-44 43 -44 120 l0 202 l108 0 Z" /><glyph glyph-name="afii10090" unicode="&#x448;" d="M796 539 l0 -539 l-720 0 l0 539 l108 0 l0 -454 l198 0 l0 454 l107 0 l0 -454 l198 0 l0 454 l109 0 Z" /><glyph glyph-name="afii10091" unicode="&#x449;" d="M795 539 l0 -455 l80 0 l0 -272 l-103 0 l0 188 l-696 0 l0 539 l108 0 l0 -454 l198 0 l0 454 l107 0 l0 -454 l198 0 l0 454 l108 0 Z" /><glyph glyph-name="afii10092" unicode="&#x44a;" d="M285 539 l0 -217 l119 0 q110 0 160.5 -39 q50.5 -39 50.5 -116 q0 -77 -48.5 -122 q-48.5 -45 -164.5 -45 l-226 0 l0 454 l-161 0 l0 85 l270 0 ZM397 239 l-112 0 l0 -159 l115 0 q50 0 78.5 19 q28.5 19 28.5 64 q0 43 -27 59.5 q-27 16.5 -83 16.5 Z" /><glyph glyph-name="afii10093" unicode="&#x44b;" d="M76 0 l0 539 l108 0 l0 -217 l108 0 q106 0 154.5 -39 q48.5 -39 48.5 -116 q0 -77 -48 -122 q-48 -45 -160 -45 l-211 0 ZM573 0 l0 539 l108 0 l0 -539 l-108 0 ZM184 80 l95 0 q48 0 77.5 18.5 q29.5 18.5 29.5 64.5 q0 43 -27 60 q-27 17 -80 17 l-95 0 l0 -160 Z" /><glyph glyph-name="afii10094" unicode="&#x44c;" d="M184 322 l127 0 q105 0 155.5 -39 q50.5 -39 50.5 -116 q0 -77 -49.5 -122 q-49.5 -45 -161.5 -45 l-230 0 l0 539 l108 0 l0 -217 ZM408 163 q0 43 -28 60 q-28 17 -81 17 l-115 0 l0 -160 l117 0 q47 0 77 19 q30 19 30 64 Z" /><glyph glyph-name="afii10095" unicode="&#x44d;" d="M174 -10 q-46 0 -80.5 7.5 q-34.5 7.5 -64.5 22.5 l0 88 q31 -13 66 -22.5 q35 -9.5 76 -9.5 q62 0 100.5 38 q38.5 38 43.5 122 l-227 0 l0 80 l226 0 q-5 76 -38 111.5 q-33 35.5 -94 35.5 q-28 0 -61 -8.5 q-33 -8.5 -58 -19.5 l-31 81 q28 13 69 23 q41 10 85 10 q70 0 124.5 -27 q54.5 -27 85.5 -88.5 q31 -61.5 31 -162.5 q0 -145 -68.5 -213 q-68.5 -68 -184.5 -68 Z" /><glyph glyph-name="afii10096" unicode="&#x44e;" d="M754 270 q0 -134 -62 -207 q-62 -73 -168 -73 q-96 0 -157 62 q-61 62 -71 183 l-112 0 l0 -235 l-108 0 l0 539 l108 0 l0 -219 l113 0 q12 111 72 170 q60 59 157 59 q67 0 118.5 -32.5 q51.5 -32.5 80.5 -94.5 q29 -62 29 -152 ZM406 270 q0 -95 28.5 -144 q28.5 -49 90.5 -49 q62 0 90 49 q28 49 28 144 q0 95 -28 143 q-28 48 -90 48 q-62 0 -90.5 -48 q-28.5 -48 -28.5 -143 Z" /><glyph glyph-name="afii10097" unicode="&#x44f;" d="M129 0 l-121 0 l141 222 q-28 9 -53 27.5 q-25 18.5 -40.5 50 q-15.5 31.5 -15.5 78.5 q0 78 52.5 119.5 q52.5 41.5 138.5 41.5 l232 0 l0 -539 l-108 0 l0 210 l-103 0 l-123 -210 ZM146 377 q0 -43 28 -64.5 q28 -21.5 80 -21.5 l101 0 l0 166 l-115 0 q-50 0 -72 -23 q-22 -23 -22 -57 Z" /><glyph glyph-name="afii10099" unicode="&#x452;" d="M378 -240 q-22 0 -41 3.5 q-19 3.5 -32 8.5 l0 85 q13 -5 25.5 -7 q12.5 -2 27.5 -2 q24 0 41 17 q17 17 17 66 l0 386 q0 122 -99 122 q-74 0 -102.5 -49.5 q-28.5 -49.5 -28.5 -140.5 l0 -249 l-109 0 l0 599 l-71 0 l0 74 l71 0 l0 87 l109 0 l0 -87 l162 0 l0 -74 l-162 0 l0 -65 q0 -25 -2 -49.5 q-2 -24.5 -3 -40.5 l7 0 q24 41 64.5 61.5 q40.5 20.5 88.5 20.5 q88 0 136 -47 q48 -47 48 -150 l0 -402 q0 -76 -35.5 -121.5 q-35.5 -45.5 -111.5 -45.5 Z" /><glyph glyph-name="afii10101" unicode="&#x454;" d="M294 -10 q-72 0 -127.5 28.5 q-55.5 28.5 -87 89.5 q-31.5 61 -31.5 158 q0 103 32 165 q32 62 88.5 90 q56.5 28 128.5 28 q40 0 79.5 -8.5 q39.5 -8.5 70.5 -22.5 l-32 -82 q-29 11 -60.5 19 q-31.5 8 -59.5 8 q-122 0 -135 -147 l225 0 l0 -80 l-226 0 q5 -82 38.5 -121 q33.5 -39 96.5 -39 q42 0 76 9 q34 9 67 23 l0 -87 q-30 -15 -64 -23 q-34 -8 -79 -8 Z" /><glyph glyph-name="afii10106" unicode="&#x459;" d="M469 539 l0 -217 l91 0 q108 0 158.5 -39 q50.5 -39 50.5 -116 q0 -77 -48.5 -122 q-48.5 -45 -162.5 -45 l-199 0 l0 454 l-112 0 q-13 -166 -34 -268 q-21 -102 -57.5 -148 q-36.5 -46 -93.5 -46 q-37 0 -57 10 l0 81 q7 -2 15 -4 q8 -2 16 -2 q30 0 52 46 q22 46 38 147.5 q16 101.5 28 268.5 l315 0 ZM550 239 l-81 0 l0 -159 l84 0 q48 0 77.5 19 q29.5 19 29.5 64 q0 43 -27.5 59.5 q-27.5 16.5 -82.5 16.5 Z" /><glyph glyph-name="afii10107" unicode="&#x45a;" d="M490 539 l0 -218 l90 0 q110 0 160 -38.5 q50 -38.5 50 -115.5 q0 -77 -48 -122 q-48 -45 -162 -45 l-199 0 l0 235 l-195 0 l0 -235 l-110 0 l0 539 l110 0 l0 -219 l195 0 l0 219 l109 0 ZM573 239 l-83 0 l0 -159 l85 0 q48 0 77.5 19 q29.5 19 29.5 64 q0 43 -27 59.5 q-27 16.5 -82 16.5 Z" /><glyph glyph-name="afii10193" unicode="&#x45f;" d="M253 0 l-177 0 l0 539 l108 0 l0 -454 l237 0 l0 454 l108 0 l0 -539 l-175 0 l0 -188 l-101 0 l0 188 Z" /><glyph glyph-name="afii10050" unicode="&#x490;" d="M500 862 l0 -241 l-302 0 l0 -621 l-111 0 l0 714 l313 0 l0 148 l100 0 Z" /><glyph glyph-name="afii10098" unicode="&#x491;" d="M412 693 l0 -235 l-228 0 l0 -458 l-108 0 l0 539 l236 0 l0 154 l100 0 Z" /><glyph glyph-name="endash" unicode="&#x2013;" d="M37 224 l0 88 l397 0 l0 -88 l-397 0 Z" /><glyph glyph-name="emdash" unicode="&#x2014;" d="M37 224 l0 88 l866 0 l0 -88 l-866 0 Z" /><glyph glyph-name="underscoredbl" unicode="&#x2017;" d="M400 -90 l-402 0 l0 65 l402 0 l0 -65 ZM400 -223 l-402 0 l0 65 l402 0 l0 -65 Z" /><glyph glyph-name="quoteleft" unicode="&#x2018;" d="M17 469 l-6 11 q13 52 35.5 116 q22.5 64 45.5 118 l78 0 q-14 -58 -26.5 -125.5 q-12.5 -67.5 -19.5 -119.5 l-107 0 Z" /><glyph glyph-name="quoteright" unicode="&#x2019;" d="M165 714 l7 -11 q-13 -53 -35.5 -116.5 q-22.5 -63.5 -45.5 -117.5 l-79 0 q14 57 27 125 q13 68 20 120 l106 0 Z" /><glyph glyph-name="quotereversed" unicode="&#x201b;" d="M124 714 q7 -52 20.5 -120 q13.5 -68 26.5 -125 l-79 0 q-23 54 -45.5 117.5 q-22.5 63.5 -35.5 116.5 l7 11 l106 0 Z" /><glyph glyph-name="quotedblleft" unicode="&#x201c;" d="M361 714 q-13 -58 -26 -125.5 q-13 -67.5 -21 -119.5 l-107 0 l-7 11 q13 52 36 116 q23 64 46 118 l79 0 ZM170 714 q-14 -58 -27 -125.5 q-13 -67.5 -20 -119.5 l-106 0 l-6 11 q13 52 35.5 116 q22.5 64 45.5 118 l78 0 Z" /><glyph glyph-name="quotedblright" unicode="&#x201d;" d="M356 714 l6 -11 q-13 -53 -35.5 -116.5 q-22.5 -63.5 -45.5 -117.5 l-80 0 q9 38 18.5 81.5 q9.5 43.5 17 86 q7.5 42.5 12.5 77.5 l107 0 ZM165 714 l6 -11 q-13 -53 -36 -116.5 q-23 -63.5 -45 -117.5 l-78 0 q14 57 26.5 125 q12.5 68 19.5 120 l107 0 Z" /><glyph glyph-name="dagger" unicode="&#x2020;" d="M424 475 l-156 15 l24 -490 l-109 0 l24 490 l-148 -15 l0 96 l148 -15 l-24 204 l109 0 l-24 -204 l156 15 l0 -96 Z" /><glyph glyph-name="daggerdbl" unicode="&#x2021;" d="M272 250 l157 15 l0 -95 l-157 15 l24 -185 l-110 0 l23 185 l-154 -15 l0 95 l154 -15 l-19 134 l19 126 l-154 -15 l0 95 l154 -15 l-23 185 l110 0 l-24 -185 l157 15 l0 -95 l-157 15 l20 -126 l-20 -134 Z" /><glyph glyph-name="bullet" unicode="&#x2022;" d="M61 365 q0 72 33.5 102.5 q33.5 30.5 82.5 30.5 q49 0 83.5 -30.5 q34.5 -30.5 34.5 -102.5 q0 -71 -34.5 -102 q-34.5 -31 -83.5 -31 q-49 0 -82.5 31 q-33.5 31 -33.5 102 Z" /><glyph glyph-name="perthousand" unicode="&#x2030;" d="M185 724 q73 0 111.5 -58.5 q38.5 -58.5 38.5 -164.5 q0 -106 -36.5 -165.5 q-36.5 -59.5 -113.5 -59.5 q-71 0 -108.5 59.5 q-37.5 59.5 -37.5 165.5 q0 106 35.5 164.5 q35.5 58.5 110.5 58.5 ZM636 714 l-372 -714 l-90 0 l372 714 l90 0 ZM185 650 q-31 0 -44.5 -37.5 q-13.5 -37.5 -13.5 -111.5 q0 -75 13.5 -113 q13.5 -38 44.5 -38 q61 0 61 151 q0 149 -61 149 ZM622 438 q72 0 111 -58.5 q39 -58.5 39 -164.5 q0 -106 -37 -165.5 q-37 -59.5 -113 -59.5 q-70 0 -108 59.5 q-38 59.5 -38 165.5 q0 106 35.5 164.5 q35.5 58.5 110.5 58.5 ZM962 438 q71 0 110 -58.5 q39 -58.5 39 -164.5 q0 -106 -36.5 -165.5 q-36.5 -59.5 -112.5 -59.5 q-71 0 -109 59.5 q-38 59.5 -38 165.5 q0 106 35.5 164.5 q35.5 58.5 111.5 58.5 ZM623 364 q-31 0 -44.5 -37 q-13.5 -37 -13.5 -112 q0 -75 13.5 -112.5 q13.5 -37.5 44.5 -37.5 q61 0 61 150 q0 149 -61 149 ZM962 364 q-32 0 -45.5 -37 q-13.5 -37 -13.5 -112 q0 -75 13.5 -112.5 q13.5 -37.5 45.5 -37.5 q61 0 61 150 q0 149 -61 149 Z" /><glyph glyph-name="minute" unicode="&#x2032;" d="M159 714 l104 0 l-154 -258 l-72 0 l122 258 Z" /><glyph glyph-name="guilsinglleft" unicode="&#x2039;" d="M37 273 l164 207 l77 -42 l-129 -171 l129 -171 l-77 -43 l-164 207 l0 13 Z" /><glyph glyph-name="guilsinglright" unicode="&#x203a;" d="M114 480 l164 -207 l0 -13 l-164 -207 l-77 43 l129 171 l-129 171 l77 42 Z" /><glyph glyph-name="fraction" unicode="&#x2044;" d="M298 714 l-392 -714 l-89 0 l393 714 l88 0 Z" /><glyph glyph-name="franc" unicode="&#x20a3;" d="M107 0 l0 129 l-74 0 l0 72 l74 0 l0 513 l382 0 l0 -92 l-274 0 l0 -226 l257 0 l0 -92 l-257 0 l0 -103 l143 0 l0 -72 l-143 0 l0 -129 l-108 0 Z" /><glyph glyph-name="afii08941" unicode="&#x20a4;" d="M321 723 q51 0 93.5 -11.5 q42.5 -11.5 76.5 -27.5 l-35 -82 q-31 14 -64 23.5 q-33 9.5 -68 9.5 q-43 0 -67.5 -25.5 q-24.5 -25.5 -24.5 -86.5 l0 -78 l178 0 l0 -71 l-178 0 l0 -72 l178 0 l0 -72 l-179 0 q-1 -54 -18 -86.5 q-17 -32.5 -48 -49.5 l346 0 l0 -94 l-476 0 l0 88 q88 25 89 142 l-87 0 l0 72 l87 0 l0 72 l-87 0 l0 71 l87 0 l0 63 q0 105 50 160 q50 55 147 55 Z" /><glyph glyph-name="peseta" unicode="&#x20a7;" d="M219 714 q129 0 187 -56.5 q58 -56.5 58 -157.5 q0 -60 -23.5 -112.5 q-23.5 -52.5 -80 -84.5 q-56.5 -32 -155.5 -32 l-26 0 l0 -271 l-105 0 l0 714 l145 0 ZM215 623 l-36 0 l0 -261 l25 0 q76 0 114 31 q38 31 38 103 q0 64 -34 95.5 q-34 31.5 -107 31.5 ZM624 521 l0 -108 l112 0 l0 -77 l-112 0 l0 -191 q0 -35 13 -54 q13 -19 40 -19 q18 0 37 4 q19 4 31 8 l0 -75 q-14 -7 -38 -13 q-24 -6 -55 -6 q-58 0 -92 34.5 q-34 34.5 -34 111.5 l0 200 l-70 0 l0 44 l75 40 l34 101 l59 0 Z" /><glyph glyph-name="Euro" unicode="&#x20ac;" d="M363 722 q91 0 166 -44 l-40 -85 q-27 15 -59.5 27 q-32.5 12 -66.5 12 q-131 0 -161 -174 l210 0 l0 -72 l-216 0 q-1 -8 -1 -16 q0 -8 0 -18 q0 -8 0 -18 q0 -10 1 -20 l188 0 l0 -71 l-180 0 q14 -77 55.5 -119 q41.5 -42 111.5 -42 q37 0 71.5 9 q34.5 9 62.5 22 l0 -92 q-27 -13 -61.5 -22 q-34.5 -9 -79.5 -9 q-112 0 -180 67 q-68 67 -88 186 l-72 0 l0 71 l64 0 q-1 10 -1 18.5 q0 8.5 0 19.5 q0 10 0.5 19.5 q0.5 9.5 0.5 14.5 l-64 0 l0 72 l70 0 q19 122 87.5 193 q68.5 71 181.5 71 Z" /><glyph glyph-name="afii61248" unicode="&#x2105;" d="M210 379 q-70 0 -115.5 40.5 q-45.5 40.5 -45.5 127.5 q0 62 21.5 100 q21.5 38 58.5 55 q37 17 83 17 q26 0 50 -5.5 q24 -5.5 44 -14.5 l-19 -59 q-18 7 -37.5 12 q-19.5 5 -37.5 5 q-85 0 -85 -109 q0 -107 84 -107 q25 0 47.5 5 q22.5 5 40.5 13 l0 -60 q-17 -10 -40.5 -15 q-23.5 -5 -48.5 -5 ZM604 714 l-373 -714 l-89 0 l373 714 l89 0 ZM716 164 q0 -82 -41 -126 q-41 -44 -110 -44 q-63 0 -104.5 44 q-41.5 44 -41.5 126 q0 83 40.5 127 q40.5 44 108.5 44 q63 0 105.5 -44 q42.5 -44 42.5 -127 ZM497 164 q0 -50 16.5 -79.5 q16.5 -29.5 53.5 -29.5 q37 0 53.5 29.5 q16.5 29.5 16.5 79.5 q0 51 -16.5 80 q-16.5 29 -53.5 29 q-37 0 -53.5 -29 q-16.5 -29 -16.5 -80 Z" /><glyph glyph-name="afii61289" unicode="&#x2113;" d="M297 68 q31 0 52 23 q21 23 24 79 l71 0 q-4 -86 -41 -133 q-37 -47 -119 -47 q-44 0 -80 18 q-36 18 -56.5 58 q-20.5 40 -20.5 105 l0 98 q-21 -7 -43 -13.5 q-22 -6.5 -44 -13.5 l0 70 q23 7 45 14 q22 7 42 14 l0 228 q0 70 35.5 113 q35.5 43 118.5 43 q63 0 100.5 -40 q37.5 -40 37.5 -111 q0 -97 -51 -165.5 q-51 -68.5 -139 -106.5 l0 -129 q0 -47 16.5 -75.5 q16.5 -28.5 51.5 -28.5 ZM331 570 q0 85 -50 85 q-31 0 -41.5 -23.5 q-10.5 -23.5 -10.5 -61.5 l0 -193 q50 28 76 77.5 q26 49.5 26 115.5 Z" /><glyph glyph-name="afii61352" unicode="&#x2116;" d="M80 0 l0 714 l123 0 l269 -564 l6 0 q0 0 -1 19 q-1 19 -3 48.5 q-2 29.5 -3 62.5 q-1 33 -1 60 l0 374 l97 0 l0 -714 l-120 0 l-273 567 l-5 0 q0 0 1 -20 q1 -20 3 -51 q2 -31 3 -64.5 q1 -33.5 1 -61.5 l0 -370 l-97 0 ZM779 134 q-64 0 -105 44.5 q-41 44.5 -41 127.5 q0 83 40 127.5 q40 44.5 109 44.5 q62 0 104.5 -44.5 q42.5 -44.5 42.5 -127.5 q0 -83 -40.5 -127.5 q-40.5 -44.5 -109.5 -44.5 ZM781 198 q36 0 52.5 28 q16.5 28 16.5 80 q0 106 -69 106 q-37 0 -54 -26 q-17 -26 -17 -80 q0 -52 17 -80 q17 -28 54 -28 ZM648 0 l0 76 l264 0 l0 -76 l-264 0 Z" /><glyph glyph-name="trademark" unicode="&#x2122;" d="M655 714 l0 -352 l-65 0 l0 204 q0 8 1 31.5 q1 23.5 2 35.5 l-4 0 l-91 -271 l-53 0 l-87 271 l-4 0 q2 -16 2.5 -36 q0.5 -20 0.5 -26 l0 -209 l-61 0 l0 352 l94 0 l85 -271 l88 271 l92 0 ZM265 714 l0 -54 l-93 0 l0 -298 l-63 0 l0 298 l-93 0 l0 54 l249 0 Z" /><glyph glyph-name="estimated" unicode="&#x212e;" d="M290 -17 q-79 0 -133 39 q-54 39 -82 102 q-28 63 -28 135 q0 72 21.5 124 q21.5 52 57 86 q35.5 34 78.5 50 q43 16 86 16 q70 0 125 -33.5 q55 -33.5 87 -95.5 q32 -62 32 -147 l-380 0 l0 -174 q20 -23 57 -41.5 q37 -18.5 79 -18.5 q69 0 109.5 30 q40.5 30 72.5 84 l33 -20 q-22 -37 -49.5 -68 q-27.5 -31 -67.5 -49.5 q-40 -18.5 -98 -18.5 ZM428 301 l0 135 q-18 20 -54 39 q-36 19 -84 19 q-47 0 -80.5 -17 q-33.5 -17 -55.5 -40 l0 -136 l274 0 Z" /><glyph glyph-name="oneeighth" unicode="&#x215b;" d="M118 0 l393 714 l89 0 l-393 -714 l-89 0 ZM149 286 l0 259 q0 24 1.5 49 q1.5 25 2.5 43 q-8 -8 -18.5 -19 q-10.5 -11 -21.5 -19 l-46 -37 l-41 53 l130 99 l78 0 l0 -428 l-85 0 ZM593 -9 q-71 0 -110 33 q-39 33 -39 89 q0 41 20 67.5 q20 26.5 52 43.5 q-28 19 -43.5 41.5 q-15.5 22.5 -15.5 60.5 q0 54 40 82.5 q40 28.5 96 28.5 q55 0 94.5 -27 q39.5 -27 39.5 -82 q0 -37 -19 -61 q-19 -24 -48 -40 q37 -17 59 -43.5 q22 -26.5 22 -67.5 q0 -56 -41 -90.5 q-41 -34.5 -107 -34.5 ZM594 258 q24 11 39 26.5 q15 15.5 15 40.5 q0 23 -15 36.5 q-15 13.5 -41 13.5 q-26 0 -40.5 -13.5 q-14.5 -13.5 -14.5 -36.5 q0 -24 16 -39.5 q16 -15.5 41 -27.5 ZM591 54 q35 0 52 16.5 q17 16.5 17 42.5 q0 27 -18 44 q-18 17 -51 30 l-10 4 q-28 -14 -42.5 -32.5 q-14.5 -18.5 -14.5 -45.5 q0 -26 16.5 -42.5 q16.5 -16.5 50.5 -16.5 Z" /><glyph glyph-name="threeeighths" unicode="&#x215c;" d="M147 278 q-72 0 -126 30 l0 72 q63 -37 126 -37 q82 0 82 69 q0 64 -91 64 l-53 0 l0 61 l49 0 q45 0 64.5 18.5 q19.5 18.5 19.5 46.5 q0 28 -16 42 q-16 14 -42 14 q-27 0 -50.5 -10 q-23.5 -10 -48.5 -28 l-39 53 q29 23 63 36.5 q34 13.5 79 13.5 q64 0 99.5 -30.5 q35.5 -30.5 35.5 -80.5 q0 -38 -19.5 -64 q-19.5 -26 -51.5 -36 l0 -4 q40 -8 62 -35 q22 -27 22 -65 q0 -58 -41 -94 q-41 -36 -124 -36 ZM149 0 l393 714 l89 0 l-393 -714 l-89 0 ZM606 -9 q-71 0 -110 33 q-39 33 -39 89 q0 41 20.5 67.5 q20.5 26.5 52.5 43.5 q-28 19 -44 41.5 q-16 22.5 -16 60.5 q0 54 40 82.5 q40 28.5 97 28.5 q55 0 94 -27 q39 -27 39 -82 q0 -37 -19 -61 q-19 -24 -48 -40 q36 -17 58.5 -43.5 q22.5 -26.5 22.5 -67.5 q0 -56 -41 -90.5 q-41 -34.5 -107 -34.5 ZM607 258 q24 11 39 26.5 q15 15.5 15 40.5 q0 23 -15 36.5 q-15 13.5 -41 13.5 q-26 0 -40 -13.5 q-14 -13.5 -14 -36.5 q0 -24 15.5 -39.5 q15.5 -15.5 40.5 -27.5 ZM604 54 q35 0 52 16.5 q17 16.5 17 42.5 q0 27 -18 44 q-18 17 -51 30 l-10 4 q-28 -14 -42.5 -32.5 q-14.5 -18.5 -14.5 -45.5 q0 -26 16.5 -42.5 q16.5 -16.5 50.5 -16.5 Z" /><glyph glyph-name="fiveeighths" unicode="&#x215d;" d="M148 0 l393 714 l89 0 l-393 -714 l-89 0 ZM155 277 q-32 0 -64.5 6.5 q-32.5 6.5 -53.5 19.5 l0 75 q25 -16 56 -25.5 q31 -9.5 56 -9.5 q41 0 63.5 18.5 q22.5 18.5 22.5 58.5 q0 36 -22.5 55.5 q-22.5 19.5 -63.5 19.5 q-21 0 -37 -3.5 q-16 -3.5 -28 -7.5 l-39 20 l16 210 l233 0 l0 -65 l-169 0 l-8 -97 q12 2 25 4 q13 2 28 2 q63 0 105 -34 q42 -34 42 -99 q0 -70 -41.5 -109 q-41.5 -39 -120.5 -39 ZM608 -9 q-72 0 -111 33 q-39 33 -39 89 q0 41 20.5 67 q20.5 26 52.5 43 q-28 19 -43.5 42 q-15.5 23 -15.5 61 q0 54 40 82 q40 28 96 28 q56 0 95 -26.5 q39 -26.5 39 -81.5 q0 -37 -19 -61 q-19 -24 -49 -40 q37 -17 59 -43.5 q22 -26.5 22 -67.5 q0 -56 -41 -90.5 q-41 -34.5 -106 -34.5 ZM608 258 q24 11 39 26.5 q15 15.5 15 40.5 q0 23 -15 36.5 q-15 13.5 -40 13.5 q-27 0 -41.5 -13.5 q-14.5 -13.5 -14.5 -36.5 q0 -25 16 -40 q16 -15 41 -27 ZM606 53 q34 0 51 17 q17 17 17 43 q0 27 -17.5 44.5 q-17.5 17.5 -50.5 29.5 l-11 4 q-27 -14 -42 -32.5 q-15 -18.5 -15 -45.5 q0 -26 17 -43 q17 -17 51 -17 Z" /><glyph glyph-name="seveneighths" unicode="&#x215e;" d="M113 0 l393 714 l88 0 l-393 -714 l-88 0 ZM84 286 l158 359 l-204 0 l0 69 l291 0 l0 -56 l-155 -372 l-90 0 ZM601 -9 q-71 0 -110 33 q-39 33 -39 89 q0 41 20 67.5 q20 26.5 52 43.5 q-28 19 -43.5 41.5 q-15.5 22.5 -15.5 60.5 q0 54 40 82.5 q40 28.5 96 28.5 q56 0 95 -27 q39 -27 39 -82 q0 -37 -19 -61 q-19 -24 -48 -40 q36 -17 58.5 -43.5 q22.5 -26.5 22.5 -67.5 q0 -56 -41 -90.5 q-41 -34.5 -107 -34.5 ZM602 258 q24 11 38.5 26.5 q14.5 15.5 14.5 40.5 q0 23 -14.5 36.5 q-14.5 13.5 -40.5 13.5 q-26 0 -40.5 -13.5 q-14.5 -13.5 -14.5 -36.5 q0 -24 15.5 -39.5 q15.5 -15.5 41.5 -27.5 ZM599 54 q35 0 52 16.5 q17 16.5 17 42.5 q0 27 -18.5 44 q-18.5 17 -50.5 30 l-10 4 q-28 -14 -42.5 -32.5 q-14.5 -18.5 -14.5 -45.5 q0 -26 16.5 -42.5 q16.5 -16.5 50.5 -16.5 Z" /><glyph glyph-name="uni2074" unicode="&#x2074;" d="M333 506 l-58 0 l0 -90 l-86 0 l0 90 l-180 0 l0 58 l180 283 l86 0 l0 -275 l58 0 l0 -66 ZM189 572 l0 89 q0 21 0.5 47.5 q0.5 26.5 2.5 50.5 q-5 -12 -18 -36.5 q-13 -24.5 -23 -40.5 l-68 -110 l106 0 Z" /><glyph glyph-name="uni2075" unicode="&#x2075;" d="M290 844 l0 -65 l-170 0 l-7 -97 q11 2 24 4 q13 2 29 2 q62 0 104.5 -34 q42.5 -34 42.5 -99 q0 -70 -41.5 -109 q-41.5 -39 -121.5 -39 q-32 0 -64 6.5 q-32 6.5 -53 19.5 l0 75 q24 -16 55.5 -25.5 q31.5 -9.5 56.5 -9.5 q39 0 62.5 18.5 q23.5 18.5 23.5 58.5 q0 36 -23 55.5 q-23 19.5 -64 19.5 q-19 0 -35.5 -3.5 q-16.5 -3.5 -29.5 -7.5 l-38 20 l16 210 l233 0 Z" /><glyph glyph-name="uni2077" unicode="&#x2077;" d="M73 416 l158 359 l-204 0 l0 69 l290 0 l0 -56 l-154 -372 l-90 0 Z" /><glyph glyph-name="uni2078" unicode="&#x2078;" d="M171 853 q55 0 94.5 -27 q39.5 -27 39.5 -82 q0 -37 -19.5 -61 q-19.5 -24 -47.5 -40 q35 -17 58 -43.5 q23 -26.5 23 -67.5 q0 -56 -40.5 -90.5 q-40.5 -34.5 -107.5 -34.5 q-73 0 -111 33 q-38 33 -38 89 q0 41 21.5 67.5 q21.5 26.5 50.5 43.5 q-27 19 -43 41.5 q-16 22.5 -16 60.5 q0 54 40.5 82.5 q40.5 28.5 95.5 28.5 ZM170 791 q-26 0 -40.5 -13.5 q-14.5 -13.5 -14.5 -36.5 q0 -24 16 -39.5 q16 -15.5 41 -27.5 q24 11 39 26.5 q15 15.5 15 40.5 q0 23 -14 36.5 q-14 13.5 -42 13.5 ZM159 607 q-28 -14 -42.5 -32.5 q-14.5 -18.5 -14.5 -45.5 q0 -26 16.5 -42.5 q16.5 -16.5 50.5 -16.5 q35 0 52 16.5 q17 16.5 17 42.5 q0 27 -18.5 44 q-18.5 17 -50.5 30 l-10 4 Z" /><glyph glyph-name="uni2000" unicode="&#x2000;" d="" /><glyph glyph-name="uni2001" unicode="&#x2001;" d="" /><glyph glyph-name="uni2002" unicode="&#x2002;" d="" /><glyph glyph-name="uni2003" unicode="&#x2003;" d="" /><glyph glyph-name="uni2004" unicode="&#x2004;" d="" /><glyph glyph-name="uni2005" unicode="&#x2005;" d="" /><glyph glyph-name="uni2006" unicode="&#x2006;" d="" /><glyph glyph-name="uni2007" unicode="&#x2007;" d="" /><glyph glyph-name="uni2008" unicode="&#x2008;" d="" /><glyph glyph-name="uni2009" unicode="&#x2009;" d="" /><glyph glyph-name="uni200A" unicode="&#x200a;" d="" /><glyph glyph-name="uni200B" unicode="&#x200b;" d="" /><glyph glyph-name="uniFEFF" unicode="&#xfeff;" d="" /><glyph glyph-name="uniFFFC" unicode="&#xfffc;" d="M771 687 l0 54 l139 0 l0 -148 l-49 0 l0 94 l-90 0 ZM592 687 l0 54 l125 0 l0 -54 l-125 0 ZM412 687 l0 54 l125 0 l0 -54 l-125 0 ZM233 687 l0 54 l124 0 l0 -54 l-124 0 ZM38 593 l0 148 l139 0 l0 -54 l-88 0 l0 -94 l-51 0 ZM910 402 l-49 0 l0 132 l49 0 l0 -132 ZM89 402 l-51 0 l0 132 l51 0 l0 -132 ZM396 307 q0 -66 -29 -106.5 q-29 -40.5 -91 -40.5 q-62 0 -91 40.5 q-29 40.5 -29 106.5 q0 67 29 107 q29 40 91 40 q62 0 91 -40 q29 -40 29 -107 ZM684 161 q-22 0 -37 5 l0 50 q7 -2 14.5 -3 q7.5 -1 16.5 -1 q17 0 28.5 8.5 q11.5 8.5 11.5 33.5 l0 196 l57 0 l0 -194 q0 -50 -25.5 -72.5 q-25.5 -22.5 -65.5 -22.5 ZM435 450 l79 0 q50 0 75.5 -16 q25.5 -16 25.5 -57 q0 -24 -10.5 -40 q-10.5 -16 -30.5 -20 l0 -4 q20 -5 34.5 -18.5 q14.5 -13.5 14.5 -47.5 q0 -39 -25 -61 q-25 -22 -68 -22 l-95 0 l0 286 ZM214 307 q0 -45 15 -70.5 q15 -25.5 47 -25.5 q32 0 47 25.5 q15 25.5 15 70.5 q0 45 -15 70.5 q-15 25.5 -47 25.5 q-32 0 -47 -25.5 q-15 -25.5 -15 -70.5 ZM491 337 l30 0 q21 0 29.5 8 q8.5 8 8.5 24 q0 31 -41 31 l-27 0 l0 -63 ZM89 210 l-51 0 l0 133 l51 0 l0 -133 ZM910 210 l-49 0 l0 133 l49 0 l0 -133 ZM491 289 l0 -75 l34 0 q23 0 31 10.5 q8 10.5 8 28.5 q0 16 -8.5 26 q-8.5 10 -32.5 10 l-32 0 ZM89 19 l-51 0 l0 132 l51 0 l0 -132 ZM910 19 l-49 0 l0 132 l49 0 l0 -132 ZM38 -187 l0 148 l51 0 l0 -95 l88 0 l0 -53 l-139 0 ZM771 -187 l0 53 l90 0 l0 95 l49 0 l0 -148 l-139 0 ZM412 -187 l0 53 l125 0 l0 -53 l-125 0 ZM233 -187 l0 53 l124 0 l0 -53 l-124 0 ZM592 -187 l0 53 l125 0 l0 -53 l-125 0 Z" /><glyph glyph-name="uniFFFD" unicode="&#xfffd;" d="M470 760 l431 -458 l-431 -458 l-431 458 l431 458 ZM500 179 l0 23 q0 25 9.5 39.5 q9.5 14.5 39.5 40.5 q40 34 60.5 65 q20.5 31 20.5 80 q0 67 -43.5 104 q-43.5 37 -117.5 37 q-40 0 -81.5 -14 q-41.5 -14 -73.5 -34 l38 -87 q31 17 60.5 28 q29.5 11 54.5 11 q29 0 43 -14 q14 -14 14 -37 q0 -29 -12.5 -46 q-12.5 -17 -43.5 -43 q-35 -30 -50 -57.5 q-15 -27.5 -15 -66.5 l0 -29 l97 0 ZM391 45 q0 -35 18.5 -50.5 q18.5 -15.5 45.5 -15.5 q25 0 44.5 15.5 q19.5 15.5 19.5 50.5 q0 37 -19.5 52 q-19.5 15 -44.5 15 q-27 0 -45.5 -15 q-18.5 -15 -18.5 -52 Z" /><glyph glyph-name="uni03D1" unicode="&#x3d1;" d="M290 765 q75 0 125.5 -35 q50.5 -35 80 -99.5 q29.5 -64.5 40.5 -150.5 l66 0 l0 -84 l-59 0 q1 -10 1 -23.5 q0 -13.5 0 -26.5 q0 -101 -27.5 -181.5 q-27.5 -80.5 -86.5 -127.5 q-59 -47 -153 -47 q-73 0 -112.5 25 q-39.5 25 -55.5 64.5 q-16 39.5 -16 83.5 q0 36 5 71 q5 35 5 58 q0 22 -7.5 30.5 q-7.5 8.5 -21.5 8.5 q-10 0 -22 -4.5 q-12 -4.5 -19 -9.5 l-25 70 q21 11 49.5 19 q28.5 8 60.5 8 q44 0 65 -25 q21 -25 21 -65 q0 -33 -5 -71.5 q-5 -38.5 -5 -79.5 q0 -39 20.5 -69 q20.5 -30 69.5 -30 q74 0 112.5 69 q38.5 69 38.5 208 q0 9 -0.5 22 q-0.5 13 -1.5 22 q-116 1 -186 31 q-70 30 -101 78 q-31 48 -31 106 q0 43 18.5 78 q18.5 35 57 56 q38.5 21 99.5 21 ZM290 681 q-34 0 -51.5 -19.5 q-17.5 -19.5 -17.5 -53.5 q0 -35 19.5 -63.5 q19.5 -28.5 65 -46 q45.5 -17.5 122.5 -18.5 q-11 97 -48 149 q-37 52 -90 52 Z" /><glyph glyph-name="uni03D2" unicode="&#x3d2;" d="M277 374 q19 48 40 99.5 q21 51.5 40.5 97 q19.5 45.5 35.5 75.5 q21 38 46 56 q25 18 65 18 q32 0 55 -9 l0 -83 q-5 2 -13 3 q-8 1 -16 1 q-14 0 -27 -8.5 q-13 -8.5 -31 -39.5 q-11 -19 -28 -53.5 q-17 -34.5 -37.5 -78.5 q-20.5 -44 -40 -92 q-19.5 -48 -35.5 -93 l0 -267 l-111 0 l0 273 l-220 441 l120 0 l157 -340 Z" /><glyph glyph-name="uni03D6" unicode="&#x3d6;" d="M833 539 l0 -85 l-116 0 q20 -54 31.5 -112 q11.5 -58 11.5 -113 q0 -119 -49 -179 q-49 -60 -143 -60 q-56 0 -90 24.5 q-34 24.5 -50 69.5 l-4 0 q-17 -45 -50.5 -69.5 q-33.5 -24.5 -89.5 -24.5 q-94 0 -143 60 q-49 60 -49 179 q0 55 13.5 113 q13.5 58 34.5 112 l-125 0 l0 46 l73 39 l745 0 ZM613 454 l-369 0 q-20 -50 -33 -107.5 q-13 -57.5 -13 -112.5 q0 -87 24.5 -122.5 q24.5 -35.5 70.5 -35.5 q43 0 62.5 35 q19.5 35 19.5 92 l0 83 l103 0 l0 -83 q0 -61 20 -94 q20 -33 62 -33 q45 0 69.5 35.5 q24.5 35.5 24.5 121.5 q0 55 -11 112 q-11 57 -30 109 Z" /><glyph glyph-name="uni02F3" unicode="&#x2f3;" d="M154 -279 q-48 0 -77.5 29 q-29.5 29 -29.5 80 q0 51 29.5 80 q29.5 29 77.5 29 q46 0 78.5 -29 q32.5 -29 32.5 -79 q0 -52 -32 -81 q-32 -29 -79 -29 ZM154 -223 q22 0 35.5 14 q13.5 14 13.5 39 q0 26 -13.5 39.5 q-13.5 13.5 -35.5 13.5 q-21 0 -34.5 -13.5 q-13.5 -13.5 -13.5 -39.5 q0 -25 12 -39 q12 -14 36 -14 Z" /><glyph glyph-name="Ohorn" unicode="&#x1a0;" d="M683 358 q0 -111 -34.5 -193.5 q-34.5 -82.5 -104.5 -128.5 q-70 -46 -174 -46 q-107 0 -177 46 q-70 46 -104 129 q-34 83 -34 194 q0 110 34 192.5 q34 82.5 104.5 128 q70.5 45.5 177.5 45.5 q79 0 138 -27 q59 -27 98 -76 q32 13 42.5 50 q10.5 37 10.5 88 l111 0 l6 -11 q-13 -66 -42 -116 q-29 -50 -88 -74 q36 -83 36 -201 ZM172 358 q0 -128 47 -202 q47 -74 151 -74 q104 0 150 74 q46 74 46 202 q0 128 -46 201 q-46 73 -149 73 q-105 0 -152 -73 q-47 -73 -47 -201 Z" /><glyph glyph-name="ohorn" unicode="&#x1a1;" d="M529 270 q0 -134 -65.5 -207 q-65.5 -73 -177.5 -73 q-69 0 -122.5 32.5 q-53.5 32.5 -84.5 95 q-31 62.5 -31 152.5 q0 134 64.5 206.5 q64.5 72.5 176.5 72.5 q104 0 170 -68 q38 13 49.5 51 q11.5 38 11.5 89 l111 0 l7 -11 q-14 -70 -42.5 -119 q-28.5 -49 -95.5 -71 q14 -31 21.5 -68.5 q7.5 -37.5 7.5 -81.5 ZM160 270 q0 -95 30 -144 q30 -49 98 -49 q68 0 98.5 49 q30.5 49 30.5 144 q0 95 -31 143 q-31 48 -99 48 q-67 0 -97 -48 q-30 -48 -30 -143 Z" /><glyph glyph-name="Uhorn" unicode="&#x1af;" d="M614 714 l0 -96 q40 10 54.5 47.5 q14.5 37.5 14.5 94.5 l111 0 l6 -11 q-9 -49 -27.5 -91 q-18.5 -42 -55.5 -70.5 q-37 -28.5 -103 -39.5 l0 -296 q0 -74 -28.5 -133.5 q-28.5 -59.5 -87 -94 q-58.5 -34.5 -150.5 -34.5 q-130 0 -198.5 72.5 q-68.5 72.5 -68.5 191.5 l0 460 l111 0 l0 -460 q0 -84 39.5 -128 q39.5 -44 119.5 -44 q82 0 117 47.5 q35 47.5 35 125.5 l0 459 l111 0 Z" /><glyph glyph-name="uhorn" unicode="&#x1b0;" d="M697 622 l7 -11 q-9 -49 -27.5 -92 q-18.5 -43 -55.5 -72 q-37 -29 -102 -37 l0 -410 l-85 0 l-15 71 l-6 0 q-25 -42 -67.5 -61.5 q-42.5 -19.5 -90.5 -19.5 q-88 0 -135.5 46.5 q-47.5 46.5 -47.5 149.5 l0 352 l109 0 l0 -336 q0 -125 99 -125 q74 0 102.5 48.5 q28.5 48.5 28.5 140.5 l0 272 l108 0 l0 -58 q41 9 54.5 47.5 q13.5 38.5 13.5 94.5 l110 0 Z" /><glyph glyph-name="uni0460" unicode="&#x460;" d="M220 -4 q-52 94 -96 212 q-44 118 -71 248 q-27 130 -31 258 l112 0 q6 -120 27 -232.5 q21 -112.5 50 -207 q29 -94.5 57 -160.5 l5 0 q6 32 17 72 q11 40 24 80 l79 240 q-9 52 -15 104.5 q-6 52.5 -7 103.5 l113 0 q4 -108 25 -219.5 q21 -111.5 52 -212 q31 -100.5 66 -174.5 l4 0 q52 116 81.5 266.5 q29.5 150.5 30.5 339.5 l114 0 q-2 -207 -47.5 -388.5 q-45.5 -181.5 -133.5 -329.5 l-99 0 q-27 50 -54.5 111 q-27.5 61 -50 124.5 q-22.5 63.5 -37.5 118.5 l-110 -354 l-105 0 Z" /><glyph glyph-name="uni0461" unicode="&#x461;" d="M750 540 q-6 -146 -46.5 -276 q-40.5 -130 -123.5 -264 l-99 0 q-26 51 -53.5 112.5 q-27.5 61.5 -44.5 117.5 l-103 -230 l-98 0 q-40 68 -77 154.5 q-37 86.5 -61.5 185 q-24.5 98.5 -26.5 200.5 l107 0 q4 -94 21 -178 q17 -84 41 -153 q24 -69 47 -118 l3 0 q8 25 21.5 52.5 q13.5 27.5 25.5 54.5 l63 139 q-10 47 -16 100 q-6 53 -8 103 l108 0 q2 -122 31.5 -236.5 q29.5 -114.5 67.5 -214.5 l4 0 q45 85 74.5 199.5 q29.5 114.5 35.5 251.5 l107 0 Z" /><glyph glyph-name="uni0462" unicode="&#x462;" d="M137 0 l0 528 l-132 0 l0 86 l132 0 l0 100 l112 0 l0 -100 l184 0 l0 -86 l-184 0 l0 -108 l78 0 q96 0 153.5 -27.5 q57.5 -27.5 82.5 -74 q25 -46.5 25 -105.5 q0 -98 -61 -155.5 q-61 -57.5 -195 -57.5 l-195 0 ZM249 90 l77 0 q76 0 112.5 30 q36.5 30 36.5 93 q0 65 -39.5 90 q-39.5 25 -120.5 25 l-66 0 l0 -238 Z" /><glyph glyph-name="uni0463" unicode="&#x463;" d="M226 644 l0 -105 l162 0 l0 -85 l-162 0 l0 -133 l122 0 q110 0 163.5 -38.5 q53.5 -38.5 53.5 -115.5 q0 -77 -50.5 -122 q-50.5 -45 -165.5 -45 l-231 0 l0 454 l-112 0 l0 85 l112 0 l0 105 l108 0 ZM342 239 l-116 0 l0 -159 l118 0 q50 0 81.5 19 q31.5 19 31.5 64 q0 43 -29.5 59.5 q-29.5 16.5 -85.5 16.5 Z" /><glyph glyph-name="uni0464" unicode="&#x464;" d="M645 -10 q-102 0 -169.5 41.5 q-67.5 41.5 -103 117 q-35.5 75.5 -40.5 177.5 l-134 0 l0 -326 l-111 0 l0 714 l111 0 l0 -296 l137 0 q10 92 50 161 q40 69 109 107 q69 38 166 38 q55 0 104 -13 q49 -13 89 -34 l-39 -90 q-35 17 -73 30.5 q-38 13.5 -83 13.5 q-89 0 -143 -54.5 q-54 -54.5 -66 -158.5 l303 0 l0 -92 l-305 0 q5 -113 57.5 -178 q52.5 -65 152.5 -65 q47 0 88 8.5 q41 8.5 84 22.5 l0 -93 q-41 -16 -84 -23.5 q-43 -7.5 -100 -7.5 Z" /><glyph glyph-name="uni0465" unicode="&#x465;" d="M543 -10 q-102 0 -168 59 q-66 59 -74 186 l-117 0 l0 -235 l-108 0 l0 539 l108 0 l0 -219 l118 0 q8 82 41 132.5 q33 50.5 84 73.5 q51 23 114 23 q42 0 81 -9.5 q39 -9.5 68 -22.5 l-32 -81 q-26 11 -56.5 19 q-30.5 8 -58.5 8 q-62 0 -93.5 -35.5 q-31.5 -35.5 -37.5 -107.5 l220 0 l0 -85 l-221 0 q5 -83 38.5 -121 q33.5 -38 95.5 -38 q41 0 74 9.5 q33 9.5 64 22.5 l0 -88 q-29 -15 -62 -22.5 q-33 -7.5 -78 -7.5 Z" /><glyph glyph-name="uni0466" unicode="&#x466;" d="M396 715 l278 -715 l-113 0 l-117 324 l-58 0 l0 -324 l-99 0 l0 324 l-57 0 l-118 -324 l-113 0 l278 715 l119 0 ZM336 626 q-4 -15 -11.5 -39.5 q-7.5 -24.5 -16.5 -50.5 q-9 -26 -16 -46 l-29 -78 l146 0 l-30 86 q-10 28 -22.5 63 q-12.5 35 -20.5 65 Z" /><glyph glyph-name="uni0467" unicode="&#x467;" d="M347 539 l219 -539 l-108 0 l-84 226 l-44 0 l0 -226 l-94 0 l0 226 l-45 0 l-83 -226 l-107 0 l217 539 l129 0 ZM285 472 l-4 0 q-7 -24 -17 -52 q-10 -28 -18 -49 l-23 -64 l121 0 l-24 63 q-8 23 -19 53 q-11 30 -16 49 Z" /><glyph glyph-name="uni0468" unicode="&#x468;" d="M644 715 l277 -715 l-116 0 l-116 326 l-56 0 l0 -326 l-99 0 l0 326 l-57 0 l-116 -326 l-115 0 l125 326 l-173 0 l0 -326 l-111 0 l0 714 l111 0 l0 -296 l212 0 l114 297 l120 0 ZM583 626 q-6 -27 -18 -64.5 q-12 -37.5 -24 -70.5 l-29 -76 l142 0 l-29 80 q-11 30 -23 66.5 q-12 36.5 -19 64.5 Z" /><glyph glyph-name="uni0469" unicode="&#x469;" d="M566 539 l218 -539 l-107 0 l-86 235 l-43 0 l0 -235 l-94 0 l0 235 l-41 0 l-86 -235 l-108 0 l93 235 l-134 0 l0 -235 l-102 0 l0 539 l102 0 l0 -220 l171 0 l88 220 l129 0 ZM503 472 l-3 0 q-6 -20 -16.5 -52 q-10.5 -32 -19.5 -53 l-20 -52 l116 0 l-21 56 q-10 24 -20 53.5 q-10 29.5 -16 47.5 Z" /><glyph glyph-name="uni046A" unicode="&#x46a;" d="M642 714 l0 -67 l-184 -236 q54 -7 88 -30 q34 -23 55.5 -63 q21.5 -40 38.5 -97 l67 -221 l-112 0 l-61 210 q-12 44 -25.5 69 q-13.5 25 -36 36.5 q-22.5 11.5 -59.5 13.5 l0 -329 l-108 0 l0 329 q-38 -2 -60 -13.5 q-22 -11.5 -35.5 -36.5 q-13.5 -25 -25.5 -69 l-60 -210 l-114 0 l67 222 q17 56 37.5 96 q20.5 40 54 63 q33.5 23 87.5 30 l-180 236 l0 67 l566 0 ZM504 620 l-291 0 l145 -197 l146 197 Z" /><glyph glyph-name="uni046B" unicode="&#x46b;" d="M545 539 l0 -51 l-144 -175 q43 -7 70 -26.5 q27 -19.5 43.5 -50 q16.5 -30.5 30.5 -71.5 l57 -165 l-104 0 l-53 157 q-16 47 -34 65 q-18 18 -59 20 l0 -242 l-95 0 l0 242 q-29 -1 -46 -9 q-17 -8 -28 -26.5 q-11 -18.5 -22 -49.5 l-53 -157 l-103 0 l57 165 q14 41 31 71.5 q17 30.5 43.5 50 q26.5 19.5 70.5 26.5 l-145 175 l0 51 l483 0 ZM415 458 l-223 0 l111 -139 l112 139 Z" /><glyph glyph-name="uni046C" unicode="&#x46c;" d="M896 714 l0 -67 l-183 -237 q55 -6 88.5 -29 q33.5 -23 55 -63 q21.5 -40 38.5 -97 l67 -221 l-110 0 l-62 210 q-13 46 -27 71 q-14 25 -36.5 35 q-22.5 10 -58.5 12 l0 -328 l-109 0 l0 328 q-37 -2 -59 -13 q-22 -11 -36 -36 q-14 -25 -26 -68 l-61 -211 l-113 0 l68 224 q11 36 22.5 61.5 q11.5 25.5 24.5 40.5 l-181 0 l0 -326 l-111 0 l0 714 l111 0 l0 -296 l305 0 l-172 229 l0 67 l565 0 ZM759 620 l-291 0 l145 -198 l146 198 Z" /><glyph glyph-name="uni046D" unicode="&#x46d;" d="M765 539 l0 -51 l-145 -176 q44 -6 70.5 -25.5 q26.5 -19.5 43 -50 q16.5 -30.5 30.5 -70.5 l58 -166 l-104 0 l-53 157 q-16 46 -34.5 64.5 q-18.5 18.5 -59.5 19.5 l0 -241 l-95 0 l0 241 q-43 -1 -61 -19 q-18 -18 -34 -65 l-53 -157 l-103 0 l56 165 q7 22 15 41 q8 19 18 30 l-136 0 l0 -236 l-102 0 l0 539 l102 0 l0 -219 l240 0 l-136 168 l0 51 l483 0 ZM635 458 l-224 0 l112 -136 l112 136 Z" /><glyph glyph-name="uni046E" unicode="&#x46e;" d="M417 857 q18 0 30.5 -2.5 q12.5 -2.5 20.5 -4.5 l0 -62 q-5 2 -14.5 4 q-9.5 2 -19.5 2 q-22 0 -46.5 -21 q-24.5 -21 -44.5 -54 q79 -13 121 -60 q42 -47 42 -112 q0 -73 -45 -116 q-45 -43 -118 -55 l0 -4 q86 -11 133 -54.5 q47 -43.5 47 -114.5 q0 -94 -65 -150.5 q-65 -56.5 -205 -60.5 q-49 -2 -74 -8.5 q-25 -6.5 -34 -18 q-9 -11.5 -9 -28.5 q0 -21 15 -34.5 q15 -13.5 58 -13.5 q57 0 95 2.5 q38 2.5 80 2.5 q38 0 60 -5.5 q22 -5.5 33 -13.5 l0 -93 q-10 9 -34 16.5 q-24 7.5 -62 7.5 q-43 0 -83 -2.5 q-40 -2.5 -101 -2.5 q-63 0 -101 18.5 q-38 18.5 -54.5 49.5 q-16.5 31 -16.5 69 q0 64 47.5 101 q47.5 37 168.5 41 q89 3 128.5 33 q39.5 30 39.5 94 q0 64 -54.5 91.5 q-54.5 27.5 -145.5 27.5 l-87 0 l0 88 l82 0 q101 0 145.5 32 q44.5 32 44.5 88 q0 49 -34 75.5 q-34 26.5 -93 26.5 q-54 0 -98 -16.5 q-44 -16.5 -83 -43.5 l-50 73 q35 25 76 43.5 q41 18.5 92 26.5 q-24 30 -54 63 q-30 33 -49 55 l0 13 l76 0 q22 -16 49 -42.5 q27 -26.5 51 -52.5 q19 23 40 46.5 q21 23.5 45 39.5 q24 16 55 16 Z" /><glyph glyph-name="uni046F" unicode="&#x46f;" d="M374 667 q18 0 30.5 -2.5 q12.5 -2.5 19.5 -4.5 l0 -62 q-13 5 -35 5 q-20 0 -41.5 -17.5 q-21.5 -17.5 -39.5 -45.5 q53 -14 85 -47.5 q32 -33.5 32 -85.5 q0 -49 -26 -78 q-26 -29 -70 -42 l0 -4 q48 -13 80.5 -41.5 q32.5 -28.5 32.5 -88.5 q0 -45 -23 -81 q-23 -36 -73.5 -57.5 q-50.5 -21.5 -132.5 -22.5 q-45 0 -67.5 -6.5 q-22.5 -6.5 -30 -18 q-7.5 -11.5 -7.5 -25.5 q0 -23 16 -34.5 q16 -11.5 57 -11.5 q48 0 85.5 2.5 q37.5 2.5 72.5 2.5 q31 0 49 -5.5 q18 -5.5 26 -14.5 l0 -85 q-10 10 -31 15.5 q-21 5.5 -41 5.5 q-34 0 -78.5 -2.5 q-44.5 -2.5 -96.5 -2.5 q-59 0 -93.5 18 q-34.5 18 -49 47 q-14.5 29 -14.5 62 q0 57 42 96 q42 39 146 40 q67 1 102 20 q35 19 35 63 q0 43 -33 62.5 q-33 19.5 -106 19.5 l-64 0 l0 81 l55 0 q65 0 101 17 q36 17 36 58 q0 69 -106 69 q-37 0 -72.5 -8.5 q-35.5 -8.5 -73.5 -25.5 l-35 80 q28 12 54.5 20.5 q26.5 8.5 56.5 12.5 q-20 26 -44 55 q-24 29 -42 48 l0 13 l74 0 q22 -16 46.5 -40.5 q24.5 -24.5 50.5 -52.5 q19 23 40 46 q21 23 46 38.5 q25 15.5 55 15.5 Z" /><glyph glyph-name="uni0472" unicode="&#x472;" d="M684 358 q0 -111 -35 -193.5 q-35 -82.5 -105 -128.5 q-70 -46 -174 -46 q-107 0 -177 46 q-70 46 -104 129 q-34 83 -34 194 q0 110 34 192.5 q34 82.5 104.5 128 q70.5 45.5 177.5 45.5 q104 0 173.5 -45.5 q69.5 -45.5 104.5 -128 q35 -82.5 35 -193.5 ZM371 632 q-95 0 -143 -59 q-48 -59 -57 -162 l396 0 q-8 103 -55.5 162 q-47.5 59 -140.5 59 ZM370 82 q97 0 144.5 62.5 q47.5 62.5 54.5 174.5 l-399 0 q7 -112 55 -174.5 q48 -62.5 145 -62.5 Z" /><glyph glyph-name="uni0473" unicode="&#x473;" d="M529 270 q0 -134 -65.5 -207 q-65.5 -73 -177.5 -73 q-69 0 -122.5 32.5 q-53.5 32.5 -84.5 95 q-31 62.5 -31 152.5 q0 134 64.5 206.5 q64.5 72.5 176.5 72.5 q70 0 124 -32.5 q54 -32.5 85 -94.5 q31 -62 31 -152 ZM287 461 q-61 0 -91.5 -36.5 q-30.5 -36.5 -36.5 -108.5 l259 0 q-14 145 -131 145 ZM288 77 q63 0 94 40 q31 40 36 117 l-260 0 q9 -157 130 -157 Z" /><glyph glyph-name="uni0474" unicode="&#x474;" d="M596 631 q-30 0 -46 -29.5 q-16 -29.5 -34 -91.5 l-153 -510 l-127 0 l-236 714 l117 0 l140 -453 q14 -47 24.5 -84.5 q10.5 -37.5 17.5 -75.5 q6 39 16.5 80 q10.5 41 23.5 88 l71 253 q20 69 39 112.5 q19 43.5 47 64.5 q28 21 75 21 q22 0 41 -4 q19 -4 30 -9 l0 -87 q-10 4 -21.5 7.5 q-11.5 3.5 -24.5 3.5 Z" /><glyph glyph-name="uni0475" unicode="&#x475;" d="M479 544 q11 0 24.5 -2.5 q13.5 -2.5 25.5 -6.5 l0 -82 q-7 4 -16 5.5 q-9 1.5 -17 1.5 q-21 0 -33.5 -19 q-12.5 -19 -22.5 -53 l-121 -388 l-132 0 l-187 539 l113 0 l108 -341 q13 -38 21 -69.5 q8 -31.5 10 -48.5 l3 0 q4 22 11 56 q7 34 17 67 l61 203 q15 52 31 82 q16 30 40.5 43 q24.5 13 63.5 13 Z" /><glyph glyph-name="uni0478" unicode="&#x478;" d="M645 358 q0 -111 -32 -193.5 q-32 -82.5 -97.5 -128.5 q-65.5 -46 -165.5 -46 q-102 0 -167 46 q-65 46 -96.5 129 q-31.5 83 -31.5 194 q0 110 31.5 192.5 q31.5 82.5 97 128 q65.5 45.5 167.5 45.5 q99 0 164.5 -45.5 q65.5 -45.5 97.5 -128 q32 -82.5 32 -193.5 ZM171 358 q0 -128 42 -202 q42 -74 137 -74 q97 0 138 74 q41 74 41 202 q0 128 -41 201 q-41 73 -137 73 q-96 0 -138 -73 q-42 -73 -42 -201 ZM685 539 l117 0 l104 -307 q24 -68 33 -130 l4 0 q4 25 13 60.5 q9 35.5 20 70.5 l98 306 l115 0 l-215 -612 q-28 -79 -75 -123 q-47 -44 -124 -44 q-24 0 -41 2.5 q-17 2.5 -29 5.5 l0 84 q10 -2 24.5 -4 q14.5 -2 30.5 -2 q44 0 70 26.5 q26 26.5 40 69.5 l19 58 l-204 539 Z" /><glyph glyph-name="uni047A" unicode="&#x47a;" d="M389 -60 q-26 0 -43.5 13 q-17.5 13 -23.5 42 q-88 13 -147.5 62 q-59.5 49 -89.5 126 q-30 77 -30 176 q0 147 67 243.5 q67 96.5 200 116.5 q7 30 24 42 q17 12 43 12 q25 0 42 -12 q17 -12 24 -42 q130 -20 198 -116.5 q68 -96.5 68 -244.5 q0 -148 -67.5 -245 q-67.5 -97 -197.5 -118 q-7 -29 -24.5 -42 q-17.5 -13 -42.5 -13 ZM323 90 q9 22 25.5 31 q16.5 9 40.5 9 q23 0 39 -9 q16 -9 26 -31 q76 20 113.5 89.5 q37.5 69.5 37.5 178.5 q0 108 -37.5 178 q-37.5 70 -113.5 89 q-8 -23 -25 -32.5 q-17 -9.5 -40 -9.5 q-50 0 -66 41 q-77 -20 -114.5 -89 q-37.5 -69 -37.5 -177 q0 -109 37.5 -178.5 q37.5 -69.5 114.5 -89.5 Z" /><glyph glyph-name="uni047B" unicode="&#x47b;" d="M581 270 q0 -116 -54.5 -186.5 q-54.5 -70.5 -151.5 -87.5 q-7 -49 -60 -49 q-52 0 -61 50 q-92 17 -149 86.5 q-57 69.5 -57 186.5 q0 116 55 186 q55 70 153 87 q3 25 18.5 35 q15.5 10 40.5 10 q23 0 39 -10 q16 -10 20 -36 q93 -16 150 -86 q57 -70 57 -186 ZM470 270 q0 75 -23 122.5 q-23 47.5 -72 63.5 q-12 -41 -60 -41 q-49 0 -61 42 q-50 -16 -72 -63.5 q-22 -47.5 -22 -123.5 q0 -76 22.5 -124.5 q22.5 -48.5 72.5 -63.5 q13 38 60 38 q47 0 59 -38 q50 15 73 63.5 q23 48.5 23 124.5 Z" /><glyph glyph-name="uni047C" unicode="&#x47c;" d="M343 912 l0 18 q0 64 35 89 q35 25 86 25 q38 0 74.5 -15 q36.5 -15 77.5 -29.5 q41 -14.5 92 -14.5 l6 0 l0 -71 l-8 0 q-62 0 -105.5 13.5 q-43.5 13.5 -75.5 27 q-32 13.5 -59 13.5 q-48 0 -52 -56 l-71 0 ZM447 746 l0 37 q29 9 44 22 q15 13 15 25 q0 10 -8 14.5 q-8 4.5 -18 8 q-10 3.5 -18 10.5 q-8 7 -8 20 q0 21 15 32 q15 11 41 11 q30 0 48 -18.5 q18 -18.5 18 -49.5 q0 -42 -35 -72 q-35 -30 -94 -40 ZM324 -10 q-92 0 -151.5 48.5 q-59.5 48.5 -88.5 134 q-29 85.5 -29 195.5 q0 108 30 188 q30 80 86 124 q56 44 135 44 q38 0 75 -13 q37 -13 65 -35 l-41 -78 q-19 15 -42 26 q-23 11 -52 11 q-68 0 -106 -70.5 q-38 -70.5 -38 -197.5 q0 -131 44 -206.5 q44 -75.5 130 -75.5 q27 0 51 11 q24 11 46 30 l0 208 l111 0 l0 -208 q21 -20 46.5 -30.5 q25.5 -10.5 54.5 -10.5 q86 0 129.5 75.5 q43.5 75.5 43.5 206.5 q0 127 -39 197.5 q-39 70.5 -107 70.5 q-27 0 -50 -11 q-23 -11 -43 -26 l-40 78 q28 22 65 35 q37 13 75 13 q80 0 135.5 -44 q55.5 -44 85 -124 q29.5 -80 29.5 -188 q0 -110 -28.5 -195.5 q-28.5 -85.5 -88 -134 q-59.5 -48.5 -152.5 -48.5 q-53 0 -95 16.5 q-42 16.5 -76 48.5 q-68 -65 -170 -65 Z" /><glyph glyph-name="uni047D" unicode="&#x47d;" d="M394 891 q38 0 74.5 -14.5 q36.5 -14.5 77 -29 q40.5 -14.5 91.5 -14.5 l7 0 l0 -72 l-8 0 q-62 0 -105 13.5 q-43 13.5 -75 27.5 q-32 14 -60 14 q-48 0 -51 -56 l-72 0 l0 18 q0 64 35 88.5 q35 24.5 86 24.5 ZM440 774 q31 0 48.5 -18.5 q17.5 -18.5 17.5 -49.5 q0 -43 -34.5 -72.5 q-34.5 -29.5 -93.5 -39.5 l0 37 q28 9 42.5 22 q14.5 13 14.5 26 q0 10 -7.5 14.5 q-7.5 4.5 -17.5 8 q-10 3.5 -17.5 10 q-7.5 6.5 -7.5 19.5 q0 43 55 43 ZM276 -10 q-105 0 -164 70 q-59 70 -59 206 q0 140 57.5 212 q57.5 72 153.5 72 q37 0 65 -9.5 q28 -9.5 51 -24.5 l-39 -78 q-21 11 -39.5 17.5 q-18.5 6.5 -35.5 6.5 q-102 0 -102 -195 q0 -90 33 -139.5 q33 -49.5 88 -49.5 q29 0 51 11 q22 11 44 40 l0 150 l109 0 l0 -148 q23 -29 45 -41 q22 -12 51 -12 q57 0 88.5 49.5 q31.5 49.5 31.5 139.5 q0 96 -26.5 145.5 q-26.5 49.5 -75.5 49.5 q-18 0 -36.5 -6.5 q-18.5 -6.5 -38.5 -18.5 l-40 79 q23 15 51.5 24.5 q28.5 9.5 65.5 9.5 q96 0 154 -72 q58 -72 58 -212 q0 -136 -58 -206 q-58 -70 -166 -70 q-53 0 -92.5 20 q-39.5 20 -66.5 58 q-27 -38 -66 -58 q-39 -20 -92 -20 Z" /><glyph glyph-name="uni0480" unicode="&#x480;" d="M386 724 q52 0 103 -12 q51 -12 94 -32 l-41 -91 q-34 17 -73.5 29 q-39.5 12 -84.5 12 q-100 0 -157 -73 q-57 -73 -57 -201 q0 -127 51 -199.5 q51 -72.5 163 -72.5 q60 0 111 14 l0 -338 l-111 0 l0 230 q-111 0 -184 47 q-73 47 -109 129.5 q-36 82.5 -36 190.5 q0 108 39 190.5 q39 82.5 112.5 129.5 q73.5 47 179.5 47 Z" /><glyph glyph-name="uni0481" unicode="&#x481;" d="M298 549 q40 0 79 -9 q39 -9 68 -23 l-32 -85 q-28 10 -58.5 18.5 q-30.5 8.5 -58.5 8.5 q-70 0 -103 -46.5 q-33 -46.5 -33 -145.5 q0 -97 34.5 -142.5 q34.5 -45.5 100.5 -45.5 q34 0 58.5 5.5 q24.5 5.5 46.5 14.5 l0 -339 l-109 0 l0 231 q-115 2 -179 68.5 q-64 66.5 -64 206.5 q0 103 32.5 165 q32.5 62 89 90 q56.5 28 128.5 28 Z" /><glyph glyph-name="uni0482" unicode="&#x482;" d="M414 629 l63 -35 l-81 -155 l129 -80 l-37 -58 l-126 80 l-90 -171 l128 -81 l-36 -58 l-127 80 l-81 -153 l-64 34 l80 155 l-128 81 l36 58 l129 -82 l88 172 l-129 81 l37 59 l128 -82 l81 155 Z" /><glyph glyph-name="uni0488" unicode="&#x488;" d="M362 601 q2 43 26.5 69 q24.5 26 71.5 26 q46 0 71.5 -26.5 q25.5 -26.5 28.5 -68.5 l-40 0 q-2 28 -20 35.5 q-18 7.5 -40 7.5 q-27 0 -42.5 -7 q-15.5 -7 -17.5 -36 l-38 0 ZM629 462 q2 44 26.5 69.5 q24.5 25.5 71.5 25.5 q45 0 71 -26.5 q26 -26.5 28 -68.5 l-39 0 q-2 28 -19.5 35.5 q-17.5 7.5 -40.5 7.5 q-27 0 -42.5 -7 q-15.5 -7 -18.5 -36 l-37 0 ZM99 462 q2 44 26.5 69.5 q24.5 25.5 71.5 25.5 q46 0 71.5 -26.5 q25.5 -26.5 27.5 -68.5 l-39 0 q-2 28 -19.5 35.5 q-17.5 7.5 -40.5 7.5 q-27 0 -43 -7 q-16 -7 -18 -36 l-37 0 ZM19 224 q2 44 26.5 69.5 q24.5 25.5 71.5 25.5 q46 0 71.5 -26.5 q25.5 -26.5 28.5 -68.5 l-40 0 q-2 28 -19.5 35.5 q-17.5 7.5 -40.5 7.5 q-27 0 -42.5 -7 q-15.5 -7 -17.5 -36 l-38 0 ZM713 224 q2 44 26.5 69.5 q24.5 25.5 71.5 25.5 q46 0 71.5 -26.5 q25.5 -26.5 28.5 -68.5 l-40 0 q-1 28 -19 35.5 q-18 7.5 -41 7.5 q-26 0 -42 -7 q-16 -7 -18 -36 l-38 0 ZM99 -20 q2 44 26.5 69.5 q24.5 25.5 71.5 25.5 q46 0 71.5 -26.5 q25.5 -26.5 27.5 -68.5 l-39 0 q-2 28 -19.5 35.5 q-17.5 7.5 -40.5 7.5 q-27 0 -43 -7 q-16 -7 -18 -36 l-37 0 ZM629 -20 q2 44 26.5 69.5 q24.5 25.5 71.5 25.5 q45 0 71 -26.5 q26 -26.5 28 -68.5 l-39 0 q-2 28 -19.5 35.5 q-17.5 7.5 -40.5 7.5 q-27 0 -42.5 -7 q-15.5 -7 -18.5 -36 l-37 0 ZM362 -156 q2 44 26.5 69.5 q24.5 25.5 71.5 25.5 q46 0 71.5 -26.5 q25.5 -26.5 28.5 -68.5 l-40 0 q-2 28 -20 35.5 q-18 7.5 -40 7.5 q-27 0 -42.5 -7 q-15.5 -7 -17.5 -36 l-38 0 Z" /><glyph glyph-name="uni0489" unicode="&#x489;" d="M503 728 q-10 -41 -18.5 -88 q-8.5 -47 -13.5 -83 l-70 0 l-4 7 q9 38 24 82 q15 44 32 82 l50 0 ZM182 621 q20 -36 45.5 -76 q25.5 -40 45.5 -69 l-49 -48 l-8 1 q-18 34 -36.5 76.5 q-18.5 42.5 -32.5 81.5 l35 34 ZM756 579 l35 -33 q-34 -22 -71 -48.5 q-37 -26.5 -65 -48.5 l-49 48 l1 8 q32 19 72 39 q40 20 77 35 ZM19 323 q39 -10 83 -19.5 q44 -9.5 78 -14.5 l0 -68 l-7 -5 q-35 10 -76.5 26.5 q-41.5 16.5 -77.5 33.5 l0 47 ZM726 323 q35 -10 76.5 -26.5 q41.5 -16.5 77.5 -33.5 l0 -47 q-39 10 -83 19.5 q-44 9.5 -78 14.5 l0 68 l7 5 ZM674 90 l8 -1 q18 -34 36.5 -76.5 q18.5 -42.5 32.5 -81.5 l-35 -34 q-21 36 -46 76 q-25 40 -45 69 l49 48 ZM244 70 l49 -48 l-2 -8 q-31 -20 -71 -39.5 q-40 -19.5 -77 -34.5 l-36 33 q34 23 71.5 49 q37.5 26 65.5 48 ZM498 -17 l5 -7 q-10 -38 -25.5 -82 q-15.5 -44 -31.5 -82 l-49 0 q9 41 18 88 q9 47 14 83 l69 0 Z" /><glyph glyph-name="uni048A" unicode="&#x48a;" d="M370 771 q-101 0 -142.5 40 q-41.5 40 -46.5 119 l97 0 q4 -55 25.5 -73 q21.5 -18 68.5 -18 q40 0 65 19.5 q25 19.5 29 71.5 l100 0 q-7 -76 -51.5 -117.5 q-44.5 -41.5 -144.5 -41.5 ZM570 -194 l79 194 l-95 0 l0 375 q0 30 1.5 67.5 q1.5 37.5 3 74 q1.5 36.5 3.5 62.5 l-3 0 l-345 -579 l-127 0 l0 714 l103 0 l0 -379 q0 -33 -1 -70 q-1 -37 -3 -71 q-2 -34 -3 -57 l4 0 l343 577 l126 0 l0 -620 l112 0 l-73 -288 l-125 0 Z" /><glyph glyph-name="uni048B" unicode="&#x48b;" d="M320 606 q-102 0 -143 40.5 q-41 40.5 -46 118.5 l96 0 q5 -53 26.5 -72 q21.5 -19 68.5 -19 q40 0 65 19.5 q25 19.5 29 71.5 l99 0 q-6 -76 -50.5 -117.5 q-44.5 -41.5 -144.5 -41.5 ZM485 -188 l59 188 l-93 0 l0 288 q0 21 0.5 48 q0.5 27 1.5 52 q1 25 3 41 l-251 -429 l-129 0 l0 539 l102 0 l0 -284 q0 -33 -2.5 -74.5 q-2.5 -41.5 -4.5 -71.5 l253 430 l128 0 l0 -455 l102 0 l-62 -272 l-107 0 Z" /><glyph glyph-name="uni048C" unicode="&#x48c;" d="M198 714 l0 -85 l151 0 l0 -92 l-151 0 l0 -117 l68 0 q101 0 161 -27 q60 -27 86 -74 q26 -47 26 -106 q0 -101 -64 -157 q-64 -56 -199 -56 l-189 0 l0 537 l-69 0 l0 92 l69 0 l0 85 l111 0 ZM267 328 l-69 0 l0 -238 l73 0 q155 0 155 123 q0 65 -41 90 q-41 25 -118 25 Z" /><glyph glyph-name="uni048D" unicode="&#x48d;" d="M185 760 l0 -116 l150 0 l0 -76 l-150 0 l0 -246 l120 0 q109 0 160 -39 q51 -39 51 -116 q0 -77 -49.5 -122 q-49.5 -45 -164.5 -45 l-227 0 l0 568 l-69 0 l0 76 l69 0 l0 116 l110 0 ZM295 239 l-110 0 l0 -159 l112 0 q49 0 80 19 q31 19 31 64 q0 43 -28.5 59.5 q-28.5 16.5 -84.5 16.5 Z" /><glyph glyph-name="uni048E" unicode="&#x48e;" d="M542 500 q0 -57 -22.5 -107.5 q-22.5 -50.5 -73.5 -81.5 l49 -71 l-57 -46 l-62 89 q-44 -12 -100 -12 l-78 0 l0 -271 l-111 0 l0 714 l204 0 q129 0 190 -56.5 q61 -56.5 61 -157.5 ZM198 362 l67 0 q15 0 27.5 0.5 q12.5 0.5 24.5 2.5 l-44 62 l59 46 l57 -80 q40 32 40 103 q0 64 -36 95.5 q-36 31.5 -112 31.5 l-83 0 l0 -261 Z" /><glyph glyph-name="uni048F" unicode="&#x48f;" d="M335 -10 q-58 0 -93.5 22.5 q-35.5 22.5 -57.5 53.5 l-6 0 q2 -21 4 -44.5 q2 -23.5 2 -44.5 l0 -217 l-108 0 l0 779 l88 0 l16 -72 l5 0 q22 34 58 58 q36 24 95 24 q91 0 146.5 -70 q55.5 -70 55.5 -209 q0 -82 -20.5 -140 q-20.5 -58 -57.5 -92 l48 -70 l-59 -46 l-56 79 q-28 -11 -60 -11 ZM309 462 q-67 0 -96 -43 q-29 -43 -29 -132 l0 -16 q0 -94 27 -144 q27 -50 100 -50 q13 0 28 5 l-56 75 l63 47 l53 -75 q16 24 23 59.5 q7 35.5 7 83.5 q0 190 -120 190 Z" /><glyph glyph-name="uni0492" unicode="&#x492;" d="M489 714 l0 -93 l-288 0 l0 -222 l187 0 l0 -92 l-187 0 l0 -307 l-111 0 l0 307 l-70 0 l0 92 l70 0 l0 315 l399 0 Z" /><glyph glyph-name="uni0493" unicode="&#x493;" d="M408 539 l0 -88 l-224 0 l0 -145 l152 0 l0 -82 l-152 0 l0 -224 l-108 0 l0 224 l-69 0 l0 82 l69 0 l0 233 l332 0 Z" /><glyph glyph-name="uni0494" unicode="&#x494;" d="M283 299 q-21 0 -45.5 -2.5 q-24.5 -2.5 -39.5 -4.5 l0 -292 l-111 0 l0 714 l406 0 l0 -93 l-295 0 l0 -235 q21 4 50 6.5 q29 2.5 57 2.5 q90 0 157.5 -36.5 q67.5 -36.5 105 -108.5 q37.5 -72 37.5 -178 q0 -108 -33.5 -179.5 q-33.5 -71.5 -91 -107 q-57.5 -35.5 -129.5 -35.5 q-43 0 -74 6 q-31 6 -59 18 l0 95 q28 -11 56 -17 q28 -6 60 -6 q78 0 118 58.5 q40 58.5 40 167.5 q0 113 -55 170 q-55 57 -154 57 Z" /><glyph glyph-name="uni0495" unicode="&#x495;" d="M415 539 l0 -88 l-231 0 l0 -145 q16 2 33 4 q17 2 34 2 q116 0 182.5 -68.5 q66.5 -68.5 66.5 -213.5 q0 -97 -28.5 -157.5 q-28.5 -60.5 -77 -89 q-48.5 -28.5 -108.5 -28.5 q-63 0 -115 28 l0 93 q20 -13 46.5 -21 q26.5 -8 55.5 -8 q55 0 86 44 q31 44 31 140 q0 94 -36.5 141 q-36.5 47 -113.5 47 q-14 0 -28 -1 q-14 -1 -28 -5 l0 -213 l-108 0 l0 539 l339 0 Z" /><glyph glyph-name="uni0496" unicode="&#x496;" d="M832 714 l-244 -345 l186 -274 l111 0 l0 -289 l-107 0 l0 194 l-58 0 l-246 362 l0 -362 l-105 0 l0 362 l-246 -362 l-123 0 l255 368 l-243 346 l119 0 l238 -346 l0 346 l105 0 l0 -346 l239 346 l119 0 Z" /><glyph glyph-name="uni0497" unicode="&#x497;" d="M740 539 l-200 -261 l148 -194 l104 0 l0 -272 l-101 0 l0 188 l-54 0 l-207 273 l0 -273 l-102 0 l0 273 l-208 -273 l-120 0 l217 278 l-199 261 l116 0 l194 -262 l0 262 l102 0 l0 -262 l194 262 l116 0 Z" /><glyph glyph-name="uni049A" unicode="&#x49a;" d="M590 714 l-270 -346 l208 -273 l118 0 l0 -289 l-106 0 l0 194 l-66 0 l-276 362 l0 -362 l-111 0 l0 714 l111 0 l0 -346 l270 346 l122 0 Z" /><glyph glyph-name="uni049B" unicode="&#x49b;" d="M453 -189 l0 189 l-50 0 l-219 273 l0 -273 l-108 0 l0 539 l108 0 l0 -262 l207 262 l119 0 l-209 -259 l155 -196 l97 0 l0 -273 l-100 0 Z" /><glyph glyph-name="uni049C" unicode="&#x49c;" d="M326 126 l-62 0 l0 149 l-66 87 l0 -362 l-111 0 l0 714 l111 0 l0 -346 l66 85 l0 160 l62 0 l0 -81 l142 182 l122 0 l-264 -338 l0 -16 l277 -360 l-129 0 l-148 194 l0 -68 Z" /><glyph glyph-name="uni049D" unicode="&#x49d;" d="M306 495 l0 -64 l85 108 l119 0 l-204 -253 l0 -12 l222 -274 l-125 0 l-97 121 l0 -76 l-66 0 l0 158 l-56 70 l0 -273 l-108 0 l0 539 l108 0 l0 -262 l56 71 l0 147 l66 0 Z" /><glyph glyph-name="uni049E" unicode="&#x49e;" d="M16 542 l0 93 l71 0 l0 79 l111 0 l0 -79 l91 0 l0 -93 l-91 0 l0 -174 l270 346 l122 0 l-270 -346 l283 -368 l-129 0 l-276 362 l0 -362 l-111 0 l0 542 l-71 0 Z" /><glyph glyph-name="uni049F" unicode="&#x49f;" d="M186 760 l0 -87 l156 0 l0 -74 l-156 0 l0 -322 l207 262 l119 0 l-210 -259 l227 -280 l-124 0 l-219 273 l0 -273 l-109 0 l0 599 l-71 0 l0 74 l71 0 l0 87 l109 0 Z" /><glyph glyph-name="uni04A0" unicode="&#x4a0;" d="M663 714 l-270 -346 l283 -368 l-129 0 l-276 362 l0 -362 l-111 0 l0 620 l-152 0 l0 94 l263 0 l0 -346 l270 346 l122 0 Z" /><glyph glyph-name="uni04A1" unicode="&#x4a1;" d="M606 539 l-210 -260 l227 -279 l-122 0 l-219 273 l0 -273 l-106 0 l0 455 l-161 0 l0 84 l267 0 l0 -262 l207 262 l117 0 Z" /><glyph glyph-name="uni04A2" unicode="&#x4a2;" d="M612 -194 l0 194 l-105 0 l0 326 l-309 0 l0 -326 l-111 0 l0 714 l111 0 l0 -296 l309 0 l0 296 l110 0 l0 -619 l101 0 l0 -289 l-106 0 Z" /><glyph glyph-name="uni04A3" unicode="&#x4a3;" d="M521 -188 l0 188 l-98 0 l0 235 l-239 0 l0 -235 l-108 0 l0 539 l108 0 l0 -219 l239 0 l0 219 l108 0 l0 -455 l91 0 l0 -272 l-101 0 Z" /><glyph glyph-name="uni04A4" unicode="&#x4a4;" d="M87 0 l0 714 l111 0 l0 -296 l308 0 l0 296 l264 0 l0 -94 l-153 0 l0 -620 l-111 0 l0 326 l-308 0 l0 -326 l-111 0 Z" /><glyph glyph-name="uni04A5" unicode="&#x4a5;" d="M76 0 l0 539 l108 0 l0 -219 l239 0 l0 219 l268 0 l0 -84 l-160 0 l0 -455 l-108 0 l0 235 l-239 0 l0 -235 l-108 0 Z" /><glyph glyph-name="uni04A6" unicode="&#x4a6;" d="M585 714 l0 -326 q23 4 51 5 q28 1 54 1 q86 0 151 -36.5 q65 -36.5 101.5 -108.5 q36.5 -72 36.5 -179 q0 -106 -33 -177.5 q-33 -71.5 -90 -107 q-57 -35.5 -128 -35.5 q-44 0 -74 6 q-30 6 -59 18 l0 95 q28 -11 55.5 -17 q27.5 -6 59.5 -6 q76 0 116 59 q40 59 40 166 q0 82 -25.5 132 q-25.5 50 -70 72.5 q-44.5 22.5 -101.5 22.5 q-19 0 -43.5 -2 q-24.5 -2 -40.5 -6 l0 -290 l-110 0 l0 620 l-277 0 l0 -620 l-111 0 l0 714 l498 0 Z" /><glyph glyph-name="uni04A7" unicode="&#x4a7;" d="M504 539 l0 -232 q14 1 29 3 q15 2 29 2 q68 0 122.5 -29 q54.5 -29 85.5 -91.5 q31 -62.5 31 -161.5 q0 -97 -27 -157.5 q-27 -60.5 -73.5 -89 q-46.5 -28.5 -103.5 -28.5 q-61 0 -111 28 l0 93 q20 -13 45 -21 q25 -8 53 -8 q50 0 79 44 q29 44 29 140 q0 188 -140 188 q-11 0 -24.5 -1.5 q-13.5 -1.5 -23.5 -4.5 l0 -213 l-109 0 l0 454 l-211 0 l0 -454 l-108 0 l0 539 l428 0 Z" /><glyph glyph-name="uni04A8" unicode="&#x4a8;" d="M682 331 q0 -66 -16.5 -118 q-16.5 -52 -42 -89.5 q-25.5 -37.5 -51.5 -60.5 q13 -5 29.5 -8.5 q16.5 -3.5 34.5 -3.5 q19 0 35 3 q16 3 31 8 l0 -91 q-14 -6 -35.5 -9 q-21.5 -3 -40.5 -3 q-44 0 -81.5 12.5 q-37.5 12.5 -69.5 36.5 q-23 -9 -54 -13.5 q-31 -4.5 -63 -4.5 q-97 0 -164.5 45 q-67.5 45 -103 126 q-35.5 81 -35.5 188 q0 175 71.5 275.5 q71.5 100.5 221.5 100.5 q32 0 62.5 -5.5 q30.5 -5.5 47.5 -12.5 l-29 -88 q-13 5 -35 9.5 q-22 4.5 -44 4.5 q-95 0 -138 -74.5 q-43 -74.5 -43 -205.5 q0 -138 54 -204 q54 -66 141 -66 q10 0 19.5 1 q9.5 1 16.5 3 q-32 43 -52.5 109 q-20.5 66 -20.5 140 q0 124 49 180.5 q49 56.5 128 56.5 q49 0 89.5 -23.5 q40.5 -23.5 64.5 -76.5 q24 -53 24 -142 ZM578 328 q0 73 -18.5 116.5 q-18.5 43.5 -54.5 43.5 q-35 0 -54 -44 q-19 -44 -19 -114 q0 -68 18.5 -122 q18.5 -54 45.5 -89 q35 29 58.5 85 q23.5 56 23.5 124 Z" /><glyph glyph-name="uni04A9" unicode="&#x4a9;" d="M277 549 q27 0 49 -4.5 q22 -4.5 38 -9.5 l-24 -83 q-10 3 -26 6.5 q-16 3.5 -34 3.5 q-68 0 -95 -52.5 q-27 -52.5 -27 -147.5 q0 -85 31 -135 q31 -50 98 -50 q12 0 21 1.5 q9 1.5 12 3.5 q-22 30 -36.5 70 q-14.5 40 -14.5 95 q0 89 41 132.5 q41 43.5 110 43.5 q63 0 105 -41.5 q42 -41.5 42 -134.5 q0 -68 -25 -114.5 q-25 -46.5 -59 -72.5 q8 -4 19.5 -6.5 q11.5 -2.5 22.5 -2.5 q13 0 27.5 1.5 q14.5 1.5 27.5 5.5 l0 -80 q-12 -4 -30 -6.5 q-18 -2.5 -37 -2.5 q-35 0 -67 11 q-32 11 -59 29 q-19 -8 -45 -13.5 q-26 -5.5 -60 -5.5 q-74 0 -126.5 36 q-52.5 36 -80 98 q-27.5 62 -27.5 141 q0 85 24.5 148.5 q24.5 63.5 75.5 99.5 q51 36 129 36 ZM420 342 q-27 0 -41.5 -25.5 q-14.5 -25.5 -14.5 -72.5 q0 -44 14.5 -78 q14.5 -34 34.5 -55 q27 19 43.5 53 q16.5 34 16.5 82 q0 44 -13 70 q-13 26 -40 26 Z" /><glyph glyph-name="uni04AC" unicode="&#x4ac;" d="M314 -194 l0 194 l-104 0 l0 620 l-197 0 l0 94 l505 0 l0 -94 l-197 0 l0 -525 l99 0 l0 -289 l-106 0 Z" /><glyph glyph-name="uni04AD" unicode="&#x4ad;" d="M458 539 l0 -85 l-166 0 l0 -370 l91 0 l0 -272 l-102 0 l0 188 l-96 0 l0 454 l-165 0 l0 85 l438 0 Z" /><glyph glyph-name="uni04AF" unicode="&#x4af;" d="M307 -240 l-109 0 l0 239 l-198 540 l115 0 l97 -280 q13 -37 23.5 -80 q10.5 -43 14.5 -68 l5 0 q4 25 14 68 q10 43 23 80 l98 280 l114 0 l-197 -540 l0 -239 Z" /><glyph glyph-name="uni04B0" unicode="&#x4b0;" d="M223 0 l0 159 l-142 0 l0 93 l142 0 l0 21 l-223 441 l120 0 l158 -334 l159 334 l119 0 l-222 -437 l0 -25 l141 0 l0 -93 l-141 0 l0 -159 l-111 0 Z" /><glyph glyph-name="uni04B1" unicode="&#x4b1;" d="M504 539 l-196 -539 l129 0 l0 -80 l-130 0 l0 -160 l-109 0 l0 160 l-132 0 l0 80 l131 0 l-197 539 l115 0 l95 -278 q14 -41 24.5 -80.5 q10.5 -39.5 15.5 -69.5 l4 0 q5 30 16 70.5 q11 40.5 25 82.5 l95 275 l114 0 Z" /><glyph glyph-name="uni04B2" unicode="&#x4b2;" d="M515 -194 l0 194 l-59 0 l-166 298 l-169 -298 l-119 0 l223 371 l-209 343 l123 0 l154 -273 l154 273 l119 0 l-209 -344 l161 -275 l103 0 l0 -289 l-106 0 Z" /><glyph glyph-name="uni04B3" unicode="&#x4b3;" d="M440 -189 l0 189 l-55 0 l-124 206 l-126 -206 l-122 0 l179 275 l-171 264 l123 0 l117 -194 l115 194 l124 0 l-172 -264 l121 -191 l92 0 l0 -273 l-101 0 Z" /><glyph glyph-name="uni04B4" unicode="&#x4b4;" d="M708 -194 l0 194 l-514 0 l0 620 l-181 0 l0 94 l489 0 l0 -94 l-198 0 l0 -526 l296 0 l0 620 l111 0 l0 -619 l103 0 l0 -289 l-106 0 Z" /><glyph glyph-name="uni04B5" unicode="&#x4b5;" d="M598 -188 l0 188 l-439 0 l0 454 l-139 0 l0 85 l399 0 l0 -85 l-152 0 l0 -369 l232 0 l0 454 l109 0 l0 -455 l92 0 l0 -272 l-102 0 Z" /><glyph glyph-name="uni04B6" unicode="&#x4b6;" d="M583 714 l0 -619 l102 0 l0 -289 l-107 0 l0 194 l-106 0 l0 288 q-56 -21 -104 -33 q-48 -12 -103 -12 q-95 0 -147 47.5 q-52 47.5 -52 135.5 l0 288 l111 0 l0 -266 q0 -56 26 -84 q26 -28 85 -28 q48 0 90 10 q42 10 94 30 l0 338 l111 0 Z" /><glyph glyph-name="uni04B7" unicode="&#x4b7;" d="M517 539 l0 -455 l91 0 l0 -273 l-102 0 l0 189 l-98 0 l0 233 q-38 -26 -79.5 -42.5 q-41.5 -16.5 -96.5 -16.5 q-80 0 -124.5 43 q-44.5 43 -44.5 120 l0 202 l108 0 l0 -197 q0 -85 83 -85 q44 0 80 13.5 q36 13.5 74 36.5 l0 232 l109 0 Z" /><glyph glyph-name="uni04B8" unicode="&#x4b8;" d="M583 714 l0 -714 l-112 0 l0 287 q-29 -13 -59 -23 q-30 -10 -61 -15 l0 -152 l-60 0 l0 147 q-103 0 -164 42.5 q-61 42.5 -61 139.5 l0 288 l110 0 l0 -266 q0 -56 27 -84 q27 -28 88 -28 l0 166 l60 0 l0 -162 q31 4 61.5 13.5 q30.5 9.5 58.5 20.5 l0 340 l112 0 Z" /><glyph glyph-name="uni04B9" unicode="&#x4b9;" d="M515 539 l0 -539 l-109 0 l0 233 q-22 -17 -45.5 -30 q-23.5 -13 -49.5 -20 l0 -120 l-58 0 l0 112 q-5 -1 -11 -1.5 q-6 -0.5 -11 -0.5 q-81 0 -124.5 43.5 q-43.5 43.5 -43.5 120.5 l0 202 l108 0 l0 -197 q0 -84 82 -86 l0 139 l58 0 l0 -133 q46 12 95 45 l0 232 l109 0 Z" /><glyph glyph-name="uni04BA" unicode="&#x4ba;" d="M87 714 l111 0 l0 -288 q56 21 106.5 33 q50.5 12 101.5 12 q94 0 146 -47.5 q52 -47.5 52 -135.5 l0 -288 l-110 0 l0 266 q0 56 -26 84 q-26 28 -85 28 q-49 0 -91 -10 q-42 -10 -94 -30 l0 -338 l-111 0 l0 714 Z" /><glyph glyph-name="uni04BC" unicode="&#x4bc;" d="M480 725 q103 0 167.5 -45.5 q64.5 -45.5 95 -126.5 q30.5 -81 30.5 -187 l0 -47 l-484 0 q6 -113 58 -174.5 q52 -61.5 156 -61.5 q67 0 125.5 16.5 q58.5 16.5 102.5 34.5 l0 -98 q-41 -19 -98 -32.5 q-57 -13.5 -139 -13.5 q-146 0 -228.5 88.5 q-82.5 88.5 -93.5 240.5 l-30 0 q-59 0 -93.5 32.5 q-34.5 32.5 -34.5 87.5 q0 23 5 42 q5 19 13 34 l87 0 q-3 -7 -6.5 -23 q-3.5 -16 -3.5 -33 q0 -23 11.5 -35.5 q11.5 -12.5 36.5 -12.5 l17 0 q18 152 97 233 q79 81 209 81 ZM479 631 q-82 0 -132.5 -56 q-50.5 -56 -57.5 -164 l367 0 q0 103 -41.5 161.5 q-41.5 58.5 -135.5 58.5 Z" /><glyph glyph-name="uni04BD" unicode="&#x4bd;" d="M380 548 q102 0 160.5 -65.5 q58.5 -65.5 58.5 -177.5 l0 -58 l-341 0 q2 -87 39.5 -129 q37.5 -42 106.5 -42 q52 0 90.5 9.5 q38.5 9.5 79.5 28.5 l0 -88 q-38 -19 -78 -27.5 q-40 -8.5 -96 -8.5 q-109 0 -177.5 65 q-68.5 65 -74.5 192 q-66 0 -101.5 26.5 q-35.5 26.5 -35.5 82.5 q0 20 4.5 37 q4.5 17 11.5 29 l79 0 q-10 -20 -10 -52 q0 -46 46 -46 l9 0 q14 116 77 170 q63 54 152 54 ZM380 466 q-52 0 -83 -36 q-31 -36 -36 -106 l231 0 q0 64 -27 103 q-27 39 -85 39 Z" /><glyph glyph-name="uni04BE" unicode="&#x4be;" d="M480 725 q103 0 167.5 -45.5 q64.5 -45.5 95 -126 q30.5 -80.5 30.5 -185.5 l0 -49 l-484 0 q6 -113 58 -174.5 q52 -61.5 156 -61.5 q67 0 125.5 16.5 q58.5 16.5 102.5 34.5 l0 -98 q-35 -16 -82 -28.5 q-47 -12.5 -112 -15.5 l0 -186 l-106 0 l0 189 q-119 17 -184 102.5 q-65 85.5 -75 221.5 l-30 0 q-59 0 -93.5 32.5 q-34.5 32.5 -34.5 87.5 q0 23 5 42 q5 19 13 34 l87 0 q-3 -7 -6.5 -23 q-3.5 -16 -3.5 -33 q0 -23 11.5 -35.5 q11.5 -12.5 36.5 -12.5 l17 0 q16 152 96 233 q80 81 210 81 ZM479 631 q-82 0 -132.5 -56 q-50.5 -56 -57.5 -164 l367 0 q0 103 -40 161.5 q-40 58.5 -137 58.5 Z" /><glyph glyph-name="uni04BF" unicode="&#x4bf;" d="M334 -3 q-82 16 -132 78.5 q-50 62.5 -54 171.5 q-67 0 -102 26.5 q-35 26.5 -35 82.5 q0 20 4.5 37 q4.5 17 11.5 29 l79 0 q-10 -20 -10 -52 q0 -46 46 -46 l9 0 q15 114 77.5 169 q62.5 55 151.5 55 q102 0 160.5 -65.5 q58.5 -65.5 58.5 -177.5 l0 -58 l-341 0 q2 -87 39.5 -129 q37.5 -42 106.5 -42 q52 0 90.5 9.5 q38.5 9.5 79.5 28.5 l0 -88 q-32 -16 -65 -24 q-33 -8 -74 -10 l0 -180 l-101 0 l0 185 ZM380 466 q-52 0 -83 -36 q-31 -36 -36 -106 l231 0 q0 64 -27 103 q-27 39 -85 39 Z" /><glyph glyph-name="uni04C3" unicode="&#x4c3;" d="M595 714 l-275 -335 l17 0 q89 0 156 -34 q67 -34 103.5 -102.5 q36.5 -68.5 36.5 -171.5 q0 -109 -34.5 -180 q-34.5 -71 -93.5 -106 q-59 -35 -130 -35 q-43 0 -73.5 6 q-30.5 6 -61.5 18 l0 95 q29 -11 58.5 -17 q29.5 -6 63.5 -6 q72 0 115.5 56.5 q43.5 56.5 43.5 168.5 q0 82 -30 130.5 q-30 48.5 -79.5 69.5 q-49.5 21 -110.5 21 q-59 0 -103 -14 l0 -278 l-111 0 l0 714 l111 0 l0 -350 q19 27 40 57 q21 30 42 57 l187 236 l128 0 Z" /><glyph glyph-name="uni04C4" unicode="&#x4c4;" d="M530 32 q0 -97 -29.5 -158 q-29.5 -61 -79 -90 q-49.5 -29 -109.5 -29 q-34 0 -59 7 q-25 7 -47 20 l0 90 q20 -10 43 -18.5 q23 -8.5 51 -8.5 q53 0 87.5 44.5 q34.5 44.5 34.5 139.5 q0 96 -40 141.5 q-40 45.5 -117 45.5 q-21 0 -43 -3 q-22 -3 -38 -8 l0 -205 l-108 0 l0 539 l108 0 l0 -249 l209 249 l122 0 l-211 -239 q67 -1 118 -28.5 q51 -27.5 79.5 -86.5 q28.5 -59 28.5 -153 Z" /><glyph glyph-name="uni04C5" unicode="&#x4c5;" d="M592 95 l112 0 l-73 -289 l-124 0 l78 194 l-103 0 l0 621 l-191 0 q-7 -70 -17 -149.5 q-10 -79.5 -20 -152.5 q-10 -73 -20 -125 q-18 -99 -53.5 -152 q-35.5 -53 -112.5 -53 q-18 0 -35 3.5 q-17 3.5 -30 8.5 l0 89 q11 -4 24 -7.5 q13 -3.5 27 -3.5 q24 0 39 21 q15 21 24.5 56.5 q9.5 35.5 17.5 77.5 q7 36 17 108 q10 72 22.5 168 q12.5 96 24.5 204 l393 0 l0 -619 Z" /><glyph glyph-name="uni04C6" unicode="&#x4c6;" d="M495 84 l101 0 l-63 -272 l-106 0 l60 188 l-101 0 l0 454 l-139 0 q-12 -166 -33.5 -267.5 q-21.5 -101.5 -58.5 -147.5 q-37 -46 -94 -46 q-16 0 -30.5 2.5 q-14.5 2.5 -25.5 6.5 l0 82 q17 -5 32 -5 q29 0 51 45.5 q22 45.5 38 146.5 q16 101 27 268 l342 0 l0 -455 Z" /><glyph glyph-name="uni04C7" unicode="&#x4c7;" d="M617 714 l0 -652 q0 -154 -69.5 -233 q-69.5 -79 -182.5 -79 q-43 0 -73 6 q-30 6 -59 18 l0 95 q28 -12 56.5 -18 q28.5 -6 62.5 -6 q74 0 114.5 55.5 q40.5 55.5 40.5 165.5 l0 260 l-309 0 l0 -326 l-111 0 l0 714 l111 0 l0 -296 l309 0 l0 296 l110 0 Z" /><glyph glyph-name="uni04C8" unicode="&#x4c8;" d="M531 539 l0 -519 q0 -94 -26.5 -152 q-26.5 -58 -72.5 -85.5 q-46 -27.5 -105 -27.5 q-33 0 -59 7 q-26 7 -51 21 l0 92 q20 -11 45.5 -19.5 q25.5 -8.5 52.5 -8.5 q51 0 79 41 q28 41 28 136 l0 211 l-238 0 l0 -235 l-108 0 l0 539 l108 0 l0 -219 l238 0 l0 219 l109 0 Z" /><glyph glyph-name="uni04C9" unicode="&#x4c9;" d="M617 95 l113 0 l-75 -289 l-124 0 l79 194 l-103 0 l0 326 l-309 0 l0 -326 l-111 0 l0 714 l111 0 l0 -296 l309 0 l0 296 l110 0 l0 -619 Z" /><glyph glyph-name="uni04CA" unicode="&#x4ca;" d="M76 0 l0 539 l108 0 l0 -219 l239 0 l0 219 l108 0 l0 -455 l102 0 l-63 -272 l-107 0 l61 188 l-101 0 l0 235 l-239 0 l0 -235 l-108 0 Z" /><glyph glyph-name="uni04CB" unicode="&#x4cb;" d="M583 0 l-99 0 l0 -194 l-106 0 l0 289 l94 0 l0 193 q-56 -21 -104.5 -33 q-48.5 -12 -102.5 -12 q-95 0 -147 47.5 q-52 47.5 -52 135.5 l0 288 l110 0 l0 -266 q0 -56 26 -84 q26 -28 86 -28 q48 0 90 10 q42 10 94 30 l0 338 l111 0 l0 -714 Z" /><glyph glyph-name="uni04CC" unicode="&#x4cc;" d="M517 539 l0 -539 l-93 0 l0 -189 l-102 0 l0 273 l86 0 l0 149 q-38 -26 -79.5 -42.5 q-41.5 -16.5 -96.5 -16.5 q-81 0 -125 43 q-44 43 -44 120 l0 202 l108 0 l0 -197 q0 -85 83 -85 q44 0 80 13.5 q36 13.5 74 36.5 l0 232 l109 0 Z" /><glyph glyph-name="uni04CD" unicode="&#x4cd;" d="M380 0 l-196 607 l-4 0 q2 -27 4 -64.5 q2 -37.5 3 -74 q1 -36.5 1 -58.5 l0 -410 l-101 0 l0 714 l156 0 l188 -573 l4 0 l190 573 l156 0 l0 -619 l112 0 l-74 -289 l-125 0 l80 194 l-99 0 l0 416 q0 24 1 61 q1 37 2.5 73 q1.5 36 3.5 56 l-4 0 l-201 -606 l-97 0 Z" /><glyph glyph-name="uni04CE" unicode="&#x4ce;" d="M760 84 l-63 -272 l-107 0 l61 188 l-91 0 l0 320 q0 56 6 107 l-3 0 l-154 -427 l-85 0 l-151 427 l-3 0 q2 -25 3 -52.5 q1 -27.5 1 -57.5 l0 -317 l-98 0 l0 539 l147 0 l144 -413 l146 413 l146 0 l0 -455 l101 0 Z" /><glyph glyph-name="uni04D8" unicode="&#x4d8;" d="M330 632 q-69 0 -127.5 -17 q-58.5 -17 -103.5 -35 l0 96 q42 20 98 34.5 q56 14.5 138 14.5 q104 0 177 -46 q73 -46 111 -128.5 q38 -82.5 38 -194.5 q0 -111 -36 -193.5 q-36 -82.5 -105.5 -127.5 q-69.5 -45 -169.5 -45 q-104 0 -168 46 q-64 46 -94 129.5 q-30 83.5 -30 195.5 l0 35 l486 0 q-6 112 -58 174 q-52 62 -156 62 ZM351 83 q83 0 134.5 56.5 q51.5 56.5 58.5 163.5 l-370 0 q1 -103 40.5 -161.5 q39.5 -58.5 136.5 -58.5 Z" /><glyph glyph-name="uni04E0" unicode="&#x4e0;" d="M479 714 l0 -79 l-217 -225 q117 -5 182.5 -56.5 q65.5 -51.5 65.5 -148.5 q0 -63 -30 -111.5 q-30 -48.5 -92 -76 q-62 -27.5 -157 -27.5 q-56 0 -106.5 9 q-50.5 9 -93.5 30 l0 96 q46 -23 98.5 -35 q52.5 -12 98.5 -12 q88 0 128 35 q40 35 40 96 q0 60 -48 89.5 q-48 29.5 -151 29.5 l-59 0 l0 83 l197 210 l-283 0 l0 93 l427 0 Z" /><glyph glyph-name="uni04E1" unicode="&#x4e1;" d="M442 539 l0 -74 l-203 -231 q103 -10 165 -69.5 q62 -59.5 62 -163.5 q0 -71 -31 -125 q-31 -54 -90 -85 q-59 -31 -144 -31 q-58 0 -104.5 9.5 q-46.5 9.5 -81.5 26.5 l0 94 q36 -18 84.5 -30.5 q48.5 -12.5 101.5 -12.5 q75 0 115 42.5 q40 42.5 40 112.5 q0 150 -186 150 l-56 0 l0 75 l196 226 l-278 0 l0 86 l410 0 Z" /><glyph glyph-name="uni04F6" unicode="&#x4f6;" d="M490 714 l0 -93 l-292 0 l0 -526 l100 0 l0 -289 l-105 0 l0 194 l-106 0 l0 714 l403 0 Z" /><glyph glyph-name="uni04F7" unicode="&#x4f7;" d="M403 539 l0 -85 l-219 0 l0 -370 l91 0 l0 -272 l-102 0 l0 188 l-97 0 l0 539 l327 0 Z" /><glyph glyph-name="uni04FB" unicode="&#x4fb;" d="M154 -207 q-20 0 -37.5 3.5 q-17.5 3.5 -29.5 8.5 l0 82 q10 -3 21.5 -6 q11.5 -3 26.5 -3 q21 0 34 12.5 q13 12.5 13 41.5 l0 68 l-106 0 l0 224 l-69 0 l0 82 l69 0 l0 233 l332 0 l0 -88 l-224 0 l0 -145 l152 0 l0 -82 l-152 0 l0 -144 l96 0 l0 -145 q0 -142 -126 -142 Z" /><glyph glyph-name="uni04FC" unicode="&#x4fc;" d="M481 -210 q-19 0 -38 4 q-19 4 -31 8 l0 86 q10 -4 22.5 -6.5 q12.5 -2.5 27.5 -2.5 q22 0 36 13.5 q14 13.5 14 47.5 l0 60 l-56 0 l-166 298 l-169 -298 l-119 0 l223 371 l-209 343 l123 0 l154 -273 l154 273 l119 0 l-209 -344 l162 -277 l95 0 l0 -156 q0 -67 -31 -107 q-31 -40 -102 -40 Z" /><glyph glyph-name="uni04FD" unicode="&#x4fd;" d="M410 -207 q-20 0 -38 3.5 q-18 3.5 -29 8.5 l0 82 q9 -3 21 -6 q12 -3 27 -3 q22 0 35 12.5 q13 12.5 13 41.5 l0 68 l-54 0 l-124 206 l-126 -206 l-122 0 l179 275 l-171 264 l123 0 l117 -194 l115 194 l124 0 l-172 -264 l122 -195 l87 0 l0 -145 q0 -71 -31 -106.5 q-31 -35.5 -96 -35.5 Z" /><glyph glyph-name="uni04FE" unicode="&#x4fe;" d="M55 420 l139 0 l-177 294 l123 0 l154 -274 l153 274 l120 0 l-177 -294 l140 0 l0 -93 l-144 0 l197 -327 l-126 0 l-167 298 l-168 -298 l-120 0 l194 327 l-141 0 l0 93 Z" /><glyph glyph-name="uni04FF" unicode="&#x4ff;" d="M49 316 l116 0 l-144 223 l123 0 l117 -194 l115 194 l124 0 l-146 -223 l117 0 l0 -80 l-116 0 l153 -236 l-123 0 l-124 206 l-126 -206 l-122 0 l152 236 l-116 0 l0 80 Z" /><glyph glyph-name="uni0500" unicode="&#x500;" d="M306 0 q-135 0 -195 54 q-60 54 -60 151 q0 59 26 107.5 q26 48.5 83 78 q57 29.5 150 29.5 l86 0 l0 294 l110 0 l0 -714 l-200 0 ZM317 91 l79 0 l0 238 l-78 0 q-154 0 -154 -119 q0 -64 37 -91.5 q37 -27.5 116 -27.5 Z" /><glyph glyph-name="uni0502" unicode="&#x502;" d="M485 714 l0 -536 q0 -50 23.5 -73 q23.5 -23 67.5 -23 q42 0 65 28 q23 28 23 83 l0 221 l110 0 l0 -234 q0 -88 -50.5 -139 q-50.5 -51 -148.5 -51 q-55 0 -93 21 q-38 21 -60 57 q-23 -35 -61 -56 q-38 -21 -96 -21 q-107 0 -160.5 54 q-53.5 54 -53.5 157 q0 64 27 113 q27 49 86.5 77 q59.5 28 156.5 28 l53 0 l0 294 l111 0 ZM374 328 l-50 0 q-78 0 -119 -28 q-41 -28 -41 -99 q0 -119 109 -119 q54 0 77.5 28 q23.5 28 23.5 66 l0 152 Z" /><glyph glyph-name="uni0503" unicode="&#x503;" d="M497 760 l0 -563 q0 -56 19 -87.5 q19 -31.5 71 -31.5 q47 0 68.5 30 q21.5 30 21.5 92 l0 142 l109 0 l0 -157 q0 -100 -50 -147 q-50 -47 -148 -47 q-67 0 -100.5 22.5 q-33.5 22.5 -53.5 63.5 q-28 -37 -69.5 -62 q-41.5 -25 -103.5 -25 q-97 0 -155.5 70 q-58.5 70 -58.5 208 q0 139 54.5 210 q54.5 71 142.5 71 q56 0 90 -23 q34 -23 56 -56 l5 0 q-1 6 -2 21.5 q-1 15.5 -2.5 34 q-1.5 18.5 -1.5 32.5 l0 202 l108 0 ZM271 461 q-57 0 -84.5 -50 q-27.5 -50 -27.5 -145 q0 -189 113 -189 q66 0 93.5 43 q27.5 43 27.5 131 l0 16 q0 95 -25.5 144.5 q-25.5 49.5 -96.5 49.5 Z" /><glyph glyph-name="uni0504" unicode="&#x504;" d="M249 724 q103 0 160.5 -48 q57.5 -48 57.5 -126 q0 -74 -42.5 -117.5 q-42.5 -43.5 -109.5 -56.5 l0 -4 q81 -11 124 -54 q43 -43 43 -116 q1 -60 21.5 -89.5 q20.5 -29.5 70.5 -29.5 q48 0 70 27.5 q22 27.5 22 89.5 l0 214 l109 0 l0 -229 q0 -99 -52.5 -147 q-52.5 -48 -148.5 -48 q-95 0 -149 50 q-54 50 -55 157 q-1 129 -180 129 l-89 0 l0 83 l85 0 q87 0 127.5 34.5 q40.5 34.5 40.5 89.5 q0 49 -30.5 76 q-30.5 27 -84.5 27 q-50 0 -89.5 -17 q-39.5 -17 -71.5 -40 l-54 72 q40 31 97 52 q57 21 128 21 Z" /><glyph glyph-name="uni0505" unicode="&#x505;" d="M214 549 q56 0 100 -16 q44 -16 69.5 -47.5 q25.5 -31.5 25.5 -78.5 q0 -49 -25 -78 q-25 -29 -66 -42 l0 -4 q50 -10 78 -38.5 q28 -28.5 30 -78.5 q2 -40 23.5 -63.5 q21.5 -23.5 68.5 -23.5 q88 0 88 121 l0 142 l107 0 l0 -157 q0 -100 -47.5 -147.5 q-47.5 -47.5 -146.5 -47.5 q-99 0 -148 39.5 q-49 39.5 -51 116.5 q-2 50 -34 72 q-32 22 -97 22 l-67 0 l0 81 l57 0 q61 0 94.5 17 q33.5 17 33.5 58 q0 69 -100 69 q-36 0 -70 -8.5 q-34 -8.5 -70 -25.5 l-33 80 q40 18 82 28 q42 10 98 10 Z" /><glyph glyph-name="uni0506" unicode="&#x506;" d="M255 724 q107 0 165.5 -48 q58.5 -48 58.5 -126 q0 -74 -43.5 -117 q-43.5 -43 -112.5 -56 l0 -4 q84 -11 128 -55 q44 -44 44 -114 l0 -109 l103 0 l0 -289 l-106 0 l0 194 l-106 0 l0 204 q0 122 -194 122 l-92 0 l0 83 l91 0 q93 0 136 34.5 q43 34.5 43 89.5 q0 49 -32.5 76 q-32.5 27 -89.5 27 q-53 0 -94.5 -17 q-41.5 -17 -75.5 -40 l-54 72 q41 31 99.5 52 q58.5 21 131.5 21 Z" /><glyph glyph-name="uni0507" unicode="&#x507;" d="M222 548 q57 0 101.5 -16 q44.5 -16 70.5 -48 q26 -32 26 -79 q0 -49 -25 -77 q-25 -28 -68 -41 l0 -5 q47 -13 79 -41.5 q32 -28.5 32 -89.5 l0 -67 l93 0 l0 -272 l-101 0 l0 188 l-97 0 l0 151 q0 44 -32.5 66 q-32.5 22 -104.5 22 l-71 0 l0 82 l59 0 q64 0 100.5 16.5 q36.5 16.5 36.5 57.5 q0 70 -104 70 q-37 0 -74 -9.5 q-37 -9.5 -72 -25.5 l-36 80 q42 19 88.5 28.5 q46.5 9.5 98.5 9.5 Z" /><glyph glyph-name="uni0508" unicode="&#x508;" d="M576 714 l0 -527 q0 -55 21 -79.5 q21 -24.5 68 -24.5 q90 0 90 117 l0 214 l109 0 l0 -229 q0 -99 -52 -147 q-52 -48 -147 -48 q-90 0 -145 44 q-55 44 -55 150 l0 436 l-174 0 q-5 -52 -12 -110.5 q-7 -58.5 -14.5 -116 q-7.5 -57.5 -15 -108.5 q-7.5 -51 -14.5 -89 q-19 -100 -54.5 -153.5 q-35.5 -53.5 -112.5 -53.5 q-17 0 -34 3.5 q-17 3.5 -31 8.5 l0 89 q12 -5 24.5 -8.5 q12.5 -3.5 26.5 -3.5 q24 0 38.5 21 q14.5 21 24.5 56.5 q10 35.5 18 80.5 q7 36 17 107.5 q10 71.5 23 166.5 q13 95 25 204 l376 0 Z" /><glyph glyph-name="uni0509" unicode="&#x509;" d="M485 187 q0 -55 21.5 -81.5 q21.5 -26.5 68.5 -26.5 q85 0 85 121 l0 142 l108 0 l0 -157 q0 -100 -48 -147.5 q-48 -47.5 -145 -47.5 q-97 0 -147.5 47 q-50.5 47 -50.5 148 l0 269 l-130 0 q-12 -166 -33.5 -267.5 q-21.5 -101.5 -58.5 -147.5 q-37 -46 -94 -46 q-16 0 -30.5 2.5 q-14.5 2.5 -25.5 6.5 l0 82 q17 -5 32 -5 q29 0 51 45.5 q22 45.5 38 146.5 q16 101 27 268 l332 0 l0 -352 Z" /><glyph glyph-name="uni050A" unicode="&#x50a;" d="M598 714 l0 -525 q0 -56 21.5 -81 q21.5 -25 67.5 -25 q45 0 66.5 27.5 q21.5 27.5 21.5 89.5 l0 214 l109 0 l0 -229 q0 -99 -51.5 -147 q-51.5 -48 -145.5 -48 q-90 0 -144.5 44 q-54.5 44 -54.5 151 l0 141 l-290 0 l0 -326 l-111 0 l0 714 l111 0 l0 -296 l290 0 l0 296 l110 0 Z" /><glyph glyph-name="uni050B" unicode="&#x50b;" d="M184 539 l0 -219 l230 0 l0 219 l109 0 l0 -352 q0 -55 21.5 -81.5 q21.5 -26.5 67.5 -26.5 q85 0 85 121 l0 142 l107 0 l0 -157 q0 -100 -47.5 -147.5 q-47.5 -47.5 -144.5 -47.5 q-96 0 -147 47 q-51 47 -51 147 l0 51 l-230 0 l0 -235 l-108 0 l0 539 l108 0 Z" /><glyph glyph-name="uni050C" unicode="&#x50c;" d="M388 379 l286 0 l0 -48 q0 -105 -30.5 -181.5 q-30.5 -76.5 -95 -118 q-64.5 -41.5 -167.5 -41.5 q-103 0 -176 44 q-73 44 -111.5 126 q-38.5 82 -38.5 198 q0 110 40 192.5 q40 82.5 117 128 q77 45.5 188 45.5 q61 0 115 -12.5 q54 -12.5 97 -33.5 l-39 -91 q-35 17 -81 30.5 q-46 13.5 -98 13.5 q-112 0 -168 -75.5 q-56 -75.5 -56 -199.5 q0 -80 23 -142 q23 -62 70 -97 q47 -35 120 -35 q65 0 103.5 27.5 q38.5 27.5 55.5 74 q17 46.5 17 102.5 l-171 0 l0 93 Z" /><glyph glyph-name="uni050D" unicode="&#x50d;" d="M312 297 l252 0 l0 -38 q0 -81 -26 -141.5 q-26 -60.5 -81 -94 q-55 -33.5 -141 -33.5 q-130 0 -199 73.5 q-69 73.5 -69 204.5 q0 130 74 205.5 q74 75.5 210 75.5 q56 0 101 -10.5 q45 -10.5 83 -29.5 l-34 -82 q-28 13 -67 24.5 q-39 11.5 -82 11.5 q-91 0 -132.5 -53.5 q-41.5 -53.5 -41.5 -142.5 q0 -85 37 -138 q37 -53 120 -53 q74 0 106 39 q32 39 32 97 l-142 0 l0 85 Z" /><glyph glyph-name="uni050E" unicode="&#x50e;" d="M514 714 l0 -94 l-198 0 l0 -432 q0 -56 22.5 -81 q22.5 -25 68.5 -25 q46 0 68.5 28 q22.5 28 22.5 90 l0 214 l109 0 l0 -229 q0 -99 -52.5 -147 q-52.5 -48 -146.5 -48 q-60 0 -106 19 q-46 19 -71.5 62 q-25.5 43 -25.5 113 l0 436 l-192 0 l0 94 l501 0 Z" /><glyph glyph-name="uni050F" unicode="&#x50f;" d="M454 539 l0 -84 l-163 0 l0 -267 q0 -109 90 -109 q43 0 65 28.5 q22 28.5 22 90.5 l0 144 l108 0 l0 -157 q0 -100 -49 -147.5 q-49 -47.5 -146 -47.5 q-95 0 -146.5 47 q-51.5 47 -51.5 147 l0 271 l-163 0 l0 84 l434 0 Z" /><glyph glyph-name="uni0510" unicode="&#x510;" d="M304 724 q77 0 131.5 -19 q54.5 -19 101.5 -51 l-53 -78 q-38 26 -80 42 q-42 16 -97 16 q-61 0 -94 -26 q-33 -26 -33 -76 q0 -55 43.5 -86.5 q43.5 -31.5 141.5 -31.5 l83 0 l0 -87 l-85 0 q-95 0 -149 -30 q-54 -30 -54 -93 q0 -62 42.5 -92.5 q42.5 -30.5 124.5 -30.5 q55 0 109 12 q54 12 97 33 l0 -98 q-42 -19 -96 -28.5 q-54 -9.5 -122 -9.5 q-131 0 -199.5 56.5 q-68.5 56.5 -68.5 150.5 q0 73 47 119 q47 46 133 56 l0 4 q-73 11 -115.5 54 q-42.5 43 -42.5 116 q0 77 62 127.5 q62 50.5 173 50.5 Z" /><glyph glyph-name="uni0512" unicode="&#x512;" d="M560 -210 q-20 0 -38.5 4 q-18.5 4 -30.5 8 l0 86 q11 -4 23 -6.5 q12 -2.5 27 -2.5 q23 0 36.5 13.5 q13.5 13.5 13.5 47.5 l0 60 l-109 0 l0 621 l-191 0 q-7 -70 -17 -149.5 q-10 -79.5 -20 -152.5 q-10 -73 -20 -125 q-18 -99 -53.5 -152 q-35.5 -53 -112.5 -53 q-18 0 -35 3.5 q-17 3.5 -30 8.5 l0 89 q11 -4 24 -7.5 q13 -3.5 27 -3.5 q24 0 39 21 q15 21 24.5 56 q9.5 35 17.5 77 q7 37 17 109 q10 72 22.5 168 q12.5 96 24.5 204 l393 0 l0 -621 l101 0 l0 -156 q0 -67 -31.5 -107 q-31.5 -40 -101.5 -40 Z" /><glyph glyph-name="uni0513" unicode="&#x513;" d="M460 -207 q-19 0 -36.5 3.5 q-17.5 3.5 -29.5 8.5 l0 82 q10 -3 22 -6 q12 -3 26 -3 q22 0 35 12.5 q13 12.5 13 41.5 l0 68 l-104 0 l0 454 l-138 0 q-12 -166 -34 -267.5 q-22 -101.5 -58.5 -148 q-36.5 -46.5 -94.5 -46.5 q-16 0 -30.5 2.5 q-14.5 2.5 -25.5 7.5 l0 81 q17 -5 32 -5 q29 0 51 46 q22 46 38 147 q16 101 28 268 l342 0 l0 -459 l92 0 l0 -145 q0 -71 -30.5 -106.5 q-30.5 -35.5 -97.5 -35.5 Z" /><glyph glyph-name="uni0180" unicode="&#x180;" d="M336 -10 q-58 0 -93.5 22.5 q-35.5 22.5 -56.5 53.5 l-8 0 l-20 -66 l-81 0 l0 599 l-71 0 l0 75 l71 0 l0 86 l109 0 l0 -86 l176 0 l0 -75 l-176 0 l0 -25 q0 -32 -1.5 -61 q-1.5 -29 -3.5 -48 l5 0 q20 34 56.5 57 q36.5 23 94.5 23 q90 0 146 -67.5 q56 -67.5 56 -207.5 q0 -139 -56.5 -209.5 q-56.5 -70.5 -146.5 -70.5 ZM311 77 q57 0 86.5 50 q29.5 50 29.5 144 q0 188 -118 188 q-65 0 -94 -45.5 q-29 -45.5 -29 -139.5 l0 -5 q0 -93 26.5 -142.5 q26.5 -49.5 98.5 -49.5 Z" /><glyph glyph-name="uni0181" unicode="&#x181;" d="M180 0 l0 623 l-24 0 q-28 0 -42 -14.5 q-14 -14.5 -14 -37.5 q0 -17 3.5 -31 q3.5 -14 6.5 -21 l-92 0 q-4 10 -7 26 q-3 16 -3 30 q0 66 35 102.5 q35 36.5 114 36.5 l222 0 q130 0 196.5 -40 q66.5 -40 66.5 -138 q0 -62 -30.5 -104 q-30.5 -42 -86.5 -53 l0 -5 q37 -8 68.5 -26.5 q31.5 -18.5 50 -53 q18.5 -34.5 18.5 -90.5 q0 -98 -64 -151 q-64 -53 -174 -53 l-244 0 ZM291 416 l105 0 q76 0 104 27 q28 27 28 80 q0 53 -34.5 76.5 q-34.5 23.5 -108.5 23.5 l-94 0 l0 -207 ZM291 90 l116 0 q79 0 109 34 q30 34 30 90 q0 51 -31 82.5 q-31 31.5 -114 31.5 l-110 0 l0 -238 Z" /><glyph glyph-name="uni0183" unicode="&#x183;" d="M335 -10 q-59 0 -94 22.5 q-35 22.5 -56 53.5 l-7 0 l-20 -66 l-81 0 l0 760 l411 0 l0 -85 l-303 0 l0 -101 q0 -33 -1.5 -64.5 q-1.5 -31.5 -3.5 -44.5 l5 0 q21 34 57.5 57 q36.5 23 94.5 23 q90 0 146 -67.5 q56 -67.5 56 -207.5 q0 -139 -56.5 -209.5 q-56.5 -70.5 -147.5 -70.5 ZM311 77 q56 0 85.5 50 q29.5 50 29.5 144 q0 188 -117 188 q-66 0 -95 -45.5 q-29 -45.5 -29 -139.5 l0 -5 q0 -93 26.5 -142.5 q26.5 -49.5 99.5 -49.5 Z" /><glyph glyph-name="uni0184" unicode="&#x184;" d="M325 -10 q-128 0 -185.5 58 q-57.5 58 -57.5 162 l0 504 l111 0 l0 -294 l108 0 q95 0 153 -28 q58 -28 84 -76 q26 -48 26 -107 q0 -98 -59 -158.5 q-59 -60.5 -180 -60.5 ZM323 81 q127 0 127 128 q0 67 -42 93.5 q-42 26.5 -122 26.5 l-93 0 l0 -117 q0 -70 31.5 -100.5 q31.5 -30.5 98.5 -30.5 Z" /><glyph glyph-name="uni0185" unicode="&#x185;" d="M309 -10 q-109 0 -172 70 q-63 70 -63 207 l0 493 l109 0 l0 -183 q0 -32 -1.5 -62 q-1.5 -30 -3.5 -47 l5 0 q21 34 58 57 q37 23 95 23 q90 0 146 -70 q56 -70 56 -209 q0 -139 -63.5 -209 q-63.5 -70 -165.5 -70 ZM309 77 q117 0 117 193 q0 192 -118 192 q-69 0 -97 -45.5 q-28 -45.5 -28 -139.5 l0 -12 q0 -92 33.5 -140 q33.5 -48 92.5 -48 Z" /><glyph glyph-name="uni0186" unicode="&#x186;" d="M229 -10 q-54 0 -95 7.5 q-41 7.5 -79 23.5 l0 93 q41 -14 80 -22.5 q39 -8.5 82 -8.5 q99 0 154 73 q55 73 55 201 q0 127 -52.5 200.5 q-52.5 73.5 -153.5 73.5 q-44 0 -82 -12.5 q-38 -12.5 -70 -28.5 l-38 90 q40 21 93 32.5 q53 11.5 111 11.5 q102 0 170.5 -45.5 q68.5 -45.5 103 -128 q34.5 -82.5 34.5 -193.5 q0 -109 -36 -191.5 q-36 -82.5 -106 -129 q-70 -46.5 -171 -46.5 Z" /><glyph glyph-name="uni0187" unicode="&#x187;" d="M598 864 q19 0 35 -4 q16 -4 25 -9 l0 -85 q-7 3 -20.5 6.5 q-13.5 3.5 -29.5 3.5 q-45 0 -45 -50 l0 -48 l-39 -88 q-33 16 -70 28.5 q-37 12.5 -79 12.5 q-95 0 -149 -73.5 q-54 -73.5 -54 -201.5 q0 -127 50 -200 q50 -73 153 -73 q42 0 82.5 8.5 q40.5 8.5 82.5 22.5 l0 -93 q-40 -16 -81 -23.5 q-41 -7.5 -97 -7.5 q-104 0 -171.5 45.5 q-67.5 45.5 -101 128 q-33.5 82.5 -33.5 193.5 q0 108 37 190.5 q37 82.5 108 129.5 q71 47 174 47 q25 0 50 -3.5 q25 -3.5 48 -9.5 l0 13 q0 69 32 104.5 q32 35.5 93 35.5 Z" /><glyph glyph-name="uni0188" unicode="&#x188;" d="M282 -10 q-106 0 -170.5 66.5 q-64.5 66.5 -64.5 209.5 q0 100 31.5 162 q31.5 62 86.5 91.5 q55 29.5 125 29.5 q14 0 27.5 -1.5 q13.5 -1.5 26.5 -3.5 l0 76 q0 145 125 145 q19 0 34.5 -4.5 q15.5 -4.5 25.5 -9.5 l0 -85 q-7 3 -20.5 6.5 q-13.5 3.5 -29.5 3.5 q-44 0 -44 -50 l0 -110 l-33 -84 q-27 10 -56.5 18.5 q-29.5 8.5 -56.5 8.5 q-130 0 -130 -192 q0 -92 32.5 -140 q32.5 -48 94.5 -48 q43 0 75.5 10 q32.5 10 61.5 26 l0 -92 q-29 -17 -61.5 -25 q-32.5 -8 -79.5 -8 Z" /><glyph glyph-name="uni018A" unicode="&#x18a;" d="M180 0 l0 623 l-24 0 q-28 0 -42 -14.5 q-14 -14.5 -14 -37.5 q0 -17 3.5 -31 q3.5 -14 6.5 -21 l-92 0 q-4 10 -7 26 q-3 16 -3 30 q0 66 35 102.5 q35 36.5 114 36.5 l233 0 q102 0 178 -40 q76 -40 117.5 -118 q41.5 -78 41.5 -192 q0 -181 -94 -272.5 q-94 -91.5 -263 -91.5 l-190 0 ZM291 91 l78 0 q242 0 242 270 q0 135 -58.5 198.5 q-58.5 63.5 -166.5 63.5 l-95 0 l0 -532 Z" /><glyph glyph-name="uni018B" unicode="&#x18b;" d="M301 0 q-133 0 -194.5 53.5 q-61.5 53.5 -61.5 150.5 q0 58 26.5 107.5 q26.5 49.5 85.5 79 q59 29.5 157 29.5 l75 0 l0 201 l-299 0 l0 93 l410 0 l0 -714 l-199 0 ZM310 91 l79 0 l0 238 l-65 0 q-82 0 -124 -26.5 q-42 -26.5 -42 -94.5 q0 -61 37.5 -89 q37.5 -28 114.5 -28 Z" /><glyph glyph-name="uni018C" unicode="&#x18c;" d="M248 -10 q-89 0 -145 70 q-56 70 -56 208 q0 136 56.5 207 q56.5 71 147.5 71 q57 0 93.5 -23 q36.5 -23 57.5 -56 l6 0 q-3 17 -5.5 42.5 q-2.5 25.5 -2.5 45.5 l0 120 l-302 0 l0 85 l411 0 l0 -760 l-86 0 l-18 72 l-5 0 q-21 -34 -57.5 -58 q-36.5 -24 -94.5 -24 ZM278 77 q70 0 98.5 43 q28.5 43 28.5 131 l0 16 q0 92 -27.5 142 q-27.5 50 -101.5 50 q-58 0 -87.5 -51.5 q-29.5 -51.5 -29.5 -141.5 q0 -91 30 -140 q30 -49 89 -49 Z" /><glyph glyph-name="uni018E" unicode="&#x18e;" d="M436 714 l0 -714 l-380 0 l0 93 l269 0 l0 234 l-252 0 l0 91 l252 0 l0 204 l-269 0 l0 92 l380 0 Z" /><glyph glyph-name="uni0190" unicode="&#x190;" d="M300 724 q75 0 132.5 -21.5 q57.5 -21.5 100.5 -53.5 l-50 -73 q-37 27 -78 43.5 q-41 16.5 -98 16.5 q-56 0 -88.5 -26.5 q-32.5 -26.5 -32.5 -75.5 q0 -56 43.5 -88 q43.5 -32 141.5 -32 l75 0 l0 -88 l-81 0 q-97 0 -151.5 -29 q-54.5 -29 -54.5 -91 q0 -62 42.5 -95.5 q42.5 -33.5 127.5 -33.5 q50 0 104.5 14.5 q54.5 14.5 97.5 36.5 l0 -95 q-43 -21 -97 -32 q-54 -11 -121 -11 q-95 0 -153.5 26.5 q-58.5 26.5 -86 73 q-27.5 46.5 -27.5 107.5 q0 75 46.5 120 q46.5 45 132.5 56 l0 4 q-67 11 -109 52 q-42 41 -42 115 q0 80 58.5 130 q58.5 50 167.5 50 Z" /><glyph glyph-name="uni0191" unicode="&#x191;" d="M49 -240 q-19 0 -35.5 4 q-16.5 4 -26.5 10 l0 87 q18 -10 46 -10 q26 0 40.5 16.5 q14.5 16.5 14.5 58.5 l0 788 l379 0 l0 -92 l-269 0 l0 -233 l252 0 l0 -92 l-252 0 l0 -374 q0 -85 -39 -124 q-39 -39 -110 -39 Z" /><glyph glyph-name="uni0193" unicode="&#x193;" d="M640 864 q19 0 35 -4 q16 -4 25 -9 l0 -85 q-7 3 -20.5 6.5 q-13.5 3.5 -28.5 3.5 q-45 0 -45 -50 l0 -47 l-40 -88 q-33 17 -75.5 28.5 q-42.5 11.5 -88.5 11.5 q-108 0 -169.5 -74 q-61.5 -74 -61.5 -201 q0 -80 22 -142 q22 -62 70 -97 q48 -35 126 -35 q38 0 64.5 4.5 q26.5 4.5 48.5 10.5 l0 194 l-136 0 l0 93 l246 0 l0 -356 q-54 -19 -110.5 -28.5 q-56.5 -9.5 -128.5 -9.5 q-153 0 -235 97 q-82 97 -82 270 q0 112 41 194.5 q41 82.5 119 127.5 q78 45 189 45 q59 0 110 -15 l0 15 q0 69 32.5 104.5 q32.5 35.5 92.5 35.5 Z" /><glyph glyph-name="uni0194" unicode="&#x194;" d="M281 -240 q-58 0 -89.5 38.5 q-31.5 38.5 -31.5 97.5 q0 46 19 102.5 q19 56.5 44 113.5 l-223 602 l116 0 l123 -355 q13 -37 24 -77 q11 -40 18 -74 q7 34 19 73.5 q12 39.5 26 78.5 l124 354 l117 0 l-229 -602 q30 -64 47.5 -120 q17.5 -56 17.5 -96 q0 -58 -32 -97 q-32 -39 -90 -39 ZM281 -159 q31 0 31 56 q0 23 -7 58 q-7 35 -24 70 q-17 -36 -24 -70 q-7 -34 -7 -56 q0 -30 9 -44 q9 -14 22 -14 Z" /><glyph glyph-name="uni0195" unicode="&#x195;" d="M611 -10 q-107 0 -160.5 48 q-53.5 48 -53.5 157 l0 141 q0 126 -91 126 q-68 0 -94.5 -50 q-26.5 -50 -26.5 -141 l0 -271 l-108 0 l0 760 l108 0 l0 -203 q0 -23 -1.5 -46.5 q-1.5 -23.5 -3.5 -44.5 l6 0 q23 41 61.5 61.5 q38.5 20.5 84.5 20.5 q82 0 128 -47 q46 -47 46 -151 l0 -144 q0 -129 105 -129 q55 0 81 34 q26 34 26 113 l0 315 l109 0 l0 -321 q0 -122 -54.5 -175 q-54.5 -53 -161.5 -53 Z" /><glyph glyph-name="uni0196" unicode="&#x196;" d="M238 -10 q-44 0 -79 15.5 q-35 15.5 -55.5 53 q-20.5 37.5 -20.5 104.5 l0 551 l113 0 l0 -542 q0 -89 66 -89 q22 0 43.5 4 q21.5 4 35.5 9 l0 -87 q-17 -8 -45 -13.5 q-28 -5.5 -58 -5.5 Z" /><glyph glyph-name="uni0197" unicode="&#x197;" d="M306 714 l0 -62 l-81 -26 l0 -217 l86 0 l0 -91 l-86 0 l0 -231 l81 -25 l0 -62 l-272 0 l0 62 l80 25 l0 231 l-85 0 l0 91 l85 0 l0 217 l-80 26 l0 62 l272 0 Z" /><glyph glyph-name="uni0198" unicode="&#x198;" d="M529 721 q20 0 34 -2.5 q14 -2.5 24 -7.5 l0 -84 q-7 2 -20 3.5 q-13 1.5 -24 1.5 q-14 0 -29 -8.5 q-15 -8.5 -36 -36.5 l-134 -184 l258 -403 l-128 0 l-207 330 l-68 -68 l0 -262 l-111 0 l0 714 l111 0 l0 -351 q23 31 47.5 65 q24.5 34 46.5 65 l97 137 q35 52 66.5 71.5 q31.5 19.5 72.5 19.5 Z" /><glyph glyph-name="uni0199" unicode="&#x199;" d="M212 766 q20 0 38.5 -5 q18.5 -5 28.5 -9 l0 -85 q-7 3 -21 6.5 q-14 3.5 -29 3.5 q-21 0 -32.5 -13.5 q-11.5 -13.5 -11.5 -44.5 l0 -239 q0 -20 -1.5 -48 q-1.5 -28 -3.5 -50 l3 0 q10 15 28.5 39.5 q18.5 24.5 32.5 40.5 l151 177 l125 0 l-205 -231 l218 -308 l-128 0 l-163 241 l-57 -52 l0 -189 l-108 0 l0 616 q0 76 35 113 q35 37 100 37 Z" /><glyph glyph-name="uni019A" unicode="&#x19a;" d="M79 0 l0 340 l-67 0 l0 80 l67 0 l0 340 l108 0 l0 -340 l66 0 l0 -80 l-66 0 l0 -340 l-108 0 Z" /><glyph glyph-name="uni019B" unicode="&#x19b;" d="M-3 0 l218 523 l-17 53 l-97 -31 l-20 69 l87 28 q-13 20 -29 28 q-16 8 -39 8 q-16 0 -29 -2 q-13 -2 -23 -4 l0 86 q13 3 32.5 5.5 q19.5 2.5 35.5 2.5 q58 0 93 -23 q35 -23 59 -70 l97 32 l21 -69 l-89 -30 l154 -461 q12 -38 25 -52.5 q13 -14.5 32 -14.5 q17 0 30 5 l0 -80 q-10 -5 -27.5 -9 q-17.5 -4 -36.5 -4 q-45 0 -70 22 q-25 22 -41 68 l-59 184 q-11 34 -23 76.5 q-12 42.5 -17 69.5 l-4 0 q-8 -33 -20 -70.5 q-12 -37.5 -25 -71.5 l-105 -268 l-113 0 Z" /><glyph glyph-name="uni019C" unicode="&#x19c;" d="M270 -10 q-91 0 -139 51 q-48 51 -48 163 l0 510 l110 0 l0 -497 q0 -135 99 -135 q74 0 104.5 48 q30.5 48 30.5 138 l0 446 l111 0 l0 -497 q0 -67 24 -101 q24 -34 76 -34 q76 0 105 53 q29 53 29 152 l0 427 l111 0 l0 -714 l-85 0 l-18 80 l-6 0 q-26 -45 -71 -67.5 q-45 -22.5 -94 -22.5 q-61 0 -100 24.5 q-39 24.5 -61 72.5 l-6 0 q-27 -49 -73 -73 q-46 -24 -99 -24 Z" /><glyph glyph-name="uni019D" unicode="&#x19d;" d="M47 -240 q-19 0 -34.5 4 q-15.5 4 -25.5 10 l0 87 q18 -10 46 -10 q26 0 40.5 16.5 q14.5 16.5 14.5 58.5 l0 788 l135 0 l328 -574 l3 0 q0 11 -1.5 44 q-1.5 33 -3 73.5 q-1.5 40.5 -1.5 72.5 l0 384 l101 0 l0 -714 l-136 0 l-329 577 l-3 0 q1 -17 2.5 -49.5 q1.5 -32.5 3 -72 q1.5 -39.5 1.5 -75.5 l0 -457 q0 -85 -37 -124 q-37 -39 -104 -39 Z" /><glyph glyph-name="uni01A2" unicode="&#x1a2;" d="M660 358 q0 -111 -33.5 -193.5 q-33.5 -82.5 -100.5 -128.5 q-67 -46 -168 -46 q-103 0 -170 46 q-67 46 -99.5 129 q-32.5 83 -32.5 194 q0 110 32.5 192.5 q32.5 82.5 100 128 q67.5 45.5 170.5 45.5 q71 0 125 -23.5 q54 -23.5 91 -67.5 q31 44 79 67.5 q48 23.5 105 23.5 q92 0 142 -53 q50 -53 50 -170 l0 -502 l-111 0 l0 498 q0 135 -105 135 q-46 0 -74.5 -14.5 q-28.5 -14.5 -44.5 -41.5 q44 -90 44 -219 ZM173 358 q0 -128 44.5 -202 q44.5 -74 140.5 -74 q97 0 141 74 q44 74 44 202 q0 128 -43.5 201 q-43.5 73 -140.5 73 q-97 0 -141.5 -73 q-44.5 -73 -44.5 -201 Z" /><glyph glyph-name="uni01A3" unicode="&#x1a3;" d="M505 270 q0 -134 -62 -207 q-62 -73 -168 -73 q-65 0 -117 32.5 q-52 32.5 -81.5 95 q-29.5 62.5 -29.5 152.5 q0 134 61.5 206.5 q61.5 72.5 168.5 72.5 q104 0 166 -74 q27 38 65 56 q38 18 82 18 q79 0 121.5 -47 q42.5 -47 42.5 -151 l0 -591 l-109 0 l0 577 q0 125 -83 125 q-57 0 -84 -42 q27 -60 27 -150 ZM159 270 q0 -91 27.5 -142 q27.5 -51 89.5 -51 q61 0 89 51 q28 51 28 142 q0 92 -28 141.5 q-28 49.5 -89 49.5 q-62 0 -89.5 -49.5 q-27.5 -49.5 -27.5 -141.5 Z" /><glyph glyph-name="uni01A4" unicode="&#x1a4;" d="M180 0 l0 623 l-24 0 q-28 0 -42 -14.5 q-14 -14.5 -14 -37.5 q0 -17 3.5 -31 q3.5 -14 6.5 -21 l-92 0 q-4 10 -7 26 q-3 16 -3 30 q0 66 35 102.5 q35 36.5 114 36.5 l217 0 q131 0 191 -56.5 q60 -56.5 60 -157.5 q0 -60 -24 -112 q-24 -52 -82 -84.5 q-58 -32.5 -159 -32.5 l-69 0 l0 -271 l-111 0 ZM291 362 l57 0 q81 0 122.5 30.5 q41.5 30.5 41.5 103.5 q0 64 -35.5 95.5 q-35.5 31.5 -110.5 31.5 l-75 0 l0 -261 Z" /><glyph glyph-name="uni01A5" unicode="&#x1a5;" d="M212 765 q20 0 38 -4.5 q18 -4.5 28 -9.5 l0 -85 q-6 3 -19.5 6.5 q-13.5 3.5 -29.5 3.5 q-21 0 -32.5 -13 q-11.5 -13 -11.5 -44 l0 -65 q0 -19 -2 -43.5 q-2 -24.5 -4 -43.5 l6 0 q22 34 57.5 58 q35.5 24 94.5 24 q90 0 146 -70 q56 -70 56 -209 q0 -137 -56 -208.5 q-56 -71.5 -147 -71.5 q-57 0 -93 22 q-36 22 -57 53 l-6 0 q2 -18 3.5 -42.5 q1.5 -24.5 1.5 -43.5 l0 -219 l-108 0 l0 856 q0 76 35.5 112.5 q35.5 36.5 99.5 36.5 ZM309 462 q-67 0 -95.5 -43 q-28.5 -43 -28.5 -132 l0 -16 q0 -94 27 -144 q27 -50 99 -50 q59 0 87 54 q28 54 28 141 q0 88 -28 139 q-28 51 -89 51 Z" /><glyph glyph-name="uni01A6" unicode="&#x1a6;" d="M467 -100 l-160 289 l-108 0 l0 -189 l-111 0 l0 714 l111 0 l0 -100 l80 0 q131 0 193 -51 q62 -51 62 -155 q0 -55 -19 -92.5 q-19 -37.5 -49 -61.5 q-30 -24 -63 -37 l191 -317 l-127 0 ZM199 279 l76 0 q77 0 111 31.5 q34 31.5 34 93.5 q0 64 -36 91 q-36 27 -112 27 l-73 0 l0 -243 Z" /><glyph glyph-name="uni01A7" unicode="&#x1a7;" d="M259 724 q97 0 156 -49 q59 -49 59 -137 q0 -58 -21.5 -98 q-21.5 -40 -60 -67 q-38.5 -27 -89.5 -49 q-78 -32 -114.5 -60 q-36.5 -28 -36.5 -78 q0 -49 31.5 -76.5 q31.5 -27.5 95.5 -27.5 q53 0 103 15 q50 15 90 32 l0 -98 q-36 -18 -86 -29.5 q-50 -11.5 -107 -11.5 q-113 0 -175 53.5 q-62 53.5 -62 148.5 q0 56 21.5 93.5 q21.5 37.5 62 65 q40.5 27.5 96.5 50.5 q52 21 82.5 39.5 q30.5 18.5 44.5 41 q14 22.5 14 56.5 q0 42 -27 67.5 q-27 25.5 -80 25.5 q-39 0 -76 -11 q-37 -11 -74 -28 l-34 89 q40 19 87 31 q47 12 100 12 Z" /><glyph glyph-name="uni01A8" unicode="&#x1a8;" d="M223 549 q89 0 140.5 -36.5 q51.5 -36.5 51.5 -107.5 q0 -45 -17 -73.5 q-17 -28.5 -50.5 -49.5 q-33.5 -21 -82.5 -41 q-51 -21 -76.5 -36 q-25.5 -15 -34 -29.5 q-8.5 -14.5 -8.5 -32.5 q0 -33 25 -52 q25 -19 78 -19 q41 0 84 12.5 q43 12.5 77 30.5 l0 -90 q-33 -17 -72.5 -26 q-39.5 -9 -91.5 -9 q-206 0 -206 159 q0 67 39 101.5 q39 34.5 109 62.5 q47 19 73.5 33 q26.5 14 37 28 q10.5 14 10.5 34 q0 27 -23 42.5 q-23 15.5 -64 15.5 q-31 0 -63.5 -10.5 q-32.5 -10.5 -66.5 -25.5 l-33 81 q41 18 81.5 28 q40.5 10 82.5 10 Z" /><glyph glyph-name="uni01AA" unicode="&#x1aa;" d="M118 766 q138 0 138 -152 l0 -682 q0 -86 67 -86 q22 0 44.5 4 q22.5 4 38.5 9 l0 -80 q-17 -8 -45.5 -13.5 q-28.5 -5.5 -57.5 -5.5 q-45 0 -80 15 q-35 15 -55 52 q-20 37 -20 104 l0 607 l-33 0 q-65 0 -94 33 q-29 33 -29 83 q0 28 12.5 54 q12.5 26 40 42 q27.5 16 73.5 16 ZM106 692 q-16 0 -24.5 -12 q-8.5 -12 -8.5 -27 q0 -20 13 -30.5 q13 -10.5 33 -10.5 l29 0 l0 18 q0 28 -10 45 q-10 17 -32 17 Z" /><glyph glyph-name="uni01AB" unicode="&#x1ab;" d="M225 -240 q-19 0 -36 4 q-17 4 -28 8 l0 82 q8 -3 20 -6 q12 -3 26 -3 q44 0 44 54 l0 91 l-17 0 q-38 0 -71 15 q-33 15 -54 52 q-21 37 -21 103 l0 298 l-70 0 l0 48 l75 40 l36 114 l67 0 l0 -121 l146 0 l0 -81 l-146 0 l0 -296 q0 -44 19 -65 q19 -21 53 -21 q44 0 78 13 l0 -186 q0 -143 -121 -143 Z" /><glyph glyph-name="uni01AC" unicode="&#x1ac;" d="M239 0 l0 621 l-83 0 q-28 0 -42 -13.5 q-14 -13.5 -14 -36.5 q0 -17 3.5 -31 q3.5 -14 6.5 -21 l-92 0 q-4 10 -7 26 q-3 16 -3 30 q0 66 35 102.5 q35 36.5 114 36.5 l390 0 l0 -93 l-197 0 l0 -621 l-111 0 Z" /><glyph glyph-name="uni01AD" unicode="&#x1ad;" d="M244 765 q24 0 45.5 -4.5 q21.5 -4.5 33.5 -9.5 l0 -85 q-9 3 -30 6.5 q-21 3.5 -42 3.5 q-55 0 -55 -64 l0 -73 l146 0 l0 -81 l-146 0 l0 -296 q0 -44 20 -65 q20 -21 52 -21 q44 0 78 13 l0 -80 q-17 -8 -46 -13.5 q-29 -5.5 -58 -5.5 q-42 0 -77 15 q-35 15 -56 52 q-21 37 -21 103 l0 298 l-70 0 l0 48 l70 38 l0 62 q0 80 40.5 119.5 q40.5 39.5 115.5 39.5 Z" /><glyph glyph-name="uni01AE" unicode="&#x1ae;" d="M355 -240 q-70 0 -106.5 38.5 q-36.5 38.5 -36.5 124.5 l0 698 l-198 0 l0 93 l505 0 l0 -93 l-197 0 l0 -695 q0 -42 15 -58.5 q15 -16.5 40 -16.5 q28 0 46 10 l0 -87 q-25 -14 -68 -14 Z" /><glyph glyph-name="uni01B1" unicode="&#x1b1;" d="M369 82 q99 0 147.5 61.5 q48.5 61.5 48.5 171.5 q0 96 -30.5 172.5 q-30.5 76.5 -109.5 135.5 l0 91 l281 0 l0 -93 l-167 0 q61 -47 102 -128 q41 -81 41 -189 q0 -96 -37 -167 q-37 -71 -107 -109.5 q-70 -38.5 -169 -38.5 q-99 0 -169.5 38.5 q-70.5 38.5 -107.5 109 q-37 70.5 -37 166.5 q0 109 40.5 190 q40.5 81 102.5 128 l-167 0 l0 93 l282 0 l0 -91 q-80 -58 -111.5 -135.5 q-31.5 -77.5 -31.5 -172.5 q0 -110 49.5 -171.5 q49.5 -61.5 149.5 -61.5 Z" /><glyph glyph-name="uni01B2" unicode="&#x1b2;" d="M345 -10 q-130 0 -197 72.5 q-67 72.5 -67 191.5 l0 460 l111 0 l0 -455 q0 -177 157 -177 q82 0 118 48 q36 48 36 130 l0 303 q0 38 -15.5 53 q-15.5 15 -43.5 15 q-39 0 -72 -19 l0 88 q16 10 43.5 17 q27.5 7 56.5 7 q142 0 142 -148 l0 -324 q0 -74 -29.5 -133.5 q-29.5 -59.5 -89 -94 q-59.5 -34.5 -150.5 -34.5 Z" /><glyph glyph-name="uni01B3" unicode="&#x1b3;" d="M64 725 q40 0 67 -20 q27 -20 46 -69 l105 -256 l154 334 l120 0 l-220 -437 l0 -277 l-110 0 l0 273 l-135 308 q-14 33 -26.5 43 q-12.5 10 -28.5 10 q-20 0 -36 -8 l0 86 q10 4 27 8.5 q17 4.5 37 4.5 Z" /><glyph glyph-name="uni01B4" unicode="&#x1b4;" d="M475 549 q17 0 35 -4 q18 -4 29 -9 l0 -80 q-13 5 -30 5 q-18 0 -31.5 -14 q-13.5 -14 -26.5 -54 l-158 -463 q-26 -79 -73.5 -124.5 q-47.5 -45.5 -126.5 -45.5 q-21 0 -39 2.5 q-18 2.5 -30 5.5 l0 84 q9 -2 24.5 -4 q15.5 -2 29.5 -2 q43 0 71 25.5 q28 25.5 42 71.5 l18 57 l-204 539 l117 0 l97 -290 q12 -36 22 -71.5 q10 -35.5 15 -68.5 l3 0 q5 24 16 62 q11 38 24 78 l62 194 q17 55 42.5 80.5 q25.5 25.5 71.5 25.5 Z" /><glyph glyph-name="uni01B5" unicode="&#x1b5;" d="M68 409 l172 0 l128 212 l-328 0 l0 93 l461 0 l0 -77 l-140 -228 l102 0 l0 -86 l-163 0 l-137 -230 l347 0 l0 -93 l-480 0 l0 77 l150 246 l-112 0 l0 86 Z" /><glyph glyph-name="uni01B6" unicode="&#x1b6;" d="M410 539 l0 -75 l-95 -147 l86 0 l0 -78 l-143 0 l-99 -157 l258 0 l0 -82 l-385 0 l0 67 l111 172 l-93 0 l0 78 l150 0 l88 140 l-240 0 l0 82 l362 0 Z" /><glyph glyph-name="uni01B8" unicode="&#x1b8;" d="M316 -10 q-93 0 -153 29.5 q-60 29.5 -88.5 79 q-28.5 49.5 -28.5 110.5 q0 73 29.5 121.5 q29.5 48.5 80 74 q50.5 25.5 112.5 28.5 l-193 202 l0 79 l428 0 l0 -93 l-282 0 l178 -193 l0 -77 l-66 0 q-83 0 -128.5 -33.5 q-45.5 -33.5 -45.5 -103.5 q0 -64 40.5 -100 q40.5 -36 128.5 -36 q46 0 98.5 12 q52.5 12 97.5 35 l0 -96 q-44 -21 -94.5 -30 q-50.5 -9 -113.5 -9 Z" /><glyph glyph-name="uni01B9" unicode="&#x1b9;" d="M285 -240 q-81 0 -137.5 30.5 q-56.5 30.5 -85.5 83 q-29 52.5 -29 118.5 q0 111 61.5 171.5 q61.5 60.5 165.5 70.5 l-202 231 l0 74 l412 0 l0 -86 l-280 0 l194 -226 l0 -75 l-55 0 q-186 0 -186 -156 q0 -66 39.5 -107.5 q39.5 -41.5 114.5 -41.5 q51 0 99 12.5 q48 12.5 84 30.5 l0 -93 q-35 -17 -82.5 -27 q-47.5 -10 -112.5 -10 Z" /><glyph glyph-name="uni01BA" unicode="&#x1ba;" d="M214 -240 q-80 0 -132 31 q-52 31 -52 99 q0 36 15.5 65.5 q15.5 29.5 54 48 q38.5 18.5 106.5 19.5 q73 1 102.5 25.5 q29.5 24.5 29.5 79.5 q0 55 -40 76.5 q-40 21.5 -121 21.5 l-58 0 l0 73 l160 154 l-244 0 l0 86 l388 0 l0 -73 l-171 -159 q90 -5 143 -49 q53 -44 53 -130 q0 -52 -20.5 -95 q-20.5 -43 -71 -69 q-50.5 -26 -138.5 -29 q-53 -1 -72 -12.5 q-19 -11.5 -19 -32.5 q0 -22 24.5 -34 q24.5 -12 70.5 -12 q53 0 95.5 12 q42.5 12 71.5 25 l0 -89 q-30 -14 -75 -23 q-45 -9 -100 -9 Z" /><glyph glyph-name="uni01BB" unicode="&#x1bb;" d="M246 765 q93 0 147 -51.5 q54 -51.5 54 -136.5 q0 -41 -9 -79 q-9 -38 -30 -79 l81 0 l0 -78 l-134 0 l-194 -253 l0 -5 l332 0 l0 -83 l-456 0 l0 84 l195 257 l-173 0 l0 78 l232 0 q25 41 34.5 77.5 q9.5 36.5 9.5 76.5 q0 49 -26.5 76 q-26.5 27 -69.5 27 q-43 0 -76 -18.5 q-33 -18.5 -65 -50.5 l-56 69 q34 34 84 61.5 q50 27.5 120 27.5 Z" /><glyph glyph-name="uni01BC" unicode="&#x1bc;" d="M225 -10 q-55 0 -105 9 q-50 9 -89 30 l0 96 q39 -22 91.5 -34.5 q52.5 -12.5 100.5 -12.5 q82 0 125 36.5 q43 36.5 43 107.5 q0 69 -42.5 101.5 q-42.5 32.5 -110.5 32.5 l-116 0 l0 264 l-90 0 l0 94 l448 0 l0 -94 l-251 0 l0 -175 l33 0 q70 0 125 -26 q55 -26 86.5 -75.5 q31.5 -49.5 31.5 -119.5 q0 -104 -68.5 -169 q-68.5 -65 -211.5 -65 Z" /><glyph glyph-name="uni01BD" unicode="&#x1bd;" d="M211 -10 q-55 0 -102 9 q-47 9 -75 26 l0 92 q31 -17 78 -29.5 q47 -12.5 99 -12.5 q58 0 94 22 q36 22 36 74 q0 47 -34.5 68.5 q-34.5 21.5 -101.5 21.5 l-91 0 l0 193 l-74 0 l0 85 l381 0 l0 -85 l-209 0 l0 -111 l26 0 q111 0 160.5 -44.5 q49.5 -44.5 49.5 -122.5 q0 -51 -25.5 -93.5 q-25.5 -42.5 -78 -67.5 q-52.5 -25 -133.5 -25 Z" /><glyph glyph-name="uni01BE" unicode="&#x1be;" d="M201 -10 q-51 0 -94.5 9 q-43.5 9 -73.5 25 l0 93 q30 -17 75.5 -31 q45.5 -14 89.5 -14 q56 0 81 19 q25 19 25 53 q0 28 -20 46.5 q-20 18.5 -71 41.5 q-43 21 -65 52.5 q-22 31.5 -22 98.5 l0 75 l-88 0 l0 48 l89 40 l36 114 l68 0 l0 -121 l139 0 l0 -81 l-139 0 l0 -75 q0 -33 10 -47.5 q10 -14.5 35 -25.5 q40 -18 70 -38 q30 -20 47 -49 q17 -29 17 -72 q0 -76 -53 -118.5 q-53 -42.5 -156 -42.5 Z" /><glyph glyph-name="uni01BF" unicode="&#x1bf;" d="M332 549 q85 0 140 -60 q55 -60 55 -172 q0 -90 -40.5 -161 q-40.5 -71 -117.5 -115.5 q-77 -44.5 -184 -53.5 l0 -227 l-108 0 l0 779 l88 0 l15 -72 l5 0 q21 34 56 58 q35 24 91 24 ZM302 462 q-63 0 -90 -43.5 q-27 -43.5 -27 -131.5 l0 -211 q66 5 118 36.5 q52 31.5 82 84 q30 52.5 30 120.5 q0 65 -29.5 105 q-29.5 40 -83.5 40 Z" /><glyph glyph-name="uni01C0" unicode="&#x1c0;" d="M98 0 l0 760 l88 0 l0 -760 l-88 0 Z" /><glyph glyph-name="uni01C2" unicode="&#x1c2;" d="M286 760 l0 -248 l144 0 l0 -79 l-144 0 l0 -91 l144 0 l0 -80 l-144 0 l0 -262 l-87 0 l0 262 l-144 0 l0 80 l144 0 l0 91 l-144 0 l0 79 l144 0 l0 248 l87 0 Z" /><glyph glyph-name="uni01E4" unicode="&#x1e4;" d="M380 -10 q-161 0 -242.5 98 q-81.5 98 -81.5 267 q0 111 41 194 q41 83 119 129 q78 46 189 46 q55 0 106.5 -12 q51.5 -12 93.5 -31 l-38 -90 q-33 17 -77.5 28.5 q-44.5 11.5 -90.5 11.5 q-109 0 -168.5 -72.5 q-59.5 -72.5 -59.5 -202.5 q0 -130 52 -203.5 q52 -73.5 168 -73.5 q37 0 63 4 q26 4 48 11 l0 65 l-127 0 l0 78 l127 0 l0 69 l-136 0 l0 91 l246 0 l0 -160 l60 0 l0 -78 l-60 0 l0 -129 q-50 -17 -104 -28.5 q-54 -11.5 -128 -11.5 Z" /><glyph glyph-name="uni01E5" unicode="&#x1e5;" d="M251 549 q99 0 153 -81 l4 0 l12 71 l89 0 l0 -566 l52 0 l0 -72 l-60 0 q-17 -65 -73.5 -103 q-56.5 -38 -156.5 -38 q-55 0 -101 8 q-46 8 -86 25 l0 91 q40 -20 88 -31 q48 -11 101 -11 q93 0 114 59 l-147 0 l0 72 l161 0 l0 61 q0 16 0.5 35.5 q0.5 19.5 2.5 32.5 l-4 0 q-26 -42 -63.5 -61.5 q-37.5 -19.5 -86.5 -19.5 q-95 0 -149 68.5 q-54 68.5 -54 193.5 q0 123 54.5 194.5 q54.5 71.5 149.5 71.5 ZM276 461 q-56 0 -86.5 -45.5 q-30.5 -45.5 -30.5 -133.5 q0 -178 120 -178 q65 0 95.5 37 q30.5 37 30.5 123 l0 14 q0 97 -31 140 q-31 43 -98 43 Z" /><glyph glyph-name="uni01F6" unicode="&#x1f6;" d="M88 0 l0 714 l111 0 l0 -296 l250 0 l0 296 l111 0 l0 -529 q0 -103 84 -103 q44 0 64.5 27.5 q20.5 27.5 20.5 79.5 l0 350 l111 0 l0 -351 q0 -89 -48 -143 q-48 -54 -149 -54 q-98 0 -146 49.5 q-48 49.5 -48 141.5 l0 144 l-250 0 l0 -326 l-111 0 Z" /><glyph glyph-name="uni01F7" unicode="&#x1f7;" d="M380 725 q89 0 145.5 -62 q56.5 -62 56.5 -187 q0 -91 -37 -179.5 q-37 -88.5 -121 -166.5 q-84 -78 -225 -136 l0 -234 l-111 0 l0 955 l86 0 l18 -96 l5 0 q25 43 69 74.5 q44 31.5 114 31.5 ZM352 633 q-83 0 -118 -60.5 q-35 -60.5 -35 -162.5 l0 -315 q133 61 202.5 161 q69.5 100 69.5 219 q0 79 -31.5 118.5 q-31.5 39.5 -87.5 39.5 Z" /><glyph glyph-name="uni021C" unicode="&#x21c;" d="M43 -180 l0 98 q110 28 182 57.5 q72 29.5 113 62 q41 32.5 58 69 q17 36.5 17 78.5 q0 57 -27 90.5 q-27 33.5 -73 57.5 q-36 -13 -72.5 -24 q-36.5 -11 -75.5 -21 l-19 82 q90 24 145 45.5 q55 21.5 80.5 49.5 q25.5 28 25.5 71 q0 48 -29.5 74 q-29.5 26 -88.5 26 q-53 0 -100.5 -15.5 q-47.5 -15.5 -91.5 -44.5 l-49 73 q56 40 119 57.5 q63 17.5 126 17.5 q63 0 114.5 -18.5 q51.5 -18.5 82 -59 q30.5 -40.5 30.5 -105.5 q0 -57 -30 -97 q-30 -40 -79 -68 q51 -26 88.5 -70.5 q37.5 -44.5 37.5 -120.5 q0 -93 -49.5 -160 q-49.5 -67 -156.5 -116 q-107 -49 -278 -89 Z" /><glyph glyph-name="uni021D" unicode="&#x21d;" d="M10 -240 l0 91 q170 35 254.5 86.5 q84.5 51.5 84.5 132.5 q0 44 -24 72.5 q-24 28.5 -65 48.5 q-30 -12 -65 -22 q-35 -10 -72 -19 l-21 78 q90 22 139 44 q49 22 68.5 48 q19.5 26 19.5 58 q0 42 -29 63.5 q-29 21.5 -80 21.5 q-45 0 -84 -10 q-39 -10 -76 -28 l-36 77 q46 25 95.5 36 q49.5 11 103.5 11 q57 0 104 -17.5 q47 -17.5 75 -55 q28 -37.5 28 -97.5 q0 -47 -23 -83 q-23 -36 -65 -63 q50 -23 83 -62 q33 -39 33 -106 q0 -89 -57 -147.5 q-57 -58.5 -158 -95.5 q-101 -37 -233 -62 Z" /><glyph glyph-name="uni0220" unicode="&#x220;" d="M398 725 q103 0 165 -61 q62 -61 62 -195 l0 -709 l-111 0 l0 698 q0 87 -33.5 131 q-33.5 44 -107.5 44 q-96 0 -135 -59.5 q-39 -59.5 -39 -163.5 l0 -410 l-111 0 l0 715 l86 0 l19 -92 l4 0 q32 47 87.5 74.5 q55.5 27.5 113.5 27.5 Z" /><glyph glyph-name="uni0221" unicode="&#x221;" d="M546 -105 l-91 5 q4 40 9.5 74 q5.5 34 12.5 63 q-17 13 -25.5 27 q-8.5 14 -12.5 25 l-5 0 q-24 -47 -64 -73 q-40 -26 -113 -26 q-96 0 -153 69.5 q-57 69.5 -57 208.5 q0 139 56.5 210 q56.5 71 147.5 71 q57 0 93.5 -23 q36.5 -23 57.5 -56 l6 0 q0 6 -2 22 q-2 16 -4 34 q-2 18 -2 32 l0 202 l109 0 l0 -548 q0 -46 11 -77 q32 57 74.5 79.5 q42.5 22.5 90.5 21.5 q60 -1 91.5 -31 q31.5 -30 31.5 -75 q0 -35 -18 -64.5 q-18 -29.5 -59 -47.5 q-41 -18 -111 -18 q-36 0 -61 6 q-5 -24 -8 -52 q-3 -28 -5 -59 ZM278 77 q70 0 98.5 43 q28.5 43 28.5 131 l0 16 q0 95 -27.5 145 q-27.5 50 -101.5 50 q-58 0 -87.5 -52 q-29.5 -52 -29.5 -144 q0 -91 30 -140 q30 -49 89 -49 ZM631 78 q47 0 66.5 12.5 q19.5 12.5 19.5 33.5 q0 12 -11 22 q-11 10 -33 10 q-30 0 -52.5 -19 q-22.5 -19 -37.5 -53 q19 -6 48 -6 Z" /><glyph glyph-name="uni0222" unicode="&#x222;" d="M333 -10 q-131 0 -206 65.5 q-75 65.5 -75 181.5 q0 154 136 203 q-56 26 -79.5 75 q-23.5 49 -23.5 117 l0 82 l111 0 l0 -82 q0 -67 33.5 -108.5 q33.5 -41.5 105.5 -41.5 q72 0 105 41.5 q33 41.5 33 108.5 l0 82 l111 0 l0 -82 q0 -69 -24.5 -118 q-24.5 -49 -80.5 -75 q66 -23 101.5 -73.5 q35.5 -50.5 35.5 -128.5 q0 -115 -73.5 -181 q-73.5 -66 -209.5 -66 ZM334 82 q87 0 126 41 q39 41 39 114 q0 73 -39 113 q-39 40 -126 40 q-87 0 -125.5 -40 q-38.5 -40 -38.5 -113 q0 -73 38.5 -114 q38.5 -41 125.5 -41 Z" /><glyph glyph-name="uni0223" unicode="&#x223;" d="M285 -10 q-69 0 -123 29 q-54 29 -85.5 85.5 q-31.5 56.5 -31.5 137.5 q0 160 122 209 q-49 19 -70.5 64.5 q-21.5 45.5 -21.5 124.5 l0 120 l109 0 l0 -118 q0 -77 24 -112.5 q24 -35.5 79 -35.5 q55 0 79 35.5 q24 35.5 24 112.5 l0 118 l109 0 l0 -120 q0 -80 -22.5 -125 q-22.5 -45 -71.5 -65 q58 -24 91 -75 q33 -51 33 -133 q0 -121 -67 -186.5 q-67 -65.5 -177 -65.5 ZM287 77 q66 0 98 43.5 q32 43.5 32 122.5 q0 78 -31.5 121 q-31.5 43 -98.5 43 q-68 0 -99.5 -43 q-31.5 -43 -31.5 -121 q0 -79 32 -122.5 q32 -43.5 99 -43.5 Z" /><glyph glyph-name="uni0234" unicode="&#x234;" d="M85 -32 l-67 32 q31 84 64 132 q-2 16 -3.5 35.5 q-1.5 19.5 -1.5 41.5 l0 551 l109 0 l0 -539 q28 14 67 14 q61 0 92.5 -32.5 q31.5 -32.5 31.5 -86.5 q0 -55 -35 -90.5 q-35 -35.5 -103 -35.5 q-43 0 -73.5 15 q-30.5 15 -47.5 41 q-8 -16 -17 -36 q-9 -20 -16 -42 ZM244 64 q22 0 35 14 q13 14 13 35 q0 24 -13.5 36 q-13.5 12 -36.5 12 q-30 0 -56 -24 q2 -33 15.5 -53 q13.5 -20 42.5 -20 Z" /><glyph glyph-name="uni0235" unicode="&#x235;" d="M416 -32 l-67 32 q14 41 30.5 74 q16.5 33 33.5 58 q-3 15 -4 32.5 q-1 17.5 -1 36.5 l0 135 q0 126 -96 126 q-73 0 -100 -49 q-27 -49 -27 -141 l0 -272 l-108 0 l0 539 l85 0 l16 -72 l6 0 q23 42 65.5 62 q42.5 20 88.5 20 q85 0 131.5 -47 q46.5 -47 46.5 -151 l0 -130 q30 14 67 14 q61 0 92.5 -34.5 q31.5 -34.5 31.5 -87.5 q0 -57 -35 -90 q-35 -33 -103 -33 q-83 0 -121 55 q-8 -17 -16 -36 q-8 -19 -16 -41 ZM574 64 q25 0 36.5 14 q11.5 14 11.5 35 q0 24 -13 36 q-13 12 -36 12 q-31 0 -57 -24 q2 -33 15.5 -53 q13.5 -20 42.5 -20 Z" /><glyph glyph-name="uni0236" unicode="&#x236;" d="M96 -32 l-67 32 q31 84 64 132 q-3 17 -4 37 q-1 20 -1 42 l0 247 l-70 0 l0 48 l75 40 l36 114 l67 0 l0 -121 l146 0 l0 -81 l-146 0 l0 -237 q30 14 67 14 q61 0 92.5 -34.5 q31.5 -34.5 31.5 -87.5 q0 -57 -35 -90 q-35 -33 -103 -33 q-83 0 -121 55 q-9 -17 -16.5 -36 q-7.5 -19 -15.5 -41 ZM254 64 q25 0 36.5 14 q11.5 14 11.5 35 q0 24 -13 36 q-13 12 -36 12 q-30 0 -57 -24 q2 -33 15.5 -53 q13.5 -20 42.5 -20 Z" /><glyph glyph-name="uni0238" unicode="&#x238;" d="M276 -10 q-105 0 -167 70 q-62 70 -62 209 q0 138 56 209 q56 71 146 71 q58 0 93.5 -23 q35.5 -23 57.5 -57 l6 0 q-2 16 -4 44 q-2 28 -2 62 l0 185 l109 0 l0 -183 q0 -33 -1.5 -62 q-1.5 -29 -3.5 -47 l5 0 q20 34 56.5 57 q36.5 23 94.5 23 q91 0 146.5 -70 q55.5 -70 55.5 -209 q0 -139 -63.5 -209 q-63.5 -70 -167.5 -70 q-124 0 -178 115 q-26 -59 -72.5 -87 q-46.5 -28 -104.5 -28 ZM281 77 q59 0 89.5 50.5 q30.5 50.5 30.5 144.5 q0 95 -27.5 142.5 q-27.5 47.5 -97.5 47.5 q-57 0 -87 -52 q-30 -52 -30 -143 q0 -93 30.5 -141.5 q30.5 -48.5 91.5 -48.5 ZM631 77 q119 0 119 193 q0 192 -117 192 q-69 0 -96.5 -46 q-27.5 -46 -27.5 -144 q0 -195 122 -195 Z" /><glyph glyph-name="uni0239" unicode="&#x239;" d="M634 549 q105 0 166.5 -69.5 q61.5 -69.5 61.5 -209.5 q0 -138 -55.5 -209 q-55.5 -71 -146.5 -71 q-57 0 -93 23 q-36 23 -58 57 l-6 0 q2 -16 4 -44 q2 -28 2 -62 l0 -204 l-109 0 l0 202 q0 33 2 62 q2 29 4 47 l-6 0 q-20 -34 -56.5 -57 q-36.5 -23 -94.5 -23 q-90 0 -146 70 q-56 70 -56 208 q0 139 64 209.5 q64 70.5 168 70.5 q124 0 177 -115 q27 58 73.5 86.5 q46.5 28.5 104.5 28.5 ZM279 462 q-120 0 -120 -193 q0 -192 118 -192 q69 0 96 46.5 q27 46.5 27 143.5 q0 97 -29.5 146 q-29.5 49 -91.5 49 ZM629 462 q-59 0 -89.5 -50.5 q-30.5 -50.5 -30.5 -144.5 q0 -95 27.5 -142.5 q27.5 -47.5 97.5 -47.5 q57 0 86.5 51.5 q29.5 51.5 29.5 143.5 q0 93 -30 141.5 q-30 48.5 -91 48.5 Z" /><glyph glyph-name="uni023A" unicode="&#x23a;" d="M505 0 l-67 206 l-118 0 l-98 -281 l-76 0 l98 281 l-61 0 l-67 -206 l-116 0 l251 717 l120 0 l25 -72 l40 115 l76 0 l-78 -224 l187 -536 l-116 0 ZM214 300 l62 0 l68 196 l-1 5 q-3 12 -9.5 33.5 q-6.5 21.5 -13 44.5 q-6.5 23 -10.5 40 q-7 -34 -15.5 -65.5 q-8.5 -31.5 -14.5 -52.5 l-66 -201 ZM409 300 l-28 84 l-29 -84 l57 0 Z" /><glyph glyph-name="uni023B" unicode="&#x23b;" d="M562 760 l-23 -67 q15 -6 28 -13 l-39 -90 q-12 5 -22 10 l-178 -512 q23 -5 48 -5 q44 0 84 8.5 q40 8.5 81 22.5 l0 -93 q-40 -16 -81.5 -23.5 q-41.5 -7.5 -96.5 -7.5 q-35 0 -67 5 l-24 -70 l-76 0 l32 91 q-88 38 -130.5 126.5 q-42.5 88.5 -42.5 214.5 q0 108 37 190.5 q37 82.5 109 129.5 q72 47 176 47 q47 0 93 -10 l16 46 l76 0 ZM376 631 q-96 0 -151 -73.5 q-55 -73.5 -55 -201.5 q0 -85 23 -146.5 q23 -61.5 69 -93.5 l177 507 q-15 4 -31 6 q-16 2 -32 2 Z" /><glyph glyph-name="uni023C" unicode="&#x23c;" d="M285 -10 q-35 0 -65 7 l-73 -205 l-76 0 l83 231 q-50 31 -78 91 q-28 60 -28 152 q0 100 31.5 162 q31.5 62 87 91.5 q55.5 29.5 126.5 29.5 q23 0 47 -3 l77 214 l75 0 l-82 -231 q15 -5 27 -11 l-33 -85 q-13 5 -25 10 l-128 -358 q18 -6 40 -6 q41 0 73 10 q32 10 61 26 l0 -92 q-28 -17 -61 -25 q-33 -8 -79 -8 ZM160 267 q0 -89 32 -137 l117 328 q-8 1 -15 1 q-134 0 -134 -192 Z" /><glyph glyph-name="uni023D" unicode="&#x23d;" d="M87 0 l0 320 l-73 0 l0 87 l73 0 l0 307 l111 0 l0 -307 l159 0 l0 -87 l-159 0 l0 -227 l284 0 l0 -93 l-395 0 Z" /><glyph glyph-name="uni023E" unicode="&#x23e;" d="M321 0 l-110 0 l0 80 l-75 -155 l-73 0 l148 307 l0 389 l-198 0 l0 93 l431 0 l22 46 l73 0 l-22 -46 l1 0 l0 -93 l-46 0 l-151 -313 l0 -308 ZM321 621 l0 -161 l78 161 l-78 0 Z" /><glyph glyph-name="uni023F" unicode="&#x23f;" d="M336 -240 q-53 0 -86.5 17.5 q-33.5 17.5 -53.5 52 q-20 34.5 -34 86.5 q-10 37 -27 58.5 q-17 21.5 -46 31.5 q-24 8 -40 18 l0 92 q35 -17 80 -30.5 q45 -13.5 86 -13.5 q53 0 77 19 q24 19 24 51 q0 18 -9.5 32.5 q-9.5 14.5 -35.5 30 q-26 15.5 -75 35.5 q-48 20 -81 41 q-33 21 -50 50 q-17 29 -17 73 q0 70 54 107.5 q54 37.5 142 37.5 q46 0 87.5 -10 q41.5 -10 80.5 -28 l-33 -81 q-35 15 -70 25.5 q-35 10.5 -69 10.5 q-87 0 -87 -57 q0 -19 10.5 -33.5 q10.5 -14.5 37 -28.5 q26.5 -14 73.5 -33 q47 -19 80 -39.5 q33 -20.5 50 -49.5 q17 -29 17 -73 q0 -76 -48.5 -117 q-48.5 -41 -140.5 -44 q9 -13 16 -29.5 q7 -16.5 12 -34.5 q14 -43 36 -61.5 q22 -18.5 57 -18.5 q34 0 63 12 l0 -85 q-12 -6 -34.5 -10 q-22.5 -4 -45.5 -4 Z" /><glyph glyph-name="uni0240" unicode="&#x240;" d="M368 -240 q-58 0 -94 18.5 q-36 18.5 -57 53.5 q-21 35 -35 84 q-12 43 -34.5 63.5 q-22.5 20.5 -72.5 20.5 l-43 0 l0 67 l255 390 l-240 0 l0 82 l362 0 l0 -75 l-254 -386 q53 -11 81.5 -48.5 q28.5 -37.5 44.5 -93.5 q14 -48 38.5 -68.5 q24.5 -20.5 64.5 -20.5 q17 0 32 2.5 q15 2.5 29 7.5 l0 -85 q-14 -5 -33.5 -8.5 q-19.5 -3.5 -43.5 -3.5 Z" /><glyph glyph-name="uni0241" unicode="&#x241;" d="M191 724 q101 0 158 -53.5 q57 -53.5 57 -142.5 q0 -78 -42.5 -145 q-42.5 -67 -137.5 -114 l0 -269 l-110 0 l0 323 q92 31 134 85 q42 54 42 116 q0 49 -28 79 q-28 30 -81 30 q-35 0 -76 -14.5 q-41 -14.5 -66 -34.5 l-39 83 q38 25 87 41 q49 16 102 16 Z" /><glyph glyph-name="uni0242" unicode="&#x242;" d="M191 549 q101 0 154 -53.5 q53 -53.5 53 -142.5 q0 -73 -39 -140.5 q-39 -67.5 -134 -115.5 l0 -97 l-109 0 l0 148 q92 31 131.5 84.5 q39.5 53.5 39.5 116.5 q0 54 -27 83.5 q-27 29.5 -77 29.5 q-36 0 -73.5 -14.5 q-37.5 -14.5 -62.5 -34.5 l-39 78 q38 26 84 42 q46 16 99 16 Z" /><glyph glyph-name="uni0243" unicode="&#x243;" d="M87 0 l0 171 l-74 0 l0 83 l74 0 l0 460 l202 0 q130 0 195 -40 q65 -40 65 -138 q0 -62 -32 -104 q-32 -42 -88 -53 l0 -5 q39 -8 70.5 -26.5 q31.5 -18.5 50.5 -53 q19 -34.5 19 -90.5 q0 -98 -64 -151 q-64 -53 -175 -53 l-243 0 ZM198 416 l105 0 q75 0 103.5 27 q28.5 27 28.5 80 q0 53 -34.5 76.5 q-34.5 23.5 -108.5 23.5 l-94 0 l0 -207 ZM198 90 l116 0 q78 0 108.5 34 q30.5 34 30.5 90 q0 51 -31.5 82.5 q-31.5 31.5 -112.5 31.5 l-111 0 l0 -74 l125 0 l0 -83 l-125 0 l0 -81 Z" /><glyph glyph-name="uni0244" unicode="&#x244;" d="M7 347 l0 92 l74 0 l0 275 l111 0 l0 -275 l311 0 l0 275 l111 0 l0 -275 l74 0 l0 -92 l-74 0 l0 -95 q0 -74 -29.5 -133.5 q-29.5 -59.5 -89 -94 q-59.5 -34.5 -150.5 -34.5 q-130 0 -197 72.5 q-67 72.5 -67 191.5 l0 93 l-74 0 ZM192 259 q0 -177 157 -177 q82 0 118 48 q36 48 36 130 l0 87 l-311 0 l0 -88 Z" /><glyph glyph-name="uni0246" unicode="&#x246;" d="M468 0 l-195 0 l-19 -75 l-74 0 l19 75 l-112 0 l0 714 l293 0 l12 46 l74 0 l-12 -46 l14 0 l0 -92 l-37 0 l-52 -204 l72 0 l0 -91 l-95 0 l-59 -234 l171 0 l0 -93 ZM198 418 l107 0 l52 204 l-159 0 l0 -204 ZM198 93 l25 0 l59 234 l-84 0 l0 -234 Z" /><glyph glyph-name="uni0247" unicode="&#x247;" d="M280 549 q30 0 58 -6 l75 217 l76 0 l-85 -246 q45 -30 69.5 -83.5 q24.5 -53.5 24.5 -125.5 l0 -58 l-187 0 l-56 -164 q23 -7 51 -7 q49 0 87.5 9.5 q38.5 9.5 78.5 28.5 l0 -88 q-38 -19 -77.5 -27.5 q-39.5 -8.5 -95.5 -8.5 q-39 0 -73 9 l-72 -207 l-76 0 l81 234 q-52 32 -81.5 92 q-29.5 60 -29.5 147 q0 136 64 210 q64 74 168 74 ZM281 467 q-53 0 -83.5 -37 q-30.5 -37 -35.5 -105 l100 0 l48 139 q-13 3 -29 3 ZM391 325 q-1 57 -21 92 l-32 -92 l53 0 ZM159 247 q2 -77 35 -120 l41 120 l-76 0 Z" /><glyph glyph-name="uni0248" unicode="&#x248;" d="M5 -196 q-25 0 -44 3.5 q-19 3.5 -32 9.5 l0 90 q15 -4 31 -7 q16 -3 36 -3 q24 0 44 10 q20 10 32.5 35.5 q12.5 25.5 12.5 73.5 l0 292 l-79 0 l0 92 l79 0 l0 314 l111 0 l0 -314 l79 0 l0 -92 l-79 0 l0 -287 q0 -113 -53 -165 q-53 -52 -138 -52 Z" /><glyph glyph-name="uni0249" unicode="&#x249;" d="M71 683 q0 33 18.5 47 q18.5 14 43.5 14 q24 0 42 -14 q18 -14 18 -47 q0 -32 -18 -46.5 q-18 -14.5 -42 -14.5 q-25 0 -43.5 14.5 q-18.5 14.5 -18.5 46.5 ZM26 -240 q-24 0 -45.5 3.5 q-21.5 3.5 -35.5 8.5 l0 85 q15 -5 29.5 -7.5 q14.5 -2.5 33.5 -2.5 q30 0 49.5 17.5 q19.5 17.5 19.5 66.5 l0 312 l-71 0 l0 78 l71 0 l0 218 l109 0 l0 -218 l72 0 l0 -78 l-72 0 l0 -317 q0 -75 -37 -120.5 q-37 -45.5 -123 -45.5 Z" /><glyph glyph-name="uni024A" unicode="&#x24a;" d="M329 724 q67 0 118 -27 q51 -27 77 -70 l4 0 l14 87 l95 0 l0 -788 q0 -42 14.5 -58.5 q14.5 -16.5 40.5 -16.5 q27 0 45 10 l0 -87 q-10 -6 -26.5 -10 q-16.5 -4 -35.5 -4 q-70 0 -109 38.5 q-39 38.5 -39 124.5 l0 82 q0 23 0.5 43 q0.5 20 1.5 42 l-5 0 q-27 -45 -76.5 -72.5 q-49.5 -27.5 -122.5 -27.5 q-83 0 -143 44.5 q-60 44.5 -93 127 q-33 82.5 -33 196.5 q0 114 33 196 q33 82 94.5 126 q61.5 44 145.5 44 ZM344 632 q-80 0 -126 -73 q-46 -73 -46 -203 q0 -131 46 -202.5 q46 -71.5 127 -71.5 q69 0 109 27 q40 27 56.5 76 q16.5 49 16.5 117 l0 118 q0 64 -16 111.5 q-16 47.5 -55.5 74 q-39.5 26.5 -111.5 26.5 Z" /><glyph glyph-name="uni024B" unicode="&#x24b;" d="M251 549 q59 0 94.5 -23.5 q35.5 -23.5 57.5 -58.5 l4 0 l13 72 l89 0 l0 -608 q0 -49 11.5 -67 q11.5 -18 34.5 -18 q16 0 28 3 q12 3 21 8 l0 -81 q-24 -16 -76 -16 q-61 0 -94.5 38.5 q-33.5 38.5 -33.5 131.5 l0 54 q0 20 1.5 44.5 q1.5 24.5 4.5 43.5 l-6 0 q-21 -34 -57.5 -58 q-36.5 -24 -94.5 -24 q-90 0 -145.5 70 q-55.5 70 -55.5 208 q0 139 57 210 q57 71 147 71 ZM276 462 q-59 0 -88 -52 q-29 -52 -29 -144 q0 -91 29.5 -140.5 q29.5 -49.5 90.5 -49.5 q67 0 96.5 42.5 q29.5 42.5 29.5 130.5 l0 18 q0 96 -28 145.5 q-28 49.5 -101 49.5 Z" /><glyph glyph-name="uni024C" unicode="&#x24c;" d="M280 714 q129 0 191 -51 q62 -51 62 -155 q0 -55 -18.5 -92.5 q-18.5 -37.5 -48 -61.5 q-29.5 -24 -63.5 -37 l189 -317 l-126 0 l-159 289 l-109 0 l0 -289 l-111 0 l0 289 l-77 0 l0 90 l77 0 l0 335 l193 0 ZM274 622 l-76 0 l0 -243 l79 0 q73 0 108 31.5 q35 31.5 35 93.5 q0 64 -35.5 91 q-35.5 27 -110.5 27 Z" /><glyph glyph-name="uni024D" unicode="&#x24d;" d="M310 319 l0 -79 l-126 0 l0 -240 l-108 0 l0 240 l-69 0 l0 79 l69 0 l0 220 l85 0 l14 -96 l6 0 q23 43 62 74.5 q39 31.5 90 31.5 q13 0 29 -1.5 q16 -1.5 27 -3.5 l-11 -99 q-11 3 -25.5 5 q-14.5 2 -27.5 2 q-48 0 -88 -35 q-40 -35 -50 -98 l123 0 Z" /><glyph glyph-name="uni024E" unicode="&#x24e;" d="M548 596 l0 -84 l-95 0 l-119 -235 l0 -277 l-111 0 l0 273 l-121 239 l-95 0 l0 84 l53 0 l-60 118 l120 0 l56 -118 l205 0 l56 118 l119 0 l-60 -118 l52 0 ZM278 380 l63 132 l-125 0 l62 -132 Z" /><glyph glyph-name="uni024F" unicode="&#x24f;" d="M1 539 l116 0 l58 -172 l158 0 l55 172 l117 0 l-61 -172 l55 0 l0 -79 l-83 0 l-127 -361 q-28 -78 -74.5 -122.5 q-46.5 -44.5 -124.5 -44.5 q-22 0 -39.5 2.5 q-17.5 2.5 -30.5 5.5 l0 84 q10 -2 25 -4 q15 -2 31 -2 q44 0 69 26.5 q25 26.5 39 69.5 l20 58 l-108 288 l-86 0 l0 79 l56 0 l-65 172 ZM253 102 l3 0 q5 26 14 61 q9 35 20 71 l17 54 l-106 0 l19 -55 q24 -70 33 -131 Z" /><glyph glyph-name="uni0251" unicode="&#x251;" d="M250 -10 q-91 0 -146.5 70 q-55.5 70 -55.5 208 q0 139 56 210 q56 71 148 71 q57 0 92.5 -23 q35.5 -23 57.5 -56 l4 0 l15 69 l88 0 l0 -539 l-85 0 l-19 72 l-4 0 q-22 -34 -58 -58 q-36 -24 -93 -24 ZM279 76 q69 0 97.5 43.5 q28.5 43.5 28.5 131.5 l0 16 q0 95 -27 145 q-27 50 -100 50 q-59 0 -89 -52 q-30 -52 -30 -144 q0 -92 30 -141 q30 -49 90 -49 Z" /><glyph glyph-name="uni0253" unicode="&#x253;" d="M211 765 q20 0 38.5 -4.5 q18.5 -4.5 29.5 -9.5 l0 -85 q-7 3 -21 6.5 q-14 3.5 -30 3.5 q-20 0 -31.5 -13 q-11.5 -13 -11.5 -44 l0 -42 q0 -31 -1.5 -60 q-1.5 -29 -3.5 -49 l5 0 q21 34 57.5 57 q36.5 23 94.5 23 q90 0 146 -70 q56 -70 56 -208 q0 -139 -56.5 -209.5 q-56.5 -70.5 -147.5 -70.5 q-59 0 -94 22.5 q-35 22.5 -56 53.5 l-7 0 l-20 -66 l-81 0 l0 616 q0 76 34.5 112.5 q34.5 36.5 99.5 36.5 ZM309 462 q-69 0 -96.5 -46 q-27.5 -46 -27.5 -142 q0 -97 26.5 -147 q26.5 -50 99.5 -50 q56 0 85.5 50 q29.5 50 29.5 144 q0 191 -117 191 Z" /><glyph glyph-name="uni0254" unicode="&#x254;" d="M185 549 q105 0 168.5 -64.5 q63.5 -64.5 63.5 -207.5 q0 -98 -31 -161.5 q-31 -63.5 -85.5 -94.5 q-54.5 -31 -124.5 -31 q-46 0 -78 7.5 q-32 7.5 -60 23.5 l0 94 q29 -16 60.5 -26 q31.5 -10 71.5 -10 q66 0 100.5 50.5 q34.5 50.5 34.5 144.5 q0 186 -132 186 q-27 0 -57 -7.5 q-30 -7.5 -54 -20.5 l-32 84 q26 14 67 23.5 q41 9.5 88 9.5 Z" /><glyph glyph-name="uni0255" unicode="&#x255;" d="M299 549 q46 0 82.5 -9.5 q36.5 -9.5 62.5 -21.5 l-33 -86 q-25 10 -54 18.5 q-29 8.5 -58 8.5 q-135 0 -135 -192 q0 -20 1.5 -39 q1.5 -19 5.5 -36 q30 34 70 52.5 q40 18.5 85 18.5 q70 0 108 -35 q38 -35 38 -92 q0 -52 -25.5 -84 q-25.5 -32 -66 -47 q-40.5 -15 -84.5 -15 q-46 0 -84 11 q-38 11 -66 34 q-9 -19 -18 -39.5 q-9 -20.5 -17 -45.5 l-67 31 q10 31 22 59 q12 28 26 53 q-20 34 -30 76.5 q-10 42.5 -10 96.5 q0 100 32 162 q32 62 87.5 91.5 q55.5 29.5 127.5 29.5 ZM316 186 q-65 0 -114 -67 q16 -22 40.5 -33.5 q24.5 -11.5 58.5 -11.5 q35 0 58.5 17 q23.5 17 23.5 45 q0 20 -16 35 q-16 15 -51 15 Z" /><glyph glyph-name="uni0256" unicode="&#x256;" d="M534 -240 q-63 0 -98 38.5 q-35 38.5 -35 131.5 l0 55 q0 19 2 44 q2 25 4 41 l-6 0 q-23 -34 -58.5 -57 q-35.5 -23 -93.5 -23 q-90 0 -145.5 70 q-55.5 70 -55.5 208 q0 139 56 210 q56 71 147 71 q58 0 93.5 -23 q35.5 -23 57.5 -56 l5 0 q-1 6 -2 22 q-1 16 -2.5 34 q-1.5 18 -1.5 32 l0 202 l108 0 l0 -829 q0 -49 13 -67 q13 -18 37 -18 q18 0 31.5 3 q13.5 3 22.5 8 l0 -81 q-24 -16 -79 -16 ZM279 77 q69 0 97.5 43 q28.5 43 28.5 131 l0 16 q0 95 -27 145 q-27 50 -100 50 q-59 0 -89 -52 q-30 -52 -30 -144 q0 -91 30.5 -140 q30.5 -49 89.5 -49 Z" /><glyph glyph-name="uni0257" unicode="&#x257;" d="M249 -10 q-90 0 -145.5 70 q-55.5 70 -55.5 208 q0 139 56 210 q56 71 147 71 q57 0 93 -23 q36 -23 58 -56 l6 0 q-2 15 -4.5 41 q-2.5 26 -2.5 47 l0 58 q0 75 33.5 112.5 q33.5 37.5 97.5 37.5 q23 0 43.5 -5 q20.5 -5 30.5 -9 l0 -85 q-8 3 -21.5 6.5 q-13.5 3.5 -29.5 3.5 q-22 0 -34 -13.5 q-12 -13.5 -12 -45.5 l0 -618 l-85 0 l-19 72 l-4 0 q-22 -34 -58 -58 q-36 -24 -94 -24 ZM278 77 q70 0 98.5 43 q28.5 43 28.5 131 l0 16 q0 95 -27.5 145 q-27.5 50 -100.5 50 q-59 0 -88.5 -52 q-29.5 -52 -29.5 -144 q0 -91 30 -140 q30 -49 89 -49 Z" /><glyph glyph-name="uni0259" unicode="&#x259;" d="M243 549 q74 0 131 -31 q57 -31 89 -92.5 q32 -61.5 32 -152.5 q0 -135 -64 -209 q-64 -74 -169 -74 q-100 0 -158.5 66 q-58.5 66 -58.5 178 l0 58 l339 0 q-2 82 -40 126.5 q-38 44.5 -107 44.5 q-49 0 -87.5 -9.5 q-38.5 -9.5 -79.5 -28.5 l0 88 q39 19 78.5 27.5 q39.5 8.5 94.5 8.5 ZM381 214 l-229 0 q1 -63 27.5 -102.5 q26.5 -39.5 82.5 -39.5 q51 0 82.5 37 q31.5 37 36.5 105 Z" /><glyph glyph-name="uni025E" unicode="&#x25e;" d="M317 549 q99 0 152 -39.5 q53 -39.5 53 -108.5 q0 -51 -27 -78 q-27 -27 -71 -40 l0 -4 q28 -5 54 -18.5 q26 -13.5 43 -39 q17 -25.5 17 -64.5 q0 -71 -59 -119 q-59 -48 -173 -48 q-122 0 -190.5 73 q-68.5 73 -68.5 206 q0 132 72 206 q72 74 198 74 ZM317 464 q-158 0 -158 -195 q0 -103 40.5 -148.5 q40.5 -45.5 114.5 -45.5 q53 0 85 21.5 q32 21.5 32 65.5 q0 40 -32 57 q-32 17 -97 17 l-36 0 l0 81 l27 0 q60 0 94.5 15.5 q34.5 15.5 34.5 59.5 q0 32 -25 52 q-25 20 -80 20 Z" /><glyph glyph-name="uni025F" unicode="&#x25f;" d="M26 -240 q-24 0 -45.5 3.5 q-21.5 3.5 -35.5 8.5 l0 85 q15 -5 29.5 -7.5 q14.5 -2.5 33.5 -2.5 q30 0 49.5 17.5 q19.5 17.5 19.5 66.5 l0 312 l-71 0 l0 78 l71 0 l0 218 l109 0 l0 -218 l71 0 l0 -78 l-71 0 l0 -317 q0 -75 -37 -120.5 q-37 -45.5 -123 -45.5 Z" /><glyph glyph-name="uni0260" unicode="&#x260;" d="M535 766 q23 0 41.5 -5 q18.5 -5 28.5 -9 l0 -85 q-7 3 -20 6.5 q-13 3.5 -30 3.5 q-21 0 -33.5 -13.5 q-12.5 -13.5 -12.5 -45.5 l0 -625 q0 -233 -240 -233 q-55 0 -100.5 8 q-45.5 8 -85.5 25 l0 93 q81 -42 192 -42 q59 0 92 37.5 q33 37.5 33 105.5 l0 18 q0 9 0.5 23 q0.5 14 1 26.5 q0.5 12.5 1.5 16.5 l-3 0 q-26 -42 -64 -61.5 q-38 -19.5 -87 -19.5 q-95 0 -148.5 73.5 q-53.5 73.5 -53.5 204.5 q0 130 54.5 205.5 q54.5 75.5 148.5 75.5 q48 0 87 -20 q39 -20 66 -61 l5 0 q-2 20 -5 46 q-3 26 -3 48 l0 54 q0 150 135 150 ZM275 461 q-56 0 -86 -49.5 q-30 -49.5 -30 -144.5 q0 -94 29.5 -143 q29.5 -49 88.5 -49 q65 0 96.5 40.5 q31.5 40.5 31.5 132.5 l0 20 q0 104 -31.5 148.5 q-31.5 44.5 -98.5 44.5 Z" /><glyph glyph-name="uni0262" unicode="&#x262;" d="M310 549 q50 0 91.5 -9 q41.5 -9 77.5 -29 l-37 -87 q-28 16 -60.5 25.5 q-32.5 9.5 -65.5 9.5 q-74 0 -115 -47.5 q-41 -47.5 -41 -143.5 q0 -90 32 -139.5 q32 -49.5 100 -49.5 q27 0 46.5 3 q19.5 3 41.5 9 l0 131 l-101 0 l0 79 l208 0 l0 -272 q-43 -18 -90.5 -28.5 q-47.5 -10.5 -105.5 -10.5 q-113 0 -178 69.5 q-65 69.5 -65 208.5 q0 140 72 210.5 q72 70.5 190 70.5 Z" /><glyph glyph-name="uni0263" unicode="&#x263;" d="M249 -239 q-56 0 -88 37 q-32 37 -32 93 q0 49 17 96.5 q17 47.5 43 100.5 l-189 451 l115 0 l91 -238 q11 -29 24 -68.5 q13 -39.5 19 -69.5 l3 0 q8 29 20.5 68.5 q12.5 39.5 24.5 69.5 l92 238 l115 0 l-194 -454 q28 -59 44 -105.5 q16 -46.5 16 -88.5 q0 -55 -33 -92.5 q-33 -37.5 -88 -37.5 ZM249 -161 q14 0 23.5 12.5 q9.5 12.5 9.5 40.5 q0 21 -8 53.5 q-8 32.5 -25 64.5 q-17 -32 -25 -64 q-8 -32 -8 -52 q0 -29 10 -42 q10 -13 23 -13 Z" /><glyph glyph-name="uni0264" unicode="&#x264;" d="M451 549 q29 0 51 -10 l0 -81 q-6 2 -13.5 3.5 q-7.5 1.5 -14.5 1.5 q-16 0 -30 -10 q-14 -10 -36 -42 l-97 -146 q30 -45 45.5 -79 q15.5 -34 15.5 -77 q0 -53 -33 -86 q-33 -33 -89 -33 q-56 0 -88.5 33 q-32.5 33 -32.5 87 q0 44 15 78 q15 34 44 76 l-100 150 q-17 27 -31.5 38 q-14.5 11 -30.5 11 q-8 0 -15 -1.5 q-7 -1.5 -13 -3.5 l0 80 q10 4 22.5 7.5 q12.5 3.5 28.5 3.5 q34 0 57.5 -16.5 q23.5 -16.5 48.5 -54.5 l49 -73 q11 -17 23.5 -37 q12.5 -20 21.5 -38 l4 0 q9 16 21.5 37.5 q12.5 21.5 24.5 39.5 l48 73 q22 33 45 51 q23 18 59 18 ZM251 201 q-17 -23 -25.5 -44 q-8.5 -21 -8.5 -43 q0 -22 10 -34 q10 -12 24 -12 q14 0 23 12 q9 12 9 34 q0 24 -9.5 46 q-9.5 22 -22.5 41 Z" /><glyph glyph-name="uni0266" unicode="&#x266;" d="M76 0 l0 616 q0 76 35 112.5 q35 36.5 100 36.5 q21 0 39 -4.5 q18 -4.5 29 -9.5 l0 -85 q-7 3 -20.5 6.5 q-13.5 3.5 -29.5 3.5 q-21 0 -33 -13 q-12 -13 -12 -44 l0 -72 q0 -24 -2 -47.5 q-2 -23.5 -3 -36.5 l6 0 q25 41 65.5 61.5 q40.5 20.5 87.5 20.5 q88 0 136.5 -46.5 q48.5 -46.5 48.5 -150.5 l0 -348 l-109 0 l0 333 q0 126 -99 126 q-75 0 -103 -49.5 q-28 -49.5 -28 -141.5 l0 -268 l-108 0 Z" /><glyph glyph-name="uni0267" unicode="&#x267;" d="M211 765 q21 0 39 -4.5 q18 -4.5 29 -9.5 l0 -85 q-7 3 -20.5 6.5 q-13.5 3.5 -29.5 3.5 q-21 0 -33 -13 q-12 -13 -12 -44 l0 -69 q0 -25 -2 -47.5 q-2 -22.5 -3 -36.5 l6 0 q25 41 65 61.5 q40 20.5 89 20.5 q88 0 136 -47 q48 -47 48 -150 l0 -439 q0 -70 -32.5 -111 q-32.5 -41 -103.5 -41 q-19 0 -39 4 q-20 4 -32 9 l0 86 q9 -4 22 -7 q13 -3 28 -3 q22 0 35 14 q13 14 13 51 l0 425 q0 123 -99 123 q-75 0 -103 -50 q-28 -50 -28 -141 l0 -271 l-108 0 l0 616 q0 76 35 112.5 q35 36.5 100 36.5 Z" /><glyph glyph-name="uni0268" unicode="&#x268;" d="M131 744 q25 0 43 -14 q18 -14 18 -47 q0 -32 -18 -46.5 q-18 -14.5 -43 -14.5 q-25 0 -43 14.5 q-18 14.5 -18 46.5 q0 33 18 47 q18 14 43 14 ZM253 321 l0 -78 l-68 0 l0 -243 l-109 0 l0 243 l-69 0 l0 78 l69 0 l0 218 l109 0 l0 -218 l68 0 Z" /><glyph glyph-name="uni026A" unicode="&#x26a;" d="M291 539 l0 -58 l-77 -25 l0 -374 l77 -24 l0 -58 l-264 0 l0 58 l78 24 l0 374 l-78 25 l0 58 l264 0 Z" /><glyph glyph-name="uni026B" unicode="&#x26b;" d="M139 0 l0 363 q-7 3 -13.5 5 q-6.5 2 -13.5 2 q-21 0 -32 -14 q-11 -14 -16 -42 l-58 0 q4 64 34 99.5 q30 35.5 76 35.5 q6 0 11.5 -1.5 q5.5 -1.5 11.5 -2.5 l0 315 l109 0 l0 -359 q7 -3 14 -5.5 q7 -2.5 14 -2.5 q20 0 30.5 14.5 q10.5 14.5 16.5 42.5 l57 0 q-4 -63 -33 -99 q-29 -36 -76 -36 q-6 0 -12 1.5 q-6 1.5 -11 2.5 l0 -319 l-109 0 Z" /><glyph glyph-name="uni026C" unicode="&#x26c;" d="M144 0 l0 296 l-38 0 q-62 0 -88.5 29.5 q-26.5 29.5 -26.5 75.5 q0 43 24.5 74.5 q24.5 31.5 79.5 31.5 q29 0 49 -18 l0 271 l109 0 l0 -391 l96 0 l0 -73 l-96 0 l0 -296 l-109 0 ZM113 369 l31 0 l0 12 q0 24 -9.5 38.5 q-9.5 14.5 -29.5 14.5 q-17 0 -25 -9.5 q-8 -9.5 -8 -22.5 q0 -18 12 -25.5 q12 -7.5 29 -7.5 Z" /><glyph glyph-name="uni026D" unicode="&#x26d;" d="M227 -240 q-73 0 -111.5 38.5 q-38.5 38.5 -38.5 131.5 l0 830 l108 0 l0 -829 q0 -85 63 -85 q16 0 31.5 3 q15.5 3 28.5 8 l0 -81 q-32 -16 -81 -16 Z" /><glyph glyph-name="uni026E" unicode="&#x26e;" d="M363 -240 q-59 0 -105 9.5 q-46 9.5 -81 26.5 l0 94 q35 -18 83.5 -30.5 q48.5 -12.5 101.5 -12.5 q75 0 115 42.5 q40 42.5 40 112.5 q0 150 -185 150 l-57 0 l0 75 l196 226 l-286 0 l0 -453 l-108 0 l0 760 l108 0 l0 -221 l418 0 l0 -74 l-203 -231 q110 -10 168 -69.5 q58 -59.5 58 -163.5 q0 -71 -31 -125 q-31 -54 -89.5 -85 q-58.5 -31 -142.5 -31 Z" /><glyph glyph-name="uni0270" unicode="&#x270;" d="M715 -240 l0 233 q0 16 2.5 40.5 q2.5 24.5 3.5 38.5 l-7 0 q-24 -42 -62.5 -62 q-38.5 -20 -83.5 -20 q-117 0 -155 87 l-8 0 q-25 -44 -68 -65.5 q-43 -21.5 -89 -21.5 q-87 0 -130.5 47 q-43.5 47 -43.5 151 l0 351 l108 0 l0 -337 q0 -125 92 -125 q65 0 92.5 44.5 q27.5 44.5 27.5 127.5 l0 290 l109 0 l0 -337 q0 -125 92 -125 q68 0 94 49.5 q26 49.5 26 140.5 l0 272 l109 0 l0 -779 l-109 0 Z" /><glyph glyph-name="uni0271" unicode="&#x271;" d="M654 549 q86 0 129 -47 q43 -47 43 -151 l0 -439 q0 -70 -32 -111 q-32 -41 -103 -41 q-19 0 -39 4 q-20 4 -32 9 l0 86 q10 -4 22.5 -7 q12.5 -3 28.5 -3 q21 0 34 14 q13 14 13 51 l0 423 q0 125 -91 125 q-66 0 -93.5 -44.5 q-27.5 -44.5 -27.5 -127.5 l0 -290 l-109 0 l0 337 q0 125 -91 125 q-69 0 -95 -49 q-26 -49 -26 -141 l0 -272 l-108 0 l0 539 l85 0 l16 -72 l6 0 q23 42 63.5 62 q40.5 20 84.5 20 q118 0 155 -87 l9 0 q24 44 67 65.5 q43 21.5 91 21.5 Z" /><glyph glyph-name="uni0272" unicode="&#x272;" d="M341 549 q88 0 135.5 -47 q47.5 -47 47.5 -151 l0 -351 l-108 0 l0 336 q0 126 -99 126 q-75 0 -103 -49 q-28 -49 -28 -141 l0 -341 q0 -91 -36.5 -131 q-36.5 -40 -103.5 -40 q-21 0 -40.5 4 q-19.5 4 -31.5 12 l0 81 q10 -5 23 -8 q13 -3 26 -3 q26 0 40 18 q14 18 14 67 l0 608 l86 0 l15 -72 l6 0 q25 42 67.5 62 q42.5 20 89.5 20 Z" /><glyph glyph-name="uni0273" unicode="&#x273;" d="M524 -69 q0 -49 14 -67 q14 -18 40 -18 q14 0 27 3 q13 3 23 8 l0 -81 q-12 -8 -32 -12 q-20 -4 -43 -4 q-65 0 -101.5 38.5 q-36.5 38.5 -36.5 131.5 l0 406 q0 126 -99 126 q-75 0 -103 -49 q-28 -49 -28 -141 l0 -272 l-108 0 l0 539 l85 0 l16 -72 l6 0 q24 42 67 62 q43 20 90 20 q87 0 135 -47 q48 -47 48 -151 l0 -420 Z" /><glyph glyph-name="uni0274" unicode="&#x274;" d="M76 0 l0 539 l133 0 l244 -418 q-1 15 -2.5 42.5 q-1.5 27.5 -2.5 54 q-1 26.5 -1 39.5 l0 282 l103 0 l0 -539 l-133 0 l-242 417 q1 -15 2 -42 q1 -27 2 -55 q1 -28 1 -45 l0 -275 l-104 0 Z" /><glyph glyph-name="uni0276" unicode="&#x276;" d="M285 549 q81 0 132 -54 l0 44 l347 0 l0 -85 l-243 0 l0 -132 l228 0 l0 -84 l-228 0 l0 -153 l243 0 l0 -85 l-347 0 l0 44 q-51 -54 -135 -54 q-68 0 -121 32.5 q-53 32.5 -83.5 95 q-30.5 62.5 -30.5 152.5 q0 134 63.5 206.5 q63.5 72.5 174.5 72.5 ZM287 461 q-59 0 -93.5 -49.5 q-34.5 -49.5 -34.5 -141.5 q0 -91 30.5 -142 q30.5 -51 98.5 -51 q68 0 98.5 51 q30.5 51 30.5 142 q0 92 -31 141.5 q-31 49.5 -99 49.5 Z" /><glyph glyph-name="omegaclosed" unicode="&#x277;" d="M379 549 q105 0 178 -39.5 q73 -39.5 110.5 -111.5 q37.5 -72 37.5 -169 q0 -108 -48 -173.5 q-48 -65.5 -139 -65.5 q-57 0 -90.5 24.5 q-33.5 24.5 -48.5 69.5 l-5 0 q-16 -45 -49.5 -69.5 q-33.5 -24.5 -89.5 -24.5 q-90 0 -138.5 65.5 q-48.5 65.5 -48.5 173.5 q0 97 38 168.5 q38 71.5 112 111.5 q74 40 181 40 ZM377 462 q-113 0 -168.5 -63 q-55.5 -63 -55.5 -168 q0 -76 24.5 -115.5 q24.5 -39.5 66.5 -39.5 q44 0 63 35 q19 35 19 92 l0 121 l102 0 l0 -121 q0 -61 19.5 -94 q19.5 -33 60.5 -33 q44 0 68 39.5 q24 39.5 24 114.5 q0 105 -54.5 168.5 q-54.5 63.5 -168.5 63.5 Z" /><glyph glyph-name="uni027A" unicode="&#x27a;" d="M71 -10 q-31 0 -56 5 l11 99 q24 -7 53 -7 q36 0 68 20 q32 20 52 57.5 q20 37.5 20 90.5 l0 505 l109 0 l0 -760 l-85 0 l-15 96 l-5 0 q-23 -44 -61.5 -75 q-38.5 -31 -90.5 -31 Z" /><glyph glyph-name="uni027B" unicode="&#x27b;" d="M353 -240 q-63 0 -98 38.5 q-35 38.5 -35 131.5 l0 73 q0 23 2 49 q2 26 4 42 l-4 0 q-24 -43 -62 -73.5 q-38 -30.5 -90 -30.5 q-12 0 -28 1.5 q-16 1.5 -26 3.5 l11 99 q23 -7 50 -7 q37 0 69.5 20 q32.5 20 53 57.5 q20.5 37.5 20.5 90.5 l0 284 l109 0 l0 -608 q0 -49 12.5 -67 q12.5 -18 37.5 -18 q17 0 30.5 3 q13.5 3 23.5 8 l0 -81 q-26 -16 -80 -16 Z" /><glyph glyph-name="uni027C" unicode="&#x27c;" d="M333 549 q13 0 29 -1.5 q16 -1.5 27 -3.5 l-11 -99 q-11 3 -25.5 5 q-14.5 2 -27.5 2 q-36 0 -68.5 -20 q-32.5 -20 -52.5 -57.5 q-20 -37.5 -20 -90.5 l0 -524 l-108 0 l0 779 l85 0 l14 -96 l6 0 q23 43 62 74.5 q39 31.5 90 31.5 Z" /><glyph glyph-name="uni027D" unicode="&#x27d;" d="M334 549 q13 0 28.5 -1.5 q15.5 -1.5 26.5 -3.5 l-10 -99 q-25 7 -50 7 q-37 0 -70 -20 q-33 -20 -53.5 -57.5 q-20.5 -37.5 -20.5 -90.5 l0 -353 q0 -85 63 -85 q16 0 29 3 q13 3 26 8 l0 -81 q-14 -8 -32.5 -12 q-18.5 -4 -43.5 -4 q-73 0 -111.5 38.5 q-38.5 38.5 -38.5 131.5 l0 609 l85 0 l15 -96 l5 0 q23 43 61.5 74.5 q38.5 31.5 90.5 31.5 Z" /><glyph glyph-name="uni027E" unicode="&#x27e;" d="M235 550 q25 0 49 -5 q24 -5 44 -11 l-12 -89 q-14 4 -30 8.5 q-16 4.5 -38 4.5 q-34 0 -49.5 -22 q-15.5 -22 -15.5 -66 l0 -370 l-108 0 l0 373 q0 100 43 138.5 q43 38.5 117 38.5 Z" /><glyph glyph-name="uni027F" unicode="&#x27f;" d="M111 550 q75 0 117.5 -38.5 q42.5 -38.5 42.5 -138.5 l0 -613 l-108 0 l0 610 q0 44 -14.5 66 q-14.5 22 -49.5 22 q-23 0 -39 -4.5 q-16 -4.5 -29 -8.5 l-13 89 q20 6 44 11 q24 5 49 5 Z" /><glyph glyph-name="uni0280" unicode="&#x280;" d="M80 0 l0 539 l234 0 q86 0 137.5 -41 q51.5 -41 51.5 -119 q0 -69 -34 -104 q-34 -35 -79 -49 l147 -226 l-123 0 l-126 210 l-99 0 l0 -210 l-109 0 ZM189 291 l101 0 q51 0 79.5 21.5 q28.5 21.5 28.5 64.5 q0 34 -22 57 q-22 23 -72 23 l-115 0 l0 -166 Z" /><glyph glyph-name="uni0282" unicode="&#x282;" d="M421 152 q0 -80 -53.5 -121 q-53.5 -41 -153.5 -41 q-38 0 -66 6 l0 -69 q0 -45 16 -64.5 q16 -19.5 45 -19.5 q15 0 27.5 2.5 q12.5 2.5 24.5 7.5 l0 -78 q-13 -7 -30 -11 q-17 -4 -42 -4 q-66 0 -103 37 q-37 37 -37 129 l0 190 q35 -17 80 -30.5 q45 -13.5 86 -13.5 q53 0 77 19 q24 19 24 51 q0 18 -9.5 32.5 q-9.5 14.5 -35.5 30 q-26 15.5 -75 35.5 q-48 20 -81 41 q-33 21 -50 50 q-17 29 -17 73 q0 70 54 107.5 q54 37.5 142 37.5 q46 0 87.5 -10 q41.5 -10 80.5 -28 l-33 -81 q-35 15 -70 25.5 q-35 10.5 -69 10.5 q-87 0 -87 -57 q0 -19 10.5 -33.5 q10.5 -14.5 37 -28.5 q26.5 -14 73.5 -33 q47 -19 80 -39.5 q33 -20.5 50 -49.5 q17 -29 17 -73 Z" /><glyph glyph-name="uni0283" unicode="&#x283;" d="M217 766 q24 0 43.5 -5 q19.5 -5 30.5 -11 l0 -81 q-8 4 -22.5 7.5 q-14.5 3.5 -28.5 3.5 q-26 0 -40 -17.5 q-14 -17.5 -14 -68.5 l0 -663 q0 -91 -36.5 -131 q-36.5 -40 -103.5 -40 q-21 0 -40.5 4 q-19.5 4 -31.5 12 l0 81 q10 -5 23 -8 q13 -3 26 -3 q26 0 40 18 q14 18 14 67 l0 666 q0 64 18 101 q18 37 49.5 52.5 q31.5 15.5 72.5 15.5 Z" /><glyph glyph-name="uni0284" unicode="&#x284;" d="M46 -240 q-21 0 -40.5 4 q-19.5 4 -31.5 12 l0 81 q10 -5 23 -8 q13 -3 26 -3 q26 0 40 18 q14 18 14 67 l0 317 l-71 0 l0 83 l71 0 l0 266 q0 64 18 101 q18 37 49.5 52.5 q31.5 15.5 72.5 15.5 q24 0 43.5 -5 q19.5 -5 30.5 -11 l0 -81 q-8 4 -22.5 7.5 q-14.5 3.5 -28.5 3.5 q-26 0 -40 -17.5 q-14 -17.5 -14 -68.5 l0 -263 l72 0 l0 -83 l-72 0 l0 -317 q0 -91 -36.5 -131 q-36.5 -40 -103.5 -40 Z" /><glyph glyph-name="uni0285" unicode="&#x285;" d="M217 -240 q-66 0 -103 39 q-37 39 -37 131 l0 453 q0 43 -12.5 61.5 q-12.5 18.5 -36.5 18.5 q-13 0 -26 -3.5 q-13 -3.5 -20 -7.5 l0 81 q10 6 29 11 q19 5 41 5 q60 0 97 -35.5 q37 -35.5 37 -126.5 l0 -456 q0 -49 14 -67 q14 -18 40 -18 q14 0 27 3 q13 3 23 8 l0 -81 q-12 -8 -32 -12 q-20 -4 -41 -4 Z" /><glyph glyph-name="uni0286" unicode="&#x286;" d="M39 -240 q-64 0 -100 33.5 q-36 33.5 -36 84.5 q0 54 32 88 q32 34 105 34 l37 0 l0 597 q0 64 18 101 q18 37 49.5 52.5 q31.5 15.5 72.5 15.5 q23 0 43 -5 q20 -5 30 -11 l0 -81 q-8 4 -22 7.5 q-14 3.5 -28 3.5 q-26 0 -40 -17.5 q-14 -17.5 -14 -68.5 l0 -594 l68 0 l0 -73 l-69 0 q-3 -91 -42 -129 q-39 -38 -104 -38 ZM29 -165 q23 0 35.5 16.5 q12.5 16.5 12.5 55.5 l0 20 l-33 0 q-25 0 -41.5 -11.5 q-16.5 -11.5 -16.5 -36.5 q0 -18 9.5 -31 q9.5 -13 33.5 -13 Z" /></font>
</defs>
</svg>
