<?xml version="1.0" encoding="UTF-8"?>
<svg width="20px" height="20px" viewBox="0 0 20 20" version="1.1" xmlns="http://www.w3.org/2000/svg" xmlns:xlink="http://www.w3.org/1999/xlink">
    <!-- Generator: Sketch 49 (51002) - http://www.bohemiancoding.com/sketch -->
    <title>laud / logos / licence sa</title>
    <desc>Created with Sketch.</desc>
    <defs></defs>
    <g id="laud-/-logos-/-licence-sa" stroke="none" stroke-width="1" fill="none" fill-rule="evenodd">
        <g id="SA" transform="translate(1.000000, 1.000000)" fill-rule="nonzero">
            <path d="M16.1466667,8.918 C16.1466667,12.9839203 12.8912793,16.28 8.87555556,16.28 C4.85983177,16.28 1.60444444,12.9839203 1.60444444,8.918 C1.60444444,4.85207967 4.85983177,1.556 8.87555556,1.556 C10.8070583,1.55599415 12.6591931,2.33410161 14.0233031,3.71863994 C15.3874132,5.10317828 16.1513892,6.98035934 16.1466667,8.936" id="Shape" fill="#FFFFFF"></path>
            <path d="M5.16,7.48022442 C5.31943341,5.68944456 6.83419418,4.33757913 8.60888889,4.40222442 C9.72718911,4.36766263 10.8070004,4.8174746 11.5774986,5.63884435 C12.3479968,6.4602141 12.736091,7.57522494 12.6444444,8.70422442 C12.7041988,9.83107747 12.2968997,10.9320749 11.5206981,11.7418978 C10.7444966,12.5517206 9.6697878,12.9969247 8.55555556,12.9702244 C6.73108423,13.0842911 5.15127184,11.7006716 5,9.85622442 L7.08,9.85622442 C7.08,10.9182244 7.82666667,11.2962244 8.85777778,11.2962244 C9.88888889,11.2962244 10.6355556,10.2522244 10.6355556,8.63222442 C10.6355556,7.01222442 10.0133333,6.04022442 8.84,6.04022442 C8.41808359,5.97380787 7.98781942,6.0869475 7.65114059,6.35283961 C7.31446177,6.61873171 7.10132431,7.01371851 7.06222222,7.44422442 L7.63111111,7.44422442 L6.12,9.04622442 L4.55555556,7.46222442 L5.17777778,7.46222442" id="Shape" fill="#000000"></path>
            <path d="M8.87555556,2.222 C10.5976776,2.18799119 12.2549875,2.88662469 13.4444444,4.148 C14.6399765,5.36960083 15.283402,7.03735982 15.2222222,8.756 C15.313562,10.4903012 14.6663199,12.1810594 13.4444444,13.4 C12.2232828,14.5988816 10.5758623,15.2479139 8.87555556,15.2 C7.17957701,15.2533984 5.53562346,14.603202 4.32444444,13.4 C3.07772048,12.1888537 2.38801083,10.5050275 2.42222222,8.756 C2.41317475,7.0188368 3.10699323,5.35367245 4.34222222,4.148 C5.51816845,2.88846971 7.16403905,2.18921674 8.87555556,2.222 Z M8.87555556,0.8 C6.79076477,0.754125306 4.78117675,1.58887725 3.32888889,3.104 C1.82169358,4.58613829 0.980033715,6.62876969 1,8.756 C0.975053272,10.8736934 1.81828331,12.9071008 3.32888889,14.372 C4.77450943,15.8902728 6.77503982,16.7369603 8.85777778,16.712 C10.9694334,16.7336558 12.9983978,15.8820205 14.4755556,14.354 C15.9598077,12.8854095 16.7716755,10.856465 16.7155556,8.756 C16.7600413,6.63474632 15.936495,4.58923103 14.44,3.104 C12.9719004,1.59061676 10.9524493,0.757110824 8.85777778,0.8 L8.87555556,0.8 Z" id="Shape" fill="#000000"></path>
        </g>
    </g>
</svg>